<svg width="766" height="545" viewBox="0 0 766 545" fill="none" xmlns="http://www.w3.org/2000/svg">
<rect width="765.952" height="545" rx="20" fill="#020C27"/>
<path d="M68.8838 78.7008C68.8838 75.9808 69.5105 73.5408 70.7638 71.3808C72.0438 69.2208 73.7638 67.5408 75.9238 66.3408C78.1105 65.1141 80.4971 64.5008 83.0838 64.5008C86.0438 64.5008 88.6705 65.2341 90.9638 66.7008C93.2838 68.1408 94.9638 70.1941 96.0038 72.8608H90.5238C89.8038 71.3941 88.8038 70.3008 87.5238 69.5808C86.2438 68.8608 84.7638 68.5008 83.0838 68.5008C81.2438 68.5008 79.6038 68.9141 78.1638 69.7408C76.7238 70.5674 75.5905 71.7541 74.7638 73.3008C73.9638 74.8474 73.5638 76.6474 73.5638 78.7008C73.5638 80.7541 73.9638 82.5541 74.7638 84.1008C75.5905 85.6474 76.7238 86.8474 78.1638 87.7008C79.6038 88.5274 81.2438 88.9408 83.0838 88.9408C84.7638 88.9408 86.2438 88.5808 87.5238 87.8608C88.8038 87.1408 89.8038 86.0474 90.5238 84.5808H96.0038C94.9638 87.2474 93.2838 89.3008 90.9638 90.7408C88.6705 92.1808 86.0438 92.9008 83.0838 92.9008C80.4705 92.9008 78.0838 92.3008 75.9238 91.1008C73.7638 89.8741 72.0438 88.1808 70.7638 86.0208C69.5105 83.8608 68.8838 81.4208 68.8838 78.7008ZM99.8213 81.5408C99.8213 79.3274 100.275 77.3674 101.181 75.6608C102.115 73.9541 103.368 72.6341 104.941 71.7008C106.541 70.7408 108.301 70.2608 110.221 70.2608C111.955 70.2608 113.461 70.6074 114.741 71.3008C116.048 71.9674 117.088 72.8074 117.861 73.8208V70.6208H122.461V92.6608H117.861V89.3808C117.088 90.4208 116.035 91.2874 114.701 91.9808C113.368 92.6741 111.848 93.0208 110.141 93.0208C108.248 93.0208 106.515 92.5408 104.941 91.5808C103.368 90.5941 102.115 89.2341 101.181 87.5008C100.275 85.7408 99.8213 83.7541 99.8213 81.5408ZM117.861 81.6208C117.861 80.1008 117.541 78.7808 116.901 77.6608C116.288 76.5408 115.475 75.6874 114.461 75.1008C113.448 74.5141 112.355 74.2208 111.181 74.2208C110.008 74.2208 108.915 74.5141 107.901 75.1008C106.888 75.6608 106.061 76.5008 105.421 77.6208C104.808 78.7141 104.501 80.0208 104.501 81.5408C104.501 83.0608 104.808 84.3941 105.421 85.5408C106.061 86.6874 106.888 87.5674 107.901 88.1808C108.941 88.7674 110.035 89.0608 111.181 89.0608C112.355 89.0608 113.448 88.7674 114.461 88.1808C115.475 87.5941 116.288 86.7408 116.901 85.6208C117.541 84.4741 117.861 83.1408 117.861 81.6208ZM126.931 81.5408C126.931 79.3274 127.384 77.3674 128.291 75.6608C129.224 73.9541 130.477 72.6341 132.051 71.7008C133.651 70.7408 135.424 70.2608 137.371 70.2608C138.811 70.2608 140.224 70.5808 141.611 71.2208C143.024 71.8341 144.144 72.6608 144.971 73.7008V63.0608H149.571V92.6608H144.971V89.3408C144.224 90.4074 143.184 91.2874 141.851 91.9808C140.544 92.6741 139.037 93.0208 137.331 93.0208C135.411 93.0208 133.651 92.5408 132.051 91.5808C130.477 90.5941 129.224 89.2341 128.291 87.5008C127.384 85.7408 126.931 83.7541 126.931 81.5408ZM144.971 81.6208C144.971 80.1008 144.651 78.7808 144.011 77.6608C143.397 76.5408 142.584 75.6874 141.571 75.1008C140.557 74.5141 139.464 74.2208 138.291 74.2208C137.117 74.2208 136.024 74.5141 135.011 75.1008C133.997 75.6608 133.171 76.5008 132.531 77.6208C131.917 78.7141 131.611 80.0208 131.611 81.5408C131.611 83.0608 131.917 84.3941 132.531 85.5408C133.171 86.6874 133.997 87.5674 135.011 88.1808C136.051 88.7674 137.144 89.0608 138.291 89.0608C139.464 89.0608 140.557 88.7674 141.571 88.1808C142.584 87.5941 143.397 86.7408 144.011 85.6208C144.651 84.4741 144.971 83.1408 144.971 81.6208ZM154.04 81.5408C154.04 79.3274 154.493 77.3674 155.4 75.6608C156.333 73.9541 157.587 72.6341 159.16 71.7008C160.76 70.7408 162.52 70.2608 164.44 70.2608C166.173 70.2608 167.68 70.6074 168.96 71.3008C170.267 71.9674 171.307 72.8074 172.08 73.8208V70.6208H176.68V92.6608H172.08V89.3808C171.307 90.4208 170.253 91.2874 168.92 91.9808C167.587 92.6741 166.067 93.0208 164.36 93.0208C162.467 93.0208 160.733 92.5408 159.16 91.5808C157.587 90.5941 156.333 89.2341 155.4 87.5008C154.493 85.7408 154.04 83.7541 154.04 81.5408ZM172.08 81.6208C172.08 80.1008 171.76 78.7808 171.12 77.6608C170.507 76.5408 169.693 75.6874 168.68 75.1008C167.667 74.5141 166.573 74.2208 165.4 74.2208C164.227 74.2208 163.133 74.5141 162.12 75.1008C161.107 75.6608 160.28 76.5008 159.64 77.6208C159.027 78.7141 158.72 80.0208 158.72 81.5408C158.72 83.0608 159.027 84.3941 159.64 85.5408C160.28 86.6874 161.107 87.5674 162.12 88.1808C163.16 88.7674 164.253 89.0608 165.4 89.0608C166.573 89.0608 167.667 88.7674 168.68 88.1808C169.693 87.5941 170.507 86.7408 171.12 85.6208C171.76 84.4741 172.08 83.1408 172.08 81.6208ZM190.669 93.0208C188.936 93.0208 187.376 92.7141 185.989 92.1008C184.629 91.4608 183.549 90.6074 182.749 89.5408C181.949 88.4474 181.523 87.2341 181.469 85.9008H186.189C186.269 86.8341 186.709 87.6208 187.509 88.2608C188.336 88.8741 189.363 89.1808 190.589 89.1808C191.869 89.1808 192.856 88.9408 193.549 88.4608C194.269 87.9541 194.629 87.3141 194.629 86.5408C194.629 85.7141 194.229 85.1008 193.429 84.7008C192.656 84.3008 191.416 83.8608 189.709 83.3808C188.056 82.9274 186.709 82.4874 185.669 82.0608C184.629 81.6341 183.723 80.9808 182.949 80.1008C182.203 79.2208 181.829 78.0608 181.829 76.6208C181.829 75.4474 182.176 74.3808 182.869 73.4208C183.563 72.4341 184.549 71.6608 185.829 71.1008C187.136 70.5408 188.629 70.2608 190.309 70.2608C192.816 70.2608 194.829 70.9008 196.349 72.1808C197.896 73.4341 198.723 75.1541 198.829 77.3408H194.269C194.189 76.3541 193.789 75.5674 193.069 74.9808C192.349 74.3941 191.376 74.1008 190.149 74.1008C188.949 74.1008 188.029 74.3274 187.389 74.7808C186.749 75.2341 186.429 75.8341 186.429 76.5808C186.429 77.1674 186.643 77.6608 187.069 78.0608C187.496 78.4608 188.016 78.7808 188.629 79.0208C189.243 79.2341 190.149 79.5141 191.349 79.8608C192.949 80.2874 194.256 80.7274 195.269 81.1808C196.309 81.6074 197.203 82.2474 197.949 83.1008C198.696 83.9541 199.083 85.0874 199.109 86.5008C199.109 87.7541 198.763 88.8741 198.069 89.8608C197.376 90.8474 196.389 91.6208 195.109 92.1808C193.856 92.7408 192.376 93.0208 190.669 93.0208ZM209.357 74.3408V86.5408C209.357 87.3674 209.543 87.9674 209.917 88.3408C210.317 88.6874 210.983 88.8608 211.917 88.8608H214.717V92.6608H211.117C209.063 92.6608 207.49 92.1808 206.397 91.2208C205.303 90.2608 204.757 88.7008 204.757 86.5408V74.3408H202.157V70.6208H204.757V65.1408H209.357V70.6208H214.717V74.3408H209.357ZM223.479 73.8208C224.146 72.7008 225.026 71.8341 226.119 71.2208C227.239 70.5808 228.559 70.2608 230.079 70.2608V74.9808H228.919C227.133 74.9808 225.773 75.4341 224.839 76.3408C223.933 77.2474 223.479 78.8208 223.479 81.0608V92.6608H218.919V70.6208H223.479V73.8208ZM254.471 81.1008C254.471 81.9274 254.418 82.6741 254.311 83.3408H237.471C237.604 85.1008 238.258 86.5141 239.431 87.5808C240.604 88.6474 242.044 89.1808 243.751 89.1808C246.204 89.1808 247.938 88.1541 248.951 86.1008H253.871C253.204 88.1274 251.991 89.7941 250.231 91.1008C248.498 92.3808 246.338 93.0208 243.751 93.0208C241.644 93.0208 239.751 92.5541 238.071 91.6208C236.418 90.6608 235.111 89.3274 234.151 87.6208C233.218 85.8874 232.751 83.8874 232.751 81.6208C232.751 79.3541 233.204 77.3674 234.111 75.6608C235.044 73.9274 236.338 72.5941 237.991 71.6608C239.671 70.7274 241.591 70.2608 243.751 70.2608C245.831 70.2608 247.684 70.7141 249.311 71.6208C250.938 72.5274 252.204 73.8074 253.111 75.4608C254.018 77.0874 254.471 78.9674 254.471 81.1008ZM249.711 79.6608C249.684 77.9808 249.084 76.6341 247.911 75.6208C246.738 74.6074 245.284 74.1008 243.551 74.1008C241.978 74.1008 240.631 74.6074 239.511 75.6208C238.391 76.6074 237.724 77.9541 237.511 79.6608H249.711ZM275.878 76.2608V80.1008H259.438V76.2608H275.878ZM290.357 93.0208C288.624 93.0208 287.064 92.7141 285.677 92.1008C284.317 91.4608 283.237 90.6074 282.437 89.5408C281.637 88.4474 281.21 87.2341 281.157 85.9008H285.877C285.957 86.8341 286.397 87.6208 287.197 88.2608C288.024 88.8741 289.05 89.1808 290.277 89.1808C291.557 89.1808 292.544 88.9408 293.237 88.4608C293.957 87.9541 294.317 87.3141 294.317 86.5408C294.317 85.7141 293.917 85.1008 293.117 84.7008C292.344 84.3008 291.104 83.8608 289.397 83.3808C287.744 82.9274 286.397 82.4874 285.357 82.0608C284.317 81.6341 283.41 80.9808 282.637 80.1008C281.89 79.2208 281.517 78.0608 281.517 76.6208C281.517 75.4474 281.864 74.3808 282.557 73.4208C283.25 72.4341 284.237 71.6608 285.517 71.1008C286.824 70.5408 288.317 70.2608 289.997 70.2608C292.504 70.2608 294.517 70.9008 296.037 72.1808C297.584 73.4341 298.41 75.1541 298.517 77.3408H293.957C293.877 76.3541 293.477 75.5674 292.757 74.9808C292.037 74.3941 291.064 74.1008 289.837 74.1008C288.637 74.1008 287.717 74.3274 287.077 74.7808C286.437 75.2341 286.117 75.8341 286.117 76.5808C286.117 77.1674 286.33 77.6608 286.757 78.0608C287.184 78.4608 287.704 78.7808 288.317 79.0208C288.93 79.2341 289.837 79.5141 291.037 79.8608C292.637 80.2874 293.944 80.7274 294.957 81.1808C295.997 81.6074 296.89 82.2474 297.637 83.1008C298.384 83.9541 298.77 85.0874 298.797 86.5008C298.797 87.7541 298.45 88.8741 297.757 89.8608C297.064 90.8474 296.077 91.6208 294.797 92.1808C293.544 92.7408 292.064 93.0208 290.357 93.0208ZM323.924 81.1008C323.924 81.9274 323.871 82.6741 323.764 83.3408H306.924C307.057 85.1008 307.711 86.5141 308.884 87.5808C310.057 88.6474 311.497 89.1808 313.204 89.1808C315.657 89.1808 317.391 88.1541 318.404 86.1008H323.324C322.657 88.1274 321.444 89.7941 319.684 91.1008C317.951 92.3808 315.791 93.0208 313.204 93.0208C311.097 93.0208 309.204 92.5541 307.524 91.6208C305.871 90.6608 304.564 89.3274 303.604 87.6208C302.671 85.8874 302.204 83.8874 302.204 81.6208C302.204 79.3541 302.657 77.3674 303.564 75.6608C304.497 73.9274 305.791 72.5941 307.444 71.6608C309.124 70.7274 311.044 70.2608 313.204 70.2608C315.284 70.2608 317.137 70.7141 318.764 71.6208C320.391 72.5274 321.657 73.8074 322.564 75.4608C323.471 77.0874 323.924 78.9674 323.924 81.1008ZM319.164 79.6608C319.137 77.9808 318.537 76.6341 317.364 75.6208C316.191 74.6074 314.737 74.1008 313.004 74.1008C311.431 74.1008 310.084 74.6074 308.964 75.6208C307.844 76.6074 307.177 77.9541 306.964 79.6608H319.164ZM349.922 70.2608C351.656 70.2608 353.202 70.6208 354.562 71.3408C355.949 72.0608 357.029 73.1274 357.802 74.5408C358.576 75.9541 358.962 77.6608 358.962 79.6608V92.6608H354.442V80.3408C354.442 78.3674 353.949 76.8608 352.962 75.8208C351.976 74.7541 350.629 74.2208 348.922 74.2208C347.216 74.2208 345.856 74.7541 344.842 75.8208C343.856 76.8608 343.362 78.3674 343.362 80.3408V92.6608H338.802V70.6208H343.362V73.1408C344.109 72.2341 345.056 71.5274 346.202 71.0208C347.376 70.5141 348.616 70.2608 349.922 70.2608ZM374.339 93.0208C372.259 93.0208 370.379 92.5541 368.699 91.6208C367.019 90.6608 365.699 89.3274 364.739 87.6208C363.779 85.8874 363.299 83.8874 363.299 81.6208C363.299 79.3808 363.792 77.3941 364.779 75.6608C365.765 73.9274 367.112 72.5941 368.819 71.6608C370.525 70.7274 372.432 70.2608 374.539 70.2608C376.645 70.2608 378.552 70.7274 380.259 71.6608C381.965 72.5941 383.312 73.9274 384.299 75.6608C385.285 77.3941 385.779 79.3808 385.779 81.6208C385.779 83.8608 385.272 85.8474 384.259 87.5808C383.245 89.3141 381.859 90.6608 380.099 91.6208C378.365 92.5541 376.445 93.0208 374.339 93.0208ZM374.339 89.0608C375.512 89.0608 376.605 88.7808 377.619 88.2208C378.659 87.6608 379.499 86.8208 380.139 85.7008C380.779 84.5808 381.099 83.2208 381.099 81.6208C381.099 80.0208 380.792 78.6741 380.179 77.5808C379.565 76.4608 378.752 75.6208 377.739 75.0608C376.725 74.5008 375.632 74.2208 374.459 74.2208C373.285 74.2208 372.192 74.5008 371.179 75.0608C370.192 75.6208 369.405 76.4608 368.819 77.5808C368.232 78.6741 367.939 80.0208 367.939 81.6208C367.939 83.9941 368.539 85.8341 369.739 87.1408C370.965 88.4208 372.499 89.0608 374.339 89.0608ZM417.437 86.9808H405.797L403.797 92.6608H399.037L408.997 64.8208H414.277L424.237 92.6608H419.437L417.437 86.9808ZM416.157 83.2608L411.637 70.3408L407.077 83.2608H416.157ZM433.128 73.8608C433.901 72.8474 434.955 71.9941 436.288 71.3008C437.621 70.6074 439.128 70.2608 440.808 70.2608C442.728 70.2608 444.475 70.7408 446.048 71.7008C447.648 72.6341 448.901 73.9541 449.808 75.6608C450.715 77.3674 451.168 79.3274 451.168 81.5408C451.168 83.7541 450.715 85.7408 449.808 87.5008C448.901 89.2341 447.648 90.5941 446.048 91.5808C444.475 92.5408 442.728 93.0208 440.808 93.0208C439.128 93.0208 437.635 92.6874 436.328 92.0208C435.021 91.3274 433.955 90.4741 433.128 89.4608V103.141H428.568V70.6208H433.128V73.8608ZM446.528 81.5408C446.528 80.0208 446.208 78.7141 445.568 77.6208C444.955 76.5008 444.128 75.6608 443.088 75.1008C442.075 74.5141 440.981 74.2208 439.808 74.2208C438.661 74.2208 437.568 74.5141 436.528 75.1008C435.515 75.6874 434.688 76.5408 434.048 77.6608C433.435 78.7808 433.128 80.1008 433.128 81.6208C433.128 83.1408 433.435 84.4741 434.048 85.6208C434.688 86.7408 435.515 87.5941 436.528 88.1808C437.568 88.7674 438.661 89.0608 439.808 89.0608C440.981 89.0608 442.075 88.7674 443.088 88.1808C444.128 87.5674 444.955 86.6874 445.568 85.5408C446.208 84.3941 446.528 83.0608 446.528 81.5408ZM460.237 73.8608C461.011 72.8474 462.064 71.9941 463.397 71.3008C464.731 70.6074 466.237 70.2608 467.917 70.2608C469.837 70.2608 471.584 70.7408 473.157 71.7008C474.757 72.6341 476.011 73.9541 476.917 75.6608C477.824 77.3674 478.277 79.3274 478.277 81.5408C478.277 83.7541 477.824 85.7408 476.917 87.5008C476.011 89.2341 474.757 90.5941 473.157 91.5808C471.584 92.5408 469.837 93.0208 467.917 93.0208C466.237 93.0208 464.744 92.6874 463.437 92.0208C462.131 91.3274 461.064 90.4741 460.237 89.4608V103.141H455.677V70.6208H460.237V73.8608ZM473.637 81.5408C473.637 80.0208 473.317 78.7141 472.677 77.6208C472.064 76.5008 471.237 75.6608 470.197 75.1008C469.184 74.5141 468.091 74.2208 466.917 74.2208C465.771 74.2208 464.677 74.5141 463.637 75.1008C462.624 75.6874 461.797 76.5408 461.157 77.6608C460.544 78.7808 460.237 80.1008 460.237 81.6208C460.237 83.1408 460.544 84.4741 461.157 85.6208C461.797 86.7408 462.624 87.5941 463.637 88.1808C464.677 88.7674 465.771 89.0608 466.917 89.0608C468.091 89.0608 469.184 88.7674 470.197 88.1808C471.237 87.5674 472.064 86.6874 472.677 85.5408C473.317 84.3941 473.637 83.0608 473.637 81.5408Z" fill="#F5F5F5"/>
<rect x="128.68" y="399.018" width="508.592" height="81.75" rx="20" fill="#F5F5F5"/>
<path d="M304.18 439.84C304.18 437.899 304.6 436.172 305.44 434.66C306.28 433.13 307.447 431.944 308.94 431.104C310.452 430.246 312.16 429.816 314.064 429.816C316.398 429.816 318.395 430.432 320.056 431.664C321.718 432.896 322.828 434.576 323.388 436.704H318.124C317.732 435.883 317.172 435.258 316.444 434.828C315.735 434.399 314.923 434.184 314.008 434.184C312.534 434.184 311.339 434.698 310.424 435.724C309.51 436.751 309.052 438.123 309.052 439.84C309.052 441.558 309.51 442.93 310.424 443.956C311.339 444.983 312.534 445.496 314.008 445.496C314.923 445.496 315.735 445.282 316.444 444.852C317.172 444.423 317.732 443.798 318.124 442.976H323.388C322.828 445.104 321.718 446.784 320.056 448.016C318.395 449.23 316.398 449.836 314.064 449.836C312.16 449.836 310.452 449.416 308.94 448.576C307.447 447.718 306.28 446.532 305.44 445.02C304.6 443.508 304.18 441.782 304.18 439.84ZM331.108 436.676C331.668 435.818 332.368 435.146 333.208 434.66C334.048 434.156 334.982 433.904 336.008 433.904V438.972H334.692C333.498 438.972 332.602 439.234 332.004 439.756C331.407 440.26 331.108 441.156 331.108 442.444V449.696H326.32V434.072H331.108V436.676ZM340.705 432.448C339.865 432.448 339.174 432.206 338.633 431.72C338.11 431.216 337.849 430.6 337.849 429.872C337.849 429.126 338.11 428.51 338.633 428.024C339.174 427.52 339.865 427.268 340.705 427.268C341.526 427.268 342.198 427.52 342.721 428.024C343.262 428.51 343.533 429.126 343.533 429.872C343.533 430.6 343.262 431.216 342.721 431.72C342.198 432.206 341.526 432.448 340.705 432.448ZM343.085 434.072V449.696H338.297V434.072H343.085ZM345.603 441.856C345.603 440.251 345.901 438.842 346.499 437.628C347.115 436.415 347.945 435.482 348.991 434.828C350.036 434.175 351.203 433.848 352.491 433.848C353.592 433.848 354.553 434.072 355.375 434.52C356.215 434.968 356.859 435.556 357.307 436.284V434.072H362.095V449.696H357.307V447.484C356.84 448.212 356.187 448.8 355.347 449.248C354.525 449.696 353.564 449.92 352.463 449.92C351.193 449.92 350.036 449.594 348.991 448.94C347.945 448.268 347.115 447.326 346.499 446.112C345.901 444.88 345.603 443.462 345.603 441.856ZM357.307 441.884C357.307 440.69 356.971 439.747 356.299 439.056C355.645 438.366 354.843 438.02 353.891 438.02C352.939 438.02 352.127 438.366 351.455 439.056C350.801 439.728 350.475 440.662 350.475 441.856C350.475 443.051 350.801 444.003 351.455 444.712C352.127 445.403 352.939 445.748 353.891 445.748C354.843 445.748 355.645 445.403 356.299 444.712C356.971 444.022 357.307 443.079 357.307 441.884ZM370.347 436.676C370.907 435.818 371.607 435.146 372.447 434.66C373.287 434.156 374.22 433.904 375.247 433.904V438.972H373.931C372.736 438.972 371.84 439.234 371.243 439.756C370.645 440.26 370.347 441.156 370.347 442.444V449.696H365.559V434.072H370.347V436.676ZM382.517 441.884C382.517 440.26 382.844 438.842 383.497 437.628C384.169 436.415 385.093 435.482 386.269 434.828C387.464 434.175 388.826 433.848 390.357 433.848C392.317 433.848 393.95 434.362 395.257 435.388C396.582 436.415 397.45 437.862 397.861 439.728H392.765C392.336 438.534 391.505 437.936 390.273 437.936C389.396 437.936 388.696 438.282 388.173 438.972C387.65 439.644 387.389 440.615 387.389 441.884C387.389 443.154 387.65 444.134 388.173 444.824C388.696 445.496 389.396 445.832 390.273 445.832C391.505 445.832 392.336 445.235 392.765 444.04H397.861C397.45 445.87 396.582 447.307 395.257 448.352C393.932 449.398 392.298 449.92 390.357 449.92C388.826 449.92 387.464 449.594 386.269 448.94C385.093 448.287 384.169 447.354 383.497 446.14C382.844 444.927 382.517 443.508 382.517 441.884ZM407.534 449.92C406.003 449.92 404.622 449.594 403.39 448.94C402.177 448.287 401.215 447.354 400.506 446.14C399.815 444.927 399.47 443.508 399.47 441.884C399.47 440.279 399.825 438.87 400.534 437.656C401.243 436.424 402.214 435.482 403.446 434.828C404.678 434.175 406.059 433.848 407.59 433.848C409.121 433.848 410.502 434.175 411.734 434.828C412.966 435.482 413.937 436.424 414.646 437.656C415.355 438.87 415.71 440.279 415.71 441.884C415.71 443.49 415.346 444.908 414.618 446.14C413.909 447.354 412.929 448.287 411.678 448.94C410.446 449.594 409.065 449.92 407.534 449.92ZM407.534 445.776C408.449 445.776 409.223 445.44 409.858 444.768C410.511 444.096 410.838 443.135 410.838 441.884C410.838 440.634 410.521 439.672 409.886 439C409.27 438.328 408.505 437.992 407.59 437.992C406.657 437.992 405.882 438.328 405.266 439C404.65 439.654 404.342 440.615 404.342 441.884C404.342 443.135 404.641 444.096 405.238 444.768C405.854 445.44 406.619 445.776 407.534 445.776ZM427.77 433.904C429.599 433.904 431.055 434.502 432.138 435.696C433.239 436.872 433.79 438.496 433.79 440.568V449.696H429.03V441.212C429.03 440.167 428.759 439.355 428.218 438.776C427.677 438.198 426.949 437.908 426.034 437.908C425.119 437.908 424.391 438.198 423.85 438.776C423.309 439.355 423.038 440.167 423.038 441.212V449.696H418.25V434.072H423.038V436.144C423.523 435.454 424.177 434.912 424.998 434.52C425.819 434.11 426.743 433.904 427.77 433.904ZM445.825 445.636V449.696H443.389C441.653 449.696 440.3 449.276 439.329 448.436C438.359 447.578 437.873 446.187 437.873 444.264V438.048H435.969V434.072H437.873V430.264H442.661V434.072H445.797V438.048H442.661V444.32C442.661 444.787 442.773 445.123 442.997 445.328C443.221 445.534 443.595 445.636 444.117 445.636H445.825ZM447.54 441.856C447.54 440.251 447.839 438.842 448.436 437.628C449.052 436.415 449.883 435.482 450.928 434.828C451.974 434.175 453.14 433.848 454.428 433.848C455.53 433.848 456.491 434.072 457.312 434.52C458.152 434.968 458.796 435.556 459.244 436.284V434.072H464.032V449.696H459.244V447.484C458.778 448.212 458.124 448.8 457.284 449.248C456.463 449.696 455.502 449.92 454.4 449.92C453.131 449.92 451.974 449.594 450.928 448.94C449.883 448.268 449.052 447.326 448.436 446.112C447.839 444.88 447.54 443.462 447.54 441.856ZM459.244 441.884C459.244 440.69 458.908 439.747 458.236 439.056C457.583 438.366 456.78 438.02 455.828 438.02C454.876 438.02 454.064 438.366 453.392 439.056C452.739 439.728 452.412 440.662 452.412 441.856C452.412 443.051 452.739 444.003 453.392 444.712C454.064 445.403 454.876 445.748 455.828 445.748C456.78 445.748 457.583 445.403 458.236 444.712C458.908 444.022 459.244 443.079 459.244 441.884Z" fill="#DA3BBD"/>
<path d="M136.28 290.943C135.113 290.943 134.063 290.743 133.13 290.343C132.197 289.926 131.463 289.343 130.93 288.593C130.397 287.843 130.13 286.968 130.13 285.968H133.18C133.247 286.718 133.538 287.334 134.055 287.818C134.588 288.301 135.33 288.543 136.28 288.543C137.263 288.543 138.03 288.309 138.58 287.843C139.13 287.359 139.405 286.743 139.405 285.993C139.405 285.409 139.23 284.934 138.88 284.568C138.547 284.201 138.122 283.918 137.605 283.718C137.105 283.518 136.405 283.301 135.505 283.068C134.372 282.768 133.447 282.468 132.73 282.168C132.03 281.851 131.43 281.368 130.93 280.718C130.43 280.068 130.18 279.201 130.18 278.118C130.18 277.118 130.43 276.243 130.93 275.493C131.43 274.743 132.13 274.168 133.03 273.768C133.93 273.368 134.972 273.168 136.155 273.168C137.838 273.168 139.213 273.593 140.28 274.443C141.363 275.276 141.963 276.426 142.08 277.893H138.93C138.88 277.259 138.58 276.718 138.03 276.268C137.48 275.818 136.755 275.593 135.855 275.593C135.038 275.593 134.372 275.801 133.855 276.218C133.338 276.634 133.08 277.234 133.08 278.018C133.08 278.551 133.238 278.993 133.555 279.343C133.888 279.676 134.305 279.943 134.805 280.143C135.305 280.343 135.988 280.559 136.855 280.793C138.005 281.109 138.938 281.426 139.655 281.743C140.388 282.059 141.005 282.551 141.505 283.218C142.022 283.868 142.28 284.743 142.28 285.843C142.28 286.726 142.038 287.559 141.555 288.343C141.088 289.126 140.397 289.759 139.48 290.243C138.58 290.709 137.513 290.943 136.28 290.943ZM158.268 283.543C158.268 284.059 158.235 284.526 158.168 284.943H147.643C147.726 286.043 148.135 286.926 148.868 287.593C149.601 288.259 150.501 288.593 151.568 288.593C153.101 288.593 154.185 287.951 154.818 286.668H157.893C157.476 287.934 156.718 288.976 155.618 289.793C154.535 290.593 153.185 290.993 151.568 290.993C150.251 290.993 149.068 290.701 148.018 290.118C146.985 289.518 146.168 288.684 145.568 287.618C144.985 286.534 144.693 285.284 144.693 283.868C144.693 282.451 144.976 281.209 145.543 280.143C146.126 279.059 146.935 278.226 147.968 277.643C149.018 277.059 150.218 276.768 151.568 276.768C152.868 276.768 154.026 277.051 155.043 277.618C156.06 278.184 156.851 278.984 157.418 280.018C157.985 281.034 158.268 282.209 158.268 283.543ZM155.293 282.643C155.276 281.593 154.901 280.751 154.168 280.118C153.435 279.484 152.526 279.168 151.443 279.168C150.46 279.168 149.618 279.484 148.918 280.118C148.218 280.734 147.801 281.576 147.668 282.643H155.293ZM168.023 276.768C169.106 276.768 170.073 276.993 170.923 277.443C171.789 277.893 172.464 278.559 172.948 279.443C173.431 280.326 173.673 281.393 173.673 282.643V290.768H170.848V283.068C170.848 281.834 170.539 280.893 169.923 280.243C169.306 279.576 168.464 279.243 167.398 279.243C166.331 279.243 165.481 279.576 164.848 280.243C164.231 280.893 163.923 281.834 163.923 283.068V290.768H161.073V276.993H163.923V278.568C164.389 278.001 164.981 277.559 165.698 277.243C166.431 276.926 167.206 276.768 168.023 276.768ZM184.433 276.768C185.483 276.768 186.416 276.993 187.233 277.443C188.066 277.893 188.716 278.559 189.183 279.443C189.666 280.326 189.908 281.393 189.908 282.643V290.768H187.083V283.068C187.083 281.834 186.775 280.893 186.158 280.243C185.541 279.576 184.7 279.243 183.633 279.243C182.566 279.243 181.716 279.576 181.083 280.243C180.466 280.893 180.158 281.834 180.158 283.068V290.768H177.308V272.268H180.158V278.593C180.641 278.009 181.25 277.559 181.983 277.243C182.733 276.926 183.55 276.768 184.433 276.768ZM192.593 283.818C192.593 282.434 192.877 281.209 193.443 280.143C194.027 279.076 194.81 278.251 195.793 277.668C196.793 277.068 197.893 276.768 199.093 276.768C200.177 276.768 201.118 276.984 201.918 277.418C202.735 277.834 203.385 278.359 203.868 278.993V276.993H206.743V290.768H203.868V288.718C203.385 289.368 202.727 289.909 201.893 290.343C201.06 290.776 200.11 290.993 199.043 290.993C197.86 290.993 196.777 290.693 195.793 290.093C194.81 289.476 194.027 288.626 193.443 287.543C192.877 286.443 192.593 285.201 192.593 283.818ZM203.868 283.868C203.868 282.918 203.668 282.093 203.268 281.393C202.885 280.693 202.377 280.159 201.743 279.793C201.11 279.426 200.427 279.243 199.693 279.243C198.96 279.243 198.277 279.426 197.643 279.793C197.01 280.143 196.493 280.668 196.093 281.368C195.71 282.051 195.518 282.868 195.518 283.818C195.518 284.768 195.71 285.601 196.093 286.318C196.493 287.034 197.01 287.584 197.643 287.968C198.293 288.334 198.977 288.518 199.693 288.518C200.427 288.518 201.11 288.334 201.743 287.968C202.377 287.601 202.885 287.068 203.268 286.368C203.668 285.651 203.868 284.818 203.868 283.868Z" fill="#F5F5F5"/>
<rect x="130.18" y="309.036" width="505.592" height="55.3929" rx="18.5" stroke="#DA3BBD" stroke-width="3"/>
<rect x="130.18" y="180.571" width="505.592" height="55.3929" rx="18.5" stroke="#DA3BBD" stroke-width="3"/>
<path d="M145.66 147.229V152.329H151.66V154.654H145.66V159.979H152.41V162.304H142.81V144.904H152.41V147.229H145.66ZM172.596 148.304C173.679 148.304 174.646 148.529 175.496 148.979C176.362 149.429 177.037 150.095 177.521 150.979C178.021 151.862 178.271 152.929 178.271 154.179V162.304H175.446V154.604C175.446 153.37 175.137 152.429 174.521 151.779C173.904 151.112 173.062 150.779 171.996 150.779C170.929 150.779 170.079 151.112 169.446 151.779C168.829 152.429 168.521 153.37 168.521 154.604V162.304H165.696V154.604C165.696 153.37 165.387 152.429 164.771 151.779C164.154 151.112 163.312 150.779 162.246 150.779C161.179 150.779 160.329 151.112 159.696 151.779C159.079 152.429 158.771 153.37 158.771 154.604V162.304H155.921V148.529H158.771V150.104C159.237 149.537 159.829 149.095 160.546 148.779C161.262 148.462 162.029 148.304 162.846 148.304C163.946 148.304 164.929 148.537 165.796 149.004C166.662 149.47 167.329 150.145 167.796 151.029C168.212 150.195 168.862 149.537 169.746 149.054C170.629 148.554 171.579 148.304 172.596 148.304ZM180.947 155.354C180.947 153.97 181.231 152.745 181.797 151.679C182.381 150.612 183.164 149.787 184.147 149.204C185.147 148.604 186.247 148.304 187.447 148.304C188.531 148.304 189.472 148.52 190.272 148.954C191.089 149.37 191.739 149.895 192.222 150.529V148.529H195.097V162.304H192.222V160.254C191.739 160.904 191.081 161.445 190.247 161.879C189.414 162.312 188.464 162.529 187.397 162.529C186.214 162.529 185.131 162.229 184.147 161.629C183.164 161.012 182.381 160.162 181.797 159.079C181.231 157.979 180.947 156.737 180.947 155.354ZM192.222 155.404C192.222 154.454 192.022 153.629 191.622 152.929C191.239 152.229 190.731 151.695 190.097 151.329C189.464 150.962 188.781 150.779 188.047 150.779C187.314 150.779 186.631 150.962 185.997 151.329C185.364 151.679 184.847 152.204 184.447 152.904C184.064 153.587 183.872 154.404 183.872 155.354C183.872 156.304 184.064 157.137 184.447 157.854C184.847 158.57 185.364 159.12 185.997 159.504C186.647 159.87 187.331 160.054 188.047 160.054C188.781 160.054 189.464 159.87 190.097 159.504C190.731 159.137 191.239 158.604 191.622 157.904C192.022 157.187 192.222 156.354 192.222 155.404ZM200.291 146.704C199.774 146.704 199.341 146.529 198.991 146.179C198.641 145.829 198.466 145.395 198.466 144.879C198.466 144.362 198.641 143.929 198.991 143.579C199.341 143.229 199.774 143.054 200.291 143.054C200.791 143.054 201.216 143.229 201.566 143.579C201.916 143.929 202.091 144.362 202.091 144.879C202.091 145.395 201.916 145.829 201.566 146.179C201.216 146.529 200.791 146.704 200.291 146.704ZM201.691 148.529V162.304H198.841V148.529H201.691ZM208.282 143.804V162.304H205.432V143.804H208.282Z" fill="#F5F5F5"/>
</svg>
