<svg width="767" height="545" viewBox="0 0 767 545" fill="none" xmlns="http://www.w3.org/2000/svg">
<rect x="0.244385" width="765.952" height="545" rx="20" fill="#020C27"/>
<rect x="128.925" y="395.125" width="508.592" height="81.75" rx="20" fill="#F5F5F5"/>
<path d="M321.234 443.084H313.374L312.114 446.804H306.744L314.364 425.744H320.304L327.924 446.804H322.494L321.234 443.084ZM319.914 439.124L317.304 431.414L314.724 439.124H319.914ZM329.223 438.404C329.223 436.684 329.543 435.174 330.183 433.874C330.843 432.574 331.733 431.574 332.853 430.874C333.973 430.174 335.223 429.824 336.603 429.824C337.703 429.824 338.703 430.054 339.603 430.514C340.523 430.974 341.243 431.594 341.763 432.374V424.604H346.893V446.804H341.763V444.404C341.283 445.204 340.593 445.844 339.693 446.324C338.813 446.804 337.783 447.044 336.603 447.044C335.223 447.044 333.973 446.694 332.853 445.994C331.733 445.274 330.843 444.264 330.183 442.964C329.543 441.644 329.223 440.124 329.223 438.404ZM341.763 438.434C341.763 437.154 341.403 436.144 340.683 435.404C339.983 434.664 339.123 434.294 338.103 434.294C337.083 434.294 336.213 434.664 335.493 435.404C334.793 436.124 334.443 437.124 334.443 438.404C334.443 439.684 334.793 440.704 335.493 441.464C336.213 442.204 337.083 442.574 338.103 442.574C339.123 442.574 339.983 442.204 340.683 441.464C341.403 440.724 341.763 439.714 341.763 438.434ZM353.185 428.324C352.285 428.324 351.545 428.064 350.965 427.544C350.405 427.004 350.125 426.344 350.125 425.564C350.125 424.764 350.405 424.104 350.965 423.584C351.545 423.044 352.285 422.774 353.185 422.774C354.065 422.774 354.785 423.044 355.345 423.584C355.925 424.104 356.215 424.764 356.215 425.564C356.215 426.344 355.925 427.004 355.345 427.544C354.785 428.064 354.065 428.324 353.185 428.324ZM355.735 430.064V446.804H350.605V430.064H355.735ZM358.432 438.434C358.432 436.694 358.782 435.174 359.482 433.874C360.202 432.574 361.192 431.574 362.452 430.874C363.732 430.174 365.192 429.824 366.832 429.824C368.932 429.824 370.682 430.374 372.082 431.474C373.502 432.574 374.432 434.124 374.872 436.124H369.412C368.952 434.844 368.062 434.204 366.742 434.204C365.802 434.204 365.052 434.574 364.492 435.314C363.932 436.034 363.652 437.074 363.652 438.434C363.652 439.794 363.932 440.844 364.492 441.584C365.052 442.304 365.802 442.664 366.742 442.664C368.062 442.664 368.952 442.024 369.412 440.744H374.872C374.432 442.704 373.502 444.244 372.082 445.364C370.662 446.484 368.912 447.044 366.832 447.044C365.192 447.044 363.732 446.694 362.452 445.994C361.192 445.294 360.202 444.294 359.482 442.994C358.782 441.694 358.432 440.174 358.432 438.434ZM380.196 428.324C379.296 428.324 378.556 428.064 377.976 427.544C377.416 427.004 377.136 426.344 377.136 425.564C377.136 424.764 377.416 424.104 377.976 423.584C378.556 423.044 379.296 422.774 380.196 422.774C381.076 422.774 381.796 423.044 382.356 423.584C382.936 424.104 383.226 424.764 383.226 425.564C383.226 426.344 382.936 427.004 382.356 427.544C381.796 428.064 381.076 428.324 380.196 428.324ZM382.746 430.064V446.804H377.616V430.064H382.746ZM394.084 447.044C392.444 447.044 390.964 446.694 389.644 445.994C388.344 445.294 387.314 444.294 386.554 442.994C385.814 441.694 385.444 440.174 385.444 438.434C385.444 436.714 385.824 435.204 386.584 433.904C387.344 432.584 388.384 431.574 389.704 430.874C391.024 430.174 392.504 429.824 394.144 429.824C395.784 429.824 397.264 430.174 398.584 430.874C399.904 431.574 400.944 432.584 401.704 433.904C402.464 435.204 402.844 436.714 402.844 438.434C402.844 440.154 402.454 441.674 401.674 442.994C400.914 444.294 399.864 445.294 398.524 445.994C397.204 446.694 395.724 447.044 394.084 447.044ZM394.084 442.604C395.064 442.604 395.894 442.244 396.574 441.524C397.274 440.804 397.624 439.774 397.624 438.434C397.624 437.094 397.284 436.064 396.604 435.344C395.944 434.624 395.124 434.264 394.144 434.264C393.144 434.264 392.314 434.624 391.654 435.344C390.994 436.044 390.664 437.074 390.664 438.434C390.664 439.774 390.984 440.804 391.624 441.524C392.284 442.244 393.104 442.604 394.084 442.604ZM415.766 429.884C417.726 429.884 419.286 430.524 420.446 431.804C421.626 433.064 422.216 434.804 422.216 437.024V446.804H417.116V437.714C417.116 436.594 416.826 435.724 416.246 435.104C415.666 434.484 414.886 434.174 413.906 434.174C412.926 434.174 412.146 434.484 411.566 435.104C410.986 435.724 410.696 436.594 410.696 437.714V446.804H405.566V430.064H410.696V432.284C411.216 431.544 411.916 430.964 412.796 430.544C413.676 430.104 414.666 429.884 415.766 429.884ZM424.76 438.404C424.76 436.684 425.08 435.174 425.72 433.874C426.38 432.574 427.27 431.574 428.39 430.874C429.51 430.174 430.76 429.824 432.14 429.824C433.32 429.824 434.35 430.064 435.23 430.544C436.13 431.024 436.82 431.654 437.3 432.434V430.064H442.43V446.804H437.3V444.434C436.8 445.214 436.1 445.844 435.2 446.324C434.32 446.804 433.29 447.044 432.11 447.044C430.75 447.044 429.51 446.694 428.39 445.994C427.27 445.274 426.38 444.264 425.72 442.964C425.08 441.644 424.76 440.124 424.76 438.404ZM437.3 438.434C437.3 437.154 436.94 436.144 436.22 435.404C435.52 434.664 434.66 434.294 433.64 434.294C432.62 434.294 431.75 434.664 431.03 435.404C430.33 436.124 429.98 437.124 429.98 438.404C429.98 439.684 430.33 440.704 431.03 441.464C431.75 442.204 432.62 442.574 433.64 442.574C434.66 442.574 435.52 442.204 436.22 441.464C436.94 440.724 437.3 439.714 437.3 438.434ZM451.272 432.854C451.872 431.934 452.622 431.214 453.522 430.694C454.422 430.154 455.422 429.884 456.522 429.884V435.314H455.112C453.832 435.314 452.872 435.594 452.232 436.154C451.592 436.694 451.272 437.654 451.272 439.034V446.804H446.142V430.064H451.272V432.854Z" fill="#DA3BBD"/>
<path d="M90.4707 264.302C92.2467 264.302 93.7987 264.646 95.1267 265.334C96.4707 266.006 97.5027 266.982 98.2227 268.262C98.9587 269.526 99.3267 271.006 99.3267 272.702C99.3267 274.398 98.9587 275.87 98.2227 277.118C97.5027 278.366 96.4707 279.326 95.1267 279.998C93.7987 280.654 92.2467 280.982 90.4707 280.982H85.0227V264.302H90.4707ZM90.4707 278.75C92.4227 278.75 93.9187 278.222 94.9587 277.166C95.9987 276.11 96.5187 274.622 96.5187 272.702C96.5187 270.766 95.9987 269.254 94.9587 268.166C93.9187 267.078 92.4227 266.534 90.4707 266.534H87.7587V278.75H90.4707ZM114.158 274.046C114.158 274.542 114.126 274.99 114.062 275.39H103.958C104.038 276.446 104.43 277.294 105.134 277.934C105.838 278.574 106.702 278.894 107.726 278.894C109.198 278.894 110.238 278.278 110.846 277.046H113.798C113.398 278.262 112.67 279.262 111.614 280.046C110.574 280.814 109.278 281.198 107.726 281.198C106.462 281.198 105.326 280.918 104.318 280.358C103.326 279.782 102.542 278.982 101.966 277.958C101.406 276.918 101.126 275.718 101.126 274.358C101.126 272.998 101.398 271.806 101.942 270.782C102.502 269.742 103.278 268.942 104.27 268.382C105.278 267.822 106.43 267.542 107.726 267.542C108.974 267.542 110.086 267.814 111.062 268.358C112.038 268.902 112.798 269.67 113.342 270.662C113.886 271.638 114.158 272.766 114.158 274.046ZM111.302 273.182C111.286 272.174 110.926 271.366 110.222 270.758C109.518 270.15 108.646 269.846 107.606 269.846C106.662 269.846 105.854 270.15 105.182 270.758C104.51 271.35 104.11 272.158 103.982 273.182H111.302ZM121.651 281.198C120.611 281.198 119.675 281.014 118.843 280.646C118.027 280.262 117.379 279.75 116.899 279.11C116.419 278.454 116.163 277.726 116.131 276.926H118.963C119.011 277.486 119.275 277.958 119.755 278.342C120.251 278.71 120.867 278.894 121.603 278.894C122.371 278.894 122.963 278.75 123.379 278.462C123.811 278.158 124.027 277.774 124.027 277.31C124.027 276.814 123.787 276.446 123.307 276.206C122.843 275.966 122.099 275.702 121.075 275.414C120.083 275.142 119.275 274.878 118.651 274.622C118.027 274.366 117.483 273.974 117.019 273.446C116.571 272.918 116.347 272.222 116.347 271.358C116.347 270.654 116.555 270.014 116.971 269.438C117.387 268.846 117.979 268.382 118.747 268.046C119.531 267.71 120.427 267.542 121.435 267.542C122.939 267.542 124.147 267.926 125.059 268.694C125.987 269.446 126.483 270.478 126.547 271.79H123.811C123.763 271.198 123.523 270.726 123.091 270.374C122.659 270.022 122.075 269.846 121.339 269.846C120.619 269.846 120.067 269.982 119.683 270.254C119.299 270.526 119.107 270.886 119.107 271.334C119.107 271.686 119.235 271.982 119.491 272.222C119.747 272.462 120.059 272.654 120.427 272.798C120.795 272.926 121.339 273.094 122.059 273.302C123.019 273.558 123.803 273.822 124.411 274.094C125.035 274.35 125.571 274.734 126.019 275.246C126.467 275.758 126.699 276.438 126.715 277.286C126.715 278.038 126.507 278.71 126.091 279.302C125.675 279.894 125.083 280.358 124.315 280.694C123.563 281.03 122.675 281.198 121.651 281.198ZM141.791 274.046C141.791 274.542 141.759 274.99 141.695 275.39H131.591C131.671 276.446 132.063 277.294 132.767 277.934C133.471 278.574 134.335 278.894 135.359 278.894C136.831 278.894 137.871 278.278 138.479 277.046H141.431C141.031 278.262 140.303 279.262 139.247 280.046C138.207 280.814 136.911 281.198 135.359 281.198C134.095 281.198 132.959 280.918 131.951 280.358C130.959 279.782 130.175 278.982 129.599 277.958C129.039 276.918 128.759 275.718 128.759 274.358C128.759 272.998 129.031 271.806 129.575 270.782C130.135 269.742 130.911 268.942 131.903 268.382C132.911 267.822 134.063 267.542 135.359 267.542C136.607 267.542 137.719 267.814 138.695 268.358C139.671 268.902 140.431 269.67 140.975 270.662C141.519 271.638 141.791 272.766 141.791 274.046ZM138.935 273.182C138.919 272.174 138.559 271.366 137.855 270.758C137.151 270.15 136.279 269.846 135.239 269.846C134.295 269.846 133.487 270.15 132.815 270.758C132.143 271.35 131.743 272.158 131.615 273.182H138.935ZM145.876 266.006C145.38 266.006 144.964 265.838 144.628 265.502C144.292 265.166 144.124 264.75 144.124 264.254C144.124 263.758 144.292 263.342 144.628 263.006C144.964 262.67 145.38 262.502 145.876 262.502C146.356 262.502 146.764 262.67 147.1 263.006C147.436 263.342 147.604 263.758 147.604 264.254C147.604 264.75 147.436 265.166 147.1 265.502C146.764 265.838 146.356 266.006 145.876 266.006ZM147.22 283.574C147.22 284.87 146.892 285.806 146.236 286.382C145.596 286.974 144.66 287.27 143.428 287.27H142.012V284.966H142.948C143.508 284.966 143.9 284.854 144.124 284.63C144.364 284.422 144.484 284.07 144.484 283.574V267.758H147.22V283.574ZM149.9 274.31C149.9 272.982 150.172 271.806 150.716 270.782C151.276 269.758 152.028 268.966 152.972 268.406C153.932 267.83 154.988 267.542 156.14 267.542C157.18 267.542 158.084 267.75 158.852 268.166C159.636 268.566 160.26 269.07 160.724 269.678V267.758H163.484V280.982H160.724V279.014C160.26 279.638 159.628 280.158 158.828 280.574C158.028 280.99 157.116 281.198 156.092 281.198C154.956 281.198 153.916 280.91 152.972 280.334C152.028 279.742 151.276 278.926 150.716 277.886C150.172 276.83 149.9 275.638 149.9 274.31ZM160.724 274.358C160.724 273.446 160.532 272.654 160.148 271.982C159.78 271.31 159.292 270.798 158.684 270.446C158.076 270.094 157.42 269.918 156.716 269.918C156.012 269.918 155.356 270.094 154.748 270.446C154.14 270.782 153.644 271.286 153.26 271.958C152.892 272.614 152.708 273.398 152.708 274.31C152.708 275.222 152.892 276.022 153.26 276.71C153.644 277.398 154.14 277.926 154.748 278.294C155.372 278.646 156.028 278.822 156.716 278.822C157.42 278.822 158.076 278.646 158.684 278.294C159.292 277.942 159.78 277.43 160.148 276.758C160.532 276.07 160.724 275.27 160.724 274.358ZM172.4 274.31C172.4 272.982 172.672 271.806 173.216 270.782C173.776 269.758 174.528 268.966 175.472 268.406C176.432 267.83 177.488 267.542 178.64 267.542C179.68 267.542 180.584 267.75 181.352 268.166C182.136 268.566 182.76 269.07 183.224 269.678V267.758H185.984V280.982H183.224V279.014C182.76 279.638 182.128 280.158 181.328 280.574C180.528 280.99 179.616 281.198 178.592 281.198C177.456 281.198 176.416 280.91 175.472 280.334C174.528 279.742 173.776 278.926 173.216 277.886C172.672 276.83 172.4 275.638 172.4 274.31ZM183.224 274.358C183.224 273.446 183.032 272.654 182.648 271.982C182.28 271.31 181.792 270.798 181.184 270.446C180.576 270.094 179.92 269.918 179.216 269.918C178.512 269.918 177.856 270.094 177.248 270.446C176.64 270.782 176.144 271.286 175.76 271.958C175.392 272.614 175.208 273.398 175.208 274.31C175.208 275.222 175.392 276.022 175.76 276.71C176.144 277.398 176.64 277.926 177.248 278.294C177.872 278.646 178.528 278.822 179.216 278.822C179.92 278.822 180.576 278.646 181.184 278.294C181.792 277.942 182.28 277.43 182.648 276.758C183.032 276.07 183.224 275.27 183.224 274.358ZM188.665 274.31C188.665 272.982 188.937 271.806 189.481 270.782C190.041 269.758 190.793 268.966 191.737 268.406C192.697 267.83 193.761 267.542 194.929 267.542C195.793 267.542 196.641 267.734 197.473 268.118C198.321 268.486 198.993 268.982 199.489 269.606V263.222H202.249V280.982H199.489V278.99C199.041 279.63 198.417 280.158 197.617 280.574C196.833 280.99 195.929 281.198 194.905 281.198C193.753 281.198 192.697 280.91 191.737 280.334C190.793 279.742 190.041 278.926 189.481 277.886C188.937 276.83 188.665 275.638 188.665 274.31ZM199.489 274.358C199.489 273.446 199.297 272.654 198.913 271.982C198.545 271.31 198.057 270.798 197.449 270.446C196.841 270.094 196.185 269.918 195.481 269.918C194.777 269.918 194.121 270.094 193.513 270.446C192.905 270.782 192.409 271.286 192.025 271.958C191.657 272.614 191.473 273.398 191.473 274.31C191.473 275.222 191.657 276.022 192.025 276.71C192.409 277.398 192.905 277.926 193.513 278.294C194.137 278.646 194.793 278.822 195.481 278.822C196.185 278.822 196.841 278.646 197.449 278.294C198.057 277.942 198.545 277.43 198.913 276.758C199.297 276.07 199.489 275.27 199.489 274.358ZM207.235 266.006C206.739 266.006 206.323 265.838 205.987 265.502C205.651 265.166 205.483 264.75 205.483 264.254C205.483 263.758 205.651 263.342 205.987 263.006C206.323 262.67 206.739 262.502 207.235 262.502C207.715 262.502 208.123 262.67 208.459 263.006C208.795 263.342 208.963 263.758 208.963 264.254C208.963 264.75 208.795 265.166 208.459 265.502C208.123 265.838 207.715 266.006 207.235 266.006ZM208.579 267.758V280.982H205.843V267.758H208.579ZM211.259 274.358C211.259 272.998 211.531 271.806 212.075 270.782C212.635 269.742 213.403 268.942 214.379 268.382C215.355 267.822 216.475 267.542 217.739 267.542C219.339 267.542 220.659 267.926 221.699 268.694C222.755 269.446 223.467 270.526 223.835 271.934H220.883C220.643 271.278 220.259 270.766 219.731 270.398C219.203 270.03 218.539 269.846 217.739 269.846C216.619 269.846 215.723 270.246 215.051 271.046C214.395 271.83 214.067 272.934 214.067 274.358C214.067 275.782 214.395 276.894 215.051 277.694C215.723 278.494 216.619 278.894 217.739 278.894C219.323 278.894 220.371 278.198 220.883 276.806H223.835C223.451 278.15 222.731 279.222 221.675 280.022C220.619 280.806 219.307 281.198 217.739 281.198C216.475 281.198 215.355 280.918 214.379 280.358C213.403 279.782 212.635 278.982 212.075 277.958C211.531 276.918 211.259 275.718 211.259 274.358ZM227.954 266.006C227.458 266.006 227.042 265.838 226.706 265.502C226.37 265.166 226.202 264.75 226.202 264.254C226.202 263.758 226.37 263.342 226.706 263.006C227.042 262.67 227.458 262.502 227.954 262.502C228.434 262.502 228.842 262.67 229.178 263.006C229.514 263.342 229.682 263.758 229.682 264.254C229.682 264.75 229.514 265.166 229.178 265.502C228.842 265.838 228.434 266.006 227.954 266.006ZM229.298 267.758V280.982H226.562V267.758H229.298ZM238.626 281.198C237.378 281.198 236.25 280.918 235.242 280.358C234.234 279.782 233.442 278.982 232.866 277.958C232.29 276.918 232.002 275.718 232.002 274.358C232.002 273.014 232.298 271.822 232.89 270.782C233.482 269.742 234.29 268.942 235.314 268.382C236.338 267.822 237.482 267.542 238.746 267.542C240.01 267.542 241.154 267.822 242.178 268.382C243.202 268.942 244.01 269.742 244.602 270.782C245.194 271.822 245.49 273.014 245.49 274.358C245.49 275.702 245.186 276.894 244.578 277.934C243.97 278.974 243.138 279.782 242.082 280.358C241.042 280.918 239.89 281.198 238.626 281.198ZM238.626 278.822C239.33 278.822 239.986 278.654 240.594 278.318C241.218 277.982 241.722 277.478 242.106 276.806C242.49 276.134 242.682 275.318 242.682 274.358C242.682 273.398 242.498 272.59 242.13 271.934C241.762 271.262 241.274 270.758 240.666 270.422C240.058 270.086 239.402 269.918 238.698 269.918C237.994 269.918 237.338 270.086 236.73 270.422C236.138 270.758 235.666 271.262 235.314 271.934C234.962 272.59 234.786 273.398 234.786 274.358C234.786 275.782 235.146 276.886 235.866 277.67C236.602 278.438 237.522 278.822 238.626 278.822ZM254.867 267.542C255.907 267.542 256.835 267.758 257.651 268.19C258.483 268.622 259.131 269.262 259.595 270.11C260.059 270.958 260.291 271.982 260.291 273.182V280.982H257.579V273.59C257.579 272.406 257.283 271.502 256.691 270.878C256.099 270.238 255.291 269.918 254.267 269.918C253.243 269.918 252.427 270.238 251.819 270.878C251.227 271.502 250.931 272.406 250.931 273.59V280.982H248.195V267.758H250.931V269.27C251.379 268.726 251.947 268.302 252.635 267.998C253.339 267.694 254.083 267.542 254.867 267.542ZM262.868 274.31C262.868 272.982 263.14 271.806 263.684 270.782C264.244 269.758 264.996 268.966 265.94 268.406C266.9 267.83 267.956 267.542 269.108 267.542C270.148 267.542 271.052 267.75 271.82 268.166C272.604 268.566 273.228 269.07 273.692 269.678V267.758H276.452V280.982H273.692V279.014C273.228 279.638 272.596 280.158 271.796 280.574C270.996 280.99 270.084 281.198 269.06 281.198C267.924 281.198 266.884 280.91 265.94 280.334C264.996 279.742 264.244 278.926 263.684 277.886C263.14 276.83 262.868 275.638 262.868 274.31ZM273.692 274.358C273.692 273.446 273.5 272.654 273.116 271.982C272.748 271.31 272.26 270.798 271.652 270.446C271.044 270.094 270.388 269.918 269.684 269.918C268.98 269.918 268.324 270.094 267.716 270.446C267.108 270.782 266.612 271.286 266.228 271.958C265.86 272.614 265.676 273.398 265.676 274.31C265.676 275.222 265.86 276.022 266.228 276.71C266.612 277.398 267.108 277.926 267.716 278.294C268.34 278.646 268.996 278.822 269.684 278.822C270.388 278.822 271.044 278.646 271.652 278.294C272.26 277.942 272.748 277.43 273.116 276.758C273.5 276.07 273.692 275.27 273.692 274.358ZM282.782 269.678C283.182 269.006 283.71 268.486 284.366 268.118C285.038 267.734 285.83 267.542 286.742 267.542V270.374H286.046C284.974 270.374 284.158 270.646 283.598 271.19C283.054 271.734 282.782 272.678 282.782 274.022V280.982H280.046V267.758H282.782V269.678ZM400.751 274.31C400.751 272.982 401.023 271.806 401.567 270.782C402.127 269.758 402.879 268.966 403.823 268.406C404.783 267.83 405.839 267.542 406.991 267.542C408.031 267.542 408.935 267.75 409.703 268.166C410.487 268.566 411.111 269.07 411.575 269.678V267.758H414.335V280.982H411.575V279.014C411.111 279.638 410.479 280.158 409.679 280.574C408.879 280.99 407.967 281.198 406.943 281.198C405.807 281.198 404.767 280.91 403.823 280.334C402.879 279.742 402.127 278.926 401.567 277.886C401.023 276.83 400.751 275.638 400.751 274.31ZM411.575 274.358C411.575 273.446 411.383 272.654 410.999 271.982C410.631 271.31 410.143 270.798 409.535 270.446C408.927 270.094 408.271 269.918 407.567 269.918C406.863 269.918 406.207 270.094 405.599 270.446C404.991 270.782 404.495 271.286 404.111 271.958C403.743 272.614 403.559 273.398 403.559 274.31C403.559 275.222 403.743 276.022 404.111 276.71C404.495 277.398 404.991 277.926 405.599 278.294C406.223 278.646 406.879 278.822 407.567 278.822C408.271 278.822 408.927 278.646 409.535 278.294C410.143 277.942 410.631 277.43 410.999 276.758C411.383 276.07 411.575 275.27 411.575 274.358ZM410.471 264.806V266.822L405.167 264.206V261.878L410.471 264.806ZM609.308 264.062C610.94 264.062 612.244 264.51 613.22 265.406C614.212 266.302 614.708 267.526 614.708 269.078C614.708 270.694 614.196 271.91 613.172 272.726C612.148 273.542 610.788 273.95 609.092 273.95L608.996 275.846H606.62L606.5 272.078H607.292C608.844 272.078 610.028 271.87 610.844 271.454C611.676 271.038 612.092 270.246 612.092 269.078C612.092 268.23 611.844 267.566 611.348 267.086C610.868 266.606 610.196 266.366 609.332 266.366C608.468 266.366 607.788 266.598 607.292 267.062C606.796 267.526 606.548 268.174 606.548 269.006H603.98C603.98 268.046 604.196 267.19 604.628 266.438C605.06 265.686 605.676 265.102 606.476 264.686C607.292 264.27 608.236 264.062 609.308 264.062ZM607.772 281.15C607.276 281.15 606.86 280.982 606.524 280.646C606.188 280.31 606.02 279.894 606.02 279.398C606.02 278.902 606.188 278.486 606.524 278.15C606.86 277.814 607.276 277.646 607.772 277.646C608.252 277.646 608.66 277.814 608.996 278.15C609.332 278.486 609.5 278.902 609.5 279.398C609.5 279.894 609.332 280.31 608.996 280.646C608.66 280.982 608.252 281.15 607.772 281.15Z" fill="white"/>
<path d="M297.267 270.014H294.291L296.811 264.302H298.731L297.267 270.014ZM301.587 270.014H298.611L301.131 264.302H303.051L301.587 270.014ZM318.936 264.302V280.982H316.2V273.686H308.352V280.982H305.616V264.302H308.352V271.454H316.2V264.302H318.936ZM321.626 274.31C321.626 272.982 321.898 271.806 322.442 270.782C323.002 269.758 323.754 268.966 324.698 268.406C325.658 267.83 326.714 267.542 327.866 267.542C328.906 267.542 329.81 267.75 330.578 268.166C331.362 268.566 331.986 269.07 332.45 269.678V267.758H335.21V280.982H332.45V279.014C331.986 279.638 331.354 280.158 330.554 280.574C329.754 280.99 328.842 281.198 327.818 281.198C326.682 281.198 325.642 280.91 324.698 280.334C323.754 279.742 323.002 278.926 322.442 277.886C321.898 276.83 321.626 275.638 321.626 274.31ZM332.45 274.358C332.45 273.446 332.258 272.654 331.874 271.982C331.506 271.31 331.018 270.798 330.41 270.446C329.802 270.094 329.146 269.918 328.442 269.918C327.738 269.918 327.082 270.094 326.474 270.446C325.866 270.782 325.37 271.286 324.986 271.958C324.618 272.614 324.434 273.398 324.434 274.31C324.434 275.222 324.618 276.022 324.986 276.71C325.37 277.398 325.866 277.926 326.474 278.294C327.098 278.646 327.754 278.822 328.442 278.822C329.146 278.822 329.802 278.646 330.41 278.294C331.018 277.942 331.506 277.43 331.874 276.758C332.258 276.07 332.45 275.27 332.45 274.358ZM341.54 269.702C342.004 269.094 342.636 268.582 343.436 268.166C344.236 267.75 345.14 267.542 346.148 267.542C347.3 267.542 348.348 267.83 349.292 268.406C350.252 268.966 351.004 269.758 351.548 270.782C352.092 271.806 352.364 272.982 352.364 274.31C352.364 275.638 352.092 276.83 351.548 277.886C351.004 278.926 350.252 279.742 349.292 280.334C348.348 280.91 347.3 281.198 346.148 281.198C345.14 281.198 344.244 280.998 343.46 280.598C342.676 280.182 342.036 279.67 341.54 279.062V287.27H338.804V267.758H341.54V269.702ZM349.58 274.31C349.58 273.398 349.388 272.614 349.004 271.958C348.636 271.286 348.14 270.782 347.516 270.446C346.908 270.094 346.252 269.918 345.548 269.918C344.86 269.918 344.204 270.094 343.58 270.446C342.972 270.798 342.476 271.31 342.092 271.982C341.724 272.654 341.54 273.446 341.54 274.358C341.54 275.27 341.724 276.07 342.092 276.758C342.476 277.43 342.972 277.942 343.58 278.294C344.204 278.646 344.86 278.822 345.548 278.822C346.252 278.822 346.908 278.646 347.516 278.294C348.14 277.926 348.636 277.398 349.004 276.71C349.388 276.022 349.58 275.222 349.58 274.31ZM357.806 269.702C358.27 269.094 358.902 268.582 359.702 268.166C360.502 267.75 361.406 267.542 362.414 267.542C363.566 267.542 364.614 267.83 365.558 268.406C366.518 268.966 367.27 269.758 367.814 270.782C368.358 271.806 368.63 272.982 368.63 274.31C368.63 275.638 368.358 276.83 367.814 277.886C367.27 278.926 366.518 279.742 365.558 280.334C364.614 280.91 363.566 281.198 362.414 281.198C361.406 281.198 360.51 280.998 359.726 280.598C358.942 280.182 358.302 279.67 357.806 279.062V287.27H355.07V267.758H357.806V269.702ZM365.846 274.31C365.846 273.398 365.654 272.614 365.27 271.958C364.902 271.286 364.406 270.782 363.782 270.446C363.174 270.094 362.518 269.918 361.814 269.918C361.126 269.918 360.47 270.094 359.846 270.446C359.238 270.798 358.742 271.31 358.358 271.982C357.99 272.654 357.806 273.446 357.806 274.358C357.806 275.27 357.99 276.07 358.358 276.758C358.742 277.43 359.238 277.942 359.846 278.294C360.47 278.646 361.126 278.822 361.814 278.822C362.518 278.822 363.174 278.646 363.782 278.294C364.406 277.926 364.902 277.398 365.27 276.71C365.654 276.022 365.846 275.222 365.846 274.31ZM383.239 267.758L375.127 287.198H372.295L374.983 280.766L369.775 267.758H372.823L376.543 277.838L380.407 267.758H383.239ZM385.736 264.302H388.712L386.192 270.014H384.272L385.736 264.302ZM390.056 264.302H393.032L390.512 270.014H388.592L390.056 264.302ZM425.939 270.014H422.963L425.483 264.302H427.403L425.939 270.014ZM430.259 270.014H427.283L429.803 264.302H431.723L430.259 270.014ZM447.992 280.982H445.256L437.024 268.526V280.982H434.288V264.278H437.024L445.256 276.71V264.278H447.992V280.982ZM457.321 281.198C456.073 281.198 454.945 280.918 453.937 280.358C452.929 279.782 452.137 278.982 451.561 277.958C450.985 276.918 450.697 275.718 450.697 274.358C450.697 273.014 450.993 271.822 451.585 270.782C452.177 269.742 452.985 268.942 454.009 268.382C455.033 267.822 456.177 267.542 457.441 267.542C458.705 267.542 459.849 267.822 460.873 268.382C461.897 268.942 462.705 269.742 463.297 270.782C463.889 271.822 464.185 273.014 464.185 274.358C464.185 275.702 463.881 276.894 463.273 277.934C462.665 278.974 461.833 279.782 460.777 280.358C459.737 280.918 458.585 281.198 457.321 281.198ZM457.321 278.822C458.025 278.822 458.681 278.654 459.289 278.318C459.913 277.982 460.417 277.478 460.801 276.806C461.185 276.134 461.377 275.318 461.377 274.358C461.377 273.398 461.193 272.59 460.825 271.934C460.457 271.262 459.969 270.758 459.361 270.422C458.753 270.086 458.097 269.918 457.393 269.918C456.689 269.918 456.033 270.086 455.425 270.422C454.833 270.758 454.361 271.262 454.009 271.934C453.657 272.59 453.481 273.398 453.481 274.358C453.481 275.782 453.841 276.886 454.561 277.67C455.297 278.438 456.217 278.822 457.321 278.822ZM472.002 278.534L475.746 267.758H478.65L473.61 280.982H470.346L465.33 267.758H468.258L472.002 278.534ZM479.806 274.31C479.806 272.982 480.078 271.806 480.622 270.782C481.182 269.758 481.934 268.966 482.878 268.406C483.838 267.83 484.894 267.542 486.046 267.542C487.086 267.542 487.99 267.75 488.758 268.166C489.542 268.566 490.166 269.07 490.63 269.678V267.758H493.39V280.982H490.63V279.014C490.166 279.638 489.534 280.158 488.734 280.574C487.934 280.99 487.022 281.198 485.998 281.198C484.862 281.198 483.822 280.91 482.878 280.334C481.934 279.742 481.182 278.926 480.622 277.886C480.078 276.83 479.806 275.638 479.806 274.31ZM490.63 274.358C490.63 273.446 490.438 272.654 490.054 271.982C489.686 271.31 489.198 270.798 488.59 270.446C487.982 270.094 487.326 269.918 486.622 269.918C485.918 269.918 485.262 270.094 484.654 270.446C484.046 270.782 483.55 271.286 483.166 271.958C482.798 272.614 482.614 273.398 482.614 274.31C482.614 275.222 482.798 276.022 483.166 276.71C483.55 277.398 484.046 277.926 484.654 278.294C485.278 278.646 485.934 278.822 486.622 278.822C487.326 278.822 487.982 278.646 488.59 278.294C489.198 277.942 489.686 277.43 490.054 276.758C490.438 276.07 490.63 275.27 490.63 274.358ZM514.882 269.27C514.882 270.118 514.682 270.918 514.282 271.67C513.882 272.422 513.242 273.038 512.362 273.518C511.482 273.982 510.354 274.214 508.978 274.214H505.954V280.982H503.218V264.302H508.978C510.258 264.302 511.338 264.526 512.218 264.974C513.114 265.406 513.778 265.998 514.21 266.75C514.658 267.502 514.882 268.342 514.882 269.27ZM508.978 271.982C510.018 271.982 510.794 271.75 511.306 271.286C511.818 270.806 512.074 270.134 512.074 269.27C512.074 267.446 511.042 266.534 508.978 266.534H505.954V271.982H508.978ZM520.227 263.222V280.982H517.491V263.222H520.227ZM522.908 274.31C522.908 272.982 523.18 271.806 523.724 270.782C524.284 269.758 525.036 268.966 525.98 268.406C526.94 267.83 527.996 267.542 529.148 267.542C530.188 267.542 531.092 267.75 531.86 268.166C532.644 268.566 533.268 269.07 533.732 269.678V267.758H536.492V280.982H533.732V279.014C533.268 279.638 532.636 280.158 531.836 280.574C531.036 280.99 530.124 281.198 529.1 281.198C527.964 281.198 526.924 280.91 525.98 280.334C525.036 279.742 524.284 278.926 523.724 277.886C523.18 276.83 522.908 275.638 522.908 274.31ZM533.732 274.358C533.732 273.446 533.54 272.654 533.156 271.982C532.788 271.31 532.3 270.798 531.692 270.446C531.084 270.094 530.428 269.918 529.724 269.918C529.02 269.918 528.364 270.094 527.756 270.446C527.148 270.782 526.652 271.286 526.268 271.958C525.9 272.614 525.716 273.398 525.716 274.31C525.716 275.222 525.9 276.022 526.268 276.71C526.652 277.398 527.148 277.926 527.756 278.294C528.38 278.646 529.036 278.822 529.724 278.822C530.428 278.822 531.084 278.646 531.692 278.294C532.3 277.942 532.788 277.43 533.156 276.758C533.54 276.07 533.732 275.27 533.732 274.358ZM551.989 267.758L543.877 287.198H541.045L543.733 280.766L538.525 267.758H541.573L545.293 277.838L549.157 267.758H551.989ZM556.79 263.222V280.982H554.054V263.222H556.79ZM561.774 266.006C561.278 266.006 560.862 265.838 560.526 265.502C560.19 265.166 560.022 264.75 560.022 264.254C560.022 263.758 560.19 263.342 560.526 263.006C560.862 262.67 561.278 262.502 561.774 262.502C562.254 262.502 562.662 262.67 562.998 263.006C563.334 263.342 563.502 263.758 563.502 264.254C563.502 264.75 563.334 265.166 562.998 265.502C562.662 265.838 562.254 266.006 561.774 266.006ZM563.118 267.758V280.982H560.382V267.758H563.118ZM571.51 281.198C570.47 281.198 569.534 281.014 568.702 280.646C567.886 280.262 567.238 279.75 566.758 279.11C566.278 278.454 566.022 277.726 565.99 276.926H568.822C568.87 277.486 569.134 277.958 569.614 278.342C570.11 278.71 570.726 278.894 571.462 278.894C572.23 278.894 572.822 278.75 573.238 278.462C573.67 278.158 573.886 277.774 573.886 277.31C573.886 276.814 573.646 276.446 573.166 276.206C572.702 275.966 571.958 275.702 570.934 275.414C569.942 275.142 569.134 274.878 568.51 274.622C567.886 274.366 567.342 273.974 566.878 273.446C566.43 272.918 566.206 272.222 566.206 271.358C566.206 270.654 566.414 270.014 566.83 269.438C567.246 268.846 567.838 268.382 568.606 268.046C569.39 267.71 570.286 267.542 571.294 267.542C572.798 267.542 574.006 267.926 574.918 268.694C575.846 269.446 576.342 270.478 576.406 271.79H573.67C573.622 271.198 573.382 270.726 572.95 270.374C572.518 270.022 571.934 269.846 571.198 269.846C570.478 269.846 569.926 269.982 569.542 270.254C569.158 270.526 568.966 270.886 568.966 271.334C568.966 271.686 569.094 271.982 569.35 272.222C569.606 272.462 569.918 272.654 570.286 272.798C570.654 272.926 571.198 273.094 571.918 273.302C572.878 273.558 573.662 273.822 574.27 274.094C574.894 274.35 575.43 274.734 575.878 275.246C576.326 275.758 576.558 276.438 576.574 277.286C576.574 278.038 576.366 278.71 575.95 279.302C575.534 279.894 574.942 280.358 574.174 280.694C573.422 281.03 572.534 281.198 571.51 281.198ZM582.722 269.99V277.31C582.722 277.806 582.834 278.166 583.058 278.39C583.298 278.598 583.698 278.702 584.258 278.702H585.938V280.982H583.778C582.546 280.982 581.602 280.694 580.946 280.118C580.29 279.542 579.962 278.606 579.962 277.31V269.99H578.402V267.758H579.962V264.47H582.722V267.758H585.938V269.99H582.722ZM588.892 264.302H591.868L589.348 270.014H587.428L588.892 264.302ZM593.212 264.302H596.188L593.668 270.014H591.748L593.212 264.302Z" fill="#DA3BBD"/>
<rect x="69.4036" y="180.571" width="493.265" height="55.3929" rx="18.5" stroke="#DA3BBD" stroke-width="3"/>
<path d="M590 232.527V218.022H630.526V232.527H590ZM590 203.516V189.011H653.684V203.516H590ZM590 174.505V160H653.684V174.505H590ZM665.263 261.538V232.527H642.105V218.022H665.263V189.011H676.842V218.022H700V232.527H676.842V261.538H665.263Z" fill="#DA3BBD"/>
<path d="M256.447 214.911H254.167L247.307 204.531V214.911H245.027V200.991H247.307L254.167 211.351V200.991H256.447V214.911ZM264.221 215.091C263.181 215.091 262.241 214.857 261.401 214.391C260.561 213.911 259.901 213.244 259.421 212.391C258.941 211.524 258.701 210.524 258.701 209.391C258.701 208.271 258.947 207.277 259.441 206.411C259.934 205.544 260.607 204.877 261.461 204.411C262.314 203.944 263.267 203.711 264.321 203.711C265.374 203.711 266.327 203.944 267.181 204.411C268.034 204.877 268.707 205.544 269.201 206.411C269.694 207.277 269.941 208.271 269.941 209.391C269.941 210.511 269.687 211.504 269.181 212.371C268.674 213.237 267.981 213.911 267.101 214.391C266.234 214.857 265.274 215.091 264.221 215.091ZM264.221 213.111C264.807 213.111 265.354 212.971 265.861 212.691C266.381 212.411 266.801 211.991 267.121 211.431C267.441 210.871 267.601 210.191 267.601 209.391C267.601 208.591 267.447 207.917 267.141 207.371C266.834 206.811 266.427 206.391 265.921 206.111C265.414 205.831 264.867 205.691 264.281 205.691C263.694 205.691 263.147 205.831 262.641 206.111C262.147 206.391 261.754 206.811 261.461 207.371C261.167 207.917 261.021 208.591 261.021 209.391C261.021 210.577 261.321 211.497 261.921 212.151C262.534 212.791 263.301 213.111 264.221 213.111ZM276.455 212.871L279.575 203.891H281.995L277.795 214.911H275.075L270.895 203.891H273.335L276.455 212.871ZM282.958 209.351C282.958 208.244 283.185 207.264 283.638 206.411C284.105 205.557 284.731 204.897 285.518 204.431C286.318 203.951 287.198 203.711 288.158 203.711C289.025 203.711 289.778 203.884 290.418 204.231C291.071 204.564 291.591 204.984 291.978 205.491V203.891H294.278V214.911H291.978V213.271C291.591 213.791 291.065 214.224 290.398 214.571C289.731 214.917 288.971 215.091 288.118 215.091C287.171 215.091 286.305 214.851 285.518 214.371C284.731 213.877 284.105 213.197 283.638 212.331C283.185 211.451 282.958 210.457 282.958 209.351ZM291.978 209.391C291.978 208.631 291.818 207.971 291.498 207.411C291.191 206.851 290.785 206.424 290.278 206.131C289.771 205.837 289.225 205.691 288.638 205.691C288.051 205.691 287.505 205.837 286.998 206.131C286.491 206.411 286.078 206.831 285.758 207.391C285.451 207.937 285.298 208.591 285.298 209.351C285.298 210.111 285.451 210.777 285.758 211.351C286.078 211.924 286.491 212.364 286.998 212.671C287.518 212.964 288.065 213.111 288.638 213.111C289.225 213.111 289.771 212.964 290.278 212.671C290.785 212.377 291.191 211.951 291.498 211.391C291.818 210.817 291.978 210.151 291.978 209.391ZM312.188 205.151C312.188 205.857 312.021 206.524 311.688 207.151C311.355 207.777 310.821 208.291 310.088 208.691C309.355 209.077 308.415 209.271 307.268 209.271H304.748V214.911H302.468V201.011H307.268C308.335 201.011 309.235 201.197 309.968 201.571C310.715 201.931 311.268 202.424 311.628 203.051C312.001 203.677 312.188 204.377 312.188 205.151ZM307.268 207.411C308.135 207.411 308.781 207.217 309.208 206.831C309.635 206.431 309.848 205.871 309.848 205.151C309.848 203.631 308.988 202.871 307.268 202.871H304.748V207.411H307.268ZM316.643 200.111V214.911H314.363V200.111H316.643ZM318.876 209.351C318.876 208.244 319.103 207.264 319.556 206.411C320.023 205.557 320.649 204.897 321.436 204.431C322.236 203.951 323.116 203.711 324.076 203.711C324.943 203.711 325.696 203.884 326.336 204.231C326.989 204.564 327.509 204.984 327.896 205.491V203.891H330.196V214.911H327.896V213.271C327.509 213.791 326.983 214.224 326.316 214.571C325.649 214.917 324.889 215.091 324.036 215.091C323.089 215.091 322.223 214.851 321.436 214.371C320.649 213.877 320.023 213.197 319.556 212.331C319.103 211.451 318.876 210.457 318.876 209.351ZM327.896 209.391C327.896 208.631 327.736 207.971 327.416 207.411C327.109 206.851 326.703 206.424 326.196 206.131C325.689 205.837 325.143 205.691 324.556 205.691C323.969 205.691 323.423 205.837 322.916 206.131C322.409 206.411 321.996 206.831 321.676 207.391C321.369 207.937 321.216 208.591 321.216 209.351C321.216 210.111 321.369 210.777 321.676 211.351C321.996 211.924 322.409 212.364 322.916 212.671C323.436 212.964 323.983 213.111 324.556 213.111C325.143 213.111 325.689 212.964 326.196 212.671C326.703 212.377 327.109 211.951 327.416 211.391C327.736 210.817 327.896 210.151 327.896 209.391ZM343.111 203.891L336.351 220.091H333.991L336.231 214.731L331.891 203.891H334.431L337.531 212.291L340.751 203.891H343.111ZM347.111 200.111V214.911H344.831V200.111H347.111ZM351.265 202.431C350.851 202.431 350.505 202.291 350.225 202.011C349.945 201.731 349.805 201.384 349.805 200.971C349.805 200.557 349.945 200.211 350.225 199.931C350.505 199.651 350.851 199.511 351.265 199.511C351.665 199.511 352.005 199.651 352.285 199.931C352.565 200.211 352.705 200.557 352.705 200.971C352.705 201.384 352.565 201.731 352.285 202.011C352.005 202.291 351.665 202.431 351.265 202.431ZM352.385 203.891V214.911H350.105V203.891H352.385ZM359.378 215.091C358.512 215.091 357.732 214.937 357.038 214.631C356.358 214.311 355.818 213.884 355.418 213.351C355.018 212.804 354.805 212.197 354.778 211.531H357.138C357.178 211.997 357.398 212.391 357.798 212.711C358.212 213.017 358.725 213.171 359.338 213.171C359.978 213.171 360.472 213.051 360.818 212.811C361.178 212.557 361.358 212.237 361.358 211.851C361.358 211.437 361.158 211.131 360.758 210.931C360.372 210.731 359.752 210.511 358.898 210.271C358.072 210.044 357.398 209.824 356.878 209.611C356.358 209.397 355.905 209.071 355.518 208.631C355.145 208.191 354.958 207.611 354.958 206.891C354.958 206.304 355.132 205.771 355.478 205.291C355.825 204.797 356.318 204.411 356.958 204.131C357.612 203.851 358.358 203.711 359.198 203.711C360.452 203.711 361.458 204.031 362.218 204.671C362.992 205.297 363.405 206.157 363.458 207.251H361.178C361.138 206.757 360.938 206.364 360.578 206.071C360.218 205.777 359.732 205.631 359.118 205.631C358.518 205.631 358.058 205.744 357.738 205.971C357.418 206.197 357.258 206.497 357.258 206.871C357.258 207.164 357.365 207.411 357.578 207.611C357.792 207.811 358.052 207.971 358.358 208.091C358.665 208.197 359.118 208.337 359.718 208.511C360.518 208.724 361.172 208.944 361.678 209.171C362.198 209.384 362.645 209.704 363.018 210.131C363.392 210.557 363.585 211.124 363.598 211.831C363.598 212.457 363.425 213.017 363.078 213.511C362.732 214.004 362.238 214.391 361.598 214.671C360.972 214.951 360.232 215.091 359.378 215.091ZM368.722 205.751V211.851C368.722 212.264 368.815 212.564 369.002 212.751C369.202 212.924 369.535 213.011 370.002 213.011H371.402V214.911H369.602C368.575 214.911 367.788 214.671 367.242 214.191C366.695 213.711 366.422 212.931 366.422 211.851V205.751H365.122V203.891H366.422V201.151H368.722V203.891H371.402V205.751H368.722Z" fill="white"/>
<path d="M80.8728 65.0758C80.8728 62.3558 81.4995 59.9158 82.7528 57.7558C84.0328 55.5958 85.7528 53.9158 87.9128 52.7158C90.0995 51.4891 92.4862 50.8758 95.0728 50.8758C98.0328 50.8758 100.659 51.6091 102.953 53.0758C105.273 54.5158 106.953 56.5691 107.993 59.2358H102.513C101.793 57.7691 100.793 56.6758 99.5128 55.9558C98.2328 55.2358 96.7528 54.8758 95.0728 54.8758C93.2328 54.8758 91.5928 55.2891 90.1528 56.1158C88.7128 56.9424 87.5795 58.1291 86.7528 59.6758C85.9528 61.2224 85.5528 63.0224 85.5528 65.0758C85.5528 67.1291 85.9528 68.9291 86.7528 70.4758C87.5795 72.0224 88.7128 73.2224 90.1528 74.0758C91.5928 74.9024 93.2328 75.3158 95.0728 75.3158C96.7528 75.3158 98.2328 74.9558 99.5128 74.2358C100.793 73.5158 101.793 72.4224 102.513 70.9558H107.993C106.953 73.6224 105.273 75.6758 102.953 77.1158C100.659 78.5558 98.0328 79.2758 95.0728 79.2758C92.4595 79.2758 90.0728 78.6758 87.9128 77.4758C85.7528 76.2491 84.0328 74.5558 82.7528 72.3958C81.4995 70.2358 80.8728 67.7958 80.8728 65.0758ZM117.89 60.1958C118.557 59.0758 119.437 58.2091 120.53 57.5958C121.65 56.9558 122.97 56.6358 124.49 56.6358V61.3558H123.33C121.544 61.3558 120.184 61.8091 119.25 62.7158C118.344 63.6224 117.89 65.1958 117.89 67.4358V79.0358H113.33V56.9958H117.89V60.1958ZM131.002 54.0758C130.175 54.0758 129.482 53.7958 128.922 53.2358C128.362 52.6758 128.082 51.9824 128.082 51.1558C128.082 50.3291 128.362 49.6358 128.922 49.0758C129.482 48.5158 130.175 48.2358 131.002 48.2358C131.802 48.2358 132.482 48.5158 133.042 49.0758C133.602 49.6358 133.882 50.3291 133.882 51.1558C133.882 51.9824 133.602 52.6758 133.042 53.2358C132.482 53.7958 131.802 54.0758 131.002 54.0758ZM133.242 56.9958V79.0358H128.682V56.9958H133.242ZM159.429 67.4758C159.429 68.3024 159.375 69.0491 159.269 69.7158H142.429C142.562 71.4758 143.215 72.8891 144.389 73.9558C145.562 75.0224 147.002 75.5558 148.709 75.5558C151.162 75.5558 152.895 74.5291 153.909 72.4758H158.829C158.162 74.5024 156.949 76.1691 155.189 77.4758C153.455 78.7558 151.295 79.3958 148.709 79.3958C146.602 79.3958 144.709 78.9291 143.029 77.9958C141.375 77.0358 140.069 75.7024 139.109 73.9958C138.175 72.2624 137.709 70.2624 137.709 67.9958C137.709 65.7291 138.162 63.7424 139.069 62.0358C140.002 60.3024 141.295 58.9691 142.949 58.0358C144.629 57.1024 146.549 56.6358 148.709 56.6358C150.789 56.6358 152.642 57.0891 154.269 57.9958C155.895 58.9024 157.162 60.1824 158.069 61.8358C158.975 63.4624 159.429 65.3424 159.429 67.4758ZM154.669 66.0358C154.642 64.3558 154.042 63.0091 152.869 61.9958C151.695 60.9824 150.242 60.4758 148.509 60.4758C146.935 60.4758 145.589 60.9824 144.469 61.9958C143.349 62.9824 142.682 64.3291 142.469 66.0358H154.669ZM194.507 67.4758C194.507 68.3024 194.454 69.0491 194.347 69.7158H177.507C177.64 71.4758 178.294 72.8891 179.467 73.9558C180.64 75.0224 182.08 75.5558 183.787 75.5558C186.24 75.5558 187.974 74.5291 188.987 72.4758H193.907C193.24 74.5024 192.027 76.1691 190.267 77.4758C188.534 78.7558 186.374 79.3958 183.787 79.3958C181.68 79.3958 179.787 78.9291 178.107 77.9958C176.454 77.0358 175.147 75.7024 174.187 73.9958C173.254 72.2624 172.787 70.2624 172.787 67.9958C172.787 65.7291 173.24 63.7424 174.147 62.0358C175.08 60.3024 176.374 58.9691 178.027 58.0358C179.707 57.1024 181.627 56.6358 183.787 56.6358C185.867 56.6358 187.72 57.0891 189.347 57.9958C190.974 58.9024 192.24 60.1824 193.147 61.8358C194.054 63.4624 194.507 65.3424 194.507 67.4758ZM189.747 66.0358C189.72 64.3558 189.12 63.0091 187.947 61.9958C186.774 60.9824 185.32 60.4758 183.587 60.4758C182.014 60.4758 180.667 60.9824 179.547 61.9958C178.427 62.9824 177.76 64.3291 177.547 66.0358H189.747ZM207.865 67.9158C207.865 65.7024 208.318 63.7424 209.225 62.0358C210.158 60.3291 211.412 59.0091 212.985 58.0758C214.585 57.1158 216.345 56.6358 218.265 56.6358C219.998 56.6358 221.505 56.9824 222.785 57.6758C224.092 58.3424 225.132 59.1824 225.905 60.1958V56.9958H230.505V79.0358H225.905V75.7558C225.132 76.7958 224.078 77.6624 222.745 78.3558C221.412 79.0491 219.892 79.3958 218.185 79.3958C216.292 79.3958 214.558 78.9158 212.985 77.9558C211.412 76.9691 210.158 75.6091 209.225 73.8758C208.318 72.1158 207.865 70.1291 207.865 67.9158ZM225.905 67.9958C225.905 66.4758 225.585 65.1558 224.945 64.0358C224.332 62.9158 223.518 62.0624 222.505 61.4758C221.492 60.8891 220.398 60.5958 219.225 60.5958C218.052 60.5958 216.958 60.8891 215.945 61.4758C214.932 62.0358 214.105 62.8758 213.465 63.9958C212.852 65.0891 212.545 66.3958 212.545 67.9158C212.545 69.4358 212.852 70.7691 213.465 71.9158C214.105 73.0624 214.932 73.9424 215.945 74.5558C216.985 75.1424 218.078 75.4358 219.225 75.4358C220.398 75.4358 221.492 75.1424 222.505 74.5558C223.518 73.9691 224.332 73.1158 224.945 71.9958C225.585 70.8491 225.905 69.5158 225.905 67.9958ZM234.974 67.9158C234.974 65.7024 235.428 63.7424 236.334 62.0358C237.268 60.3291 238.521 59.0091 240.094 58.0758C241.694 57.1158 243.468 56.6358 245.414 56.6358C246.854 56.6358 248.268 56.9558 249.654 57.5958C251.068 58.2091 252.188 59.0358 253.014 60.0758V49.4358H257.614V79.0358H253.014V75.7158C252.268 76.7824 251.228 77.6624 249.894 78.3558C248.588 79.0491 247.081 79.3958 245.374 79.3958C243.454 79.3958 241.694 78.9158 240.094 77.9558C238.521 76.9691 237.268 75.6091 236.334 73.8758C235.428 72.1158 234.974 70.1291 234.974 67.9158ZM253.014 67.9958C253.014 66.4758 252.694 65.1558 252.054 64.0358C251.441 62.9158 250.628 62.0624 249.614 61.4758C248.601 60.8891 247.508 60.5958 246.334 60.5958C245.161 60.5958 244.068 60.8891 243.054 61.4758C242.041 62.0358 241.214 62.8758 240.574 63.9958C239.961 65.0891 239.654 66.3958 239.654 67.9158C239.654 69.4358 239.961 70.7691 240.574 71.9158C241.214 73.0624 242.041 73.9424 243.054 74.5558C244.094 75.1424 245.188 75.4358 246.334 75.4358C247.508 75.4358 248.601 75.1424 249.614 74.5558C250.628 73.9691 251.441 73.1158 252.054 71.9958C252.694 70.8491 253.014 69.5158 253.014 67.9958ZM265.924 54.0758C265.097 54.0758 264.404 53.7958 263.844 53.2358C263.284 52.6758 263.004 51.9824 263.004 51.1558C263.004 50.3291 263.284 49.6358 263.844 49.0758C264.404 48.5158 265.097 48.2358 265.924 48.2358C266.724 48.2358 267.404 48.5158 267.964 49.0758C268.524 49.6358 268.804 50.3291 268.804 51.1558C268.804 51.9824 268.524 52.6758 267.964 53.2358C267.404 53.7958 266.724 54.0758 265.924 54.0758ZM268.164 56.9958V79.0358H263.604V56.9958H268.164ZM272.631 67.9958C272.631 65.7291 273.084 63.7424 273.991 62.0358C274.924 60.3024 276.204 58.9691 277.831 58.0358C279.457 57.1024 281.324 56.6358 283.431 56.6358C286.097 56.6358 288.297 57.2758 290.031 58.5558C291.791 59.8091 292.977 61.6091 293.591 63.9558H288.671C288.271 62.8624 287.631 62.0091 286.751 61.3958C285.871 60.7824 284.764 60.4758 283.431 60.4758C281.564 60.4758 280.071 61.1424 278.951 62.4758C277.857 63.7824 277.311 65.6224 277.311 67.9958C277.311 70.3691 277.857 72.2224 278.951 73.5558C280.071 74.8891 281.564 75.5558 283.431 75.5558C286.071 75.5558 287.817 74.3958 288.671 72.0758H293.591C292.951 74.3158 291.751 76.1024 289.991 77.4358C288.231 78.7424 286.044 79.3958 283.431 79.3958C281.324 79.3958 279.457 78.9291 277.831 77.9958C276.204 77.0358 274.924 75.7024 273.991 73.9958C273.084 72.2624 272.631 70.2624 272.631 67.9958ZM300.455 54.0758C299.628 54.0758 298.935 53.7958 298.375 53.2358C297.815 52.6758 297.535 51.9824 297.535 51.1558C297.535 50.3291 297.815 49.6358 298.375 49.0758C298.935 48.5158 299.628 48.2358 300.455 48.2358C301.255 48.2358 301.935 48.5158 302.495 49.0758C303.055 49.6358 303.335 50.3291 303.335 51.1558C303.335 51.9824 303.055 52.6758 302.495 53.2358C301.935 53.7958 301.255 54.0758 300.455 54.0758ZM302.695 56.9958V79.0358H298.135V56.9958H302.695ZM318.242 79.3958C316.162 79.3958 314.282 78.9291 312.602 77.9958C310.922 77.0358 309.602 75.7024 308.642 73.9958C307.682 72.2624 307.202 70.2624 307.202 67.9958C307.202 65.7558 307.695 63.7691 308.682 62.0358C309.669 60.3024 311.015 58.9691 312.722 58.0358C314.429 57.1024 316.335 56.6358 318.442 56.6358C320.549 56.6358 322.455 57.1024 324.162 58.0358C325.869 58.9691 327.215 60.3024 328.202 62.0358C329.189 63.7691 329.682 65.7558 329.682 67.9958C329.682 70.2358 329.175 72.2224 328.162 73.9558C327.149 75.6891 325.762 77.0358 324.002 77.9958C322.269 78.9291 320.349 79.3958 318.242 79.3958ZM318.242 75.4358C319.415 75.4358 320.509 75.1558 321.522 74.5958C322.562 74.0358 323.402 73.1958 324.042 72.0758C324.682 70.9558 325.002 69.5958 325.002 67.9958C325.002 66.3958 324.695 65.0491 324.082 63.9558C323.469 62.8358 322.655 61.9958 321.642 61.4358C320.629 60.8758 319.535 60.5958 318.362 60.5958C317.189 60.5958 316.095 60.8758 315.082 61.4358C314.095 61.9958 313.309 62.8358 312.722 63.9558C312.135 65.0491 311.842 66.3958 311.842 67.9958C311.842 70.3691 312.442 72.2091 313.642 73.5158C314.869 74.7958 316.402 75.4358 318.242 75.4358ZM345.31 56.6358C347.043 56.6358 348.59 56.9958 349.95 57.7158C351.336 58.4358 352.416 59.5024 353.19 60.9158C353.963 62.3291 354.35 64.0358 354.35 66.0358V79.0358H349.83V66.7158C349.83 64.7424 349.336 63.2358 348.35 62.1958C347.363 61.1291 346.016 60.5958 344.31 60.5958C342.603 60.5958 341.243 61.1291 340.23 62.1958C339.243 63.2358 338.75 64.7424 338.75 66.7158V79.0358H334.19V56.9958H338.75V59.5158C339.496 58.6091 340.443 57.9024 341.59 57.3958C342.763 56.8891 344.003 56.6358 345.31 56.6358ZM380.366 67.4758C380.366 68.3024 380.313 69.0491 380.206 69.7158H363.366C363.5 71.4758 364.153 72.8891 365.326 73.9558C366.5 75.0224 367.94 75.5558 369.646 75.5558C372.1 75.5558 373.833 74.5291 374.846 72.4758H379.766C379.1 74.5024 377.886 76.1691 376.126 77.4758C374.393 78.7558 372.233 79.3958 369.646 79.3958C367.54 79.3958 365.646 78.9291 363.966 77.9958C362.313 77.0358 361.006 75.7024 360.046 73.9958C359.113 72.2624 358.646 70.2624 358.646 67.9958C358.646 65.7291 359.1 63.7424 360.006 62.0358C360.94 60.3024 362.233 58.9691 363.886 58.0358C365.566 57.1024 367.486 56.6358 369.646 56.6358C371.726 56.6358 373.58 57.0891 375.206 57.9958C376.833 58.9024 378.1 60.1824 379.006 61.8358C379.913 63.4624 380.366 65.3424 380.366 67.4758ZM375.606 66.0358C375.58 64.3558 374.98 63.0091 373.806 61.9958C372.633 60.9824 371.18 60.4758 369.446 60.4758C367.873 60.4758 366.526 60.9824 365.406 61.9958C364.286 62.9824 363.62 64.3291 363.406 66.0358H375.606Z" fill="#F5F5F5"/>
</svg>
