<svg width="766" height="545" viewBox="0 0 766 545" fill="none" xmlns="http://www.w3.org/2000/svg">
<rect x="0.0478516" width="765.952" height="545" rx="20" fill="#020C27"/>
<path d="M124.033 68.5408V76.7008H133.633V80.4208H124.033V88.9408H134.833V92.6608H119.473V64.8208H134.833V68.5408H124.033ZM148.449 93.0208C146.716 93.0208 145.156 92.7141 143.769 92.1008C142.409 91.4608 141.329 90.6074 140.529 89.5408C139.729 88.4474 139.303 87.2341 139.249 85.9008H143.969C144.049 86.8341 144.489 87.6208 145.289 88.2608C146.116 88.8741 147.143 89.1808 148.369 89.1808C149.649 89.1808 150.636 88.9408 151.329 88.4608C152.049 87.9541 152.409 87.3141 152.409 86.5408C152.409 85.7141 152.009 85.1008 151.209 84.7008C150.436 84.3008 149.196 83.8608 147.489 83.3808C145.836 82.9274 144.489 82.4874 143.449 82.0608C142.409 81.6341 141.503 80.9808 140.729 80.1008C139.983 79.2208 139.609 78.0608 139.609 76.6208C139.609 75.4474 139.956 74.3808 140.649 73.4208C141.343 72.4341 142.329 71.6608 143.609 71.1008C144.916 70.5408 146.409 70.2608 148.089 70.2608C150.596 70.2608 152.609 70.9008 154.129 72.1808C155.676 73.4341 156.503 75.1541 156.609 77.3408H152.049C151.969 76.3541 151.569 75.5674 150.849 74.9808C150.129 74.3941 149.156 74.1008 147.929 74.1008C146.729 74.1008 145.809 74.3274 145.169 74.7808C144.529 75.2341 144.209 75.8341 144.209 76.5808C144.209 77.1674 144.423 77.6608 144.849 78.0608C145.276 78.4608 145.796 78.7808 146.409 79.0208C147.023 79.2341 147.929 79.5141 149.129 79.8608C150.729 80.2874 152.036 80.7274 153.049 81.1808C154.089 81.6074 154.983 82.2474 155.729 83.1008C156.476 83.9541 156.863 85.0874 156.889 86.5008C156.889 87.7541 156.543 88.8741 155.849 89.8608C155.156 90.8474 154.169 91.6208 152.889 92.1808C151.636 92.7408 150.156 93.0208 148.449 93.0208ZM160.296 81.6208C160.296 79.3541 160.75 77.3674 161.656 75.6608C162.59 73.9274 163.87 72.5941 165.496 71.6608C167.123 70.7274 168.99 70.2608 171.096 70.2608C173.763 70.2608 175.963 70.9008 177.696 72.1808C179.456 73.4341 180.643 75.2341 181.256 77.5808H176.336C175.936 76.4874 175.296 75.6341 174.416 75.0208C173.536 74.4074 172.43 74.1008 171.096 74.1008C169.23 74.1008 167.736 74.7674 166.616 76.1008C165.523 77.4074 164.976 79.2474 164.976 81.6208C164.976 83.9941 165.523 85.8474 166.616 87.1808C167.736 88.5141 169.23 89.1808 171.096 89.1808C173.736 89.1808 175.483 88.0208 176.336 85.7008H181.256C180.616 87.9408 179.416 89.7274 177.656 91.0608C175.896 92.3674 173.71 93.0208 171.096 93.0208C168.99 93.0208 167.123 92.5541 165.496 91.6208C163.87 90.6608 162.59 89.3274 161.656 87.6208C160.75 85.8874 160.296 83.8874 160.296 81.6208ZM205.761 70.6208V92.6608H201.201V90.0608C200.481 90.9674 199.534 91.6874 198.361 92.2208C197.214 92.7274 195.987 92.9808 194.681 92.9808C192.947 92.9808 191.387 92.6208 190.001 91.9008C188.641 91.1808 187.561 90.1141 186.761 88.7008C185.987 87.2874 185.601 85.5808 185.601 83.5808V70.6208H190.121V82.9008C190.121 84.8741 190.614 86.3941 191.601 87.4608C192.587 88.5008 193.934 89.0208 195.641 89.0208C197.347 89.0208 198.694 88.5008 199.681 87.4608C200.694 86.3941 201.201 84.8741 201.201 82.9008V70.6208H205.761ZM217.097 74.3408V86.5408C217.097 87.3674 217.284 87.9674 217.657 88.3408C218.057 88.6874 218.724 88.8608 219.657 88.8608H222.457V92.6608H218.857C216.804 92.6608 215.231 92.1808 214.137 91.2208C213.044 90.2608 212.497 88.7008 212.497 86.5408V74.3408H209.897V70.6208H212.497V65.1408H217.097V70.6208H222.457V74.3408H217.097ZM246.86 81.1008C246.86 81.9274 246.807 82.6741 246.7 83.3408H229.86C229.993 85.1008 230.647 86.5141 231.82 87.5808C232.993 88.6474 234.433 89.1808 236.14 89.1808C238.593 89.1808 240.327 88.1541 241.34 86.1008H246.26C245.593 88.1274 244.38 89.7941 242.62 91.1008C240.887 92.3808 238.727 93.0208 236.14 93.0208C234.033 93.0208 232.14 92.5541 230.46 91.6208C228.807 90.6608 227.5 89.3274 226.54 87.6208C225.607 85.8874 225.14 83.8874 225.14 81.6208C225.14 79.3541 225.593 77.3674 226.5 75.6608C227.433 73.9274 228.727 72.5941 230.38 71.6608C232.06 70.7274 233.98 70.2608 236.14 70.2608C238.22 70.2608 240.073 70.7141 241.7 71.6208C243.327 72.5274 244.593 73.8074 245.5 75.4608C246.407 77.0874 246.86 78.9674 246.86 81.1008ZM242.1 79.6608C242.073 77.9808 241.473 76.6341 240.3 75.6208C239.127 74.6074 237.673 74.1008 235.94 74.1008C234.367 74.1008 233.02 74.6074 231.9 75.6208C230.78 76.6074 230.113 77.9541 229.9 79.6608H242.1ZM281.938 81.1008C281.938 81.9274 281.885 82.6741 281.778 83.3408H264.938C265.072 85.1008 265.725 86.5141 266.898 87.5808C268.072 88.6474 269.512 89.1808 271.218 89.1808C273.672 89.1808 275.405 88.1541 276.418 86.1008H281.338C280.672 88.1274 279.458 89.7941 277.698 91.1008C275.965 92.3808 273.805 93.0208 271.218 93.0208C269.112 93.0208 267.218 92.5541 265.538 91.6208C263.885 90.6608 262.578 89.3274 261.618 87.6208C260.685 85.8874 260.218 83.8874 260.218 81.6208C260.218 79.3541 260.672 77.3674 261.578 75.6608C262.512 73.9274 263.805 72.5941 265.458 71.6608C267.138 70.7274 269.058 70.2608 271.218 70.2608C273.298 70.2608 275.152 70.7141 276.778 71.6208C278.405 72.5274 279.672 73.8074 280.578 75.4608C281.485 77.0874 281.938 78.9674 281.938 81.1008ZM277.178 79.6608C277.152 77.9808 276.552 76.6341 275.378 75.6208C274.205 74.6074 272.752 74.1008 271.018 74.1008C269.445 74.1008 268.098 74.6074 266.978 75.6208C265.858 76.6074 265.192 77.9541 264.978 79.6608H277.178ZM295.296 81.5408C295.296 79.3274 295.75 77.3674 296.656 75.6608C297.59 73.9541 298.843 72.6341 300.416 71.7008C302.016 70.7408 303.79 70.2608 305.736 70.2608C307.176 70.2608 308.59 70.5808 309.976 71.2208C311.39 71.8341 312.51 72.6608 313.336 73.7008V63.0608H317.936V92.6608H313.336V89.3408C312.59 90.4074 311.55 91.2874 310.216 91.9808C308.91 92.6741 307.403 93.0208 305.696 93.0208C303.776 93.0208 302.016 92.5408 300.416 91.5808C298.843 90.5941 297.59 89.2341 296.656 87.5008C295.75 85.7408 295.296 83.7541 295.296 81.5408ZM313.336 81.6208C313.336 80.1008 313.016 78.7808 312.376 77.6608C311.763 76.5408 310.95 75.6874 309.936 75.1008C308.923 74.5141 307.83 74.2208 306.656 74.2208C305.483 74.2208 304.39 74.5141 303.376 75.1008C302.363 75.6608 301.536 76.5008 300.896 77.6208C300.283 78.7141 299.976 80.0208 299.976 81.5408C299.976 83.0608 300.283 84.3941 300.896 85.5408C301.536 86.6874 302.363 87.5674 303.376 88.1808C304.416 88.7674 305.51 89.0608 306.656 89.0608C307.83 89.0608 308.923 88.7674 309.936 88.1808C310.95 87.5941 311.763 86.7408 312.376 85.6208C313.016 84.4741 313.336 83.1408 313.336 81.6208ZM344.126 81.1008C344.126 81.9274 344.072 82.6741 343.966 83.3408H327.126C327.259 85.1008 327.912 86.5141 329.086 87.5808C330.259 88.6474 331.699 89.1808 333.406 89.1808C335.859 89.1808 337.592 88.1541 338.606 86.1008H343.526C342.859 88.1274 341.646 89.7941 339.886 91.1008C338.152 92.3808 335.992 93.0208 333.406 93.0208C331.299 93.0208 329.406 92.5541 327.726 91.6208C326.072 90.6608 324.766 89.3274 323.806 87.6208C322.872 85.8874 322.406 83.8874 322.406 81.6208C322.406 79.3541 322.859 77.3674 323.766 75.6608C324.699 73.9274 325.992 72.5941 327.646 71.6608C329.326 70.7274 331.246 70.2608 333.406 70.2608C335.486 70.2608 337.339 70.7141 338.966 71.6208C340.592 72.5274 341.859 73.8074 342.766 75.4608C343.672 77.0874 344.126 78.9674 344.126 81.1008ZM339.366 79.6608C339.339 77.9808 338.739 76.6341 337.566 75.6208C336.392 74.6074 334.939 74.1008 333.206 74.1008C331.632 74.1008 330.286 74.6074 329.166 75.6208C328.046 76.6074 327.379 77.9541 327.166 79.6608H339.366ZM356.613 93.0208C354.88 93.0208 353.32 92.7141 351.933 92.1008C350.573 91.4608 349.493 90.6074 348.693 89.5408C347.893 88.4474 347.467 87.2341 347.413 85.9008H352.133C352.213 86.8341 352.653 87.6208 353.453 88.2608C354.28 88.8741 355.307 89.1808 356.533 89.1808C357.813 89.1808 358.8 88.9408 359.493 88.4608C360.213 87.9541 360.573 87.3141 360.573 86.5408C360.573 85.7141 360.173 85.1008 359.373 84.7008C358.6 84.3008 357.36 83.8608 355.653 83.3808C354 82.9274 352.653 82.4874 351.613 82.0608C350.573 81.6341 349.667 80.9808 348.893 80.1008C348.147 79.2208 347.773 78.0608 347.773 76.6208C347.773 75.4474 348.12 74.3808 348.813 73.4208C349.507 72.4341 350.493 71.6608 351.773 71.1008C353.08 70.5408 354.573 70.2608 356.253 70.2608C358.76 70.2608 360.773 70.9008 362.293 72.1808C363.84 73.4341 364.667 75.1541 364.773 77.3408H360.213C360.133 76.3541 359.733 75.5674 359.013 74.9808C358.293 74.3941 357.32 74.1008 356.093 74.1008C354.893 74.1008 353.973 74.3274 353.333 74.7808C352.693 75.2341 352.373 75.8341 352.373 76.5808C352.373 77.1674 352.587 77.6608 353.013 78.0608C353.44 78.4608 353.96 78.7808 354.573 79.0208C355.187 79.2341 356.093 79.5141 357.293 79.8608C358.893 80.2874 360.2 80.7274 361.213 81.1808C362.253 81.6074 363.147 82.2474 363.893 83.1008C364.64 83.9541 365.027 85.0874 365.053 86.5008C365.053 87.7541 364.707 88.8741 364.013 89.8608C363.32 90.8474 362.333 91.6208 361.053 92.1808C359.8 92.7408 358.32 93.0208 356.613 93.0208ZM379.22 74.3408H375.14V92.6608H370.54V74.3408H367.94V70.6208H370.54V69.0608C370.54 66.5274 371.207 64.6874 372.54 63.5408C373.9 62.3674 376.02 61.7808 378.9 61.7808V65.5808C377.514 65.5808 376.54 65.8474 375.98 66.3808C375.42 66.8874 375.14 67.7808 375.14 69.0608V70.6208H379.22V74.3408ZM387.822 73.8208C388.488 72.7008 389.368 71.8341 390.462 71.2208C391.582 70.5808 392.902 70.2608 394.422 70.2608V74.9808H393.262C391.475 74.9808 390.115 75.4341 389.182 76.3408C388.275 77.2474 387.822 78.8208 387.822 81.0608V92.6608H383.262V70.6208H387.822V73.8208ZM418.573 70.6208V92.6608H414.013V90.0608C413.293 90.9674 412.347 91.6874 411.173 92.2208C410.027 92.7274 408.8 92.9808 407.493 92.9808C405.76 92.9808 404.2 92.6208 402.813 91.9008C401.453 91.1808 400.373 90.1141 399.573 88.7008C398.8 87.2874 398.413 85.5808 398.413 83.5808V70.6208H402.933V82.9008C402.933 84.8741 403.427 86.3941 404.413 87.4608C405.4 88.5008 406.747 89.0208 408.453 89.0208C410.16 89.0208 411.507 88.5008 412.493 87.4608C413.507 86.3941 414.013 84.8741 414.013 82.9008V70.6208H418.573ZM429.91 74.3408V86.5408C429.91 87.3674 430.097 87.9674 430.47 88.3408C430.87 88.6874 431.537 88.8608 432.47 88.8608H435.27V92.6608H431.67C429.617 92.6608 428.043 92.1808 426.95 91.2208C425.857 90.2608 425.31 88.7008 425.31 86.5408V74.3408H422.71V70.6208H425.31V65.1408H429.91V70.6208H435.27V74.3408H429.91ZM459.673 81.1008C459.673 81.9274 459.619 82.6741 459.513 83.3408H442.673C442.806 85.1008 443.459 86.5141 444.633 87.5808C445.806 88.6474 447.246 89.1808 448.953 89.1808C451.406 89.1808 453.139 88.1541 454.153 86.1008H459.073C458.406 88.1274 457.193 89.7941 455.433 91.1008C453.699 92.3808 451.539 93.0208 448.953 93.0208C446.846 93.0208 444.953 92.5541 443.273 91.6208C441.619 90.6608 440.313 89.3274 439.353 87.6208C438.419 85.8874 437.953 83.8874 437.953 81.6208C437.953 79.3541 438.406 77.3674 439.313 75.6608C440.246 73.9274 441.539 72.5941 443.193 71.6608C444.873 70.7274 446.793 70.2608 448.953 70.2608C451.033 70.2608 452.886 70.7141 454.513 71.6208C456.139 72.5274 457.406 73.8074 458.313 75.4608C459.219 77.0874 459.673 78.9674 459.673 81.1008ZM454.913 79.6608C454.886 77.9808 454.286 76.6341 453.113 75.6208C451.939 74.6074 450.486 74.1008 448.753 74.1008C447.179 74.1008 445.833 74.6074 444.713 75.6208C443.593 76.6074 442.926 77.9541 442.713 79.6608H454.913Z" fill="#F5F5F5"/>
<path d="M138.437 162.025V182.875H135.017V173.755H125.207V182.875H121.787V162.025H125.207V170.965H135.017V162.025H138.437ZM141.799 174.535C141.799 172.875 142.139 171.405 142.819 170.125C143.519 168.845 144.459 167.855 145.639 167.155C146.839 166.435 148.159 166.075 149.599 166.075C150.899 166.075 152.029 166.335 152.989 166.855C153.969 167.355 154.749 167.985 155.329 168.745V166.345H158.779V182.875H155.329V180.415C154.749 181.195 153.959 181.845 152.959 182.365C151.959 182.885 150.819 183.145 149.539 183.145C148.119 183.145 146.819 182.785 145.639 182.065C144.459 181.325 143.519 180.305 142.819 179.005C142.139 177.685 141.799 176.195 141.799 174.535ZM155.329 174.595C155.329 173.455 155.089 172.465 154.609 171.625C154.149 170.785 153.539 170.145 152.779 169.705C152.019 169.265 151.199 169.045 150.319 169.045C149.439 169.045 148.619 169.265 147.859 169.705C147.099 170.125 146.479 170.755 145.999 171.595C145.539 172.415 145.309 173.395 145.309 174.535C145.309 175.675 145.539 176.675 145.999 177.535C146.479 178.395 147.099 179.055 147.859 179.515C148.639 179.955 149.459 180.175 150.319 180.175C151.199 180.175 152.019 179.955 152.779 179.515C153.539 179.075 154.149 178.435 154.609 177.595C155.089 176.735 155.329 175.735 155.329 174.595ZM166.691 168.775C167.271 168.015 168.061 167.375 169.061 166.855C170.061 166.335 171.191 166.075 172.451 166.075C173.891 166.075 175.201 166.435 176.381 167.155C177.581 167.855 178.521 168.845 179.201 170.125C179.881 171.405 180.221 172.875 180.221 174.535C180.221 176.195 179.881 177.685 179.201 179.005C178.521 180.305 177.581 181.325 176.381 182.065C175.201 182.785 173.891 183.145 172.451 183.145C171.191 183.145 170.071 182.895 169.091 182.395C168.111 181.875 167.311 181.235 166.691 180.475V190.735H163.271V166.345H166.691V168.775ZM176.741 174.535C176.741 173.395 176.501 172.415 176.021 171.595C175.561 170.755 174.941 170.125 174.161 169.705C173.401 169.265 172.581 169.045 171.701 169.045C170.841 169.045 170.021 169.265 169.241 169.705C168.481 170.145 167.861 170.785 167.381 171.625C166.921 172.465 166.691 173.455 166.691 174.595C166.691 175.735 166.921 176.735 167.381 177.595C167.861 178.435 168.481 179.075 169.241 179.515C170.021 179.955 170.841 180.175 171.701 180.175C172.581 180.175 173.401 179.955 174.161 179.515C174.941 179.055 175.561 178.395 176.021 177.535C176.501 176.675 176.741 175.675 176.741 174.535ZM187.023 168.775C187.603 168.015 188.393 167.375 189.393 166.855C190.393 166.335 191.523 166.075 192.783 166.075C194.223 166.075 195.533 166.435 196.713 167.155C197.913 167.855 198.853 168.845 199.533 170.125C200.213 171.405 200.553 172.875 200.553 174.535C200.553 176.195 200.213 177.685 199.533 179.005C198.853 180.305 197.913 181.325 196.713 182.065C195.533 182.785 194.223 183.145 192.783 183.145C191.523 183.145 190.403 182.895 189.423 182.395C188.443 181.875 187.643 181.235 187.023 180.475V190.735H183.603V166.345H187.023V168.775ZM197.073 174.535C197.073 173.395 196.833 172.415 196.353 171.595C195.893 170.755 195.273 170.125 194.493 169.705C193.733 169.265 192.913 169.045 192.033 169.045C191.173 169.045 190.353 169.265 189.573 169.705C188.813 170.145 188.193 170.785 187.713 171.625C187.253 172.465 187.023 173.455 187.023 174.595C187.023 175.735 187.253 176.735 187.713 177.595C188.193 178.435 188.813 179.075 189.573 179.515C190.353 179.955 191.173 180.175 192.033 180.175C192.913 180.175 193.733 179.955 194.493 179.515C195.273 179.055 195.893 178.395 196.353 177.535C196.833 176.675 197.073 175.675 197.073 174.535ZM218.815 166.345L208.675 190.645H205.135L208.495 182.605L201.985 166.345H205.795L210.445 178.945L215.275 166.345H218.815ZM236.899 174.675V176.595H228.679V174.675H236.899ZM247.613 168.975V182.875H245.333V168.975H247.613ZM256.167 171.675C257.034 171.675 257.807 171.855 258.487 172.215C259.18 172.575 259.72 173.108 260.107 173.815C260.494 174.522 260.687 175.375 260.687 176.375V182.875H258.427V176.715C258.427 175.728 258.18 174.975 257.687 174.455C257.194 173.922 256.52 173.655 255.667 173.655C254.814 173.655 254.134 173.922 253.627 174.455C253.134 174.975 252.887 175.728 252.887 176.715V182.875H250.607V171.855H252.887V173.115C253.26 172.662 253.734 172.308 254.307 172.055C254.894 171.802 255.514 171.675 256.167 171.675ZM270.815 182.875L267.615 177.315H265.875V182.875H263.595V168.975H268.395C269.462 168.975 270.362 169.162 271.095 169.535C271.842 169.908 272.395 170.408 272.755 171.035C273.129 171.662 273.315 172.362 273.315 173.135C273.315 174.042 273.049 174.868 272.515 175.615C271.995 176.348 271.189 176.848 270.095 177.115L273.535 182.875H270.815ZM265.875 175.495H268.395C269.249 175.495 269.889 175.282 270.315 174.855C270.755 174.428 270.975 173.855 270.975 173.135C270.975 172.415 270.762 171.855 270.335 171.455C269.909 171.042 269.262 170.835 268.395 170.835H265.875V175.495ZM286.332 177.095C286.332 177.508 286.305 177.882 286.252 178.215H277.832C277.899 179.095 278.225 179.802 278.812 180.335C279.399 180.868 280.119 181.135 280.972 181.135C282.199 181.135 283.065 180.622 283.572 179.595H286.032C285.699 180.608 285.092 181.442 284.212 182.095C283.345 182.735 282.265 183.055 280.972 183.055C279.919 183.055 278.972 182.822 278.132 182.355C277.305 181.875 276.652 181.208 276.172 180.355C275.705 179.488 275.472 178.488 275.472 177.355C275.472 176.222 275.699 175.228 276.152 174.375C276.619 173.508 277.265 172.842 278.092 172.375C278.932 171.908 279.892 171.675 280.972 171.675C282.012 171.675 282.939 171.902 283.752 172.355C284.565 172.808 285.199 173.448 285.652 174.275C286.105 175.088 286.332 176.028 286.332 177.095ZM283.952 176.375C283.939 175.535 283.639 174.862 283.052 174.355C282.465 173.848 281.739 173.595 280.872 173.595C280.085 173.595 279.412 173.848 278.852 174.355C278.292 174.848 277.959 175.522 277.852 176.375H283.952ZM292.836 180.835L295.956 171.855H298.376L294.176 182.875H291.456L287.276 171.855H289.716L292.836 180.835ZM310.199 177.095C310.199 177.508 310.172 177.882 310.119 178.215H301.699C301.766 179.095 302.092 179.802 302.679 180.335C303.266 180.868 303.986 181.135 304.839 181.135C306.066 181.135 306.932 180.622 307.439 179.595H309.899C309.566 180.608 308.959 181.442 308.079 182.095C307.212 182.735 306.132 183.055 304.839 183.055C303.786 183.055 302.839 182.822 301.999 182.355C301.172 181.875 300.519 181.208 300.039 180.355C299.572 179.488 299.339 178.488 299.339 177.355C299.339 176.222 299.566 175.228 300.019 174.375C300.486 173.508 301.132 172.842 301.959 172.375C302.799 171.908 303.759 171.675 304.839 171.675C305.879 171.675 306.806 171.902 307.619 172.355C308.432 172.808 309.066 173.448 309.519 174.275C309.972 175.088 310.199 176.028 310.199 177.095ZM307.819 176.375C307.806 175.535 307.506 174.862 306.919 174.355C306.332 173.848 305.606 173.595 304.739 173.595C303.952 173.595 303.279 173.848 302.719 174.355C302.159 174.848 301.826 175.522 301.719 176.375H307.819ZM314.723 173.455C315.056 172.895 315.496 172.462 316.043 172.155C316.603 171.835 317.263 171.675 318.023 171.675V174.035H317.443C316.55 174.035 315.87 174.262 315.403 174.715C314.95 175.168 314.723 175.955 314.723 177.075V182.875H312.443V171.855H314.723V173.455ZM324.119 183.055C323.252 183.055 322.472 182.902 321.779 182.595C321.099 182.275 320.559 181.848 320.159 181.315C319.759 180.768 319.545 180.162 319.519 179.495H321.879C321.919 179.962 322.139 180.355 322.539 180.675C322.952 180.982 323.465 181.135 324.079 181.135C324.719 181.135 325.212 181.015 325.559 180.775C325.919 180.522 326.099 180.202 326.099 179.815C326.099 179.402 325.899 179.095 325.499 178.895C325.112 178.695 324.492 178.475 323.639 178.235C322.812 178.008 322.139 177.788 321.619 177.575C321.099 177.362 320.645 177.035 320.259 176.595C319.885 176.155 319.699 175.575 319.699 174.855C319.699 174.268 319.872 173.735 320.219 173.255C320.565 172.762 321.059 172.375 321.699 172.095C322.352 171.815 323.099 171.675 323.939 171.675C325.192 171.675 326.199 171.995 326.959 172.635C327.732 173.262 328.145 174.122 328.199 175.215H325.919C325.879 174.722 325.679 174.328 325.319 174.035C324.959 173.742 324.472 173.595 323.859 173.595C323.259 173.595 322.799 173.708 322.479 173.935C322.159 174.162 321.999 174.462 321.999 174.835C321.999 175.128 322.105 175.375 322.319 175.575C322.532 175.775 322.792 175.935 323.099 176.055C323.405 176.162 323.859 176.302 324.459 176.475C325.259 176.688 325.912 176.908 326.419 177.135C326.939 177.348 327.385 177.668 327.759 178.095C328.132 178.522 328.325 179.088 328.339 179.795C328.339 180.422 328.165 180.982 327.819 181.475C327.472 181.968 326.979 182.355 326.339 182.635C325.712 182.915 324.972 183.055 324.119 183.055ZM340.902 177.095C340.902 177.508 340.876 177.882 340.822 178.215H332.402C332.469 179.095 332.796 179.802 333.382 180.335C333.969 180.868 334.689 181.135 335.542 181.135C336.769 181.135 337.636 180.622 338.142 179.595H340.602C340.269 180.608 339.662 181.442 338.782 182.095C337.916 182.735 336.836 183.055 335.542 183.055C334.489 183.055 333.542 182.822 332.702 182.355C331.876 181.875 331.222 181.208 330.742 180.355C330.276 179.488 330.042 178.488 330.042 177.355C330.042 176.222 330.269 175.228 330.722 174.375C331.189 173.508 331.836 172.842 332.662 172.375C333.502 171.908 334.462 171.675 335.542 171.675C336.582 171.675 337.509 171.902 338.322 172.355C339.136 172.808 339.769 173.448 340.222 174.275C340.676 175.088 340.902 176.028 340.902 177.095ZM338.522 176.375C338.509 175.535 338.209 174.862 337.622 174.355C337.036 173.848 336.309 173.595 335.442 173.595C334.656 173.595 333.982 173.848 333.422 174.355C332.862 174.848 332.529 175.522 332.422 176.375H338.522Z" fill="#F5F5F5"/>
<path d="M121.997 293.346C123.277 292.24 124.283 291.333 125.017 290.626C125.763 289.906 126.383 289.16 126.877 288.386C127.37 287.613 127.617 286.84 127.617 286.066C127.617 285.266 127.423 284.64 127.037 284.186C126.663 283.733 126.07 283.506 125.257 283.506C124.47 283.506 123.857 283.76 123.417 284.266C122.99 284.76 122.763 285.426 122.737 286.266H120.537C120.577 284.746 121.03 283.586 121.897 282.786C122.777 281.973 123.89 281.566 125.237 281.566C126.69 281.566 127.823 281.966 128.637 282.766C129.463 283.566 129.877 284.633 129.877 285.966C129.877 286.926 129.63 287.853 129.137 288.746C128.657 289.626 128.077 290.42 127.397 291.126C126.73 291.82 125.877 292.626 124.837 293.546L123.937 294.346H130.277V296.246H120.557V294.586L121.997 293.346ZM133.5 296.586C133.086 296.586 132.74 296.446 132.46 296.166C132.18 295.886 132.04 295.54 132.04 295.126C132.04 294.713 132.18 294.366 132.46 294.086C132.74 293.806 133.086 293.666 133.5 293.666C133.9 293.666 134.24 293.806 134.52 294.086C134.8 294.366 134.94 294.713 134.94 295.126C134.94 295.54 134.8 295.886 134.52 296.166C134.24 296.446 133.9 296.586 133.5 296.586ZM133.5 288.186C133.086 288.186 132.74 288.046 132.46 287.766C132.18 287.486 132.04 287.14 132.04 286.726C132.04 286.313 132.18 285.966 132.46 285.686C132.74 285.406 133.086 285.266 133.5 285.266C133.9 285.266 134.24 285.406 134.52 285.686C134.8 285.966 134.94 286.313 134.94 286.726C134.94 287.14 134.8 287.486 134.52 287.766C134.24 288.046 133.9 288.186 133.5 288.186ZM137.142 285.466C137.222 284.226 137.695 283.26 138.562 282.566C139.442 281.873 140.562 281.526 141.922 281.526C142.855 281.526 143.662 281.693 144.342 282.026C145.022 282.36 145.535 282.813 145.882 283.386C146.229 283.96 146.402 284.606 146.402 285.326C146.402 286.153 146.182 286.86 145.742 287.446C145.302 288.033 144.775 288.426 144.162 288.626V288.706C144.949 288.946 145.562 289.386 146.002 290.026C146.442 290.653 146.662 291.46 146.662 292.446C146.662 293.233 146.482 293.933 146.122 294.546C145.762 295.16 145.229 295.646 144.522 296.006C143.815 296.353 142.969 296.526 141.982 296.526C140.542 296.526 139.355 296.16 138.422 295.426C137.502 294.68 137.009 293.613 136.942 292.226H139.142C139.195 292.933 139.469 293.513 139.962 293.966C140.455 294.406 141.122 294.626 141.962 294.626C142.775 294.626 143.402 294.406 143.842 293.966C144.282 293.513 144.502 292.933 144.502 292.226C144.502 291.293 144.202 290.633 143.602 290.246C143.015 289.846 142.109 289.646 140.882 289.646H140.362V287.766H140.902C141.982 287.753 142.802 287.573 143.362 287.226C143.935 286.88 144.222 286.333 144.222 285.586C144.222 284.946 144.015 284.44 143.602 284.066C143.189 283.68 142.602 283.486 141.842 283.486C141.095 283.486 140.515 283.68 140.102 284.066C139.689 284.44 139.442 284.906 139.362 285.466H137.142ZM158.297 283.626L152.737 296.446H150.437L156.057 283.866H148.657V281.926H158.297V283.626Z" fill="#F5F5F5"/>
<path d="M119.537 261.768H646.512" stroke="#0E2F8C" stroke-width="7" stroke-linecap="round"/>
<circle cx="543.661" cy="261.089" r="10" fill="#D9D9D9"/>
<g clip-path="url(#clip0_28_135)">
<path d="M361.774 370.25C356.648 370.25 352.489 375.373 352.489 381.687V450.312C352.489 456.627 356.648 461.75 361.774 461.75H367.963C373.089 461.75 377.248 456.627 377.248 450.312V381.687C377.248 375.373 373.089 370.25 367.963 370.25H361.774ZM398.912 370.25C393.786 370.25 389.627 375.373 389.627 381.687V450.312C389.627 456.627 393.786 461.75 398.912 461.75H405.102C410.227 461.75 414.386 456.627 414.386 450.312V381.687C414.386 375.373 410.227 370.25 405.102 370.25H398.912Z" fill="#DA3BBD"/>
</g>
<g clip-path="url(#clip1_28_135)">
<path d="M243.033 434.328C243.799 435.112 244.871 435.291 245.782 434.765C246.692 434.238 247.265 433.116 247.265 431.885V400.115C247.265 398.883 246.684 397.762 245.782 397.235C244.879 396.709 243.807 396.878 243.033 397.672L229.211 411.86V416V420.14L243.033 434.328ZM226.632 425.531V416V403.292V400.115C226.632 398.883 226.052 397.762 225.149 397.235C224.247 396.709 223.175 396.878 222.401 397.672L206.927 413.558C206.339 414.163 206 415.057 206 416C206 416.943 206.339 417.837 206.927 418.442L222.401 434.328C223.167 435.112 224.239 435.291 225.149 434.765C226.06 434.238 226.632 433.116 226.632 431.885V425.531Z" fill="#DA3BBD"/>
</g>
<g clip-path="url(#clip2_28_135)">
<path d="M523.843 434.328C523.077 435.112 522.005 435.291 521.095 434.765C520.184 434.238 519.612 433.116 519.612 431.885V400.115C519.612 398.883 520.192 397.762 521.095 397.235C521.997 396.709 523.069 396.878 523.843 397.672L537.665 411.86V416V420.14L523.843 434.328ZM540.244 425.531V416V403.292V400.115C540.244 398.883 540.824 397.762 541.727 397.235C542.63 396.709 543.702 396.878 544.475 397.672L559.95 413.558C560.538 414.163 560.876 415.057 560.876 416C560.876 416.943 560.538 417.837 559.95 418.442L544.475 434.328C543.71 435.112 542.638 435.291 541.727 434.765C540.816 434.238 540.244 433.116 540.244 431.885V425.531Z" fill="#DA3BBD"/>
</g>
<path d="M273.733 423.271C273.537 423.467 273.537 423.783 273.733 423.979L276.915 427.161C277.11 427.356 277.426 427.356 277.622 427.161C277.817 426.965 277.817 426.649 277.622 426.453L274.793 423.625L277.622 420.797C277.817 420.601 277.817 420.285 277.622 420.089C277.426 419.894 277.11 419.894 276.915 420.089L273.733 423.271ZM325.667 423.125H274.086V424.125H325.667V423.125Z" fill="#DA3BBD"/>
<path d="M495.206 423.271C495.401 423.467 495.401 423.783 495.206 423.979L492.024 427.161C491.829 427.356 491.512 427.356 491.317 427.161C491.121 426.965 491.121 426.649 491.317 426.453L494.145 423.625L491.317 420.797C491.121 420.601 491.121 420.285 491.317 420.089C491.512 419.894 491.829 419.894 492.024 420.089L495.206 423.271ZM443.271 423.125H494.852V424.125H443.271V423.125Z" fill="#DA3BBD"/>
<path d="M304.608 394.035V396.339H294.744V394.035H304.608ZM307.775 388.875V386.379H312.767V403.875H310.007V388.875H307.775ZM316.525 394.899C316.525 392.131 316.989 389.971 317.917 388.419C318.861 386.851 320.477 386.067 322.765 386.067C325.053 386.067 326.661 386.851 327.589 388.419C328.533 389.971 329.005 392.131 329.005 394.899C329.005 397.699 328.533 399.891 327.589 401.475C326.661 403.043 325.053 403.827 322.765 403.827C320.477 403.827 318.861 403.043 317.917 401.475C316.989 399.891 316.525 397.699 316.525 394.899ZM326.317 394.899C326.317 393.603 326.229 392.507 326.053 391.611C325.893 390.715 325.557 389.987 325.045 389.427C324.533 388.851 323.773 388.563 322.765 388.563C321.757 388.563 320.997 388.851 320.485 389.427C319.973 389.987 319.629 390.715 319.453 391.611C319.293 392.507 319.213 393.603 319.213 394.899C319.213 396.243 319.293 397.371 319.453 398.283C319.613 399.195 319.949 399.931 320.461 400.491C320.989 401.051 321.757 401.331 322.765 401.331C323.773 401.331 324.533 401.051 325.045 400.491C325.573 399.931 325.917 399.195 326.077 398.283C326.237 397.371 326.317 396.243 326.317 394.899Z" fill="#DA3BBD"/>
<path d="M449.707 396.363H444.859V401.331H442.315V396.363H437.467V394.059H442.315V389.091H444.859V394.059H449.707V396.363ZM453.231 388.875V386.379H458.223V403.875H455.463V388.875H453.231ZM461.982 394.899C461.982 392.131 462.446 389.971 463.374 388.419C464.318 386.851 465.934 386.067 468.222 386.067C470.51 386.067 472.118 386.851 473.046 388.419C473.99 389.971 474.462 392.131 474.462 394.899C474.462 397.699 473.99 399.891 473.046 401.475C472.118 403.043 470.51 403.827 468.222 403.827C465.934 403.827 464.318 403.043 463.374 401.475C462.446 399.891 461.982 397.699 461.982 394.899ZM471.774 394.899C471.774 393.603 471.686 392.507 471.51 391.611C471.35 390.715 471.014 389.987 470.502 389.427C469.99 388.851 469.23 388.563 468.222 388.563C467.214 388.563 466.454 388.851 465.942 389.427C465.43 389.987 465.086 390.715 464.91 391.611C464.75 392.507 464.67 393.603 464.67 394.899C464.67 396.243 464.75 397.371 464.91 398.283C465.07 399.195 465.406 399.931 465.918 400.491C466.446 401.051 467.214 401.331 468.222 401.331C469.23 401.331 469.99 401.051 470.502 400.491C471.03 399.931 471.374 399.195 471.534 398.283C471.694 397.371 471.774 396.243 471.774 394.899Z" fill="#DA3BBD"/>
<defs>
<clipPath id="clip0_28_135">
<rect width="61.8969" height="122" fill="white" transform="translate(352.489 355)"/>
</clipPath>
<clipPath id="clip1_28_135">
<rect width="41.2646" height="50.8333" fill="white" transform="matrix(-1 0 0 1 247.265 390.583)"/>
</clipPath>
<clipPath id="clip2_28_135">
<rect width="41.2646" height="50.8333" fill="white" transform="translate(519.612 390.583)"/>
</clipPath>
</defs>
</svg>
