<svg width="767" height="545" viewBox="0 0 767 545" fill="none" xmlns="http://www.w3.org/2000/svg">
<rect x="0.696777" width="765.952" height="545" rx="20" fill="#020C27"/>
<path d="M93.9406 92.6608H89.3806L75.6606 71.9008V92.6608H71.1006V64.8208H75.6606L89.3806 85.5408V64.8208H93.9406V92.6608ZM98.4087 81.5408C98.4087 79.3274 98.862 77.3674 99.7687 75.6608C100.702 73.9541 101.955 72.6341 103.529 71.7008C105.129 70.7408 106.889 70.2608 108.809 70.2608C110.542 70.2608 112.049 70.6074 113.329 71.3008C114.635 71.9674 115.675 72.8074 116.449 73.8208V70.6208H121.049V92.6608H116.449V89.3808C115.675 90.4208 114.622 91.2874 113.289 91.9808C111.955 92.6741 110.435 93.0208 108.729 93.0208C106.835 93.0208 105.102 92.5408 103.529 91.5808C101.955 90.5941 100.702 89.2341 99.7687 87.5008C98.862 85.7408 98.4087 83.7541 98.4087 81.5408ZM116.449 81.6208C116.449 80.1008 116.129 78.7808 115.489 77.6608C114.875 76.5408 114.062 75.6874 113.049 75.1008C112.035 74.5141 110.942 74.2208 109.769 74.2208C108.595 74.2208 107.502 74.5141 106.489 75.1008C105.475 75.6608 104.649 76.5008 104.009 77.6208C103.395 78.7141 103.089 80.0208 103.089 81.5408C103.089 83.0608 103.395 84.3941 104.009 85.5408C104.649 86.6874 105.475 87.5674 106.489 88.1808C107.529 88.7674 108.622 89.0608 109.769 89.0608C110.942 89.0608 112.035 88.7674 113.049 88.1808C114.062 87.5941 114.875 86.7408 115.489 85.6208C116.129 84.4741 116.449 83.1408 116.449 81.6208ZM135.558 88.5808L141.798 70.6208H146.638L138.238 92.6608H132.798L124.438 70.6208H129.318L135.558 88.5808ZM170.285 81.1008C170.285 81.9274 170.232 82.6741 170.125 83.3408H153.285C153.418 85.1008 154.072 86.5141 155.245 87.5808C156.418 88.6474 157.858 89.1808 159.565 89.1808C162.018 89.1808 163.752 88.1541 164.765 86.1008H169.685C169.018 88.1274 167.805 89.7941 166.045 91.1008C164.312 92.3808 162.152 93.0208 159.565 93.0208C157.458 93.0208 155.565 92.5541 153.885 91.6208C152.232 90.6608 150.925 89.3274 149.965 87.6208C149.032 85.8874 148.565 83.8874 148.565 81.6208C148.565 79.3541 149.018 77.3674 149.925 75.6608C150.858 73.9274 152.152 72.5941 153.805 71.6608C155.485 70.7274 157.405 70.2608 159.565 70.2608C161.645 70.2608 163.498 70.7141 165.125 71.6208C166.752 72.5274 168.018 73.8074 168.925 75.4608C169.832 77.0874 170.285 78.9674 170.285 81.1008ZM165.525 79.6608C165.498 77.9808 164.898 76.6341 163.725 75.6208C162.552 74.6074 161.098 74.1008 159.365 74.1008C157.792 74.1008 156.445 74.6074 155.325 75.6208C154.205 76.6074 153.538 77.9541 153.325 79.6608H165.525ZM183.652 70.2608C185.359 70.2608 186.866 70.6074 188.172 71.3008C189.506 71.9674 190.546 72.8074 191.292 73.8208V70.6208H195.892V93.0208C195.892 95.0474 195.466 96.8474 194.612 98.4208C193.759 100.021 192.519 101.274 190.892 102.181C189.292 103.087 187.372 103.541 185.132 103.541C182.146 103.541 179.666 102.834 177.692 101.421C175.719 100.034 174.599 98.1408 174.332 95.7408H178.852C179.199 96.8874 179.932 97.8074 181.052 98.5008C182.199 99.2208 183.559 99.5808 185.132 99.5808C186.972 99.5808 188.452 99.0208 189.572 97.9008C190.719 96.7808 191.292 95.1541 191.292 93.0208V89.3408C190.519 90.3808 189.466 91.2608 188.132 91.9808C186.826 92.6741 185.332 93.0208 183.652 93.0208C181.732 93.0208 179.972 92.5408 178.372 91.5808C176.799 90.5941 175.546 89.2341 174.612 87.5008C173.706 85.7408 173.252 83.7541 173.252 81.5408C173.252 79.3274 173.706 77.3674 174.612 75.6608C175.546 73.9541 176.799 72.6341 178.372 71.7008C179.972 70.7408 181.732 70.2608 183.652 70.2608ZM191.292 81.6208C191.292 80.1008 190.972 78.7808 190.332 77.6608C189.719 76.5408 188.906 75.6874 187.892 75.1008C186.879 74.5141 185.786 74.2208 184.612 74.2208C183.439 74.2208 182.346 74.5141 181.332 75.1008C180.319 75.6608 179.492 76.5008 178.852 77.6208C178.239 78.7141 177.932 80.0208 177.932 81.5408C177.932 83.0608 178.239 84.3941 178.852 85.5408C179.492 86.6874 180.319 87.5674 181.332 88.1808C182.372 88.7674 183.466 89.0608 184.612 89.0608C185.786 89.0608 186.879 88.7674 187.892 88.1808C188.906 87.5941 189.719 86.7408 190.332 85.6208C190.972 84.4741 191.292 83.1408 191.292 81.6208ZM221.842 70.6208V92.6608H217.282V90.0608C216.562 90.9674 215.615 91.6874 214.442 92.2208C213.295 92.7274 212.069 92.9808 210.762 92.9808C209.029 92.9808 207.469 92.6208 206.082 91.9008C204.722 91.1808 203.642 90.1141 202.842 88.7008C202.069 87.2874 201.682 85.5808 201.682 83.5808V70.6208H206.202V82.9008C206.202 84.8741 206.695 86.3941 207.682 87.4608C208.669 88.5008 210.015 89.0208 211.722 89.0208C213.429 89.0208 214.775 88.5008 215.762 87.4608C216.775 86.3941 217.282 84.8741 217.282 82.9008V70.6208H221.842ZM248.058 81.1008C248.058 81.9274 248.005 82.6741 247.898 83.3408H231.058C231.192 85.1008 231.845 86.5141 233.018 87.5808C234.192 88.6474 235.632 89.1808 237.338 89.1808C239.792 89.1808 241.525 88.1541 242.538 86.1008H247.458C246.792 88.1274 245.578 89.7941 243.818 91.1008C242.085 92.3808 239.925 93.0208 237.338 93.0208C235.232 93.0208 233.338 92.5541 231.658 91.6208C230.005 90.6608 228.698 89.3274 227.738 87.6208C226.805 85.8874 226.338 83.8874 226.338 81.6208C226.338 79.3541 226.792 77.3674 227.698 75.6608C228.632 73.9274 229.925 72.5941 231.578 71.6608C233.258 70.7274 235.178 70.2608 237.338 70.2608C239.418 70.2608 241.272 70.7141 242.898 71.6208C244.525 72.5274 245.792 73.8074 246.698 75.4608C247.605 77.0874 248.058 78.9674 248.058 81.1008ZM243.298 79.6608C243.272 77.9808 242.672 76.6341 241.498 75.6208C240.325 74.6074 238.872 74.1008 237.138 74.1008C235.565 74.1008 234.218 74.6074 233.098 75.6208C231.978 76.6074 231.312 77.9541 231.098 79.6608H243.298ZM283.137 81.1008C283.137 81.9274 283.083 82.6741 282.977 83.3408H266.137C266.27 85.1008 266.923 86.5141 268.097 87.5808C269.27 88.6474 270.71 89.1808 272.417 89.1808C274.87 89.1808 276.603 88.1541 277.617 86.1008H282.537C281.87 88.1274 280.657 89.7941 278.897 91.1008C277.163 92.3808 275.003 93.0208 272.417 93.0208C270.31 93.0208 268.417 92.5541 266.737 91.6208C265.083 90.6608 263.777 89.3274 262.817 87.6208C261.883 85.8874 261.417 83.8874 261.417 81.6208C261.417 79.3541 261.87 77.3674 262.777 75.6608C263.71 73.9274 265.003 72.5941 266.657 71.6608C268.337 70.7274 270.257 70.2608 272.417 70.2608C274.497 70.2608 276.35 70.7141 277.977 71.6208C279.603 72.5274 280.87 73.8074 281.777 75.4608C282.683 77.0874 283.137 78.9674 283.137 81.1008ZM278.377 79.6608C278.35 77.9808 277.75 76.6341 276.577 75.6208C275.403 74.6074 273.95 74.1008 272.217 74.1008C270.643 74.1008 269.297 74.6074 268.177 75.6208C267.057 76.6074 266.39 77.9541 266.177 79.6608H278.377ZM318.215 81.1008C318.215 81.9274 318.161 82.6741 318.055 83.3408H301.215C301.348 85.1008 302.001 86.5141 303.175 87.5808C304.348 88.6474 305.788 89.1808 307.495 89.1808C309.948 89.1808 311.681 88.1541 312.695 86.1008H317.615C316.948 88.1274 315.735 89.7941 313.975 91.1008C312.241 92.3808 310.081 93.0208 307.495 93.0208C305.388 93.0208 303.495 92.5541 301.815 91.6208C300.161 90.6608 298.855 89.3274 297.895 87.6208C296.961 85.8874 296.495 83.8874 296.495 81.6208C296.495 79.3541 296.948 77.3674 297.855 75.6608C298.788 73.9274 300.081 72.5941 301.735 71.6608C303.415 70.7274 305.335 70.2608 307.495 70.2608C309.575 70.2608 311.428 70.7141 313.055 71.6208C314.681 72.5274 315.948 73.8074 316.855 75.4608C317.761 77.0874 318.215 78.9674 318.215 81.1008ZM313.455 79.6608C313.428 77.9808 312.828 76.6341 311.655 75.6208C310.481 74.6074 309.028 74.1008 307.295 74.1008C305.721 74.1008 304.375 74.6074 303.255 75.6208C302.135 76.6074 301.468 77.9541 301.255 79.6608H313.455ZM333.822 70.2608C335.555 70.2608 337.102 70.6208 338.462 71.3408C339.849 72.0608 340.929 73.1274 341.702 74.5408C342.475 75.9541 342.862 77.6608 342.862 79.6608V92.6608H338.342V80.3408C338.342 78.3674 337.849 76.8608 336.862 75.8208C335.875 74.7541 334.529 74.2208 332.822 74.2208C331.115 74.2208 329.755 74.7541 328.742 75.8208C327.755 76.8608 327.262 78.3674 327.262 80.3408V92.6608H322.702V70.6208H327.262V73.1408C328.009 72.2341 328.955 71.5274 330.102 71.0208C331.275 70.5141 332.515 70.2608 333.822 70.2608ZM347.159 81.6208C347.159 79.3541 347.612 77.3674 348.519 75.6608C349.452 73.9274 350.732 72.5941 352.359 71.6608C353.985 70.7274 355.852 70.2608 357.959 70.2608C360.625 70.2608 362.825 70.9008 364.559 72.1808C366.319 73.4341 367.505 75.2341 368.119 77.5808H363.199C362.799 76.4874 362.159 75.6341 361.279 75.0208C360.399 74.4074 359.292 74.1008 357.959 74.1008C356.092 74.1008 354.599 74.7674 353.479 76.1008C352.385 77.4074 351.839 79.2474 351.839 81.6208C351.839 83.9941 352.385 85.8474 353.479 87.1808C354.599 88.5141 356.092 89.1808 357.959 89.1808C360.599 89.1808 362.345 88.0208 363.199 85.7008H368.119C367.479 87.9408 366.279 89.7274 364.519 91.0608C362.759 92.3674 360.572 93.0208 357.959 93.0208C355.852 93.0208 353.985 92.5541 352.359 91.6208C350.732 90.6608 349.452 89.3274 348.519 87.6208C347.612 85.8874 347.159 83.8874 347.159 81.6208ZM382.223 93.0208C380.143 93.0208 378.263 92.5541 376.583 91.6208C374.903 90.6608 373.583 89.3274 372.623 87.6208C371.663 85.8874 371.183 83.8874 371.183 81.6208C371.183 79.3808 371.676 77.3941 372.663 75.6608C373.65 73.9274 374.996 72.5941 376.703 71.6608C378.41 70.7274 380.316 70.2608 382.423 70.2608C384.53 70.2608 386.436 70.7274 388.143 71.6608C389.85 72.5941 391.196 73.9274 392.183 75.6608C393.17 77.3941 393.663 79.3808 393.663 81.6208C393.663 83.8608 393.156 85.8474 392.143 87.5808C391.13 89.3141 389.743 90.6608 387.983 91.6208C386.25 92.5541 384.33 93.0208 382.223 93.0208ZM382.223 89.0608C383.396 89.0608 384.49 88.7808 385.503 88.2208C386.543 87.6608 387.383 86.8208 388.023 85.7008C388.663 84.5808 388.983 83.2208 388.983 81.6208C388.983 80.0208 388.676 78.6741 388.063 77.5808C387.45 76.4608 386.636 75.6208 385.623 75.0608C384.61 74.5008 383.516 74.2208 382.343 74.2208C381.17 74.2208 380.076 74.5008 379.063 75.0608C378.076 75.6208 377.29 76.4608 376.703 77.5808C376.116 78.6741 375.823 80.0208 375.823 81.6208C375.823 83.9941 376.423 85.8341 377.623 87.1408C378.85 88.4208 380.383 89.0608 382.223 89.0608ZM409.291 70.2608C411.024 70.2608 412.571 70.6208 413.931 71.3408C415.318 72.0608 416.398 73.1274 417.171 74.5408C417.944 75.9541 418.331 77.6608 418.331 79.6608V92.6608H413.811V80.3408C413.811 78.3674 413.318 76.8608 412.331 75.8208C411.344 74.7541 409.998 74.2208 408.291 74.2208C406.584 74.2208 405.224 74.7541 404.211 75.8208C403.224 76.8608 402.731 78.3674 402.731 80.3408V92.6608H398.171V70.6208H402.731V73.1408C403.478 72.2341 404.424 71.5274 405.571 71.0208C406.744 70.5141 407.984 70.2608 409.291 70.2608ZM429.467 74.3408V86.5408C429.467 87.3674 429.654 87.9674 430.027 88.3408C430.427 88.6874 431.094 88.8608 432.027 88.8608H434.827V92.6608H431.227C429.174 92.6608 427.601 92.1808 426.507 91.2208C425.414 90.2608 424.867 88.7008 424.867 86.5408V74.3408H422.267V70.6208H424.867V65.1408H429.467V70.6208H434.827V74.3408H429.467ZM443.59 73.8208C444.257 72.7008 445.137 71.8341 446.23 71.2208C447.35 70.5808 448.67 70.2608 450.19 70.2608V74.9808H449.03C447.244 74.9808 445.884 75.4341 444.95 76.3408C444.044 77.2474 443.59 78.8208 443.59 81.0608V92.6608H439.03V70.6208H443.59V73.8208ZM474.582 81.1008C474.582 81.9274 474.529 82.6741 474.422 83.3408H457.582C457.715 85.1008 458.369 86.5141 459.542 87.5808C460.715 88.6474 462.155 89.1808 463.862 89.1808C466.315 89.1808 468.049 88.1541 469.062 86.1008H473.982C473.315 88.1274 472.102 89.7941 470.342 91.1008C468.609 92.3808 466.449 93.0208 463.862 93.0208C461.755 93.0208 459.862 92.5541 458.182 91.6208C456.529 90.6608 455.222 89.3274 454.262 87.6208C453.329 85.8874 452.862 83.8874 452.862 81.6208C452.862 79.3541 453.315 77.3674 454.222 75.6608C455.155 73.9274 456.449 72.5941 458.102 71.6608C459.782 70.7274 461.702 70.2608 463.862 70.2608C465.942 70.2608 467.795 70.7141 469.422 71.6208C471.049 72.5274 472.315 73.8074 473.222 75.4608C474.129 77.0874 474.582 78.9674 474.582 81.1008ZM469.822 79.6608C469.795 77.9808 469.195 76.6341 468.022 75.6208C466.849 74.6074 465.395 74.1008 463.662 74.1008C462.089 74.1008 460.742 74.6074 459.622 75.6208C458.502 76.6074 457.835 77.9541 457.622 79.6608H469.822Z" fill="#F5F5F5"/>
<path d="M120.28 328.093H113.005L111.755 331.643H108.78L115.005 314.243H118.305L124.53 331.643H121.53L120.28 328.093ZM119.48 325.768L116.655 317.693L113.805 325.768H119.48ZM130.087 319.868C130.503 319.168 131.053 318.626 131.737 318.243C132.437 317.843 133.262 317.643 134.212 317.643V320.593H133.487C132.37 320.593 131.52 320.876 130.937 321.443C130.37 322.009 130.087 322.993 130.087 324.393V331.643H127.237V317.868H130.087V319.868ZM140.157 320.193V327.818C140.157 328.334 140.273 328.709 140.507 328.943C140.757 329.159 141.173 329.268 141.757 329.268H143.507V331.643H141.257C139.973 331.643 138.99 331.343 138.307 330.743C137.623 330.143 137.282 329.168 137.282 327.818V320.193H135.657V317.868H137.282V314.443H140.157V317.868H143.507V320.193H140.157ZM147.583 316.043C147.067 316.043 146.633 315.868 146.283 315.518C145.933 315.168 145.758 314.734 145.758 314.218C145.758 313.701 145.933 313.268 146.283 312.918C146.633 312.568 147.067 312.393 147.583 312.393C148.083 312.393 148.508 312.568 148.858 312.918C149.208 313.268 149.383 313.701 149.383 314.218C149.383 314.734 149.208 315.168 148.858 315.518C148.508 315.868 148.083 316.043 147.583 316.043ZM148.983 317.868V331.643H146.133V317.868H148.983ZM157.725 331.868C156.642 331.868 155.667 331.676 154.8 331.293C153.95 330.893 153.275 330.359 152.775 329.693C152.275 329.009 152.008 328.251 151.975 327.418H154.925C154.975 328.001 155.25 328.493 155.75 328.893C156.267 329.276 156.908 329.468 157.675 329.468C158.475 329.468 159.092 329.318 159.525 329.018C159.975 328.701 160.2 328.301 160.2 327.818C160.2 327.301 159.95 326.918 159.45 326.668C158.967 326.418 158.192 326.143 157.125 325.843C156.092 325.559 155.25 325.284 154.6 325.018C153.95 324.751 153.383 324.343 152.9 323.793C152.433 323.243 152.2 322.518 152.2 321.618C152.2 320.884 152.417 320.218 152.85 319.618C153.283 319.001 153.9 318.518 154.7 318.168C155.517 317.818 156.45 317.643 157.5 317.643C159.067 317.643 160.325 318.043 161.275 318.843C162.242 319.626 162.758 320.701 162.825 322.068H159.975C159.925 321.451 159.675 320.959 159.225 320.593C158.775 320.226 158.167 320.043 157.4 320.043C156.65 320.043 156.075 320.184 155.675 320.468C155.275 320.751 155.075 321.126 155.075 321.593C155.075 321.959 155.208 322.268 155.475 322.518C155.742 322.768 156.067 322.968 156.45 323.118C156.833 323.251 157.4 323.426 158.15 323.643C159.15 323.909 159.967 324.184 160.6 324.468C161.25 324.734 161.808 325.134 162.275 325.668C162.742 326.201 162.983 326.909 163 327.793C163 328.576 162.783 329.276 162.35 329.893C161.917 330.509 161.3 330.993 160.5 331.343C159.717 331.693 158.792 331.868 157.725 331.868ZM169.405 320.193V327.818C169.405 328.334 169.521 328.709 169.755 328.943C170.005 329.159 170.421 329.268 171.005 329.268H172.755V331.643H170.505C169.221 331.643 168.238 331.343 167.555 330.743C166.871 330.143 166.53 329.168 166.53 327.818V320.193H164.905V317.868H166.53V314.443H169.405V317.868H172.755V320.193H169.405ZM174.431 324.693C174.431 323.309 174.715 322.084 175.281 321.018C175.865 319.951 176.648 319.126 177.631 318.543C178.631 317.943 179.731 317.643 180.931 317.643C182.015 317.643 182.956 317.859 183.756 318.293C184.573 318.709 185.223 319.234 185.706 319.868V317.868H188.581V331.643H185.706V329.593C185.223 330.243 184.565 330.784 183.731 331.218C182.898 331.651 181.948 331.868 180.881 331.868C179.698 331.868 178.615 331.568 177.631 330.968C176.648 330.351 175.865 329.501 175.281 328.418C174.715 327.318 174.431 326.076 174.431 324.693ZM185.706 324.743C185.706 323.793 185.506 322.968 185.106 322.268C184.723 321.568 184.215 321.034 183.581 320.668C182.948 320.301 182.265 320.118 181.531 320.118C180.798 320.118 180.115 320.301 179.481 320.668C178.848 321.018 178.331 321.543 177.931 322.243C177.548 322.926 177.356 323.743 177.356 324.693C177.356 325.643 177.548 326.476 177.931 327.193C178.331 327.909 178.848 328.459 179.481 328.843C180.131 329.209 180.815 329.393 181.531 329.393C182.265 329.393 182.948 329.209 183.581 328.843C184.215 328.476 184.723 327.943 185.106 327.243C185.506 326.526 185.706 325.693 185.706 324.743Z" fill="#DA3BBD"/>
<path d="M348.936 321.722C348.936 322.429 348.769 323.096 348.436 323.722C348.102 324.349 347.569 324.862 346.836 325.262C346.102 325.649 345.162 325.842 344.016 325.842H341.496V331.482H339.216V317.582H344.016C345.082 317.582 345.982 317.769 346.716 318.142C347.462 318.502 348.016 318.996 348.376 319.622C348.749 320.249 348.936 320.949 348.936 321.722ZM344.016 323.982C344.882 323.982 345.529 323.789 345.956 323.402C346.382 323.002 346.596 322.442 346.596 321.722C346.596 320.202 345.736 319.442 344.016 319.442H341.496V323.982H344.016ZM353.39 316.682V331.482H351.11V316.682H353.39ZM355.624 325.922C355.624 324.816 355.85 323.836 356.304 322.982C356.77 322.129 357.397 321.469 358.184 321.002C358.984 320.522 359.864 320.282 360.824 320.282C361.69 320.282 362.444 320.456 363.084 320.802C363.737 321.136 364.257 321.556 364.644 322.062V320.462H366.944V331.482H364.644V329.842C364.257 330.362 363.73 330.796 363.064 331.142C362.397 331.489 361.637 331.662 360.784 331.662C359.837 331.662 358.97 331.422 358.184 330.942C357.397 330.449 356.77 329.769 356.304 328.902C355.85 328.022 355.624 327.029 355.624 325.922ZM364.644 325.962C364.644 325.202 364.484 324.542 364.164 323.982C363.857 323.422 363.45 322.996 362.944 322.702C362.437 322.409 361.89 322.262 361.304 322.262C360.717 322.262 360.17 322.409 359.664 322.702C359.157 322.982 358.744 323.402 358.424 323.962C358.117 324.509 357.964 325.162 357.964 325.922C357.964 326.682 358.117 327.349 358.424 327.922C358.744 328.496 359.157 328.936 359.664 329.242C360.184 329.536 360.73 329.682 361.304 329.682C361.89 329.682 362.437 329.536 362.944 329.242C363.45 328.949 363.857 328.522 364.164 327.962C364.484 327.389 364.644 326.722 364.644 325.962ZM379.858 320.462L373.098 336.662H370.738L372.978 331.302L368.638 320.462H371.178L374.278 328.862L377.498 320.462H379.858ZM383.859 316.682V331.482H381.579V316.682H383.859ZM388.013 319.002C387.599 319.002 387.253 318.862 386.973 318.582C386.693 318.302 386.553 317.956 386.553 317.542C386.553 317.129 386.693 316.782 386.973 316.502C387.253 316.222 387.599 316.082 388.013 316.082C388.413 316.082 388.753 316.222 389.033 316.502C389.313 316.782 389.453 317.129 389.453 317.542C389.453 317.956 389.313 318.302 389.033 318.582C388.753 318.862 388.413 319.002 388.013 319.002ZM389.133 320.462V331.482H386.853V320.462H389.133ZM396.126 331.662C395.259 331.662 394.479 331.509 393.786 331.202C393.106 330.882 392.566 330.456 392.166 329.922C391.766 329.376 391.553 328.769 391.526 328.102H393.886C393.926 328.569 394.146 328.962 394.546 329.282C394.959 329.589 395.473 329.742 396.086 329.742C396.726 329.742 397.219 329.622 397.566 329.382C397.926 329.129 398.106 328.809 398.106 328.422C398.106 328.009 397.906 327.702 397.506 327.502C397.119 327.302 396.499 327.082 395.646 326.842C394.819 326.616 394.146 326.396 393.626 326.182C393.106 325.969 392.653 325.642 392.266 325.202C391.893 324.762 391.706 324.182 391.706 323.462C391.706 322.876 391.879 322.342 392.226 321.862C392.573 321.369 393.066 320.982 393.706 320.702C394.359 320.422 395.106 320.282 395.946 320.282C397.199 320.282 398.206 320.602 398.966 321.242C399.739 321.869 400.153 322.729 400.206 323.822H397.926C397.886 323.329 397.686 322.936 397.326 322.642C396.966 322.349 396.479 322.202 395.866 322.202C395.266 322.202 394.806 322.316 394.486 322.542C394.166 322.769 394.006 323.069 394.006 323.442C394.006 323.736 394.113 323.982 394.326 324.182C394.539 324.382 394.799 324.542 395.106 324.662C395.413 324.769 395.866 324.909 396.466 325.082C397.266 325.296 397.919 325.516 398.426 325.742C398.946 325.956 399.393 326.276 399.766 326.702C400.139 327.129 400.333 327.696 400.346 328.402C400.346 329.029 400.173 329.589 399.826 330.082C399.479 330.576 398.986 330.962 398.346 331.242C397.719 331.522 396.979 331.662 396.126 331.662ZM405.47 322.322V328.422C405.47 328.836 405.563 329.136 405.75 329.322C405.95 329.496 406.283 329.582 406.75 329.582H408.15V331.482H406.35C405.323 331.482 404.536 331.242 403.99 330.762C403.443 330.282 403.17 329.502 403.17 328.422V322.322H401.87V320.462H403.17V317.722H405.47V320.462H408.15V322.322H405.47Z" fill="#F5F5F5"/>
<path d="M563.216 317.582V331.482H560.936V321.962L556.696 331.482H555.116L550.856 321.962V331.482H548.576V317.582H551.036L555.916 328.482L560.776 317.582H563.216ZM576.193 320.462V331.482H573.913V330.182C573.553 330.636 573.08 330.996 572.493 331.262C571.92 331.516 571.306 331.642 570.653 331.642C569.786 331.642 569.006 331.462 568.313 331.102C567.633 330.742 567.093 330.209 566.693 329.502C566.306 328.796 566.113 327.942 566.113 326.942V320.462H568.373V326.602C568.373 327.589 568.62 328.349 569.113 328.882C569.606 329.402 570.28 329.662 571.133 329.662C571.986 329.662 572.66 329.402 573.153 328.882C573.66 328.349 573.913 327.589 573.913 326.602V320.462H576.193ZM573.273 317.502L568.853 319.682V318.002L573.273 315.562V317.502ZM583.201 331.662C582.335 331.662 581.555 331.509 580.861 331.202C580.181 330.882 579.641 330.456 579.241 329.922C578.841 329.376 578.628 328.769 578.601 328.102H580.961C581.001 328.569 581.221 328.962 581.621 329.282C582.035 329.589 582.548 329.742 583.161 329.742C583.801 329.742 584.295 329.622 584.641 329.382C585.001 329.129 585.181 328.809 585.181 328.422C585.181 328.009 584.981 327.702 584.581 327.502C584.195 327.302 583.575 327.082 582.721 326.842C581.895 326.616 581.221 326.396 580.701 326.182C580.181 325.969 579.728 325.642 579.341 325.202C578.968 324.762 578.781 324.182 578.781 323.462C578.781 322.876 578.955 322.342 579.301 321.862C579.648 321.369 580.141 320.982 580.781 320.702C581.435 320.422 582.181 320.282 583.021 320.282C584.275 320.282 585.281 320.602 586.041 321.242C586.815 321.869 587.228 322.729 587.281 323.822H585.001C584.961 323.329 584.761 322.936 584.401 322.642C584.041 322.349 583.555 322.202 582.941 322.202C582.341 322.202 581.881 322.316 581.561 322.542C581.241 322.769 581.081 323.069 581.081 323.442C581.081 323.736 581.188 323.982 581.401 324.182C581.615 324.382 581.875 324.542 582.181 324.662C582.488 324.769 582.941 324.909 583.541 325.082C584.341 325.296 584.995 325.516 585.501 325.742C586.021 325.956 586.468 326.276 586.841 326.702C587.215 327.129 587.408 327.696 587.421 328.402C587.421 329.029 587.248 329.589 586.901 330.082C586.555 330.576 586.061 330.962 585.421 331.242C584.795 331.522 584.055 331.662 583.201 331.662ZM591.045 319.002C590.631 319.002 590.285 318.862 590.005 318.582C589.725 318.302 589.585 317.956 589.585 317.542C589.585 317.129 589.725 316.782 590.005 316.502C590.285 316.222 590.631 316.082 591.045 316.082C591.445 316.082 591.785 316.222 592.065 316.502C592.345 316.782 592.485 317.129 592.485 317.542C592.485 317.956 592.345 318.302 592.065 318.582C591.785 318.862 591.445 319.002 591.045 319.002ZM592.165 320.462V331.482H589.885V320.462H592.165ZM594.398 325.962C594.398 324.829 594.625 323.836 595.078 322.982C595.545 322.116 596.185 321.449 596.998 320.982C597.812 320.516 598.745 320.282 599.798 320.282C601.132 320.282 602.232 320.602 603.098 321.242C603.978 321.869 604.572 322.769 604.878 323.942H602.418C602.218 323.396 601.898 322.969 601.458 322.662C601.018 322.356 600.465 322.202 599.798 322.202C598.865 322.202 598.118 322.536 597.558 323.202C597.012 323.856 596.738 324.776 596.738 325.962C596.738 327.149 597.012 328.076 597.558 328.742C598.118 329.409 598.865 329.742 599.798 329.742C601.118 329.742 601.992 329.162 602.418 328.002H604.878C604.558 329.122 603.958 330.016 603.078 330.682C602.198 331.336 601.105 331.662 599.798 331.662C598.745 331.662 597.812 331.429 596.998 330.962C596.185 330.482 595.545 329.816 595.078 328.962C594.625 328.096 594.398 327.096 594.398 325.962ZM606.39 325.922C606.39 324.816 606.617 323.836 607.07 322.982C607.537 322.129 608.164 321.469 608.95 321.002C609.75 320.522 610.63 320.282 611.59 320.282C612.457 320.282 613.21 320.456 613.85 320.802C614.504 321.136 615.024 321.556 615.41 322.062V320.462H617.71V331.482H615.41V329.842C615.024 330.362 614.497 330.796 613.83 331.142C613.164 331.489 612.404 331.662 611.55 331.662C610.604 331.662 609.737 331.422 608.95 330.942C608.164 330.449 607.537 329.769 607.07 328.902C606.617 328.022 606.39 327.029 606.39 325.922ZM615.41 325.962C615.41 325.202 615.25 324.542 614.93 323.982C614.624 323.422 614.217 322.996 613.71 322.702C613.204 322.409 612.657 322.262 612.07 322.262C611.484 322.262 610.937 322.409 610.43 322.702C609.924 322.982 609.51 323.402 609.19 323.962C608.884 324.509 608.73 325.162 608.73 325.922C608.73 326.682 608.884 327.349 609.19 327.922C609.51 328.496 609.924 328.936 610.43 329.242C610.95 329.536 611.497 329.682 612.07 329.682C612.657 329.682 613.204 329.536 613.71 329.242C614.217 328.949 614.624 328.522 614.93 327.962C615.25 327.389 615.41 326.722 615.41 325.962Z" fill="#F5F5F5"/>
<rect x="87.9834" y="176.679" width="603.634" height="55.3929" rx="18.5" stroke="#DA3BBD" stroke-width="3"/>
<g clip-path="url(#clip0_28_166)">
<path d="M112.866 200.339C112.866 203.925 114.03 207.238 115.991 209.925L106.1 219.824C105.124 220.8 105.124 222.386 106.1 223.363C107.077 224.339 108.663 224.339 109.639 223.363L119.53 213.464C122.218 215.433 125.53 216.589 129.116 216.589C138.093 216.589 145.366 209.316 145.366 200.339C145.366 191.363 138.093 184.089 129.116 184.089C120.139 184.089 112.866 191.363 112.866 200.339ZM129.116 211.589C127.639 211.589 126.176 211.298 124.811 210.733C123.446 210.168 122.206 209.339 121.161 208.294C120.116 207.25 119.288 206.009 118.722 204.644C118.157 203.28 117.866 201.817 117.866 200.339C117.866 198.862 118.157 197.399 118.722 196.034C119.288 194.669 120.116 193.429 121.161 192.384C122.206 191.34 123.446 190.511 124.811 189.946C126.176 189.38 127.639 189.089 129.116 189.089C130.593 189.089 132.056 189.38 133.421 189.946C134.786 190.511 136.026 191.34 137.071 192.384C138.116 193.429 138.944 194.669 139.51 196.034C140.075 197.399 140.366 198.862 140.366 200.339C140.366 201.817 140.075 203.28 139.51 204.644C138.944 206.009 138.116 207.25 137.071 208.294C136.026 209.339 134.786 210.168 133.421 210.733C132.056 211.298 130.593 211.589 129.116 211.589Z" fill="#0E2F8C"/>
</g>
<path d="M171.78 198.94V203.02H176.58V204.88H171.78V209.14H177.18V211H169.5V197.08H177.18V198.94H171.78ZM185.548 199.8C186.415 199.8 187.188 199.98 187.868 200.34C188.562 200.7 189.102 201.233 189.488 201.94C189.875 202.647 190.068 203.5 190.068 204.5V211H187.808V204.84C187.808 203.853 187.562 203.1 187.068 202.58C186.575 202.047 185.902 201.78 185.048 201.78C184.195 201.78 183.515 202.047 183.008 202.58C182.515 203.1 182.268 203.853 182.268 204.84V211H179.988V199.98H182.268V201.24C182.642 200.787 183.115 200.433 183.688 200.18C184.275 199.927 184.895 199.8 185.548 199.8ZM192.217 205.48C192.217 204.347 192.443 203.353 192.897 202.5C193.363 201.633 194.003 200.967 194.817 200.5C195.63 200.033 196.563 199.8 197.617 199.8C198.95 199.8 200.05 200.12 200.917 200.76C201.797 201.387 202.39 202.287 202.697 203.46H200.237C200.037 202.913 199.717 202.487 199.277 202.18C198.837 201.873 198.283 201.72 197.617 201.72C196.683 201.72 195.937 202.053 195.377 202.72C194.83 203.373 194.557 204.293 194.557 205.48C194.557 206.667 194.83 207.593 195.377 208.26C195.937 208.927 196.683 209.26 197.617 209.26C198.937 209.26 199.81 208.68 200.237 207.52H202.697C202.377 208.64 201.777 209.533 200.897 210.2C200.017 210.853 198.923 211.18 197.617 211.18C196.563 211.18 195.63 210.947 194.817 210.48C194.003 210 193.363 209.333 192.897 208.48C192.443 207.613 192.217 206.613 192.217 205.48ZM209.749 211.18C208.709 211.18 207.769 210.947 206.929 210.48C206.089 210 205.429 209.333 204.949 208.48C204.469 207.613 204.229 206.613 204.229 205.48C204.229 204.36 204.475 203.367 204.969 202.5C205.462 201.633 206.135 200.967 206.989 200.5C207.842 200.033 208.795 199.8 209.849 199.8C210.902 199.8 211.855 200.033 212.709 200.5C213.562 200.967 214.235 201.633 214.729 202.5C215.222 203.367 215.469 204.36 215.469 205.48C215.469 206.6 215.215 207.593 214.709 208.46C214.202 209.327 213.509 210 212.629 210.48C211.762 210.947 210.802 211.18 209.749 211.18ZM209.749 209.2C210.335 209.2 210.882 209.06 211.389 208.78C211.909 208.5 212.329 208.08 212.649 207.52C212.969 206.96 213.129 206.28 213.129 205.48C213.129 204.68 212.975 204.007 212.669 203.46C212.362 202.9 211.955 202.48 211.449 202.2C210.942 201.92 210.395 201.78 209.809 201.78C209.222 201.78 208.675 201.92 208.169 202.2C207.675 202.48 207.282 202.9 206.989 203.46C206.695 204.007 206.549 204.68 206.549 205.48C206.549 206.667 206.849 207.587 207.449 208.24C208.062 208.88 208.829 209.2 209.749 209.2ZM223.283 199.8C224.149 199.8 224.923 199.98 225.603 200.34C226.296 200.7 226.836 201.233 227.223 201.94C227.609 202.647 227.803 203.5 227.803 204.5V211H225.543V204.84C225.543 203.853 225.296 203.1 224.803 202.58C224.309 202.047 223.636 201.78 222.783 201.78C221.929 201.78 221.249 202.047 220.743 202.58C220.249 203.1 220.003 203.853 220.003 204.84V211H217.723V199.98H220.003V201.24C220.376 200.787 220.849 200.433 221.423 200.18C222.009 199.927 222.629 199.8 223.283 199.8ZM233.371 201.84V207.94C233.371 208.353 233.464 208.653 233.651 208.84C233.851 209.013 234.184 209.1 234.651 209.1H236.051V211H234.251C233.224 211 232.438 210.76 231.891 210.28C231.344 209.8 231.071 209.02 231.071 207.94V201.84H229.771V199.98H231.071V197.24H233.371V199.98H236.051V201.84H233.371ZM240.432 201.58C240.766 201.02 241.206 200.587 241.752 200.28C242.312 199.96 242.972 199.8 243.732 199.8V202.16H243.152C242.259 202.16 241.579 202.387 241.112 202.84C240.659 203.293 240.432 204.08 240.432 205.2V211H238.152V199.98H240.432V201.58ZM255.928 205.22C255.928 205.633 255.901 206.007 255.848 206.34H247.428C247.495 207.22 247.821 207.927 248.408 208.46C248.995 208.993 249.715 209.26 250.568 209.26C251.795 209.26 252.661 208.747 253.168 207.72H255.628C255.295 208.733 254.688 209.567 253.808 210.22C252.941 210.86 251.861 211.18 250.568 211.18C249.515 211.18 248.568 210.947 247.728 210.48C246.901 210 246.248 209.333 245.768 208.48C245.301 207.613 245.068 206.613 245.068 205.48C245.068 204.347 245.295 203.353 245.748 202.5C246.215 201.633 246.861 200.967 247.688 200.5C248.528 200.033 249.488 199.8 250.568 199.8C251.608 199.8 252.535 200.027 253.348 200.48C254.161 200.933 254.795 201.573 255.248 202.4C255.701 203.213 255.928 204.153 255.928 205.22ZM253.548 204.5C253.535 203.66 253.235 202.987 252.648 202.48C252.061 201.973 251.335 201.72 250.468 201.72C249.681 201.72 249.008 201.973 248.448 202.48C247.888 202.973 247.555 203.647 247.448 204.5H253.548ZM267.367 211.18C266.501 211.18 265.721 211.027 265.027 210.72C264.347 210.4 263.807 209.973 263.407 209.44C263.007 208.893 262.794 208.287 262.767 207.62H265.127C265.167 208.087 265.387 208.48 265.787 208.8C266.201 209.107 266.714 209.26 267.327 209.26C267.967 209.26 268.461 209.14 268.807 208.9C269.167 208.647 269.347 208.327 269.347 207.94C269.347 207.527 269.147 207.22 268.747 207.02C268.361 206.82 267.741 206.6 266.887 206.36C266.061 206.133 265.387 205.913 264.867 205.7C264.347 205.487 263.894 205.16 263.507 204.72C263.134 204.28 262.947 203.7 262.947 202.98C262.947 202.393 263.121 201.86 263.467 201.38C263.814 200.887 264.307 200.5 264.947 200.22C265.601 199.94 266.347 199.8 267.187 199.8C268.441 199.8 269.447 200.12 270.207 200.76C270.981 201.387 271.394 202.247 271.447 203.34H269.167C269.127 202.847 268.927 202.453 268.567 202.16C268.207 201.867 267.721 201.72 267.107 201.72C266.507 201.72 266.047 201.833 265.727 202.06C265.407 202.287 265.247 202.587 265.247 202.96C265.247 203.253 265.354 203.5 265.567 203.7C265.781 203.9 266.041 204.06 266.347 204.18C266.654 204.287 267.107 204.427 267.707 204.6C268.507 204.813 269.161 205.033 269.667 205.26C270.187 205.473 270.634 205.793 271.007 206.22C271.381 206.647 271.574 207.213 271.587 207.92C271.587 208.547 271.414 209.107 271.067 209.6C270.721 210.093 270.227 210.48 269.587 210.76C268.961 211.04 268.221 211.18 267.367 211.18ZM284.151 205.22C284.151 205.633 284.124 206.007 284.071 206.34H275.651C275.717 207.22 276.044 207.927 276.631 208.46C277.217 208.993 277.937 209.26 278.791 209.26C280.017 209.26 280.884 208.747 281.391 207.72H283.851C283.517 208.733 282.911 209.567 282.031 210.22C281.164 210.86 280.084 211.18 278.791 211.18C277.737 211.18 276.791 210.947 275.951 210.48C275.124 210 274.471 209.333 273.991 208.48C273.524 207.613 273.291 206.613 273.291 205.48C273.291 204.347 273.517 203.353 273.971 202.5C274.437 201.633 275.084 200.967 275.911 200.5C276.751 200.033 277.711 199.8 278.791 199.8C279.831 199.8 280.757 200.027 281.571 200.48C282.384 200.933 283.017 201.573 283.471 202.4C283.924 203.213 284.151 204.153 284.151 205.22ZM281.771 204.5C281.757 203.66 281.457 202.987 280.871 202.48C280.284 201.973 279.557 201.72 278.691 201.72C277.904 201.72 277.231 201.973 276.671 202.48C276.111 202.973 275.777 203.647 275.671 204.5H281.771ZM296.375 199.98V211H294.095V209.7C293.735 210.153 293.261 210.513 292.675 210.78C292.101 211.033 291.488 211.16 290.835 211.16C289.968 211.16 289.188 210.98 288.495 210.62C287.815 210.26 287.275 209.727 286.875 209.02C286.488 208.313 286.295 207.46 286.295 206.46V199.98H288.555V206.12C288.555 207.107 288.801 207.867 289.295 208.4C289.788 208.92 290.461 209.18 291.315 209.18C292.168 209.18 292.841 208.92 293.335 208.4C293.841 207.867 294.095 207.107 294.095 206.12V199.98H296.375ZM303.818 205.44C303.818 204.333 304.045 203.353 304.498 202.5C304.965 201.647 305.591 200.987 306.378 200.52C307.178 200.04 308.058 199.8 309.018 199.8C309.885 199.8 310.638 199.973 311.278 200.32C311.931 200.653 312.451 201.073 312.838 201.58V199.98H315.138V211H312.838V209.36C312.451 209.88 311.925 210.313 311.258 210.66C310.591 211.007 309.831 211.18 308.978 211.18C308.031 211.18 307.165 210.94 306.378 210.46C305.591 209.967 304.965 209.287 304.498 208.42C304.045 207.54 303.818 206.547 303.818 205.44ZM312.838 205.48C312.838 204.72 312.678 204.06 312.358 203.5C312.051 202.94 311.645 202.513 311.138 202.22C310.631 201.927 310.085 201.78 309.498 201.78C308.911 201.78 308.365 201.927 307.858 202.22C307.351 202.5 306.938 202.92 306.618 203.48C306.311 204.027 306.158 204.68 306.158 205.44C306.158 206.2 306.311 206.867 306.618 207.44C306.938 208.013 307.351 208.453 307.858 208.76C308.378 209.053 308.925 209.2 309.498 209.2C310.085 209.2 310.631 209.053 311.138 208.76C311.645 208.467 312.051 208.04 312.358 207.48C312.678 206.907 312.838 206.24 312.838 205.48ZM320.413 201.58C320.746 201.02 321.186 200.587 321.733 200.28C322.293 199.96 322.953 199.8 323.713 199.8V202.16H323.133C322.239 202.16 321.559 202.387 321.093 202.84C320.639 203.293 320.413 204.08 320.413 205.2V211H318.133V199.98H320.413V201.58ZM328.469 201.84V207.94C328.469 208.353 328.562 208.653 328.749 208.84C328.949 209.013 329.282 209.1 329.749 209.1H331.149V211H329.349C328.322 211 327.535 210.76 326.989 210.28C326.442 209.8 326.169 209.02 326.169 207.94V201.84H324.869V199.98H326.169V197.24H328.469V199.98H331.149V201.84H328.469ZM334.41 198.52C333.997 198.52 333.65 198.38 333.37 198.1C333.09 197.82 332.95 197.473 332.95 197.06C332.95 196.647 333.09 196.3 333.37 196.02C333.65 195.74 333.997 195.6 334.41 195.6C334.81 195.6 335.15 195.74 335.43 196.02C335.71 196.3 335.85 196.647 335.85 197.06C335.85 197.473 335.71 197.82 335.43 198.1C335.15 198.38 334.81 198.52 334.41 198.52ZM335.53 199.98V211H333.25V199.98H335.53ZM342.523 211.18C341.657 211.18 340.877 211.027 340.183 210.72C339.503 210.4 338.963 209.973 338.563 209.44C338.163 208.893 337.95 208.287 337.923 207.62H340.283C340.323 208.087 340.543 208.48 340.943 208.8C341.357 209.107 341.87 209.26 342.483 209.26C343.123 209.26 343.617 209.14 343.963 208.9C344.323 208.647 344.503 208.327 344.503 207.94C344.503 207.527 344.303 207.22 343.903 207.02C343.517 206.82 342.897 206.6 342.043 206.36C341.217 206.133 340.543 205.913 340.023 205.7C339.503 205.487 339.05 205.16 338.663 204.72C338.29 204.28 338.103 203.7 338.103 202.98C338.103 202.393 338.277 201.86 338.623 201.38C338.97 200.887 339.463 200.5 340.103 200.22C340.757 199.94 341.503 199.8 342.343 199.8C343.597 199.8 344.603 200.12 345.363 200.76C346.137 201.387 346.55 202.247 346.603 203.34H344.323C344.283 202.847 344.083 202.453 343.723 202.16C343.363 201.867 342.877 201.72 342.263 201.72C341.663 201.72 341.203 201.833 340.883 202.06C340.563 202.287 340.403 202.587 340.403 202.96C340.403 203.253 340.51 203.5 340.723 203.7C340.937 203.9 341.197 204.06 341.503 204.18C341.81 204.287 342.263 204.427 342.863 204.6C343.663 204.813 344.317 205.033 344.823 205.26C345.343 205.473 345.79 205.793 346.163 206.22C346.537 206.647 346.73 207.213 346.743 207.92C346.743 208.547 346.57 209.107 346.223 209.6C345.877 210.093 345.383 210.48 344.743 210.76C344.117 211.04 343.377 211.18 342.523 211.18ZM351.867 201.84V207.94C351.867 208.353 351.96 208.653 352.147 208.84C352.347 209.013 352.68 209.1 353.147 209.1H354.547V211H352.747C351.72 211 350.934 210.76 350.387 210.28C349.84 209.8 349.567 209.02 349.567 207.94V201.84H348.267V199.98H349.567V197.24H351.867V199.98H354.547V201.84H351.867ZM355.888 205.44C355.888 204.333 356.115 203.353 356.568 202.5C357.035 201.647 357.662 200.987 358.448 200.52C359.248 200.04 360.128 199.8 361.088 199.8C361.955 199.8 362.708 199.973 363.348 200.32C364.002 200.653 364.522 201.073 364.908 201.58V199.98H367.208V211H364.908V209.36C364.522 209.88 363.995 210.313 363.328 210.66C362.662 211.007 361.902 211.18 361.048 211.18C360.102 211.18 359.235 210.94 358.448 210.46C357.662 209.967 357.035 209.287 356.568 208.42C356.115 207.54 355.888 206.547 355.888 205.44ZM364.908 205.48C364.908 204.72 364.748 204.06 364.428 203.5C364.122 202.94 363.715 202.513 363.208 202.22C362.702 201.927 362.155 201.78 361.568 201.78C360.982 201.78 360.435 201.927 359.928 202.22C359.422 202.5 359.008 202.92 358.688 203.48C358.382 204.027 358.228 204.68 358.228 205.44C358.228 206.2 358.382 206.867 358.688 207.44C359.008 208.013 359.422 208.453 359.928 208.76C360.448 209.053 360.995 209.2 361.568 209.2C362.155 209.2 362.702 209.053 363.208 208.76C363.715 208.467 364.122 208.04 364.428 207.48C364.748 206.907 364.908 206.24 364.908 205.48ZM380.018 201.84H377.978V211H375.678V201.84H374.378V199.98H375.678V199.2C375.678 197.933 376.012 197.013 376.678 196.44C377.358 195.853 378.418 195.56 379.858 195.56V197.46C379.165 197.46 378.678 197.593 378.398 197.86C378.118 198.113 377.978 198.56 377.978 199.2V199.98H380.018V201.84ZM381.279 205.44C381.279 204.333 381.506 203.353 381.959 202.5C382.426 201.647 383.052 200.987 383.839 200.52C384.639 200.04 385.519 199.8 386.479 199.8C387.346 199.8 388.099 199.973 388.739 200.32C389.392 200.653 389.912 201.073 390.299 201.58V199.98H392.599V211H390.299V209.36C389.912 209.88 389.386 210.313 388.719 210.66C388.052 211.007 387.292 211.18 386.439 211.18C385.492 211.18 384.626 210.94 383.839 210.46C383.052 209.967 382.426 209.287 381.959 208.42C381.506 207.54 381.279 206.547 381.279 205.44ZM390.299 205.48C390.299 204.72 390.139 204.06 389.819 203.5C389.512 202.94 389.106 202.513 388.599 202.22C388.092 201.927 387.546 201.78 386.959 201.78C386.372 201.78 385.826 201.927 385.319 202.22C384.812 202.5 384.399 202.92 384.079 203.48C383.772 204.027 383.619 204.68 383.619 205.44C383.619 206.2 383.772 206.867 384.079 207.44C384.399 208.013 384.812 208.453 385.319 208.76C385.839 209.053 386.386 209.2 386.959 209.2C387.546 209.2 388.092 209.053 388.599 208.76C389.106 208.467 389.512 208.04 389.819 207.48C390.139 206.907 390.299 206.24 390.299 205.48ZM399.854 208.96L402.974 199.98H405.394L401.194 211H398.474L394.294 199.98H396.734L399.854 208.96ZM411.897 211.18C410.857 211.18 409.917 210.947 409.077 210.48C408.237 210 407.577 209.333 407.097 208.48C406.617 207.613 406.377 206.613 406.377 205.48C406.377 204.36 406.624 203.367 407.117 202.5C407.611 201.633 408.284 200.967 409.137 200.5C409.991 200.033 410.944 199.8 411.997 199.8C413.051 199.8 414.004 200.033 414.857 200.5C415.711 200.967 416.384 201.633 416.877 202.5C417.371 203.367 417.617 204.36 417.617 205.48C417.617 206.6 417.364 207.593 416.857 208.46C416.351 209.327 415.657 210 414.777 210.48C413.911 210.947 412.951 211.18 411.897 211.18ZM411.897 209.2C412.484 209.2 413.031 209.06 413.537 208.78C414.057 208.5 414.477 208.08 414.797 207.52C415.117 206.96 415.277 206.28 415.277 205.48C415.277 204.68 415.124 204.007 414.817 203.46C414.511 202.9 414.104 202.48 413.597 202.2C413.091 201.92 412.544 201.78 411.957 201.78C411.371 201.78 410.824 201.92 410.317 202.2C409.824 202.48 409.431 202.9 409.137 203.46C408.844 204.007 408.697 204.68 408.697 205.48C408.697 206.667 408.997 207.587 409.597 208.24C410.211 208.88 410.977 209.2 411.897 209.2ZM422.151 201.58C422.484 201.02 422.924 200.587 423.471 200.28C424.031 199.96 424.691 199.8 425.451 199.8V202.16H424.871C423.978 202.16 423.298 202.387 422.831 202.84C422.378 203.293 422.151 204.08 422.151 205.2V211H419.871V199.98H422.151V201.58ZM428.707 198.52C428.294 198.52 427.947 198.38 427.667 198.1C427.387 197.82 427.247 197.473 427.247 197.06C427.247 196.647 427.387 196.3 427.667 196.02C427.947 195.74 428.294 195.6 428.707 195.6C429.107 195.6 429.447 195.74 429.727 196.02C430.007 196.3 430.147 196.647 430.147 197.06C430.147 197.473 430.007 197.82 429.727 198.1C429.447 198.38 429.107 198.52 428.707 198.52ZM429.827 199.98V211H427.547V199.98H429.827ZM435.48 201.84V207.94C435.48 208.353 435.574 208.653 435.76 208.84C435.96 209.013 436.294 209.1 436.76 209.1H438.16V211H436.36C435.334 211 434.547 210.76 434 210.28C433.454 209.8 433.18 209.02 433.18 207.94V201.84H431.88V199.98H433.18V197.24H435.48V199.98H438.16V201.84H435.48ZM445.042 211.18C444.002 211.18 443.062 210.947 442.222 210.48C441.382 210 440.722 209.333 440.242 208.48C439.762 207.613 439.522 206.613 439.522 205.48C439.522 204.36 439.768 203.367 440.262 202.5C440.755 201.633 441.428 200.967 442.282 200.5C443.135 200.033 444.088 199.8 445.142 199.8C446.195 199.8 447.148 200.033 448.002 200.5C448.855 200.967 449.528 201.633 450.022 202.5C450.515 203.367 450.762 204.36 450.762 205.48C450.762 206.6 450.508 207.593 450.002 208.46C449.495 209.327 448.802 210 447.922 210.48C447.055 210.947 446.095 211.18 445.042 211.18ZM445.042 209.2C445.628 209.2 446.175 209.06 446.682 208.78C447.202 208.5 447.622 208.08 447.942 207.52C448.262 206.96 448.422 206.28 448.422 205.48C448.422 204.68 448.268 204.007 447.962 203.46C447.655 202.9 447.248 202.48 446.742 202.2C446.235 201.92 445.688 201.78 445.102 201.78C444.515 201.78 443.968 201.92 443.462 202.2C442.968 202.48 442.575 202.9 442.282 203.46C441.988 204.007 441.842 204.68 441.842 205.48C441.842 206.667 442.142 207.587 442.742 208.24C443.355 208.88 444.122 209.2 445.042 209.2Z" fill="#0E2F8C"/>
<path d="M91.3345 393.446C91.3345 387.924 95.8116 383.446 101.334 383.446H275.376C280.899 383.446 285.376 387.924 285.376 393.446V529.429H91.3345V393.446Z" fill="#D9D9D9"/>
<path d="M328.78 393.446C328.78 387.924 333.257 383.446 338.78 383.446H506.438C511.961 383.446 516.438 387.924 516.438 393.446V529.429H328.78V393.446Z" fill="#D9D9D9"/>
<path d="M550.906 393.446C550.906 387.924 555.383 383.446 560.906 383.446H668.565C674.088 383.446 678.565 387.924 678.565 393.446V529.429H550.906V393.446Z" fill="#D9D9D9"/>
<defs>
<clipPath id="clip0_28_166">
<rect width="40" height="40" fill="white" transform="matrix(-1 0 0 1 145 184)"/>
</clipPath>
</defs>
</svg>
