<svg width="250" height="280" viewBox="0 0 250 280" fill="none" xmlns="http://www.w3.org/2000/svg">
<rect width="250" height="280" rx="20" fill="#020C27"/>
<path d="M22.74 40.02C22.74 38.66 23.0533 37.44 23.68 36.36C24.32 35.28 25.18 34.44 26.26 33.84C27.3533 33.2267 28.5467 32.92 29.84 32.92C31.32 32.92 32.6333 33.2867 33.78 34.02C34.94 34.74 35.78 35.7667 36.3 37.1H33.56C33.2 36.3667 32.7 35.82 32.06 35.46C31.42 35.1 30.68 34.92 29.84 34.92C28.92 34.92 28.1 35.1267 27.38 35.54C26.66 35.9533 26.0933 36.5467 25.68 37.32C25.28 38.0933 25.08 38.9933 25.08 40.02C25.08 41.0467 25.28 41.9467 25.68 42.72C26.0933 43.4933 26.66 44.0933 27.38 44.52C28.1 44.9333 28.92 45.14 29.84 45.14C30.68 45.14 31.42 44.96 32.06 44.6C32.7 44.24 33.2 43.6933 33.56 42.96H36.3C35.78 44.2933 34.94 45.32 33.78 46.04C32.6333 46.76 31.32 47.12 29.84 47.12C28.5333 47.12 27.34 46.82 26.26 46.22C25.18 45.6067 24.32 44.76 23.68 43.68C23.0533 42.6 22.74 41.38 22.74 40.02ZM38.2088 41.44C38.2088 40.3333 38.4354 39.3533 38.8888 38.5C39.3554 37.6467 39.9821 36.9867 40.7688 36.52C41.5688 36.04 42.4488 35.8 43.4088 35.8C44.2754 35.8 45.0288 35.9733 45.6688 36.32C46.3221 36.6533 46.8421 37.0733 47.2288 37.58V35.98H49.5288V47H47.2288V45.36C46.8421 45.88 46.3154 46.3133 45.6488 46.66C44.9821 47.0067 44.2221 47.18 43.3688 47.18C42.4221 47.18 41.5554 46.94 40.7688 46.46C39.9821 45.9667 39.3554 45.2867 38.8888 44.42C38.4354 43.54 38.2088 42.5467 38.2088 41.44ZM47.2288 41.48C47.2288 40.72 47.0688 40.06 46.7488 39.5C46.4421 38.94 46.0354 38.5133 45.5288 38.22C45.0221 37.9267 44.4754 37.78 43.8888 37.78C43.3021 37.78 42.7554 37.9267 42.2488 38.22C41.7421 38.5 41.3288 38.92 41.0088 39.48C40.7021 40.0267 40.5488 40.68 40.5488 41.44C40.5488 42.2 40.7021 42.8667 41.0088 43.44C41.3288 44.0133 41.7421 44.4533 42.2488 44.76C42.7688 45.0533 43.3154 45.2 43.8888 45.2C44.4754 45.2 45.0221 45.0533 45.5288 44.76C46.0354 44.4667 46.4421 44.04 46.7488 43.48C47.0688 42.9067 47.2288 42.24 47.2288 41.48ZM51.7634 41.44C51.7634 40.3333 51.9901 39.3533 52.4434 38.5C52.9101 37.6467 53.5368 36.9867 54.3234 36.52C55.1234 36.04 56.0101 35.8 56.9834 35.8C57.7034 35.8 58.4101 35.96 59.1034 36.28C59.8101 36.5867 60.3701 37 60.7834 37.52V32.2H63.0834V47H60.7834V45.34C60.4101 45.8733 59.8901 46.3133 59.2234 46.66C58.5701 47.0067 57.8168 47.18 56.9634 47.18C56.0034 47.18 55.1234 46.94 54.3234 46.46C53.5368 45.9667 52.9101 45.2867 52.4434 44.42C51.9901 43.54 51.7634 42.5467 51.7634 41.44ZM60.7834 41.48C60.7834 40.72 60.6234 40.06 60.3034 39.5C59.9968 38.94 59.5901 38.5133 59.0834 38.22C58.5768 37.9267 58.0301 37.78 57.4434 37.78C56.8568 37.78 56.3101 37.9267 55.8034 38.22C55.2968 38.5 54.8834 38.92 54.5634 39.48C54.2568 40.0267 54.1034 40.68 54.1034 41.44C54.1034 42.2 54.2568 42.8667 54.5634 43.44C54.8834 44.0133 55.2968 44.4533 55.8034 44.76C56.3234 45.0533 56.8701 45.2 57.4434 45.2C58.0301 45.2 58.5768 45.0533 59.0834 44.76C59.5901 44.4667 59.9968 44.04 60.3034 43.48C60.6234 42.9067 60.7834 42.24 60.7834 41.48ZM65.3181 41.44C65.3181 40.3333 65.5448 39.3533 65.9981 38.5C66.4648 37.6467 67.0915 36.9867 67.8781 36.52C68.6781 36.04 69.5581 35.8 70.5181 35.8C71.3848 35.8 72.1381 35.9733 72.7781 36.32C73.4315 36.6533 73.9515 37.0733 74.3381 37.58V35.98H76.6381V47H74.3381V45.36C73.9515 45.88 73.4248 46.3133 72.7581 46.66C72.0915 47.0067 71.3315 47.18 70.4781 47.18C69.5315 47.18 68.6648 46.94 67.8781 46.46C67.0915 45.9667 66.4648 45.2867 65.9981 44.42C65.5448 43.54 65.3181 42.5467 65.3181 41.44ZM74.3381 41.48C74.3381 40.72 74.1781 40.06 73.8581 39.5C73.5515 38.94 73.1448 38.5133 72.6381 38.22C72.1315 37.9267 71.5848 37.78 70.9981 37.78C70.4115 37.78 69.8648 37.9267 69.3581 38.22C68.8515 38.5 68.4381 38.92 68.1181 39.48C67.8115 40.0267 67.6581 40.68 67.6581 41.44C67.6581 42.2 67.8115 42.8667 68.1181 43.44C68.4381 44.0133 68.8515 44.4533 69.3581 44.76C69.8781 45.0533 70.4248 45.2 70.9981 45.2C71.5848 45.2 72.1315 45.0533 72.6381 44.76C73.1448 44.4667 73.5515 44.04 73.8581 43.48C74.1781 42.9067 74.3381 42.24 74.3381 41.48ZM83.6328 47.18C82.7661 47.18 81.9861 47.0267 81.2928 46.72C80.6128 46.4 80.0728 45.9733 79.6728 45.44C79.2728 44.8933 79.0595 44.2867 79.0328 43.62H81.3928C81.4328 44.0867 81.6528 44.48 82.0528 44.8C82.4661 45.1067 82.9795 45.26 83.5928 45.26C84.2328 45.26 84.7261 45.14 85.0728 44.9C85.4328 44.6467 85.6128 44.3267 85.6128 43.94C85.6128 43.5267 85.4128 43.22 85.0128 43.02C84.6261 42.82 84.0061 42.6 83.1528 42.36C82.3261 42.1333 81.6528 41.9133 81.1328 41.7C80.6128 41.4867 80.1595 41.16 79.7728 40.72C79.3995 40.28 79.2128 39.7 79.2128 38.98C79.2128 38.3933 79.3861 37.86 79.7328 37.38C80.0795 36.8867 80.5728 36.5 81.2128 36.22C81.8661 35.94 82.6128 35.8 83.4528 35.8C84.7061 35.8 85.7128 36.12 86.4728 36.76C87.2461 37.3867 87.6595 38.2467 87.7128 39.34H85.4328C85.3928 38.8467 85.1928 38.4533 84.8328 38.16C84.4728 37.8667 83.9861 37.72 83.3728 37.72C82.7728 37.72 82.3128 37.8333 81.9928 38.06C81.6728 38.2867 81.5128 38.5867 81.5128 38.96C81.5128 39.2533 81.6195 39.5 81.8328 39.7C82.0461 39.9 82.3061 40.06 82.6128 40.18C82.9195 40.2867 83.3728 40.4267 83.9728 40.6C84.7728 40.8133 85.4261 41.0333 85.9328 41.26C86.4528 41.4733 86.8995 41.7933 87.2728 42.22C87.6461 42.6467 87.8395 43.2133 87.8528 43.92C87.8528 44.5467 87.6795 45.1067 87.3328 45.6C86.9861 46.0933 86.4928 46.48 85.8528 46.76C85.2261 47.04 84.4861 47.18 83.6328 47.18ZM92.9764 37.84V43.94C92.9764 44.3533 93.0697 44.6533 93.2564 44.84C93.4564 45.0133 93.7897 45.1 94.2564 45.1H95.6564V47H93.8564C92.8297 47 92.0431 46.76 91.4964 46.28C90.9497 45.8 90.6764 45.02 90.6764 43.94V37.84H89.3764V35.98H90.6764V33.24H92.9764V35.98H95.6564V37.84H92.9764ZM100.038 37.58C100.371 37.02 100.811 36.5867 101.358 36.28C101.918 35.96 102.578 35.8 103.338 35.8V38.16H102.758C101.864 38.16 101.184 38.3867 100.718 38.84C100.264 39.2933 100.038 40.08 100.038 41.2V47H97.7578V35.98H100.038V37.58ZM115.534 41.22C115.534 41.6333 115.507 42.0067 115.454 42.34H107.034C107.1 43.22 107.427 43.9267 108.014 44.46C108.6 44.9933 109.32 45.26 110.174 45.26C111.4 45.26 112.267 44.7467 112.774 43.72H115.234C114.9 44.7333 114.294 45.5667 113.414 46.22C112.547 46.86 111.467 47.18 110.174 47.18C109.12 47.18 108.174 46.9467 107.334 46.48C106.507 46 105.854 45.3333 105.374 44.48C104.907 43.6133 104.674 42.6133 104.674 41.48C104.674 40.3467 104.9 39.3533 105.354 38.5C105.82 37.6333 106.467 36.9667 107.294 36.5C108.134 36.0333 109.094 35.8 110.174 35.8C111.214 35.8 112.14 36.0267 112.954 36.48C113.767 36.9333 114.4 37.5733 114.854 38.4C115.307 39.2133 115.534 40.1533 115.534 41.22ZM113.154 40.5C113.14 39.66 112.84 38.9867 112.254 38.48C111.667 37.9733 110.94 37.72 110.074 37.72C109.287 37.72 108.614 37.9733 108.054 38.48C107.494 38.9733 107.16 39.6467 107.054 40.5H113.154ZM126.237 38.8V40.72H118.017V38.8H126.237ZM133.477 47.18C132.61 47.18 131.83 47.0267 131.137 46.72C130.457 46.4 129.917 45.9733 129.517 45.44C129.117 44.8933 128.903 44.2867 128.877 43.62H131.237C131.277 44.0867 131.497 44.48 131.897 44.8C132.31 45.1067 132.823 45.26 133.437 45.26C134.077 45.26 134.57 45.14 134.917 44.9C135.277 44.6467 135.457 44.3267 135.457 43.94C135.457 43.5267 135.257 43.22 134.857 43.02C134.47 42.82 133.85 42.6 132.997 42.36C132.17 42.1333 131.497 41.9133 130.977 41.7C130.457 41.4867 130.003 41.16 129.617 40.72C129.243 40.28 129.057 39.7 129.057 38.98C129.057 38.3933 129.23 37.86 129.577 37.38C129.923 36.8867 130.417 36.5 131.057 36.22C131.71 35.94 132.457 35.8 133.297 35.8C134.55 35.8 135.557 36.12 136.317 36.76C137.09 37.3867 137.503 38.2467 137.557 39.34H135.277C135.237 38.8467 135.037 38.4533 134.677 38.16C134.317 37.8667 133.83 37.72 133.217 37.72C132.617 37.72 132.157 37.8333 131.837 38.06C131.517 38.2867 131.357 38.5867 131.357 38.96C131.357 39.2533 131.463 39.5 131.677 39.7C131.89 39.9 132.15 40.06 132.457 40.18C132.763 40.2867 133.217 40.4267 133.817 40.6C134.617 40.8133 135.27 41.0333 135.777 41.26C136.297 41.4733 136.743 41.7933 137.117 42.22C137.49 42.6467 137.683 43.2133 137.697 43.92C137.697 44.5467 137.523 45.1067 137.177 45.6C136.83 46.0933 136.337 46.48 135.697 46.76C135.07 47.04 134.33 47.18 133.477 47.18ZM150.26 41.22C150.26 41.6333 150.233 42.0067 150.18 42.34H141.76C141.827 43.22 142.153 43.9267 142.74 44.46C143.327 44.9933 144.047 45.26 144.9 45.26C146.127 45.26 146.993 44.7467 147.5 43.72H149.96C149.627 44.7333 149.02 45.5667 148.14 46.22C147.273 46.86 146.193 47.18 144.9 47.18C143.847 47.18 142.9 46.9467 142.06 46.48C141.233 46 140.58 45.3333 140.1 44.48C139.633 43.6133 139.4 42.6133 139.4 41.48C139.4 40.3467 139.627 39.3533 140.08 38.5C140.547 37.6333 141.193 36.9667 142.02 36.5C142.86 36.0333 143.82 35.8 144.9 35.8C145.94 35.8 146.867 36.0267 147.68 36.48C148.493 36.9333 149.127 37.5733 149.58 38.4C150.033 39.2133 150.26 40.1533 150.26 41.22ZM147.88 40.5C147.867 39.66 147.567 38.9867 146.98 38.48C146.393 37.9733 145.667 37.72 144.8 37.72C144.013 37.72 143.34 37.9733 142.78 38.48C142.22 38.9733 141.887 39.6467 141.78 40.5H147.88ZM163.259 35.8C164.126 35.8 164.899 35.98 165.579 36.34C166.273 36.7 166.813 37.2333 167.199 37.94C167.586 38.6467 167.779 39.5 167.779 40.5V47H165.519V40.84C165.519 39.8533 165.273 39.1 164.779 38.58C164.286 38.0467 163.613 37.78 162.759 37.78C161.906 37.78 161.226 38.0467 160.719 38.58C160.226 39.1 159.979 39.8533 159.979 40.84V47H157.699V35.98H159.979V37.24C160.353 36.7867 160.826 36.4333 161.399 36.18C161.986 35.9267 162.606 35.8 163.259 35.8ZM175.468 47.18C174.428 47.18 173.488 46.9467 172.648 46.48C171.808 46 171.148 45.3333 170.668 44.48C170.188 43.6133 169.948 42.6133 169.948 41.48C169.948 40.36 170.194 39.3667 170.688 38.5C171.181 37.6333 171.854 36.9667 172.708 36.5C173.561 36.0333 174.514 35.8 175.568 35.8C176.621 35.8 177.574 36.0333 178.428 36.5C179.281 36.9667 179.954 37.6333 180.448 38.5C180.941 39.3667 181.188 40.36 181.188 41.48C181.188 42.6 180.934 43.5933 180.428 44.46C179.921 45.3267 179.228 46 178.348 46.48C177.481 46.9467 176.521 47.18 175.468 47.18ZM175.468 45.2C176.054 45.2 176.601 45.06 177.108 44.78C177.628 44.5 178.048 44.08 178.368 43.52C178.688 42.96 178.848 42.28 178.848 41.48C178.848 40.68 178.694 40.0067 178.388 39.46C178.081 38.9 177.674 38.48 177.168 38.2C176.661 37.92 176.114 37.78 175.528 37.78C174.941 37.78 174.394 37.92 173.888 38.2C173.394 38.48 173.001 38.9 172.708 39.46C172.414 40.0067 172.268 40.68 172.268 41.48C172.268 42.6667 172.568 43.5867 173.168 44.24C173.781 44.88 174.548 45.2 175.468 45.2ZM197.017 44.16H191.197L190.197 47H187.817L192.797 33.08H195.437L200.417 47H198.017L197.017 44.16ZM196.377 42.3L194.117 35.84L191.837 42.3H196.377ZM204.862 37.6C205.249 37.0933 205.775 36.6667 206.442 36.32C207.109 35.9733 207.862 35.8 208.702 35.8C209.662 35.8 210.535 36.04 211.322 36.52C212.122 36.9867 212.749 37.6467 213.202 38.5C213.655 39.3533 213.882 40.3333 213.882 41.44C213.882 42.5467 213.655 43.54 213.202 44.42C212.749 45.2867 212.122 45.9667 211.322 46.46C210.535 46.94 209.662 47.18 208.702 47.18C207.862 47.18 207.115 47.0133 206.462 46.68C205.809 46.3333 205.275 45.9067 204.862 45.4V52.24H202.582V35.98H204.862V37.6ZM211.562 41.44C211.562 40.68 211.402 40.0267 211.082 39.48C210.775 38.92 210.362 38.5 209.842 38.22C209.335 37.9267 208.789 37.78 208.202 37.78C207.629 37.78 207.082 37.9267 206.562 38.22C206.055 38.5133 205.642 38.94 205.322 39.5C205.015 40.06 204.862 40.72 204.862 41.48C204.862 42.24 205.015 42.9067 205.322 43.48C205.642 44.04 206.055 44.4667 206.562 44.76C207.082 45.0533 207.629 45.2 208.202 45.2C208.789 45.2 209.335 45.0533 209.842 44.76C210.362 44.4533 210.775 44.0133 211.082 43.44C211.402 42.8667 211.562 42.2 211.562 41.44ZM218.417 37.6C218.803 37.0933 219.33 36.6667 219.997 36.32C220.663 35.9733 221.417 35.8 222.257 35.8C223.217 35.8 224.09 36.04 224.877 36.52C225.677 36.9867 226.303 37.6467 226.757 38.5C227.21 39.3533 227.437 40.3333 227.437 41.44C227.437 42.5467 227.21 43.54 226.757 44.42C226.303 45.2867 225.677 45.9667 224.877 46.46C224.09 46.94 223.217 47.18 222.257 47.18C221.417 47.18 220.67 47.0133 220.017 46.68C219.363 46.3333 218.83 45.9067 218.417 45.4V52.24H216.137V35.98H218.417V37.6ZM225.117 41.44C225.117 40.68 224.957 40.0267 224.637 39.48C224.33 38.92 223.917 38.5 223.397 38.22C222.89 37.9267 222.343 37.78 221.757 37.78C221.183 37.78 220.637 37.9267 220.117 38.22C219.61 38.5133 219.197 38.94 218.877 39.5C218.57 40.06 218.417 40.72 218.417 41.48C218.417 42.24 218.57 42.9067 218.877 43.48C219.197 44.04 219.61 44.4667 220.117 44.76C220.637 45.0533 221.183 45.2 221.757 45.2C222.343 45.2 222.89 45.0533 223.397 44.76C223.917 44.4533 224.33 44.0133 224.637 43.44C224.957 42.8667 225.117 42.2 225.117 41.44Z" fill="#F5F5F5"/>
<rect x="42" y="205" width="166" height="42" rx="20" fill="#F5F5F5"/>
<path d="M67.66 225.96C67.66 224.573 67.96 223.34 68.56 222.26C69.16 221.167 69.9933 220.32 71.06 219.72C72.14 219.107 73.36 218.8 74.72 218.8C76.3867 218.8 77.8133 219.24 79 220.12C80.1867 221 80.98 222.2 81.38 223.72H77.62C77.34 223.133 76.94 222.687 76.42 222.38C75.9133 222.073 75.3333 221.92 74.68 221.92C73.6267 221.92 72.7733 222.287 72.12 223.02C71.4667 223.753 71.14 224.733 71.14 225.96C71.14 227.187 71.4667 228.167 72.12 228.9C72.7733 229.633 73.6267 230 74.68 230C75.3333 230 75.9133 229.847 76.42 229.54C76.94 229.233 77.34 228.787 77.62 228.2H81.38C80.98 229.72 80.1867 230.92 79 231.8C77.8133 232.667 76.3867 233.1 74.72 233.1C73.36 233.1 72.14 232.8 71.06 232.2C69.9933 231.587 69.16 230.74 68.56 229.66C67.96 228.58 67.66 227.347 67.66 225.96ZM86.8944 223.7C87.2944 223.087 87.7944 222.607 88.3944 222.26C88.9944 221.9 89.661 221.72 90.3944 221.72V225.34H89.4544C88.601 225.34 87.961 225.527 87.5344 225.9C87.1077 226.26 86.8944 226.9 86.8944 227.82V233H83.4744V221.84H86.8944V223.7ZM93.7491 220.68C93.1491 220.68 92.6557 220.507 92.2691 220.16C91.8957 219.8 91.7091 219.36 91.7091 218.84C91.7091 218.307 91.8957 217.867 92.2691 217.52C92.6557 217.16 93.1491 216.98 93.7491 216.98C94.3357 216.98 94.8157 217.16 95.1891 217.52C95.5757 217.867 95.7691 218.307 95.7691 218.84C95.7691 219.36 95.5757 219.8 95.1891 220.16C94.8157 220.507 94.3357 220.68 93.7491 220.68ZM95.4491 221.84V233H92.0291V221.84H95.4491ZM97.2475 227.4C97.2475 226.253 97.4608 225.247 97.8875 224.38C98.3275 223.513 98.9208 222.847 99.6675 222.38C100.414 221.913 101.248 221.68 102.168 221.68C102.954 221.68 103.641 221.84 104.228 222.16C104.828 222.48 105.288 222.9 105.608 223.42V221.84H109.028V233H105.608V231.42C105.274 231.94 104.808 232.36 104.208 232.68C103.621 233 102.934 233.16 102.148 233.16C101.241 233.16 100.414 232.927 99.6675 232.46C98.9208 231.98 98.3275 231.307 97.8875 230.44C97.4608 229.56 97.2475 228.547 97.2475 227.4ZM105.608 227.42C105.608 226.567 105.368 225.893 104.888 225.4C104.421 224.907 103.848 224.66 103.168 224.66C102.488 224.66 101.908 224.907 101.428 225.4C100.961 225.88 100.728 226.547 100.728 227.4C100.728 228.253 100.961 228.933 101.428 229.44C101.908 229.933 102.488 230.18 103.168 230.18C103.848 230.18 104.421 229.933 104.888 229.44C105.368 228.947 105.608 228.273 105.608 227.42ZM114.922 223.7C115.322 223.087 115.822 222.607 116.422 222.26C117.022 221.9 117.688 221.72 118.422 221.72V225.34H117.482C116.628 225.34 115.988 225.527 115.562 225.9C115.135 226.26 114.922 226.9 114.922 227.82V233H111.502V221.84H114.922V223.7ZM123.615 227.42C123.615 226.26 123.848 225.247 124.315 224.38C124.795 223.513 125.455 222.847 126.295 222.38C127.148 221.913 128.121 221.68 129.215 221.68C130.615 221.68 131.781 222.047 132.715 222.78C133.661 223.513 134.281 224.547 134.575 225.88H130.935C130.628 225.027 130.035 224.6 129.155 224.6C128.528 224.6 128.028 224.847 127.655 225.34C127.281 225.82 127.095 226.513 127.095 227.42C127.095 228.327 127.281 229.027 127.655 229.52C128.028 230 128.528 230.24 129.155 230.24C130.035 230.24 130.628 229.813 130.935 228.96H134.575C134.281 230.267 133.661 231.293 132.715 232.04C131.768 232.787 130.601 233.16 129.215 233.16C128.121 233.16 127.148 232.927 126.295 232.46C125.455 231.993 124.795 231.327 124.315 230.46C123.848 229.593 123.615 228.58 123.615 227.42ZM141.484 233.16C140.391 233.16 139.404 232.927 138.524 232.46C137.657 231.993 136.971 231.327 136.464 230.46C135.971 229.593 135.724 228.58 135.724 227.42C135.724 226.273 135.977 225.267 136.484 224.4C136.991 223.52 137.684 222.847 138.564 222.38C139.444 221.913 140.431 221.68 141.524 221.68C142.617 221.68 143.604 221.913 144.484 222.38C145.364 222.847 146.057 223.52 146.564 224.4C147.071 225.267 147.324 226.273 147.324 227.42C147.324 228.567 147.064 229.58 146.544 230.46C146.037 231.327 145.337 231.993 144.444 232.46C143.564 232.927 142.577 233.16 141.484 233.16ZM141.484 230.2C142.137 230.2 142.691 229.96 143.144 229.48C143.611 229 143.844 228.313 143.844 227.42C143.844 226.527 143.617 225.84 143.164 225.36C142.724 224.88 142.177 224.64 141.524 224.64C140.857 224.64 140.304 224.88 139.864 225.36C139.424 225.827 139.204 226.513 139.204 227.42C139.204 228.313 139.417 229 139.844 229.48C140.284 229.96 140.831 230.2 141.484 230.2ZM155.938 221.72C157.245 221.72 158.285 222.147 159.058 223C159.845 223.84 160.238 225 160.238 226.48V233H156.838V226.94C156.838 226.193 156.645 225.613 156.258 225.2C155.872 224.787 155.352 224.58 154.698 224.58C154.045 224.58 153.525 224.787 153.138 225.2C152.752 225.613 152.558 226.193 152.558 226.94V233H149.138V221.84H152.558V223.32C152.905 222.827 153.372 222.44 153.958 222.16C154.545 221.867 155.205 221.72 155.938 221.72ZM168.835 230.1V233H167.095C165.855 233 164.888 232.7 164.195 232.1C163.502 231.487 163.155 230.493 163.155 229.12V224.68H161.795V221.84H163.155V219.12H166.575V221.84H168.815V224.68H166.575V229.16C166.575 229.493 166.655 229.733 166.815 229.88C166.975 230.027 167.242 230.1 167.615 230.1H168.835ZM170.06 227.4C170.06 226.253 170.273 225.247 170.7 224.38C171.14 223.513 171.733 222.847 172.48 222.38C173.227 221.913 174.06 221.68 174.98 221.68C175.767 221.68 176.453 221.84 177.04 222.16C177.64 222.48 178.1 222.9 178.42 223.42V221.84H181.84V233H178.42V231.42C178.087 231.94 177.62 232.36 177.02 232.68C176.433 233 175.747 233.16 174.96 233.16C174.053 233.16 173.227 232.927 172.48 232.46C171.733 231.98 171.14 231.307 170.7 230.44C170.273 229.56 170.06 228.547 170.06 227.4ZM178.42 227.42C178.42 226.567 178.18 225.893 177.7 225.4C177.233 224.907 176.66 224.66 175.98 224.66C175.3 224.66 174.72 224.907 174.24 225.4C173.773 225.88 173.54 226.547 173.54 227.4C173.54 228.253 173.773 228.933 174.24 229.44C174.72 229.933 175.3 230.18 175.98 230.18C176.66 230.18 177.233 229.933 177.7 229.44C178.18 228.947 178.42 228.273 178.42 227.42Z" fill="#DA3BBD"/>
<path d="M46.56 152.105C45.86 152.105 45.23 151.985 44.67 151.745C44.11 151.495 43.67 151.145 43.35 150.695C43.03 150.245 42.87 149.72 42.87 149.12H44.7C44.74 149.57 44.915 149.94 45.225 150.23C45.545 150.52 45.99 150.665 46.56 150.665C47.15 150.665 47.61 150.525 47.94 150.245C48.27 149.955 48.435 149.585 48.435 149.135C48.435 148.785 48.33 148.5 48.12 148.28C47.92 148.06 47.665 147.89 47.355 147.77C47.055 147.65 46.635 147.52 46.095 147.38C45.415 147.2 44.86 147.02 44.43 146.84C44.01 146.65 43.65 146.36 43.35 145.97C43.05 145.58 42.9 145.06 42.9 144.41C42.9 143.81 43.05 143.285 43.35 142.835C43.65 142.385 44.07 142.04 44.61 141.8C45.15 141.56 45.775 141.44 46.485 141.44C47.495 141.44 48.32 141.695 48.96 142.205C49.61 142.705 49.97 143.395 50.04 144.275H48.15C48.12 143.895 47.94 143.57 47.61 143.3C47.28 143.03 46.845 142.895 46.305 142.895C45.815 142.895 45.415 143.02 45.105 143.27C44.795 143.52 44.64 143.88 44.64 144.35C44.64 144.67 44.735 144.935 44.925 145.145C45.125 145.345 45.375 145.505 45.675 145.625C45.975 145.745 46.385 145.875 46.905 146.015C47.595 146.205 48.155 146.395 48.585 146.585C49.025 146.775 49.395 147.07 49.695 147.47C50.005 147.86 50.16 148.385 50.16 149.045C50.16 149.575 50.015 150.075 49.725 150.545C49.445 151.015 49.03 151.395 48.48 151.685C47.94 151.965 47.3 152.105 46.56 152.105ZM59.7527 147.665C59.7527 147.975 59.7327 148.255 59.6927 148.505H53.3777C53.4277 149.165 53.6727 149.695 54.1127 150.095C54.5527 150.495 55.0927 150.695 55.7327 150.695C56.6527 150.695 57.3027 150.31 57.6827 149.54H59.5277C59.2777 150.3 58.8227 150.925 58.1627 151.415C57.5127 151.895 56.7027 152.135 55.7327 152.135C54.9427 152.135 54.2327 151.96 53.6027 151.61C52.9827 151.25 52.4927 150.75 52.1327 150.11C51.7827 149.46 51.6077 148.71 51.6077 147.86C51.6077 147.01 51.7777 146.265 52.1177 145.625C52.4677 144.975 52.9527 144.475 53.5727 144.125C54.2027 143.775 54.9227 143.6 55.7327 143.6C56.5127 143.6 57.2077 143.77 57.8177 144.11C58.4277 144.45 58.9027 144.93 59.2427 145.55C59.5827 146.16 59.7527 146.865 59.7527 147.665ZM57.9677 147.125C57.9577 146.495 57.7327 145.99 57.2927 145.61C56.8527 145.23 56.3077 145.04 55.6577 145.04C55.0677 145.04 54.5627 145.23 54.1427 145.61C53.7227 145.98 53.4727 146.485 53.3927 147.125H57.9677ZM65.6055 143.6C66.2555 143.6 66.8355 143.735 67.3455 144.005C67.8655 144.275 68.2705 144.675 68.5605 145.205C68.8505 145.735 68.9955 146.375 68.9955 147.125V152H67.3005V147.38C67.3005 146.64 67.1155 146.075 66.7455 145.685C66.3755 145.285 65.8705 145.085 65.2305 145.085C64.5905 145.085 64.0805 145.285 63.7005 145.685C63.3305 146.075 63.1455 146.64 63.1455 147.38V152H61.4355V143.735H63.1455V144.68C63.4255 144.34 63.7805 144.075 64.2105 143.885C64.6505 143.695 65.1155 143.6 65.6055 143.6ZM75.4518 143.6C76.0818 143.6 76.6418 143.735 77.1318 144.005C77.6318 144.275 78.0218 144.675 78.3018 145.205C78.5918 145.735 78.7368 146.375 78.7368 147.125V152H77.0418V147.38C77.0418 146.64 76.8568 146.075 76.4868 145.685C76.1168 145.285 75.6118 145.085 74.9718 145.085C74.3318 145.085 73.8218 145.285 73.4418 145.685C73.0718 146.075 72.8868 146.64 72.8868 147.38V152H71.1768V140.9H72.8868V144.695C73.1768 144.345 73.5418 144.075 73.9818 143.885C74.4318 143.695 74.9218 143.6 75.4518 143.6ZM80.348 147.83C80.348 147 80.518 146.265 80.858 145.625C81.208 144.985 81.678 144.49 82.268 144.14C82.868 143.78 83.528 143.6 84.248 143.6C84.898 143.6 85.463 143.73 85.943 143.99C86.433 144.24 86.823 144.555 87.113 144.935V143.735H88.838V152H87.113V150.77C86.823 151.16 86.428 151.485 85.928 151.745C85.428 152.005 84.858 152.135 84.218 152.135C83.508 152.135 82.858 151.955 82.268 151.595C81.678 151.225 81.208 150.715 80.858 150.065C80.518 149.405 80.348 148.66 80.348 147.83ZM87.113 147.86C87.113 147.29 86.993 146.795 86.753 146.375C86.523 145.955 86.218 145.635 85.838 145.415C85.458 145.195 85.048 145.085 84.608 145.085C84.168 145.085 83.758 145.195 83.378 145.415C82.998 145.625 82.688 145.94 82.448 146.36C82.218 146.77 82.103 147.26 82.103 147.83C82.103 148.4 82.218 148.9 82.448 149.33C82.688 149.76 82.998 150.09 83.378 150.32C83.768 150.54 84.178 150.65 84.608 150.65C85.048 150.65 85.458 150.54 85.838 150.32C86.218 150.1 86.523 149.78 86.753 149.36C86.993 148.93 87.113 148.43 87.113 147.86Z" fill="#F5F5F5"/>
<rect x="42.5" y="158.5" width="165" height="29" rx="14.5" stroke="#DA3BBD"/>
<rect x="42.5" y="92.5" width="165" height="29" rx="14.5" stroke="#DA3BBD"/>
<path d="M48.835 76.955V80.015H52.435V81.41H48.835V84.605H52.885V86H47.125V75.56H52.885V76.955H48.835ZM64.9962 77.6C65.6462 77.6 66.2262 77.735 66.7362 78.005C67.2562 78.275 67.6612 78.675 67.9512 79.205C68.2512 79.735 68.4012 80.375 68.4012 81.125V86H66.7062V81.38C66.7062 80.64 66.5212 80.075 66.1512 79.685C65.7812 79.285 65.2762 79.085 64.6362 79.085C63.9962 79.085 63.4862 79.285 63.1062 79.685C62.7362 80.075 62.5512 80.64 62.5512 81.38V86H60.8562V81.38C60.8562 80.64 60.6712 80.075 60.3012 79.685C59.9312 79.285 59.4262 79.085 58.7862 79.085C58.1462 79.085 57.6362 79.285 57.2562 79.685C56.8862 80.075 56.7012 80.64 56.7012 81.38V86H54.9912V77.735H56.7012V78.68C56.9812 78.34 57.3362 78.075 57.7662 77.885C58.1962 77.695 58.6562 77.6 59.1462 77.6C59.8062 77.6 60.3962 77.74 60.9162 78.02C61.4362 78.3 61.8362 78.705 62.1162 79.235C62.3662 78.735 62.7562 78.34 63.2862 78.05C63.8162 77.75 64.3862 77.6 64.9962 77.6ZM70.0071 81.83C70.0071 81 70.1771 80.265 70.5171 79.625C70.8671 78.985 71.3371 78.49 71.9271 78.14C72.5271 77.78 73.1871 77.6 73.9071 77.6C74.5571 77.6 75.1221 77.73 75.6021 77.99C76.0921 78.24 76.4821 78.555 76.7721 78.935V77.735H78.4971V86H76.7721V84.77C76.4821 85.16 76.0871 85.485 75.5871 85.745C75.0871 86.005 74.5171 86.135 73.8771 86.135C73.1671 86.135 72.5171 85.955 71.9271 85.595C71.3371 85.225 70.8671 84.715 70.5171 84.065C70.1771 83.405 70.0071 82.66 70.0071 81.83ZM76.7721 81.86C76.7721 81.29 76.6521 80.795 76.4121 80.375C76.1821 79.955 75.8771 79.635 75.4971 79.415C75.1171 79.195 74.7071 79.085 74.2671 79.085C73.8271 79.085 73.4171 79.195 73.0371 79.415C72.6571 79.625 72.3471 79.94 72.1071 80.36C71.8771 80.77 71.7621 81.26 71.7621 81.83C71.7621 82.4 71.8771 82.9 72.1071 83.33C72.3471 83.76 72.6571 84.09 73.0371 84.32C73.4271 84.54 73.8371 84.65 74.2671 84.65C74.7071 84.65 75.1171 84.54 75.4971 84.32C75.8771 84.1 76.1821 83.78 76.4121 83.36C76.6521 82.93 76.7721 82.43 76.7721 81.86ZM81.6132 76.64C81.3032 76.64 81.0432 76.535 80.8332 76.325C80.6232 76.115 80.5182 75.855 80.5182 75.545C80.5182 75.235 80.6232 74.975 80.8332 74.765C81.0432 74.555 81.3032 74.45 81.6132 74.45C81.9132 74.45 82.1682 74.555 82.3782 74.765C82.5882 74.975 82.6932 75.235 82.6932 75.545C82.6932 75.855 82.5882 76.115 82.3782 76.325C82.1682 76.535 81.9132 76.64 81.6132 76.64ZM82.4532 77.735V86H80.7432V77.735H82.4532ZM86.4082 74.9V86H84.6982V74.9H86.4082Z" fill="#F5F5F5"/>
</svg>
