<svg width="250" height="280" viewBox="0 0 250 280" fill="none" xmlns="http://www.w3.org/2000/svg">
<rect width="250" height="280" rx="20" fill="#020C27"/>
<rect x="42" y="203" width="166" height="42" rx="20" fill="#F5F5F5"/>
<path d="M83.98 228.52H78.74L77.9 231H74.32L79.4 216.96H83.36L88.44 231H84.82L83.98 228.52ZM83.1 225.88L81.36 220.74L79.64 225.88H83.1ZM89.3061 225.4C89.3061 224.253 89.5194 223.247 89.9461 222.38C90.3861 221.513 90.9794 220.847 91.7261 220.38C92.4728 219.913 93.3061 219.68 94.2261 219.68C94.9594 219.68 95.6261 219.833 96.2261 220.14C96.8394 220.447 97.3194 220.86 97.6661 221.38V216.2H101.086V231H97.6661V229.4C97.3461 229.933 96.8861 230.36 96.2861 230.68C95.6994 231 95.0128 231.16 94.2261 231.16C93.3061 231.16 92.4728 230.927 91.7261 230.46C90.9794 229.98 90.3861 229.307 89.9461 228.44C89.5194 227.56 89.3061 226.547 89.3061 225.4ZM97.6661 225.42C97.6661 224.567 97.4261 223.893 96.9461 223.4C96.4794 222.907 95.9061 222.66 95.2261 222.66C94.5461 222.66 93.9661 222.907 93.4861 223.4C93.0194 223.88 92.7861 224.547 92.7861 225.4C92.7861 226.253 93.0194 226.933 93.4861 227.44C93.9661 227.933 94.5461 228.18 95.2261 228.18C95.9061 228.18 96.4794 227.933 96.9461 227.44C97.4261 226.947 97.6661 226.273 97.6661 225.42ZM105.28 218.68C104.68 218.68 104.187 218.507 103.8 218.16C103.427 217.8 103.24 217.36 103.24 216.84C103.24 216.307 103.427 215.867 103.8 215.52C104.187 215.16 104.68 214.98 105.28 214.98C105.867 214.98 106.347 215.16 106.72 215.52C107.107 215.867 107.3 216.307 107.3 216.84C107.3 217.36 107.107 217.8 106.72 218.16C106.347 218.507 105.867 218.68 105.28 218.68ZM106.98 219.84V231H103.56V219.84H106.98ZM108.779 225.42C108.779 224.26 109.012 223.247 109.479 222.38C109.959 221.513 110.619 220.847 111.459 220.38C112.312 219.913 113.285 219.68 114.379 219.68C115.779 219.68 116.945 220.047 117.879 220.78C118.825 221.513 119.445 222.547 119.739 223.88H116.099C115.792 223.027 115.199 222.6 114.319 222.6C113.692 222.6 113.192 222.847 112.819 223.34C112.445 223.82 112.259 224.513 112.259 225.42C112.259 226.327 112.445 227.027 112.819 227.52C113.192 228 113.692 228.24 114.319 228.24C115.199 228.24 115.792 227.813 116.099 226.96H119.739C119.445 228.267 118.825 229.293 117.879 230.04C116.932 230.787 115.765 231.16 114.379 231.16C113.285 231.16 112.312 230.927 111.459 230.46C110.619 229.993 109.959 229.327 109.479 228.46C109.012 227.593 108.779 226.58 108.779 225.42ZM123.288 218.68C122.688 218.68 122.195 218.507 121.808 218.16C121.435 217.8 121.248 217.36 121.248 216.84C121.248 216.307 121.435 215.867 121.808 215.52C122.195 215.16 122.688 214.98 123.288 214.98C123.875 214.98 124.355 215.16 124.728 215.52C125.115 215.867 125.308 216.307 125.308 216.84C125.308 217.36 125.115 217.8 124.728 218.16C124.355 218.507 123.875 218.68 123.288 218.68ZM124.988 219.84V231H121.568V219.84H124.988ZM132.547 231.16C131.453 231.16 130.467 230.927 129.587 230.46C128.72 229.993 128.033 229.327 127.527 228.46C127.033 227.593 126.787 226.58 126.787 225.42C126.787 224.273 127.04 223.267 127.547 222.4C128.053 221.52 128.747 220.847 129.627 220.38C130.507 219.913 131.493 219.68 132.587 219.68C133.68 219.68 134.667 219.913 135.547 220.38C136.427 220.847 137.12 221.52 137.627 222.4C138.133 223.267 138.387 224.273 138.387 225.42C138.387 226.567 138.127 227.58 137.607 228.46C137.1 229.327 136.4 229.993 135.507 230.46C134.627 230.927 133.64 231.16 132.547 231.16ZM132.547 228.2C133.2 228.2 133.753 227.96 134.207 227.48C134.673 227 134.907 226.313 134.907 225.42C134.907 224.527 134.68 223.84 134.227 223.36C133.787 222.88 133.24 222.64 132.587 222.64C131.92 222.64 131.367 222.88 130.927 223.36C130.487 223.827 130.267 224.513 130.267 225.42C130.267 226.313 130.48 227 130.907 227.48C131.347 227.96 131.893 228.2 132.547 228.2ZM147.001 219.72C148.308 219.72 149.348 220.147 150.121 221C150.908 221.84 151.301 223 151.301 224.48V231H147.901V224.94C147.901 224.193 147.708 223.613 147.321 223.2C146.934 222.787 146.414 222.58 145.761 222.58C145.108 222.58 144.588 222.787 144.201 223.2C143.814 223.613 143.621 224.193 143.621 224.94V231H140.201V219.84H143.621V221.32C143.968 220.827 144.434 220.44 145.021 220.16C145.608 219.867 146.268 219.72 147.001 219.72ZM152.998 225.4C152.998 224.253 153.211 223.247 153.638 222.38C154.078 221.513 154.671 220.847 155.418 220.38C156.164 219.913 156.998 219.68 157.918 219.68C158.704 219.68 159.391 219.84 159.978 220.16C160.578 220.48 161.038 220.9 161.358 221.42V219.84H164.778V231H161.358V229.42C161.024 229.94 160.558 230.36 159.958 230.68C159.371 231 158.684 231.16 157.898 231.16C156.991 231.16 156.164 230.927 155.418 230.46C154.671 229.98 154.078 229.307 153.638 228.44C153.211 227.56 152.998 226.547 152.998 225.4ZM161.358 225.42C161.358 224.567 161.118 223.893 160.638 223.4C160.171 222.907 159.598 222.66 158.918 222.66C158.238 222.66 157.658 222.907 157.178 223.4C156.711 223.88 156.478 224.547 156.478 225.4C156.478 226.253 156.711 226.933 157.178 227.44C157.658 227.933 158.238 228.18 158.918 228.18C159.598 228.18 160.171 227.933 160.638 227.44C161.118 226.947 161.358 226.273 161.358 225.42ZM170.672 221.7C171.072 221.087 171.572 220.607 172.172 220.26C172.772 219.9 173.438 219.72 174.172 219.72V223.34H173.232C172.378 223.34 171.738 223.527 171.312 223.9C170.885 224.26 170.672 224.9 170.672 225.82V231H167.252V219.84H170.672V221.7Z" fill="#DA3BBD"/>
<path d="M26.832 140.88C28.016 140.88 29.0507 141.109 29.936 141.568C30.832 142.016 31.52 142.667 32 143.52C32.4907 144.363 32.736 145.349 32.736 146.48C32.736 147.611 32.4907 148.592 32 149.424C31.52 150.256 30.832 150.896 29.936 151.344C29.0507 151.781 28.016 152 26.832 152H23.2V140.88H26.832ZM26.832 150.512C28.1333 150.512 29.1307 150.16 29.824 149.456C30.5173 148.752 30.864 147.76 30.864 146.48C30.864 145.189 30.5173 144.181 29.824 143.456C29.1307 142.731 28.1333 142.368 26.832 142.368H25.024V150.512H26.832ZM42.6238 147.376C42.6238 147.707 42.6024 148.005 42.5598 148.272H35.8238C35.8771 148.976 36.1384 149.541 36.6078 149.968C37.0771 150.395 37.6531 150.608 38.3358 150.608C39.3171 150.608 40.0104 150.197 40.4158 149.376H42.3837C42.1171 150.187 41.6318 150.853 40.9278 151.376C40.2344 151.888 39.3704 152.144 38.3358 152.144C37.4931 152.144 36.7358 151.957 36.0638 151.584C35.4024 151.2 34.8798 150.667 34.4958 149.984C34.1224 149.291 33.9358 148.491 33.9358 147.584C33.9358 146.677 34.1171 145.883 34.4798 145.2C34.8531 144.507 35.3704 143.973 36.0318 143.6C36.7038 143.227 37.4718 143.04 38.3358 143.04C39.1678 143.04 39.9091 143.221 40.5598 143.584C41.2104 143.947 41.7171 144.459 42.0798 145.12C42.4424 145.771 42.6238 146.523 42.6238 147.376ZM40.7198 146.8C40.7091 146.128 40.4691 145.589 39.9998 145.184C39.5304 144.779 38.9491 144.576 38.2558 144.576C37.6264 144.576 37.0878 144.779 36.6398 145.184C36.1918 145.579 35.9251 146.117 35.8398 146.8H40.7198ZM47.6188 152.144C46.9254 152.144 46.3014 152.021 45.7468 151.776C45.2028 151.52 44.7708 151.179 44.4508 150.752C44.1308 150.315 43.9601 149.829 43.9388 149.296H45.8268C45.8588 149.669 46.0348 149.984 46.3548 150.24C46.6854 150.485 47.0961 150.608 47.5868 150.608C48.0988 150.608 48.4934 150.512 48.7708 150.32C49.0588 150.117 49.2028 149.861 49.2028 149.552C49.2028 149.221 49.0428 148.976 48.7228 148.816C48.4134 148.656 47.9174 148.48 47.2348 148.288C46.5734 148.107 46.0348 147.931 45.6188 147.76C45.2028 147.589 44.8401 147.328 44.5308 146.976C44.2321 146.624 44.0828 146.16 44.0828 145.584C44.0828 145.115 44.2214 144.688 44.4988 144.304C44.7761 143.909 45.1708 143.6 45.6828 143.376C46.2054 143.152 46.8028 143.04 47.4748 143.04C48.4774 143.04 49.2828 143.296 49.8908 143.808C50.5094 144.309 50.8401 144.997 50.8828 145.872H49.0588C49.0268 145.477 48.8668 145.163 48.5788 144.928C48.2908 144.693 47.9014 144.576 47.4108 144.576C46.9308 144.576 46.5628 144.667 46.3068 144.848C46.0508 145.029 45.9228 145.269 45.9228 145.568C45.9228 145.803 46.0081 146 46.1788 146.16C46.3494 146.32 46.5574 146.448 46.8028 146.544C47.0481 146.629 47.4108 146.741 47.8908 146.88C48.5308 147.051 49.0534 147.227 49.4588 147.408C49.8748 147.579 50.2321 147.835 50.5308 148.176C50.8294 148.517 50.9841 148.971 50.9948 149.536C50.9948 150.037 50.8561 150.485 50.5788 150.88C50.3014 151.275 49.9068 151.584 49.3948 151.808C48.8934 152.032 48.3014 152.144 47.6188 152.144ZM61.0456 147.376C61.0456 147.707 61.0243 148.005 60.9816 148.272H54.2456C54.299 148.976 54.5603 149.541 55.0296 149.968C55.499 150.395 56.075 150.608 56.7576 150.608C57.739 150.608 58.4323 150.197 58.8376 149.376H60.8056C60.539 150.187 60.0536 150.853 59.3496 151.376C58.6563 151.888 57.7923 152.144 56.7576 152.144C55.915 152.144 55.1576 151.957 54.4856 151.584C53.8243 151.2 53.3016 150.667 52.9176 149.984C52.5443 149.291 52.3576 148.491 52.3576 147.584C52.3576 146.677 52.539 145.883 52.9016 145.2C53.275 144.507 53.7923 143.973 54.4536 143.6C55.1256 143.227 55.8936 143.04 56.7576 143.04C57.5896 143.04 58.331 143.221 58.9816 143.584C59.6323 143.947 60.139 144.459 60.5016 145.12C60.8643 145.771 61.0456 146.523 61.0456 147.376ZM59.1416 146.8C59.131 146.128 58.891 145.589 58.4216 145.184C57.9523 144.779 57.371 144.576 56.6776 144.576C56.0483 144.576 55.5096 144.779 55.0616 145.184C54.6136 145.579 54.347 146.117 54.2616 146.8H59.1416ZM63.7686 142.016C63.438 142.016 63.1606 141.904 62.9366 141.68C62.7126 141.456 62.6006 141.179 62.6006 140.848C62.6006 140.517 62.7126 140.24 62.9366 140.016C63.1606 139.792 63.438 139.68 63.7686 139.68C64.0886 139.68 64.3606 139.792 64.5846 140.016C64.8086 140.24 64.9206 140.517 64.9206 140.848C64.9206 141.179 64.8086 141.456 64.5846 141.68C64.3606 141.904 64.0886 142.016 63.7686 142.016ZM64.6646 153.728C64.6646 154.592 64.446 155.216 64.0086 155.6C63.582 155.995 62.958 156.192 62.1366 156.192H61.1926V154.656H61.8166C62.19 154.656 62.4513 154.581 62.6006 154.432C62.7606 154.293 62.8406 154.059 62.8406 153.728V143.184H64.6646V153.728ZM66.4514 147.552C66.4514 146.667 66.6327 145.883 66.9954 145.2C67.3687 144.517 67.87 143.989 68.4994 143.616C69.1394 143.232 69.8434 143.04 70.6114 143.04C71.3047 143.04 71.9074 143.179 72.4194 143.456C72.942 143.723 73.358 144.059 73.6674 144.464V143.184H75.5074V152H73.6674V150.688C73.358 151.104 72.9367 151.451 72.4034 151.728C71.87 152.005 71.262 152.144 70.5794 152.144C69.822 152.144 69.1287 151.952 68.4994 151.568C67.87 151.173 67.3687 150.629 66.9954 149.936C66.6327 149.232 66.4514 148.437 66.4514 147.552ZM73.6674 147.584C73.6674 146.976 73.5394 146.448 73.2834 146C73.038 145.552 72.7127 145.211 72.3074 144.976C71.902 144.741 71.4647 144.624 70.9954 144.624C70.526 144.624 70.0887 144.741 69.6834 144.976C69.278 145.2 68.9474 145.536 68.6914 145.984C68.446 146.421 68.3234 146.944 68.3234 147.552C68.3234 148.16 68.446 148.693 68.6914 149.152C68.9474 149.611 69.278 149.963 69.6834 150.208C70.0994 150.443 70.5367 150.56 70.9954 150.56C71.4647 150.56 71.902 150.443 72.3074 150.208C72.7127 149.973 73.038 149.632 73.2834 149.184C73.5394 148.725 73.6674 148.192 73.6674 147.584ZM81.4514 147.552C81.4514 146.667 81.6327 145.883 81.9954 145.2C82.3687 144.517 82.87 143.989 83.4994 143.616C84.1394 143.232 84.8434 143.04 85.6114 143.04C86.3047 143.04 86.9074 143.179 87.4194 143.456C87.942 143.723 88.358 144.059 88.6674 144.464V143.184H90.5074V152H88.6674V150.688C88.358 151.104 87.9367 151.451 87.4034 151.728C86.87 152.005 86.262 152.144 85.5794 152.144C84.822 152.144 84.1287 151.952 83.4994 151.568C82.87 151.173 82.3687 150.629 81.9954 149.936C81.6327 149.232 81.4514 148.437 81.4514 147.552ZM88.6674 147.584C88.6674 146.976 88.5394 146.448 88.2834 146C88.038 145.552 87.7127 145.211 87.3074 144.976C86.902 144.741 86.4647 144.624 85.9954 144.624C85.526 144.624 85.0887 144.741 84.6834 144.976C84.278 145.2 83.9474 145.536 83.6914 145.984C83.446 146.421 83.3234 146.944 83.3234 147.552C83.3234 148.16 83.446 148.693 83.6914 149.152C83.9474 149.611 84.278 149.963 84.6834 150.208C85.0994 150.443 85.5367 150.56 85.9954 150.56C86.4647 150.56 86.902 150.443 87.3074 150.208C87.7127 149.973 88.038 149.632 88.2834 149.184C88.5394 148.725 88.6674 148.192 88.6674 147.584ZM92.2951 147.552C92.2951 146.667 92.4765 145.883 92.8391 145.2C93.2125 144.517 93.7138 143.989 94.3431 143.616C94.9831 143.232 95.6925 143.04 96.4711 143.04C97.0471 143.04 97.6125 143.168 98.1671 143.424C98.7325 143.669 99.1805 144 99.5111 144.416V140.16H101.351V152H99.5111V150.672C99.2125 151.099 98.7965 151.451 98.2631 151.728C97.7405 152.005 97.1378 152.144 96.4551 152.144C95.6871 152.144 94.9831 151.952 94.3431 151.568C93.7138 151.173 93.2125 150.629 92.8391 149.936C92.4765 149.232 92.2951 148.437 92.2951 147.552ZM99.5111 147.584C99.5111 146.976 99.3831 146.448 99.1271 146C98.8818 145.552 98.5565 145.211 98.1511 144.976C97.7458 144.741 97.3085 144.624 96.8391 144.624C96.3698 144.624 95.9325 144.741 95.5271 144.976C95.1218 145.2 94.7911 145.536 94.5351 145.984C94.2898 146.421 94.1671 146.944 94.1671 147.552C94.1671 148.16 94.2898 148.693 94.5351 149.152C94.7911 149.611 95.1218 149.963 95.5271 150.208C95.9431 150.443 96.3805 150.56 96.8391 150.56C97.3085 150.56 97.7458 150.443 98.1511 150.208C98.5565 149.973 98.8818 149.632 99.1271 149.184C99.3831 148.725 99.5111 148.192 99.5111 147.584ZM104.675 142.016C104.344 142.016 104.067 141.904 103.843 141.68C103.619 141.456 103.507 141.179 103.507 140.848C103.507 140.517 103.619 140.24 103.843 140.016C104.067 139.792 104.344 139.68 104.675 139.68C104.995 139.68 105.267 139.792 105.491 140.016C105.715 140.24 105.827 140.517 105.827 140.848C105.827 141.179 105.715 141.456 105.491 141.68C105.267 141.904 104.995 142.016 104.675 142.016ZM105.571 143.184V152H103.747V143.184H105.571ZM107.358 147.584C107.358 146.677 107.539 145.883 107.902 145.2C108.275 144.507 108.787 143.973 109.438 143.6C110.088 143.227 110.835 143.04 111.678 143.04C112.744 143.04 113.624 143.296 114.318 143.808C115.022 144.309 115.496 145.029 115.742 145.968H113.774C113.614 145.531 113.358 145.189 113.006 144.944C112.654 144.699 112.211 144.576 111.678 144.576C110.931 144.576 110.334 144.843 109.886 145.376C109.448 145.899 109.23 146.635 109.23 147.584C109.23 148.533 109.448 149.275 109.886 149.808C110.334 150.341 110.931 150.608 111.678 150.608C112.734 150.608 113.432 150.144 113.774 149.216H115.742C115.486 150.112 115.006 150.827 114.302 151.36C113.598 151.883 112.723 152.144 111.678 152.144C110.835 152.144 110.088 151.957 109.438 151.584C108.787 151.2 108.275 150.667 107.902 149.984C107.539 149.291 107.358 148.491 107.358 147.584ZM118.487 142.016C118.157 142.016 117.879 141.904 117.655 141.68C117.431 141.456 117.319 141.179 117.319 140.848C117.319 140.517 117.431 140.24 117.655 140.016C117.879 139.792 118.157 139.68 118.487 139.68C118.807 139.68 119.079 139.792 119.303 140.016C119.527 140.24 119.639 140.517 119.639 140.848C119.639 141.179 119.527 141.456 119.303 141.68C119.079 141.904 118.807 142.016 118.487 142.016ZM119.383 143.184V152H117.559V143.184H119.383ZM125.602 152.144C124.77 152.144 124.018 151.957 123.346 151.584C122.674 151.2 122.146 150.667 121.762 149.984C121.378 149.291 121.186 148.491 121.186 147.584C121.186 146.688 121.383 145.893 121.778 145.2C122.173 144.507 122.711 143.973 123.394 143.6C124.077 143.227 124.839 143.04 125.682 143.04C126.525 143.04 127.287 143.227 127.97 143.6C128.653 143.973 129.191 144.507 129.586 145.2C129.981 145.893 130.178 146.688 130.178 147.584C130.178 148.48 129.975 149.275 129.57 149.968C129.165 150.661 128.61 151.2 127.906 151.584C127.213 151.957 126.445 152.144 125.602 152.144ZM125.602 150.56C126.071 150.56 126.509 150.448 126.914 150.224C127.33 150 127.666 149.664 127.922 149.216C128.178 148.768 128.306 148.224 128.306 147.584C128.306 146.944 128.183 146.405 127.938 145.968C127.693 145.52 127.367 145.184 126.962 144.96C126.557 144.736 126.119 144.624 125.65 144.624C125.181 144.624 124.743 144.736 124.338 144.96C123.943 145.184 123.629 145.52 123.394 145.968C123.159 146.405 123.042 146.944 123.042 147.584C123.042 148.533 123.282 149.269 123.762 149.792C124.253 150.304 124.866 150.56 125.602 150.56ZM136.429 143.04C137.123 143.04 137.741 143.184 138.285 143.472C138.84 143.76 139.272 144.187 139.581 144.752C139.891 145.317 140.045 146 140.045 146.8V152H138.237V147.072C138.237 146.283 138.04 145.68 137.645 145.264C137.251 144.837 136.712 144.624 136.029 144.624C135.347 144.624 134.803 144.837 134.397 145.264C134.003 145.68 133.805 146.283 133.805 147.072V152H131.981V143.184H133.805V144.192C134.104 143.829 134.483 143.547 134.941 143.344C135.411 143.141 135.907 143.04 136.429 143.04ZM141.764 147.552C141.764 146.667 141.945 145.883 142.308 145.2C142.681 144.517 143.183 143.989 143.812 143.616C144.452 143.232 145.156 143.04 145.924 143.04C146.617 143.04 147.22 143.179 147.732 143.456C148.255 143.723 148.671 144.059 148.98 144.464V143.184H150.82V152H148.98V150.688C148.671 151.104 148.249 151.451 147.716 151.728C147.183 152.005 146.575 152.144 145.892 152.144C145.135 152.144 144.441 151.952 143.812 151.568C143.183 151.173 142.681 150.629 142.308 149.936C141.945 149.232 141.764 148.437 141.764 147.552ZM148.98 147.584C148.98 146.976 148.852 146.448 148.596 146C148.351 145.552 148.025 145.211 147.62 144.976C147.215 144.741 146.777 144.624 146.308 144.624C145.839 144.624 145.401 144.741 144.996 144.976C144.591 145.2 144.26 145.536 144.004 145.984C143.759 146.421 143.636 146.944 143.636 147.552C143.636 148.16 143.759 148.693 144.004 149.152C144.26 149.611 144.591 149.963 144.996 150.208C145.412 150.443 145.849 150.56 146.308 150.56C146.777 150.56 147.215 150.443 147.62 150.208C148.025 149.973 148.351 149.632 148.596 149.184C148.852 148.725 148.98 148.192 148.98 147.584ZM155.04 144.464C155.306 144.016 155.658 143.669 156.096 143.424C156.544 143.168 157.072 143.04 157.68 143.04V144.928H157.216C156.501 144.928 155.957 145.109 155.584 145.472C155.221 145.835 155.04 146.464 155.04 147.36V152H153.216V143.184H155.04V144.464ZM22.592 171.552C22.592 170.667 22.7733 169.883 23.136 169.2C23.5093 168.517 24.0107 167.989 24.64 167.616C25.28 167.232 25.984 167.04 26.752 167.04C27.4453 167.04 28.048 167.179 28.56 167.456C29.0827 167.723 29.4987 168.059 29.808 168.464V167.184H31.648V176H29.808V174.688C29.4987 175.104 29.0773 175.451 28.544 175.728C28.0107 176.005 27.4027 176.144 26.72 176.144C25.9627 176.144 25.2693 175.952 24.64 175.568C24.0107 175.173 23.5093 174.629 23.136 173.936C22.7733 173.232 22.592 172.437 22.592 171.552ZM29.808 171.584C29.808 170.976 29.68 170.448 29.424 170C29.1787 169.552 28.8533 169.211 28.448 168.976C28.0427 168.741 27.6053 168.624 27.136 168.624C26.6667 168.624 26.2293 168.741 25.824 168.976C25.4187 169.2 25.088 169.536 24.832 169.984C24.5867 170.421 24.464 170.944 24.464 171.552C24.464 172.16 24.5867 172.693 24.832 173.152C25.088 173.611 25.4187 173.963 25.824 174.208C26.24 174.443 26.6773 174.56 27.136 174.56C27.6053 174.56 28.0427 174.443 28.448 174.208C28.8533 173.973 29.1787 173.632 29.424 173.184C29.68 172.725 29.808 172.192 29.808 171.584ZM29.072 165.216V166.56L25.536 164.816V163.264L29.072 165.216ZM161.63 164.72C162.718 164.72 163.587 165.019 164.238 165.616C164.899 166.213 165.23 167.029 165.23 168.064C165.23 169.141 164.888 169.952 164.206 170.496C163.523 171.04 162.616 171.312 161.486 171.312L161.422 172.576H159.838L159.758 170.064H160.286C161.32 170.064 162.11 169.925 162.654 169.648C163.208 169.371 163.486 168.843 163.486 168.064C163.486 167.499 163.32 167.056 162.99 166.736C162.67 166.416 162.222 166.256 161.646 166.256C161.07 166.256 160.616 166.411 160.286 166.72C159.955 167.029 159.789 167.461 159.789 168.016H158.078C158.078 167.376 158.222 166.805 158.51 166.304C158.798 165.803 159.208 165.413 159.742 165.136C160.286 164.859 160.915 164.72 161.63 164.72ZM160.606 176.112C160.275 176.112 159.998 176 159.774 175.776C159.55 175.552 159.438 175.275 159.438 174.944C159.438 174.613 159.55 174.336 159.774 174.112C159.998 173.888 160.275 173.776 160.606 173.776C160.926 173.776 161.198 173.888 161.422 174.112C161.646 174.336 161.758 174.613 161.758 174.944C161.758 175.275 161.646 175.552 161.422 175.776C161.198 176 160.926 176.112 160.606 176.112Z" fill="white"/>
<path d="M164.697 144.688H162.713L164.393 140.88H165.673L164.697 144.688ZM167.577 144.688H165.593L167.273 140.88H168.553L167.577 144.688ZM179.143 140.88V152H177.319V147.136H172.087V152H170.263V140.88H172.087V145.648H177.319V140.88H179.143ZM180.936 147.552C180.936 146.667 181.117 145.883 181.48 145.2C181.853 144.517 182.354 143.989 182.984 143.616C183.624 143.232 184.328 143.04 185.096 143.04C185.789 143.04 186.392 143.179 186.904 143.456C187.426 143.723 187.842 144.059 188.152 144.464V143.184H189.992V152H188.152V150.688C187.842 151.104 187.421 151.451 186.888 151.728C186.354 152.005 185.746 152.144 185.064 152.144C184.306 152.144 183.613 151.952 182.984 151.568C182.354 151.173 181.853 150.629 181.48 149.936C181.117 149.232 180.936 148.437 180.936 147.552ZM188.152 147.584C188.152 146.976 188.024 146.448 187.768 146C187.522 145.552 187.197 145.211 186.792 144.976C186.386 144.741 185.949 144.624 185.48 144.624C185.01 144.624 184.573 144.741 184.168 144.976C183.762 145.2 183.432 145.536 183.176 145.984C182.93 146.421 182.808 146.944 182.808 147.552C182.808 148.16 182.93 148.693 183.176 149.152C183.432 149.611 183.762 149.963 184.168 150.208C184.584 150.443 185.021 150.56 185.48 150.56C185.949 150.56 186.386 150.443 186.792 150.208C187.197 149.973 187.522 149.632 187.768 149.184C188.024 148.725 188.152 148.192 188.152 147.584ZM194.212 144.48C194.521 144.075 194.942 143.733 195.476 143.456C196.009 143.179 196.612 143.04 197.284 143.04C198.052 143.04 198.75 143.232 199.38 143.616C200.02 143.989 200.521 144.517 200.884 145.2C201.246 145.883 201.428 146.667 201.428 147.552C201.428 148.437 201.246 149.232 200.884 149.936C200.521 150.629 200.02 151.173 199.38 151.568C198.75 151.952 198.052 152.144 197.284 152.144C196.612 152.144 196.014 152.011 195.492 151.744C194.969 151.467 194.542 151.125 194.212 150.72V156.192H192.388V143.184H194.212V144.48ZM199.572 147.552C199.572 146.944 199.444 146.421 199.188 145.984C198.942 145.536 198.612 145.2 198.196 144.976C197.79 144.741 197.353 144.624 196.884 144.624C196.425 144.624 195.988 144.741 195.572 144.976C195.166 145.211 194.836 145.552 194.58 146C194.334 146.448 194.212 146.976 194.212 147.584C194.212 148.192 194.334 148.725 194.58 149.184C194.836 149.632 195.166 149.973 195.572 150.208C195.988 150.443 196.425 150.56 196.884 150.56C197.353 150.56 197.79 150.443 198.196 150.208C198.612 149.963 198.942 149.611 199.188 149.152C199.444 148.693 199.572 148.16 199.572 147.552ZM205.055 144.48C205.365 144.075 205.786 143.733 206.319 143.456C206.853 143.179 207.455 143.04 208.127 143.04C208.895 143.04 209.594 143.232 210.223 143.616C210.863 143.989 211.365 144.517 211.727 145.2C212.09 145.883 212.271 146.667 212.271 147.552C212.271 148.437 212.09 149.232 211.727 149.936C211.365 150.629 210.863 151.173 210.223 151.568C209.594 151.952 208.895 152.144 208.127 152.144C207.455 152.144 206.858 152.011 206.335 151.744C205.813 151.467 205.386 151.125 205.055 150.72V156.192H203.231V143.184H205.055V144.48ZM210.415 147.552C210.415 146.944 210.287 146.421 210.031 145.984C209.786 145.536 209.455 145.2 209.039 144.976C208.634 144.741 208.197 144.624 207.727 144.624C207.269 144.624 206.831 144.741 206.415 144.976C206.01 145.211 205.679 145.552 205.423 146C205.178 146.448 205.055 146.976 205.055 147.584C205.055 148.192 205.178 148.725 205.423 149.184C205.679 149.632 206.01 149.973 206.415 150.208C206.831 150.443 207.269 150.56 207.727 150.56C208.197 150.56 208.634 150.443 209.039 150.208C209.455 149.963 209.786 149.611 210.031 149.152C210.287 148.693 210.415 148.16 210.415 147.552ZM222.011 143.184L216.603 156.144H214.715L216.507 151.856L213.035 143.184H215.067L217.547 149.904L220.123 143.184H222.011ZM223.676 140.88H225.66L223.98 144.688H222.7L223.676 140.88ZM226.556 140.88H228.54L226.86 144.688H225.58L226.556 140.88ZM39.384 168.688H37.4L39.08 164.88H40.36L39.384 168.688ZM42.264 168.688H40.28L41.96 164.88H43.24L42.264 168.688ZM54.086 176H52.262L46.774 167.696V176H44.95V164.864H46.774L52.262 173.152V164.864H54.086V176ZM60.3053 176.144C59.4733 176.144 58.7213 175.957 58.0493 175.584C57.3773 175.2 56.8493 174.667 56.4653 173.984C56.0813 173.291 55.8893 172.491 55.8893 171.584C55.8893 170.688 56.0866 169.893 56.4813 169.2C56.8759 168.507 57.4146 167.973 58.0973 167.6C58.7799 167.227 59.5426 167.04 60.3853 167.04C61.2279 167.04 61.9906 167.227 62.6733 167.6C63.3559 167.973 63.8946 168.507 64.2893 169.2C64.6839 169.893 64.8813 170.688 64.8813 171.584C64.8813 172.48 64.6786 173.275 64.2733 173.968C63.8679 174.661 63.3133 175.2 62.6093 175.584C61.9159 175.957 61.1479 176.144 60.3053 176.144ZM60.3053 174.56C60.7746 174.56 61.2119 174.448 61.6173 174.224C62.0333 174 62.3693 173.664 62.6253 173.216C62.8813 172.768 63.0093 172.224 63.0093 171.584C63.0093 170.944 62.8866 170.405 62.6413 169.968C62.3959 169.52 62.0706 169.184 61.6653 168.96C61.2599 168.736 60.8226 168.624 60.3533 168.624C59.8839 168.624 59.4466 168.736 59.0413 168.96C58.6466 169.184 58.3319 169.52 58.0973 169.968C57.8626 170.405 57.7453 170.944 57.7453 171.584C57.7453 172.533 57.9853 173.269 58.4653 173.792C58.9559 174.304 59.5693 174.56 60.3053 174.56ZM70.0924 174.368L72.5884 167.184H74.5244L71.1644 176H68.9884L65.6444 167.184H67.5964L70.0924 174.368ZM75.2951 171.552C75.2951 170.667 75.4765 169.883 75.8391 169.2C76.2125 168.517 76.7138 167.989 77.3431 167.616C77.9831 167.232 78.6871 167.04 79.4551 167.04C80.1485 167.04 80.7511 167.179 81.2631 167.456C81.7858 167.723 82.2018 168.059 82.5111 168.464V167.184H84.3511V176H82.5111V174.688C82.2018 175.104 81.7805 175.451 81.2471 175.728C80.7138 176.005 80.1058 176.144 79.4231 176.144C78.6658 176.144 77.9725 175.952 77.3431 175.568C76.7138 175.173 76.2125 174.629 75.8391 173.936C75.4765 173.232 75.2951 172.437 75.2951 171.552ZM82.5111 171.584C82.5111 170.976 82.3831 170.448 82.1271 170C81.8818 169.552 81.5565 169.211 81.1511 168.976C80.7458 168.741 80.3085 168.624 79.8391 168.624C79.3698 168.624 78.9325 168.741 78.5271 168.976C78.1218 169.2 77.7911 169.536 77.5351 169.984C77.2898 170.421 77.1671 170.944 77.1671 171.552C77.1671 172.16 77.2898 172.693 77.5351 173.152C77.7911 173.611 78.1218 173.963 78.5271 174.208C78.9431 174.443 79.3805 174.56 79.8391 174.56C80.3085 174.56 80.7458 174.443 81.1511 174.208C81.5565 173.973 81.8818 173.632 82.1271 173.184C82.3831 172.725 82.5111 172.192 82.5111 171.584ZM98.6791 168.192C98.6791 168.757 98.5458 169.291 98.2791 169.792C98.0125 170.293 97.5858 170.704 96.9991 171.024C96.4125 171.333 95.6605 171.488 94.7431 171.488H92.7271V176H90.9031V164.88H94.7431C95.5965 164.88 96.3165 165.029 96.9031 165.328C97.5005 165.616 97.9431 166.011 98.2311 166.512C98.5298 167.013 98.6791 167.573 98.6791 168.192ZM94.7431 170C95.4365 170 95.9538 169.845 96.2951 169.536C96.6365 169.216 96.8071 168.768 96.8071 168.192C96.8071 166.976 96.1191 166.368 94.7431 166.368H92.7271V170H94.7431ZM102.243 164.16V176H100.419V164.16H102.243ZM104.03 171.552C104.03 170.667 104.211 169.883 104.574 169.2C104.947 168.517 105.448 167.989 106.078 167.616C106.718 167.232 107.422 167.04 108.19 167.04C108.883 167.04 109.486 167.179 109.998 167.456C110.52 167.723 110.936 168.059 111.246 168.464V167.184H113.086V176H111.246V174.688C110.936 175.104 110.515 175.451 109.982 175.728C109.448 176.005 108.84 176.144 108.158 176.144C107.4 176.144 106.707 175.952 106.078 175.568C105.448 175.173 104.947 174.629 104.574 173.936C104.211 173.232 104.03 172.437 104.03 171.552ZM111.246 171.584C111.246 170.976 111.118 170.448 110.862 170C110.616 169.552 110.291 169.211 109.886 168.976C109.48 168.741 109.043 168.624 108.574 168.624C108.104 168.624 107.667 168.741 107.262 168.976C106.856 169.2 106.526 169.536 106.27 169.984C106.024 170.421 105.902 170.944 105.902 171.552C105.902 172.16 106.024 172.693 106.27 173.152C106.526 173.611 106.856 173.963 107.262 174.208C107.678 174.443 108.115 174.56 108.574 174.56C109.043 174.56 109.48 174.443 109.886 174.208C110.291 173.973 110.616 173.632 110.862 173.184C111.118 172.725 111.246 172.192 111.246 171.584ZM123.417 167.184L118.009 180.144H116.121L117.913 175.856L114.441 167.184H116.473L118.953 173.904L121.529 167.184H123.417ZM126.618 164.16V176H124.794V164.16H126.618ZM129.941 166.016C129.61 166.016 129.333 165.904 129.109 165.68C128.885 165.456 128.773 165.179 128.773 164.848C128.773 164.517 128.885 164.24 129.109 164.016C129.333 163.792 129.61 163.68 129.941 163.68C130.261 163.68 130.533 163.792 130.757 164.016C130.981 164.24 131.093 164.517 131.093 164.848C131.093 165.179 130.981 165.456 130.757 165.68C130.533 165.904 130.261 166.016 129.941 166.016ZM130.837 167.184V176H129.013V167.184H130.837ZM136.431 176.144C135.738 176.144 135.114 176.021 134.559 175.776C134.015 175.52 133.583 175.179 133.263 174.752C132.943 174.315 132.773 173.829 132.751 173.296H134.639C134.671 173.669 134.847 173.984 135.167 174.24C135.498 174.485 135.909 174.608 136.399 174.608C136.911 174.608 137.306 174.512 137.583 174.32C137.871 174.117 138.015 173.861 138.015 173.552C138.015 173.221 137.855 172.976 137.535 172.816C137.226 172.656 136.73 172.48 136.047 172.288C135.386 172.107 134.847 171.931 134.431 171.76C134.015 171.589 133.653 171.328 133.343 170.976C133.045 170.624 132.895 170.16 132.895 169.584C132.895 169.115 133.034 168.688 133.311 168.304C133.589 167.909 133.983 167.6 134.495 167.376C135.018 167.152 135.615 167.04 136.287 167.04C137.29 167.04 138.095 167.296 138.703 167.808C139.322 168.309 139.653 168.997 139.695 169.872H137.871C137.839 169.477 137.679 169.163 137.391 168.928C137.103 168.693 136.714 168.576 136.223 168.576C135.743 168.576 135.375 168.667 135.119 168.848C134.863 169.029 134.735 169.269 134.735 169.568C134.735 169.803 134.821 170 134.991 170.16C135.162 170.32 135.37 170.448 135.615 170.544C135.861 170.629 136.223 170.741 136.703 170.88C137.343 171.051 137.866 171.227 138.271 171.408C138.687 171.579 139.045 171.835 139.343 172.176C139.642 172.517 139.797 172.971 139.807 173.536C139.807 174.037 139.669 174.485 139.391 174.88C139.114 175.275 138.719 175.584 138.207 175.808C137.706 176.032 137.114 176.144 136.431 176.144ZM143.906 168.672V173.552C143.906 173.883 143.981 174.123 144.13 174.272C144.29 174.411 144.557 174.48 144.93 174.48H146.05V176H144.61C143.789 176 143.159 175.808 142.722 175.424C142.285 175.04 142.066 174.416 142.066 173.552V168.672H141.026V167.184H142.066V164.992H143.906V167.184H146.05V168.672H143.906ZM148.019 164.88H150.003L148.323 168.688H147.043L148.019 164.88ZM150.899 164.88H152.883L151.203 168.688H149.923L150.899 164.88Z" fill="#DA3BBD"/>
<rect x="28.5" y="92.5" width="149" height="29" rx="14.5" stroke="#DA3BBD"/>
<path d="M184 113.053V108.842H198.737V113.053H184ZM184 104.632V100.421H207.158V104.632H184ZM184 96.2105V92H207.158V96.2105H184ZM211.368 121.474V113.053H202.947V108.842H211.368V100.421H215.579V108.842H224V113.053H215.579V121.474H211.368Z" fill="#DA3BBD"/>
<path d="M59.336 113H57.512L52.024 104.696V113H50.2V101.864H52.024L57.512 110.152V101.864H59.336V113ZM65.5553 113.144C64.7233 113.144 63.9713 112.957 63.2993 112.584C62.6273 112.2 62.0993 111.667 61.7153 110.984C61.3313 110.291 61.1393 109.491 61.1393 108.584C61.1393 107.688 61.3366 106.893 61.7313 106.2C62.1259 105.507 62.6646 104.973 63.3473 104.6C64.0299 104.227 64.7926 104.04 65.6353 104.04C66.4779 104.04 67.2406 104.227 67.9233 104.6C68.6059 104.973 69.1446 105.507 69.5393 106.2C69.9339 106.893 70.1313 107.688 70.1313 108.584C70.1313 109.48 69.9286 110.275 69.5233 110.968C69.1179 111.661 68.5633 112.2 67.8593 112.584C67.1659 112.957 66.3979 113.144 65.5553 113.144ZM65.5553 111.56C66.0246 111.56 66.4619 111.448 66.8673 111.224C67.2833 111 67.6193 110.664 67.8753 110.216C68.1313 109.768 68.2593 109.224 68.2593 108.584C68.2593 107.944 68.1366 107.405 67.8913 106.968C67.6459 106.52 67.3206 106.184 66.9153 105.96C66.5099 105.736 66.0726 105.624 65.6033 105.624C65.1339 105.624 64.6966 105.736 64.2913 105.96C63.8966 106.184 63.5819 106.52 63.3473 106.968C63.1126 107.405 62.9953 107.944 62.9953 108.584C62.9953 109.533 63.2353 110.269 63.7153 110.792C64.2059 111.304 64.8193 111.56 65.5553 111.56ZM75.3424 111.368L77.8384 104.184H79.7744L76.4144 113H74.2384L70.8944 104.184H72.8464L75.3424 111.368ZM80.5451 108.552C80.5451 107.667 80.7265 106.883 81.0891 106.2C81.4625 105.517 81.9638 104.989 82.5931 104.616C83.2331 104.232 83.9371 104.04 84.7051 104.04C85.3985 104.04 86.0011 104.179 86.5131 104.456C87.0358 104.723 87.4518 105.059 87.7611 105.464V104.184H89.6011V113H87.7611V111.688C87.4518 112.104 87.0305 112.451 86.4971 112.728C85.9638 113.005 85.3558 113.144 84.6731 113.144C83.9158 113.144 83.2225 112.952 82.5931 112.568C81.9638 112.173 81.4625 111.629 81.0891 110.936C80.7265 110.232 80.5451 109.437 80.5451 108.552ZM87.7611 108.584C87.7611 107.976 87.6331 107.448 87.3771 107C87.1318 106.552 86.8065 106.211 86.4011 105.976C85.9958 105.741 85.5585 105.624 85.0891 105.624C84.6198 105.624 84.1825 105.741 83.7771 105.976C83.3718 106.2 83.0411 106.536 82.7851 106.984C82.5398 107.421 82.4171 107.944 82.4171 108.552C82.4171 109.16 82.5398 109.693 82.7851 110.152C83.0411 110.611 83.3718 110.963 83.7771 111.208C84.1931 111.443 84.6305 111.56 85.0891 111.56C85.5585 111.56 85.9958 111.443 86.4011 111.208C86.8065 110.973 87.1318 110.632 87.3771 110.184C87.6331 109.725 87.7611 109.192 87.7611 108.584ZM103.929 105.192C103.929 105.757 103.796 106.291 103.529 106.792C103.262 107.293 102.836 107.704 102.249 108.024C101.662 108.333 100.91 108.488 99.9931 108.488H97.9771V113H96.1531V101.88H99.9931C100.846 101.88 101.566 102.029 102.153 102.328C102.75 102.616 103.193 103.011 103.481 103.512C103.78 104.013 103.929 104.573 103.929 105.192ZM99.9931 107C100.686 107 101.204 106.845 101.545 106.536C101.886 106.216 102.057 105.768 102.057 105.192C102.057 103.976 101.369 103.368 99.9931 103.368H97.9771V107H99.9931ZM107.493 101.16V113H105.669V101.16H107.493ZM109.28 108.552C109.28 107.667 109.461 106.883 109.824 106.2C110.197 105.517 110.698 104.989 111.328 104.616C111.968 104.232 112.672 104.04 113.44 104.04C114.133 104.04 114.736 104.179 115.248 104.456C115.77 104.723 116.186 105.059 116.496 105.464V104.184H118.336V113H116.496V111.688C116.186 112.104 115.765 112.451 115.232 112.728C114.698 113.005 114.09 113.144 113.408 113.144C112.65 113.144 111.957 112.952 111.328 112.568C110.698 112.173 110.197 111.629 109.824 110.936C109.461 110.232 109.28 109.437 109.28 108.552ZM116.496 108.584C116.496 107.976 116.368 107.448 116.112 107C115.866 106.552 115.541 106.211 115.136 105.976C114.73 105.741 114.293 105.624 113.824 105.624C113.354 105.624 112.917 105.741 112.512 105.976C112.106 106.2 111.776 106.536 111.52 106.984C111.274 107.421 111.152 107.944 111.152 108.552C111.152 109.16 111.274 109.693 111.52 110.152C111.776 110.611 112.106 110.963 112.512 111.208C112.928 111.443 113.365 111.56 113.824 111.56C114.293 111.56 114.73 111.443 115.136 111.208C115.541 110.973 115.866 110.632 116.112 110.184C116.368 109.725 116.496 109.192 116.496 108.584ZM128.667 104.184L123.259 117.144H121.371L123.163 112.856L119.691 104.184H121.723L124.203 110.904L126.779 104.184H128.667ZM131.868 101.16V113H130.044V101.16H131.868ZM135.191 103.016C134.86 103.016 134.583 102.904 134.359 102.68C134.135 102.456 134.023 102.179 134.023 101.848C134.023 101.517 134.135 101.24 134.359 101.016C134.583 100.792 134.86 100.68 135.191 100.68C135.511 100.68 135.783 100.792 136.007 101.016C136.231 101.24 136.343 101.517 136.343 101.848C136.343 102.179 136.231 102.456 136.007 102.68C135.783 102.904 135.511 103.016 135.191 103.016ZM136.087 104.184V113H134.263V104.184H136.087ZM141.681 113.144C140.988 113.144 140.364 113.021 139.809 112.776C139.265 112.52 138.833 112.179 138.513 111.752C138.193 111.315 138.023 110.829 138.001 110.296H139.889C139.921 110.669 140.097 110.984 140.417 111.24C140.748 111.485 141.159 111.608 141.649 111.608C142.161 111.608 142.556 111.512 142.833 111.32C143.121 111.117 143.265 110.861 143.265 110.552C143.265 110.221 143.105 109.976 142.785 109.816C142.476 109.656 141.98 109.48 141.297 109.288C140.636 109.107 140.097 108.931 139.681 108.76C139.265 108.589 138.903 108.328 138.593 107.976C138.295 107.624 138.145 107.16 138.145 106.584C138.145 106.115 138.284 105.688 138.561 105.304C138.839 104.909 139.233 104.6 139.745 104.376C140.268 104.152 140.865 104.04 141.537 104.04C142.54 104.04 143.345 104.296 143.953 104.808C144.572 105.309 144.903 105.997 144.945 106.872H143.121C143.089 106.477 142.929 106.163 142.641 105.928C142.353 105.693 141.964 105.576 141.473 105.576C140.993 105.576 140.625 105.667 140.369 105.848C140.113 106.029 139.985 106.269 139.985 106.568C139.985 106.803 140.071 107 140.241 107.16C140.412 107.32 140.62 107.448 140.865 107.544C141.111 107.629 141.473 107.741 141.953 107.88C142.593 108.051 143.116 108.227 143.521 108.408C143.937 108.579 144.295 108.835 144.593 109.176C144.892 109.517 145.047 109.971 145.057 110.536C145.057 111.037 144.919 111.485 144.641 111.88C144.364 112.275 143.969 112.584 143.457 112.808C142.956 113.032 142.364 113.144 141.681 113.144ZM149.156 105.672V110.552C149.156 110.883 149.231 111.123 149.38 111.272C149.54 111.411 149.807 111.48 150.18 111.48H151.3V113H149.86C149.039 113 148.409 112.808 147.972 112.424C147.535 112.04 147.316 111.416 147.316 110.552V105.672H146.276V104.184H147.316V101.992H149.156V104.184H151.3V105.672H149.156Z" fill="white"/>
<path d="M48.74 39.02C48.74 37.66 49.0533 36.44 49.68 35.36C50.32 34.28 51.18 33.44 52.26 32.84C53.3533 32.2267 54.5467 31.92 55.84 31.92C57.32 31.92 58.6333 32.2867 59.78 33.02C60.94 33.74 61.78 34.7667 62.3 36.1H59.56C59.2 35.3667 58.7 34.82 58.06 34.46C57.42 34.1 56.68 33.92 55.84 33.92C54.92 33.92 54.1 34.1267 53.38 34.54C52.66 34.9533 52.0933 35.5467 51.68 36.32C51.28 37.0933 51.08 37.9933 51.08 39.02C51.08 40.0467 51.28 40.9467 51.68 41.72C52.0933 42.4933 52.66 43.0933 53.38 43.52C54.1 43.9333 54.92 44.14 55.84 44.14C56.68 44.14 57.42 43.96 58.06 43.6C58.7 43.24 59.2 42.6933 59.56 41.96H62.3C61.78 43.2933 60.94 44.32 59.78 45.04C58.6333 45.76 57.32 46.12 55.84 46.12C54.5333 46.12 53.34 45.82 52.26 45.22C51.18 44.6067 50.32 43.76 49.68 42.68C49.0533 41.6 48.74 40.38 48.74 39.02ZM67.2488 36.58C67.5821 36.02 68.0221 35.5867 68.5688 35.28C69.1288 34.96 69.7888 34.8 70.5488 34.8V37.16H69.9688C69.0754 37.16 68.3954 37.3867 67.9288 37.84C67.4754 38.2933 67.2488 39.08 67.2488 40.2V46H64.9688V34.98H67.2488V36.58ZM73.8045 33.52C73.3912 33.52 73.0445 33.38 72.7645 33.1C72.4845 32.82 72.3445 32.4733 72.3445 32.06C72.3445 31.6467 72.4845 31.3 72.7645 31.02C73.0445 30.74 73.3912 30.6 73.8045 30.6C74.2045 30.6 74.5445 30.74 74.8245 31.02C75.1045 31.3 75.2445 31.6467 75.2445 32.06C75.2445 32.4733 75.1045 32.82 74.8245 33.1C74.5445 33.38 74.2045 33.52 73.8045 33.52ZM74.9245 34.98V46H72.6445V34.98H74.9245ZM88.018 40.22C88.018 40.6333 87.9913 41.0067 87.938 41.34H79.518C79.5846 42.22 79.9113 42.9267 80.498 43.46C81.0846 43.9933 81.8046 44.26 82.658 44.26C83.8846 44.26 84.7513 43.7467 85.258 42.72H87.718C87.3846 43.7333 86.778 44.5667 85.898 45.22C85.0313 45.86 83.9513 46.18 82.658 46.18C81.6046 46.18 80.658 45.9467 79.818 45.48C78.9913 45 78.338 44.3333 77.858 43.48C77.3913 42.6133 77.158 41.6133 77.158 40.48C77.158 39.3467 77.3846 38.3533 77.838 37.5C78.3046 36.6333 78.9513 35.9667 79.778 35.5C80.618 35.0333 81.578 34.8 82.658 34.8C83.698 34.8 84.6246 35.0267 85.438 35.48C86.2513 35.9333 86.8846 36.5733 87.338 37.4C87.7913 38.2133 88.018 39.1533 88.018 40.22ZM85.638 39.5C85.6246 38.66 85.3246 37.9867 84.738 37.48C84.1513 36.9733 83.4246 36.72 82.558 36.72C81.7713 36.72 81.098 36.9733 80.538 37.48C79.978 37.9733 79.6446 38.6467 79.538 39.5H85.638ZM105.557 40.22C105.557 40.6333 105.53 41.0067 105.477 41.34H97.057C97.1237 42.22 97.4504 42.9267 98.037 43.46C98.6237 43.9933 99.3437 44.26 100.197 44.26C101.424 44.26 102.29 43.7467 102.797 42.72H105.257C104.924 43.7333 104.317 44.5667 103.437 45.22C102.57 45.86 101.49 46.18 100.197 46.18C99.1437 46.18 98.197 45.9467 97.357 45.48C96.5304 45 95.877 44.3333 95.397 43.48C94.9304 42.6133 94.697 41.6133 94.697 40.48C94.697 39.3467 94.9237 38.3533 95.377 37.5C95.8437 36.6333 96.4904 35.9667 97.317 35.5C98.157 35.0333 99.117 34.8 100.197 34.8C101.237 34.8 102.164 35.0267 102.977 35.48C103.79 35.9333 104.424 36.5733 104.877 37.4C105.33 38.2133 105.557 39.1533 105.557 40.22ZM103.177 39.5C103.164 38.66 102.864 37.9867 102.277 37.48C101.69 36.9733 100.964 36.72 100.097 36.72C99.3104 36.72 98.637 36.9733 98.077 37.48C97.517 37.9733 97.1837 38.6467 97.077 39.5H103.177ZM112.236 40.44C112.236 39.3333 112.463 38.3533 112.916 37.5C113.383 36.6467 114.009 35.9867 114.796 35.52C115.596 35.04 116.476 34.8 117.436 34.8C118.303 34.8 119.056 34.9733 119.696 35.32C120.349 35.6533 120.869 36.0733 121.256 36.58V34.98H123.556V46H121.256V44.36C120.869 44.88 120.343 45.3133 119.676 45.66C119.009 46.0067 118.249 46.18 117.396 46.18C116.449 46.18 115.583 45.94 114.796 45.46C114.009 44.9667 113.383 44.2867 112.916 43.42C112.463 42.54 112.236 41.5467 112.236 40.44ZM121.256 40.48C121.256 39.72 121.096 39.06 120.776 38.5C120.469 37.94 120.063 37.5133 119.556 37.22C119.049 36.9267 118.503 36.78 117.916 36.78C117.329 36.78 116.783 36.9267 116.276 37.22C115.769 37.5 115.356 37.92 115.036 38.48C114.729 39.0267 114.576 39.68 114.576 40.44C114.576 41.2 114.729 41.8667 115.036 42.44C115.356 43.0133 115.769 43.4533 116.276 43.76C116.796 44.0533 117.343 44.2 117.916 44.2C118.503 44.2 119.049 44.0533 119.556 43.76C120.063 43.4667 120.469 43.04 120.776 42.48C121.096 41.9067 121.256 41.24 121.256 40.48ZM125.791 40.44C125.791 39.3333 126.017 38.3533 126.471 37.5C126.937 36.6467 127.564 35.9867 128.351 35.52C129.151 35.04 130.037 34.8 131.011 34.8C131.731 34.8 132.437 34.96 133.131 35.28C133.837 35.5867 134.397 36 134.811 36.52V31.2H137.111V46H134.811V44.34C134.437 44.8733 133.917 45.3133 133.251 45.66C132.597 46.0067 131.844 46.18 130.991 46.18C130.031 46.18 129.151 45.94 128.351 45.46C127.564 44.9667 126.937 44.2867 126.471 43.42C126.017 42.54 125.791 41.5467 125.791 40.44ZM134.811 40.48C134.811 39.72 134.651 39.06 134.331 38.5C134.024 37.94 133.617 37.5133 133.111 37.22C132.604 36.9267 132.057 36.78 131.471 36.78C130.884 36.78 130.337 36.9267 129.831 37.22C129.324 37.5 128.911 37.92 128.591 38.48C128.284 39.0267 128.131 39.68 128.131 40.44C128.131 41.2 128.284 41.8667 128.591 42.44C128.911 43.0133 129.324 43.4533 129.831 43.76C130.351 44.0533 130.897 44.2 131.471 44.2C132.057 44.2 132.604 44.0533 133.111 43.76C133.617 43.4667 134.024 43.04 134.331 42.48C134.651 41.9067 134.811 41.24 134.811 40.48ZM141.265 33.52C140.852 33.52 140.505 33.38 140.225 33.1C139.945 32.82 139.805 32.4733 139.805 32.06C139.805 31.6467 139.945 31.3 140.225 31.02C140.505 30.74 140.852 30.6 141.265 30.6C141.665 30.6 142.005 30.74 142.285 31.02C142.565 31.3 142.705 31.6467 142.705 32.06C142.705 32.4733 142.565 32.82 142.285 33.1C142.005 33.38 141.665 33.52 141.265 33.52ZM142.385 34.98V46H140.105V34.98H142.385ZM144.619 40.48C144.619 39.3467 144.846 38.3533 145.299 37.5C145.766 36.6333 146.406 35.9667 147.219 35.5C148.032 35.0333 148.966 34.8 150.019 34.8C151.352 34.8 152.452 35.12 153.319 35.76C154.199 36.3867 154.792 37.2867 155.099 38.46H152.639C152.439 37.9133 152.119 37.4867 151.679 37.18C151.239 36.8733 150.686 36.72 150.019 36.72C149.086 36.72 148.339 37.0533 147.779 37.72C147.232 38.3733 146.959 39.2933 146.959 40.48C146.959 41.6667 147.232 42.5933 147.779 43.26C148.339 43.9267 149.086 44.26 150.019 44.26C151.339 44.26 152.212 43.68 152.639 42.52H155.099C154.779 43.64 154.179 44.5333 153.299 45.2C152.419 45.8533 151.326 46.18 150.019 46.18C148.966 46.18 148.032 45.9467 147.219 45.48C146.406 45 145.766 44.3333 145.299 43.48C144.846 42.6133 144.619 41.6133 144.619 40.48ZM158.531 33.52C158.118 33.52 157.771 33.38 157.491 33.1C157.211 32.82 157.071 32.4733 157.071 32.06C157.071 31.6467 157.211 31.3 157.491 31.02C157.771 30.74 158.118 30.6 158.531 30.6C158.931 30.6 159.271 30.74 159.551 31.02C159.831 31.3 159.971 31.6467 159.971 32.06C159.971 32.4733 159.831 32.82 159.551 33.1C159.271 33.38 158.931 33.52 158.531 33.52ZM159.651 34.98V46H157.371V34.98H159.651ZM167.425 46.18C166.385 46.18 165.445 45.9467 164.605 45.48C163.765 45 163.105 44.3333 162.625 43.48C162.145 42.6133 161.905 41.6133 161.905 40.48C161.905 39.36 162.151 38.3667 162.645 37.5C163.138 36.6333 163.811 35.9667 164.665 35.5C165.518 35.0333 166.471 34.8 167.525 34.8C168.578 34.8 169.531 35.0333 170.385 35.5C171.238 35.9667 171.911 36.6333 172.405 37.5C172.898 38.3667 173.145 39.36 173.145 40.48C173.145 41.6 172.891 42.5933 172.385 43.46C171.878 44.3267 171.185 45 170.305 45.48C169.438 45.9467 168.478 46.18 167.425 46.18ZM167.425 44.2C168.011 44.2 168.558 44.06 169.065 43.78C169.585 43.5 170.005 43.08 170.325 42.52C170.645 41.96 170.805 41.28 170.805 40.48C170.805 39.68 170.651 39.0067 170.345 38.46C170.038 37.9 169.631 37.48 169.125 37.2C168.618 36.92 168.071 36.78 167.485 36.78C166.898 36.78 166.351 36.92 165.845 37.2C165.351 37.48 164.958 37.9 164.665 38.46C164.371 39.0067 164.225 39.68 164.225 40.48C164.225 41.6667 164.525 42.5867 165.125 43.24C165.738 43.88 166.505 44.2 167.425 44.2ZM180.958 34.8C181.825 34.8 182.598 34.98 183.278 35.34C183.972 35.7 184.512 36.2333 184.898 36.94C185.285 37.6467 185.478 38.5 185.478 39.5V46H183.218V39.84C183.218 38.8533 182.972 38.1 182.478 37.58C181.985 37.0467 181.312 36.78 180.458 36.78C179.605 36.78 178.925 37.0467 178.418 37.58C177.925 38.1 177.678 38.8533 177.678 39.84V46H175.398V34.98H177.678V36.24C178.052 35.7867 178.525 35.4333 179.098 35.18C179.685 34.9267 180.305 34.8 180.958 34.8ZM198.487 40.22C198.487 40.6333 198.46 41.0067 198.407 41.34H189.987C190.053 42.22 190.38 42.9267 190.967 43.46C191.553 43.9933 192.273 44.26 193.127 44.26C194.353 44.26 195.22 43.7467 195.727 42.72H198.187C197.853 43.7333 197.247 44.5667 196.367 45.22C195.5 45.86 194.42 46.18 193.127 46.18C192.073 46.18 191.127 45.9467 190.287 45.48C189.46 45 188.807 44.3333 188.327 43.48C187.86 42.6133 187.627 41.6133 187.627 40.48C187.627 39.3467 187.853 38.3533 188.307 37.5C188.773 36.6333 189.42 35.9667 190.247 35.5C191.087 35.0333 192.047 34.8 193.127 34.8C194.167 34.8 195.093 35.0267 195.907 35.48C196.72 35.9333 197.353 36.5733 197.807 37.4C198.26 38.2133 198.487 39.1533 198.487 40.22ZM196.107 39.5C196.093 38.66 195.793 37.9867 195.207 37.48C194.62 36.9733 193.893 36.72 193.027 36.72C192.24 36.72 191.567 36.9733 191.007 37.48C190.447 37.9733 190.113 38.6467 190.007 39.5H196.107Z" fill="#F5F5F5"/>
</svg>
