<svg width="250" height="280" viewBox="0 0 250 280" fill="none" xmlns="http://www.w3.org/2000/svg">
<rect width="250" height="280" rx="20" fill="#020C27"/>
<path d="M41.78 34.94V39.02H46.58V40.88H41.78V45.14H47.18V47H39.5V33.08H47.18V34.94H41.78ZM53.9883 47.18C53.1216 47.18 52.3416 47.0267 51.6483 46.72C50.9683 46.4 50.4283 45.9733 50.0283 45.44C49.6283 44.8933 49.4149 44.2867 49.3883 43.62H51.7483C51.7883 44.0867 52.0083 44.48 52.4083 44.8C52.8216 45.1067 53.3349 45.26 53.9483 45.26C54.5883 45.26 55.0816 45.14 55.4283 44.9C55.7883 44.6467 55.9683 44.3267 55.9683 43.94C55.9683 43.5267 55.7683 43.22 55.3683 43.02C54.9816 42.82 54.3616 42.6 53.5083 42.36C52.6816 42.1333 52.0083 41.9133 51.4883 41.7C50.9683 41.4867 50.5149 41.16 50.1283 40.72C49.7549 40.28 49.5683 39.7 49.5683 38.98C49.5683 38.3933 49.7416 37.86 50.0883 37.38C50.4349 36.8867 50.9283 36.5 51.5683 36.22C52.2216 35.94 52.9683 35.8 53.8083 35.8C55.0616 35.8 56.0683 36.12 56.8283 36.76C57.6016 37.3867 58.0149 38.2467 58.0683 39.34H55.7883C55.7483 38.8467 55.5483 38.4533 55.1883 38.16C54.8283 37.8667 54.3416 37.72 53.7283 37.72C53.1283 37.72 52.6683 37.8333 52.3483 38.06C52.0283 38.2867 51.8683 38.5867 51.8683 38.96C51.8683 39.2533 51.9749 39.5 52.1883 39.7C52.4016 39.9 52.6616 40.06 52.9683 40.18C53.2749 40.2867 53.7283 40.4267 54.3283 40.6C55.1283 40.8133 55.7816 41.0333 56.2883 41.26C56.8083 41.4733 57.2549 41.7933 57.6283 42.22C58.0016 42.6467 58.1949 43.2133 58.2083 43.92C58.2083 44.5467 58.0349 45.1067 57.6883 45.6C57.3416 46.0933 56.8483 46.48 56.2083 46.76C55.5816 47.04 54.8416 47.18 53.9883 47.18ZM59.9119 41.48C59.9119 40.3467 60.1385 39.3533 60.5919 38.5C61.0585 37.6333 61.6985 36.9667 62.5119 36.5C63.3252 36.0333 64.2585 35.8 65.3119 35.8C66.6452 35.8 67.7452 36.12 68.6119 36.76C69.4919 37.3867 70.0852 38.2867 70.3919 39.46H67.9319C67.7319 38.9133 67.4119 38.4867 66.9719 38.18C66.5319 37.8733 65.9785 37.72 65.3119 37.72C64.3785 37.72 63.6319 38.0533 63.0719 38.72C62.5252 39.3733 62.2519 40.2933 62.2519 41.48C62.2519 42.6667 62.5252 43.5933 63.0719 44.26C63.6319 44.9267 64.3785 45.26 65.3119 45.26C66.6319 45.26 67.5052 44.68 67.9319 43.52H70.3919C70.0719 44.64 69.4719 45.5333 68.5919 46.2C67.7119 46.8533 66.6185 47.18 65.3119 47.18C64.2585 47.18 63.3252 46.9467 62.5119 46.48C61.6985 46 61.0585 45.3333 60.5919 44.48C60.1385 43.6133 59.9119 42.6133 59.9119 41.48ZM82.6441 35.98V47H80.3641V45.7C80.0041 46.1533 79.5307 46.5133 78.9441 46.78C78.3707 47.0333 77.7574 47.16 77.1041 47.16C76.2374 47.16 75.4574 46.98 74.7641 46.62C74.0841 46.26 73.5441 45.7267 73.1441 45.02C72.7574 44.3133 72.5641 43.46 72.5641 42.46V35.98H74.8241V42.12C74.8241 43.1067 75.0707 43.8667 75.5641 44.4C76.0574 44.92 76.7307 45.18 77.5841 45.18C78.4374 45.18 79.1107 44.92 79.6041 44.4C80.1107 43.8667 80.3641 43.1067 80.3641 42.12V35.98H82.6441ZM88.3123 37.84V43.94C88.3123 44.3533 88.4057 44.6533 88.5923 44.84C88.7923 45.0133 89.1257 45.1 89.5923 45.1H90.9923V47H89.1923C88.1657 47 87.379 46.76 86.8323 46.28C86.2857 45.8 86.0123 45.02 86.0123 43.94V37.84H84.7123V35.98H86.0123V33.24H88.3123V35.98H90.9923V37.84H88.3123ZM103.194 41.22C103.194 41.6333 103.167 42.0067 103.114 42.34H94.6938C94.7604 43.22 95.0871 43.9267 95.6738 44.46C96.2604 44.9933 96.9804 45.26 97.8338 45.26C99.0604 45.26 99.9271 44.7467 100.434 43.72H102.894C102.56 44.7333 101.954 45.5667 101.074 46.22C100.207 46.86 99.1271 47.18 97.8338 47.18C96.7804 47.18 95.8338 46.9467 94.9938 46.48C94.1671 46 93.5138 45.3333 93.0338 44.48C92.5671 43.6133 92.3338 42.6133 92.3338 41.48C92.3338 40.3467 92.5604 39.3533 93.0138 38.5C93.4804 37.6333 94.1271 36.9667 94.9538 36.5C95.7938 36.0333 96.7538 35.8 97.8338 35.8C98.8738 35.8 99.8004 36.0267 100.614 36.48C101.427 36.9333 102.06 37.5733 102.514 38.4C102.967 39.2133 103.194 40.1533 103.194 41.22ZM100.814 40.5C100.8 39.66 100.5 38.9867 99.9138 38.48C99.3271 37.9733 98.6004 37.72 97.7338 37.72C96.9471 37.72 96.2738 37.9733 95.7138 38.48C95.1538 38.9733 94.8204 39.6467 94.7138 40.5H100.814ZM120.733 41.22C120.733 41.6333 120.706 42.0067 120.653 42.34H112.233C112.299 43.22 112.626 43.9267 113.213 44.46C113.799 44.9933 114.519 45.26 115.373 45.26C116.599 45.26 117.466 44.7467 117.973 43.72H120.433C120.099 44.7333 119.493 45.5667 118.613 46.22C117.746 46.86 116.666 47.18 115.373 47.18C114.319 47.18 113.373 46.9467 112.533 46.48C111.706 46 111.053 45.3333 110.573 44.48C110.106 43.6133 109.873 42.6133 109.873 41.48C109.873 40.3467 110.099 39.3533 110.553 38.5C111.019 37.6333 111.666 36.9667 112.493 36.5C113.333 36.0333 114.293 35.8 115.373 35.8C116.413 35.8 117.339 36.0267 118.153 36.48C118.966 36.9333 119.599 37.5733 120.053 38.4C120.506 39.2133 120.733 40.1533 120.733 41.22ZM118.353 40.5C118.339 39.66 118.039 38.9867 117.453 38.48C116.866 37.9733 116.139 37.72 115.273 37.72C114.486 37.72 113.813 37.9733 113.253 38.48C112.693 38.9733 112.359 39.6467 112.253 40.5H118.353ZM127.412 41.44C127.412 40.3333 127.639 39.3533 128.092 38.5C128.559 37.6467 129.185 36.9867 129.972 36.52C130.772 36.04 131.659 35.8 132.632 35.8C133.352 35.8 134.059 35.96 134.752 36.28C135.459 36.5867 136.019 37 136.432 37.52V32.2H138.732V47H136.432V45.34C136.059 45.8733 135.539 46.3133 134.872 46.66C134.219 47.0067 133.465 47.18 132.612 47.18C131.652 47.18 130.772 46.94 129.972 46.46C129.185 45.9667 128.559 45.2867 128.092 44.42C127.639 43.54 127.412 42.5467 127.412 41.44ZM136.432 41.48C136.432 40.72 136.272 40.06 135.952 39.5C135.645 38.94 135.239 38.5133 134.732 38.22C134.225 37.9267 133.679 37.78 133.092 37.78C132.505 37.78 131.959 37.9267 131.452 38.22C130.945 38.5 130.532 38.92 130.212 39.48C129.905 40.0267 129.752 40.68 129.752 41.44C129.752 42.2 129.905 42.8667 130.212 43.44C130.532 44.0133 130.945 44.4533 131.452 44.76C131.972 45.0533 132.519 45.2 133.092 45.2C133.679 45.2 134.225 45.0533 134.732 44.76C135.239 44.4667 135.645 44.04 135.952 43.48C136.272 42.9067 136.432 42.24 136.432 41.48ZM151.827 41.22C151.827 41.6333 151.8 42.0067 151.747 42.34H143.327C143.393 43.22 143.72 43.9267 144.307 44.46C144.893 44.9933 145.613 45.26 146.467 45.26C147.693 45.26 148.56 44.7467 149.067 43.72H151.527C151.193 44.7333 150.587 45.5667 149.707 46.22C148.84 46.86 147.76 47.18 146.467 47.18C145.413 47.18 144.467 46.9467 143.627 46.48C142.8 46 142.147 45.3333 141.667 44.48C141.2 43.6133 140.967 42.6133 140.967 41.48C140.967 40.3467 141.193 39.3533 141.647 38.5C142.113 37.6333 142.76 36.9667 143.587 36.5C144.427 36.0333 145.387 35.8 146.467 35.8C147.507 35.8 148.433 36.0267 149.247 36.48C150.06 36.9333 150.693 37.5733 151.147 38.4C151.6 39.2133 151.827 40.1533 151.827 41.22ZM149.447 40.5C149.433 39.66 149.133 38.9867 148.547 38.48C147.96 37.9733 147.233 37.72 146.367 37.72C145.58 37.72 144.907 37.9733 144.347 38.48C143.787 38.9733 143.453 39.6467 143.347 40.5H149.447ZM158.07 47.18C157.204 47.18 156.424 47.0267 155.73 46.72C155.05 46.4 154.51 45.9733 154.11 45.44C153.71 44.8933 153.497 44.2867 153.47 43.62H155.83C155.87 44.0867 156.09 44.48 156.49 44.8C156.904 45.1067 157.417 45.26 158.03 45.26C158.67 45.26 159.164 45.14 159.51 44.9C159.87 44.6467 160.05 44.3267 160.05 43.94C160.05 43.5267 159.85 43.22 159.45 43.02C159.064 42.82 158.444 42.6 157.59 42.36C156.764 42.1333 156.09 41.9133 155.57 41.7C155.05 41.4867 154.597 41.16 154.21 40.72C153.837 40.28 153.65 39.7 153.65 38.98C153.65 38.3933 153.824 37.86 154.17 37.38C154.517 36.8867 155.01 36.5 155.65 36.22C156.304 35.94 157.05 35.8 157.89 35.8C159.144 35.8 160.15 36.12 160.91 36.76C161.684 37.3867 162.097 38.2467 162.15 39.34H159.87C159.83 38.8467 159.63 38.4533 159.27 38.16C158.91 37.8667 158.424 37.72 157.81 37.72C157.21 37.72 156.75 37.8333 156.43 38.06C156.11 38.2867 155.95 38.5867 155.95 38.96C155.95 39.2533 156.057 39.5 156.27 39.7C156.484 39.9 156.744 40.06 157.05 40.18C157.357 40.2867 157.81 40.4267 158.41 40.6C159.21 40.8133 159.864 41.0333 160.37 41.26C160.89 41.4733 161.337 41.7933 161.71 42.22C162.084 42.6467 162.277 43.2133 162.29 43.92C162.29 44.5467 162.117 45.1067 161.77 45.6C161.424 46.0933 160.93 46.48 160.29 46.76C159.664 47.04 158.924 47.18 158.07 47.18ZM169.374 37.84H167.334V47H165.034V37.84H163.734V35.98H165.034V35.2C165.034 33.9333 165.367 33.0133 166.034 32.44C166.714 31.8533 167.774 31.56 169.214 31.56V33.46C168.521 33.46 168.034 33.5933 167.754 33.86C167.474 34.1133 167.334 34.56 167.334 35.2V35.98H169.374V37.84ZM173.675 37.58C174.008 37.02 174.448 36.5867 174.995 36.28C175.555 35.96 176.215 35.8 176.975 35.8V38.16H176.395C175.501 38.16 174.821 38.3867 174.355 38.84C173.901 39.2933 173.675 40.08 173.675 41.2V47H171.395V35.98H173.675V37.58ZM189.05 35.98V47H186.77V45.7C186.41 46.1533 185.937 46.5133 185.35 46.78C184.777 47.0333 184.164 47.16 183.51 47.16C182.644 47.16 181.864 46.98 181.17 46.62C180.49 46.26 179.95 45.7267 179.55 45.02C179.164 44.3133 178.97 43.46 178.97 42.46V35.98H181.23V42.12C181.23 43.1067 181.477 43.8667 181.97 44.4C182.464 44.92 183.137 45.18 183.99 45.18C184.844 45.18 185.517 44.92 186.01 44.4C186.517 43.8667 186.77 43.1067 186.77 42.12V35.98H189.05ZM194.719 37.84V43.94C194.719 44.3533 194.812 44.6533 194.999 44.84C195.199 45.0133 195.532 45.1 195.999 45.1H197.399V47H195.599C194.572 47 193.785 46.76 193.239 46.28C192.692 45.8 192.419 45.02 192.419 43.94V37.84H191.119V35.98H192.419V33.24H194.719V35.98H197.399V37.84H194.719ZM209.6 41.22C209.6 41.6333 209.573 42.0067 209.52 42.34H201.1C201.167 43.22 201.493 43.9267 202.08 44.46C202.667 44.9933 203.387 45.26 204.24 45.26C205.467 45.26 206.333 44.7467 206.84 43.72H209.3C208.967 44.7333 208.36 45.5667 207.48 46.22C206.613 46.86 205.533 47.18 204.24 47.18C203.187 47.18 202.24 46.9467 201.4 46.48C200.573 46 199.92 45.3333 199.44 44.48C198.973 43.6133 198.74 42.6133 198.74 41.48C198.74 40.3467 198.967 39.3533 199.42 38.5C199.887 37.6333 200.533 36.9667 201.36 36.5C202.2 36.0333 203.16 35.8 204.24 35.8C205.28 35.8 206.207 36.0267 207.02 36.48C207.833 36.9333 208.467 37.5733 208.92 38.4C209.373 39.2133 209.6 40.1533 209.6 41.22ZM207.22 40.5C207.207 39.66 206.907 38.9867 206.32 38.48C205.733 37.9733 205.007 37.72 204.14 37.72C203.353 37.72 202.68 37.9733 202.12 38.48C201.56 38.9733 201.227 39.6467 201.12 40.5H207.22Z" fill="#F5F5F5"/>
<path d="M114.5 184C112.016 184 110 186.016 110 188.5V215.5C110 217.984 112.016 220 114.5 220H117.5C119.984 220 122 217.984 122 215.5V188.5C122 186.016 119.984 184 117.5 184H114.5ZM132.5 184C130.016 184 128 186.016 128 188.5V215.5C128 217.984 130.016 220 132.5 220H135.5C137.984 220 140 217.984 140 215.5V188.5C140 186.016 137.984 184 135.5 184H132.5Z" fill="#DA3BBD"/>
<path d="M56.9492 209.211C57.3203 209.519 57.8398 209.59 58.2812 209.383C58.7227 209.176 59 208.734 59 208.25V195.75C59 195.266 58.7188 194.824 58.2812 194.617C57.8438 194.41 57.3242 194.477 56.9492 194.789L50.25 200.371V202V203.629L56.9492 209.211ZM49 205.75V202V197V195.75C49 195.266 48.7188 194.824 48.2812 194.617C47.8438 194.41 47.3242 194.477 46.9492 194.789L39.4492 201.039C39.1641 201.277 39 201.629 39 202C39 202.371 39.1641 202.723 39.4492 202.961L46.9492 209.211C47.3203 209.519 47.8398 209.59 48.2812 209.383C48.7227 209.176 49 208.734 49 208.25V205.75Z" fill="#DA3BBD"/>
<path d="M193.051 209.211C192.68 209.519 192.16 209.59 191.719 209.383C191.277 209.176 191 208.734 191 208.25V195.75C191 195.266 191.281 194.824 191.719 194.617C192.156 194.41 192.676 194.477 193.051 194.789L199.75 200.371V202V203.629L193.051 209.211ZM201 205.75V202V197V195.75C201 195.266 201.281 194.824 201.719 194.617C202.156 194.41 202.676 194.477 203.051 194.789L210.551 201.039C210.836 201.277 211 201.629 211 202C211 202.371 210.836 202.723 210.551 202.961L203.051 209.211C202.68 209.519 202.16 209.59 201.719 209.383C201.277 209.176 201 208.734 201 208.25V205.75Z" fill="#DA3BBD"/>
<path d="M71.6464 204.646C71.4512 204.842 71.4512 205.158 71.6464 205.354L74.8284 208.536C75.0237 208.731 75.3403 208.731 75.5355 208.536C75.7308 208.34 75.7308 208.024 75.5355 207.828L72.7071 205L75.5355 202.172C75.7308 201.976 75.7308 201.66 75.5355 201.464C75.3403 201.269 75.0237 201.269 74.8284 201.464L71.6464 204.646ZM97 204.5H72V205.5H97V204.5Z" fill="#DA3BBD"/>
<path d="M179.354 204.646C179.549 204.842 179.549 205.158 179.354 205.354L176.172 208.536C175.976 208.731 175.66 208.731 175.464 208.536C175.269 208.34 175.269 208.024 175.464 207.828L178.293 205L175.464 202.172C175.269 201.976 175.269 201.66 175.464 201.464C175.66 201.269 175.976 201.269 176.172 201.464L179.354 204.646ZM154 204.5H179V205.5H154V204.5Z" fill="#DA3BBD"/>
<path d="M85.98 193.9V194.86H81.87V193.9H85.98ZM87.2996 191.75V190.71H89.3796V198H88.2296V191.75H87.2996ZM90.9457 194.26C90.9457 193.107 91.139 192.207 91.5257 191.56C91.919 190.907 92.5924 190.58 93.5457 190.58C94.499 190.58 95.169 190.907 95.5557 191.56C95.949 192.207 96.1457 193.107 96.1457 194.26C96.1457 195.427 95.949 196.34 95.5557 197C95.169 197.653 94.499 197.98 93.5457 197.98C92.5924 197.98 91.919 197.653 91.5257 197C91.139 196.34 90.9457 195.427 90.9457 194.26ZM95.0257 194.26C95.0257 193.72 94.989 193.263 94.9157 192.89C94.849 192.517 94.709 192.213 94.4957 191.98C94.2824 191.74 93.9657 191.62 93.5457 191.62C93.1257 191.62 92.809 191.74 92.5957 191.98C92.3824 192.213 92.239 192.517 92.1657 192.89C92.099 193.263 92.0657 193.72 92.0657 194.26C92.0657 194.82 92.099 195.29 92.1657 195.67C92.2324 196.05 92.3724 196.357 92.5857 196.59C92.8057 196.823 93.1257 196.94 93.5457 196.94C93.9657 196.94 94.2824 196.823 94.4957 196.59C94.7157 196.357 94.859 196.05 94.9257 195.67C94.9924 195.29 95.0257 194.82 95.0257 194.26Z" fill="#DA3BBD"/>
<path d="M156.12 194.87H154.1V196.94H153.04V194.87H151.02V193.91H153.04V191.84H154.1V193.91H156.12V194.87ZM157.589 191.75V190.71H159.669V198H158.519V191.75H157.589ZM161.235 194.26C161.235 193.107 161.428 192.207 161.815 191.56C162.208 190.907 162.881 190.58 163.835 190.58C164.788 190.58 165.458 190.907 165.845 191.56C166.238 192.207 166.435 193.107 166.435 194.26C166.435 195.427 166.238 196.34 165.845 197C165.458 197.653 164.788 197.98 163.835 197.98C162.881 197.98 162.208 197.653 161.815 197C161.428 196.34 161.235 195.427 161.235 194.26ZM165.315 194.26C165.315 193.72 165.278 193.263 165.205 192.89C165.138 192.517 164.998 192.213 164.785 191.98C164.571 191.74 164.255 191.62 163.835 191.62C163.415 191.62 163.098 191.74 162.885 191.98C162.671 192.213 162.528 192.517 162.455 192.89C162.388 193.263 162.355 193.72 162.355 194.26C162.355 194.82 162.388 195.29 162.455 195.67C162.521 196.05 162.661 196.357 162.875 196.59C163.095 196.823 163.415 196.94 163.835 196.94C164.255 196.94 164.571 196.823 164.785 196.59C165.005 196.357 165.148 196.05 165.215 195.67C165.281 195.29 165.315 194.82 165.315 194.26Z" fill="#DA3BBD"/>
<path d="M51.6 85.1V99H49.32V92.92H42.78V99H40.5V85.1H42.78V91.06H49.32V85.1H51.6ZM53.8416 93.44C53.8416 92.3333 54.0682 91.3533 54.5216 90.5C54.9882 89.6467 55.6149 88.9867 56.4016 88.52C57.2016 88.04 58.0816 87.8 59.0416 87.8C59.9082 87.8 60.6616 87.9733 61.3016 88.32C61.9549 88.6533 62.4749 89.0733 62.8616 89.58V87.98H65.1616V99H62.8616V97.36C62.4749 97.88 61.9482 98.3133 61.2816 98.66C60.6149 99.0067 59.8549 99.18 59.0016 99.18C58.0549 99.18 57.1882 98.94 56.4016 98.46C55.6149 97.9667 54.9882 97.2867 54.5216 96.42C54.0682 95.54 53.8416 94.5467 53.8416 93.44ZM62.8616 93.48C62.8616 92.72 62.7016 92.06 62.3816 91.5C62.0749 90.94 61.6682 90.5133 61.1616 90.22C60.6549 89.9267 60.1082 89.78 59.5216 89.78C58.9349 89.78 58.3882 89.9267 57.8816 90.22C57.3749 90.5 56.9616 90.92 56.6416 91.48C56.3349 92.0267 56.1816 92.68 56.1816 93.44C56.1816 94.2 56.3349 94.8667 56.6416 95.44C56.9616 96.0133 57.3749 96.4533 57.8816 96.76C58.4016 97.0533 58.9482 97.2 59.5216 97.2C60.1082 97.2 60.6549 97.0533 61.1616 96.76C61.6682 96.4667 62.0749 96.04 62.3816 95.48C62.7016 94.9067 62.8616 94.24 62.8616 93.48ZM70.4363 89.6C70.8229 89.0933 71.3496 88.6667 72.0163 88.32C72.6829 87.9733 73.4363 87.8 74.2763 87.8C75.2363 87.8 76.1096 88.04 76.8963 88.52C77.6963 88.9867 78.3229 89.6467 78.7763 90.5C79.2296 91.3533 79.4563 92.3333 79.4563 93.44C79.4563 94.5467 79.2296 95.54 78.7763 96.42C78.3229 97.2867 77.6963 97.9667 76.8963 98.46C76.1096 98.94 75.2363 99.18 74.2763 99.18C73.4363 99.18 72.6896 99.0133 72.0363 98.68C71.3829 98.3333 70.8496 97.9067 70.4363 97.4V104.24H68.1563V87.98H70.4363V89.6ZM77.1363 93.44C77.1363 92.68 76.9763 92.0267 76.6562 91.48C76.3496 90.92 75.9363 90.5 75.4163 90.22C74.9096 89.9267 74.3629 89.78 73.7763 89.78C73.2029 89.78 72.6563 89.9267 72.1363 90.22C71.6296 90.5133 71.2163 90.94 70.8963 91.5C70.5896 92.06 70.4363 92.72 70.4363 93.48C70.4363 94.24 70.5896 94.9067 70.8963 95.48C71.2163 96.04 71.6296 96.4667 72.1363 96.76C72.6563 97.0533 73.2029 97.2 73.7763 97.2C74.3629 97.2 74.9096 97.0533 75.4163 96.76C75.9363 96.4533 76.3496 96.0133 76.6562 95.44C76.9763 94.8667 77.1363 94.2 77.1363 93.44ZM83.9909 89.6C84.3776 89.0933 84.9043 88.6667 85.5709 88.32C86.2376 87.9733 86.9909 87.8 87.8309 87.8C88.7909 87.8 89.6643 88.04 90.4509 88.52C91.2509 88.9867 91.8776 89.6467 92.3309 90.5C92.7843 91.3533 93.0109 92.3333 93.0109 93.44C93.0109 94.5467 92.7843 95.54 92.3309 96.42C91.8776 97.2867 91.2509 97.9667 90.4509 98.46C89.6643 98.94 88.7909 99.18 87.8309 99.18C86.9909 99.18 86.2443 99.0133 85.5909 98.68C84.9376 98.3333 84.4043 97.9067 83.9909 97.4V104.24H81.7109V87.98H83.9909V89.6ZM90.6909 93.44C90.6909 92.68 90.5309 92.0267 90.2109 91.48C89.9043 90.92 89.4909 90.5 88.9709 90.22C88.4643 89.9267 87.9176 89.78 87.3309 89.78C86.7576 89.78 86.2109 89.9267 85.6909 90.22C85.1843 90.5133 84.7709 90.94 84.4509 91.5C84.1443 92.06 83.9909 92.72 83.9909 93.48C83.9909 94.24 84.1443 94.9067 84.4509 95.48C84.7709 96.04 85.1843 96.4667 85.6909 96.76C86.2109 97.0533 86.7576 97.2 87.3309 97.2C87.9176 97.2 88.4643 97.0533 88.9709 96.76C89.4909 96.4533 89.9043 96.0133 90.2109 95.44C90.5309 94.8667 90.6909 94.2 90.6909 93.44ZM105.186 87.98L98.4256 104.18H96.0656L98.3056 98.82L93.9656 87.98H96.5056L99.6056 96.38L102.826 87.98H105.186ZM116.578 94.08V95.232H111.646V94.08H116.578ZM125.084 90.66V99H123.716V90.66H125.084ZM130.216 92.28C130.736 92.28 131.2 92.388 131.608 92.604C132.024 92.82 132.348 93.14 132.58 93.564C132.812 93.988 132.928 94.5 132.928 95.1V99H131.572V95.304C131.572 94.712 131.424 94.26 131.128 93.948C130.832 93.628 130.428 93.468 129.916 93.468C129.404 93.468 128.996 93.628 128.692 93.948C128.396 94.26 128.248 94.712 128.248 95.304V99H126.88V92.388H128.248V93.144C128.472 92.872 128.756 92.66 129.1 92.508C129.452 92.356 129.824 92.28 130.216 92.28ZM139.005 99L137.085 95.664H136.041V99H134.673V90.66H137.553C138.193 90.66 138.733 90.772 139.173 90.996C139.621 91.22 139.953 91.52 140.169 91.896C140.393 92.272 140.505 92.692 140.505 93.156C140.505 93.7 140.345 94.196 140.025 94.644C139.713 95.084 139.229 95.384 138.573 95.544L140.637 99H139.005ZM136.041 94.572H137.553C138.065 94.572 138.449 94.444 138.705 94.188C138.969 93.932 139.101 93.588 139.101 93.156C139.101 92.724 138.973 92.388 138.717 92.148C138.461 91.9 138.073 91.776 137.553 91.776H136.041V94.572ZM148.315 95.532C148.315 95.78 148.299 96.004 148.267 96.204H143.215C143.255 96.732 143.451 97.156 143.803 97.476C144.155 97.796 144.587 97.956 145.099 97.956C145.835 97.956 146.355 97.648 146.659 97.032H148.135C147.935 97.64 147.571 98.14 147.043 98.532C146.523 98.916 145.875 99.108 145.099 99.108C144.467 99.108 143.899 98.968 143.395 98.688C142.899 98.4 142.507 98 142.219 97.488C141.939 96.968 141.799 96.368 141.799 95.688C141.799 95.008 141.935 94.412 142.207 93.9C142.487 93.38 142.875 92.98 143.371 92.7C143.875 92.42 144.451 92.28 145.099 92.28C145.723 92.28 146.279 92.416 146.767 92.688C147.255 92.96 147.635 93.344 147.907 93.84C148.179 94.328 148.315 94.892 148.315 95.532ZM146.887 95.1C146.879 94.596 146.699 94.192 146.347 93.888C145.995 93.584 145.559 93.432 145.039 93.432C144.567 93.432 144.163 93.584 143.827 93.888C143.491 94.184 143.291 94.588 143.227 95.1H146.887ZM152.218 97.776L154.09 92.388H155.542L153.022 99H151.39L148.882 92.388H150.346L152.218 97.776ZM162.636 95.532C162.636 95.78 162.62 96.004 162.588 96.204H157.536C157.576 96.732 157.772 97.156 158.124 97.476C158.476 97.796 158.908 97.956 159.42 97.956C160.156 97.956 160.676 97.648 160.98 97.032H162.456C162.256 97.64 161.892 98.14 161.364 98.532C160.844 98.916 160.196 99.108 159.42 99.108C158.788 99.108 158.22 98.968 157.716 98.688C157.22 98.4 156.828 98 156.54 97.488C156.26 96.968 156.12 96.368 156.12 95.688C156.12 95.008 156.256 94.412 156.528 93.9C156.808 93.38 157.196 92.98 157.692 92.7C158.196 92.42 158.772 92.28 159.42 92.28C160.044 92.28 160.6 92.416 161.088 92.688C161.576 92.96 161.956 93.344 162.228 93.84C162.5 94.328 162.636 94.892 162.636 95.532ZM161.208 95.1C161.2 94.596 161.02 94.192 160.668 93.888C160.316 93.584 159.88 93.432 159.36 93.432C158.888 93.432 158.484 93.584 158.148 93.888C157.812 94.184 157.612 94.588 157.548 95.1H161.208ZM165.35 93.348C165.55 93.012 165.814 92.752 166.142 92.568C166.478 92.376 166.874 92.28 167.33 92.28V93.696H166.982C166.446 93.696 166.038 93.832 165.758 94.104C165.486 94.376 165.35 94.848 165.35 95.52V99H163.982V92.388H165.35V93.348ZM170.988 99.108C170.468 99.108 170 99.016 169.584 98.832C169.176 98.64 168.852 98.384 168.612 98.064C168.372 97.736 168.244 97.372 168.228 96.972H169.644C169.668 97.252 169.8 97.488 170.04 97.68C170.288 97.864 170.596 97.956 170.964 97.956C171.348 97.956 171.644 97.884 171.852 97.74C172.068 97.588 172.176 97.396 172.176 97.164C172.176 96.916 172.056 96.732 171.816 96.612C171.584 96.492 171.212 96.36 170.7 96.216C170.204 96.08 169.8 95.948 169.488 95.82C169.176 95.692 168.904 95.496 168.672 95.232C168.448 94.968 168.336 94.62 168.336 94.188C168.336 93.836 168.44 93.516 168.648 93.228C168.856 92.932 169.152 92.7 169.536 92.532C169.928 92.364 170.376 92.28 170.88 92.28C171.632 92.28 172.236 92.472 172.692 92.856C173.156 93.232 173.404 93.748 173.436 94.404H172.068C172.044 94.108 171.924 93.872 171.708 93.696C171.492 93.52 171.2 93.432 170.832 93.432C170.472 93.432 170.196 93.5 170.004 93.636C169.812 93.772 169.716 93.952 169.716 94.176C169.716 94.352 169.78 94.5 169.908 94.62C170.036 94.74 170.192 94.836 170.376 94.908C170.56 94.972 170.832 95.056 171.192 95.16C171.672 95.288 172.064 95.42 172.368 95.556C172.68 95.684 172.948 95.876 173.172 96.132C173.396 96.388 173.512 96.728 173.52 97.152C173.52 97.528 173.416 97.864 173.208 98.16C173 98.456 172.704 98.688 172.32 98.856C171.944 99.024 171.5 99.108 170.988 99.108ZM181.058 95.532C181.058 95.78 181.042 96.004 181.01 96.204H175.958C175.998 96.732 176.194 97.156 176.546 97.476C176.898 97.796 177.33 97.956 177.842 97.956C178.578 97.956 179.098 97.648 179.402 97.032H180.878C180.678 97.64 180.314 98.14 179.786 98.532C179.266 98.916 178.618 99.108 177.842 99.108C177.21 99.108 176.642 98.968 176.138 98.688C175.642 98.4 175.25 98 174.962 97.488C174.682 96.968 174.542 96.368 174.542 95.688C174.542 95.008 174.678 94.412 174.95 93.9C175.23 93.38 175.618 92.98 176.114 92.7C176.618 92.42 177.194 92.28 177.842 92.28C178.466 92.28 179.022 92.416 179.51 92.688C179.998 92.96 180.378 93.344 180.65 93.84C180.922 94.328 181.058 94.892 181.058 95.532ZM179.63 95.1C179.622 94.596 179.442 94.192 179.09 93.888C178.738 93.584 178.302 93.432 177.782 93.432C177.31 93.432 176.906 93.584 176.57 93.888C176.234 94.184 176.034 94.588 175.97 95.1H179.63Z" fill="#F5F5F5"/>
<path d="M40.722 153.83C41.618 153.055 42.3227 152.421 42.836 151.926C43.3587 151.422 43.7927 150.899 44.138 150.358C44.4833 149.817 44.656 149.275 44.656 148.734C44.656 148.174 44.5207 147.735 44.25 147.418C43.9887 147.101 43.5733 146.942 43.004 146.942C42.4533 146.942 42.024 147.119 41.716 147.474C41.4173 147.819 41.2587 148.286 41.24 148.874H39.7C39.728 147.81 40.0453 146.998 40.652 146.438C41.268 145.869 42.0473 145.584 42.99 145.584C44.0073 145.584 44.8007 145.864 45.37 146.424C45.9487 146.984 46.238 147.731 46.238 148.664C46.238 149.336 46.0653 149.985 45.72 150.61C45.384 151.226 44.978 151.781 44.502 152.276C44.0353 152.761 43.438 153.326 42.71 153.97L42.08 154.53H46.518V155.86H39.714V154.698L40.722 153.83ZM48.7741 156.098C48.4847 156.098 48.2421 156 48.0461 155.804C47.8501 155.608 47.7521 155.365 47.7521 155.076C47.7521 154.787 47.8501 154.544 48.0461 154.348C48.2421 154.152 48.4847 154.054 48.7741 154.054C49.0541 154.054 49.2921 154.152 49.4881 154.348C49.6841 154.544 49.7821 154.787 49.7821 155.076C49.7821 155.365 49.6841 155.608 49.4881 155.804C49.2921 156 49.0541 156.098 48.7741 156.098ZM48.7741 150.218C48.4847 150.218 48.2421 150.12 48.0461 149.924C47.8501 149.728 47.7521 149.485 47.7521 149.196C47.7521 148.907 47.8501 148.664 48.0461 148.468C48.2421 148.272 48.4847 148.174 48.7741 148.174C49.0541 148.174 49.2921 148.272 49.4881 148.468C49.6841 148.664 49.7821 148.907 49.7821 149.196C49.7821 149.485 49.6841 149.728 49.4881 149.924C49.2921 150.12 49.0541 150.218 48.7741 150.218ZM51.3237 148.314C51.3797 147.446 51.7111 146.769 52.3177 146.284C52.9337 145.799 53.7177 145.556 54.6697 145.556C55.3231 145.556 55.8877 145.673 56.3637 145.906C56.8397 146.139 57.1991 146.457 57.4417 146.858C57.6844 147.259 57.8057 147.712 57.8057 148.216C57.8057 148.795 57.6517 149.289 57.3437 149.7C57.0357 150.111 56.6671 150.386 56.2377 150.526V150.582C56.7884 150.75 57.2177 151.058 57.5257 151.506C57.8337 151.945 57.9877 152.509 57.9877 153.2C57.9877 153.751 57.8617 154.241 57.6097 154.67C57.3577 155.099 56.9844 155.44 56.4897 155.692C55.9951 155.935 55.4024 156.056 54.7117 156.056C53.7037 156.056 52.8731 155.799 52.2197 155.286C51.5757 154.763 51.2304 154.017 51.1837 153.046H52.7237C52.7611 153.541 52.9524 153.947 53.2977 154.264C53.6431 154.572 54.1097 154.726 54.6977 154.726C55.2671 154.726 55.7057 154.572 56.0137 154.264C56.3217 153.947 56.4757 153.541 56.4757 153.046C56.4757 152.393 56.2657 151.931 55.8457 151.66C55.4351 151.38 54.8004 151.24 53.9417 151.24H53.5777V149.924H53.9557C54.7117 149.915 55.2857 149.789 55.6777 149.546C56.0791 149.303 56.2797 148.921 56.2797 148.398C56.2797 147.95 56.1351 147.595 55.8457 147.334C55.5564 147.063 55.1457 146.928 54.6137 146.928C54.0911 146.928 53.6851 147.063 53.3957 147.334C53.1064 147.595 52.9337 147.922 52.8777 148.314H51.3237ZM66.1322 147.026L62.2402 156H60.6302L64.5642 147.194H59.3842V145.836H66.1322V147.026Z" fill="#F5F5F5"/>
<line x1="39" y1="134" x2="211" y2="134" stroke="#0E2F8C" stroke-width="2"/>
<circle cx="179" cy="135" r="5" fill="#D9D9D9"/>
</svg>
