<svg width="250" height="280" viewBox="0 0 250 280" fill="none" xmlns="http://www.w3.org/2000/svg">
<rect width="250" height="280" rx="20" fill="#020C27"/>
<path d="M34.92 47H32.64L25.78 36.62V47H23.5V33.08H25.78L32.64 43.44V33.08H34.92V47ZM37.1541 41.44C37.1541 40.3333 37.3807 39.3533 37.8341 38.5C38.3007 37.6467 38.9274 36.9867 39.7141 36.52C40.5141 36.04 41.3941 35.8 42.3541 35.8C43.2207 35.8 43.9741 35.9733 44.6141 36.32C45.2674 36.6533 45.7874 37.0733 46.1741 37.58V35.98H48.4741V47H46.1741V45.36C45.7874 45.88 45.2607 46.3133 44.5941 46.66C43.9274 47.0067 43.1674 47.18 42.3141 47.18C41.3674 47.18 40.5007 46.94 39.7141 46.46C38.9274 45.9667 38.3007 45.2867 37.8341 44.42C37.3807 43.54 37.1541 42.5467 37.1541 41.44ZM46.1741 41.48C46.1741 40.72 46.0141 40.06 45.6941 39.5C45.3874 38.94 44.9807 38.5133 44.4741 38.22C43.9674 37.9267 43.4207 37.78 42.8341 37.78C42.2474 37.78 41.7007 37.9267 41.1941 38.22C40.6874 38.5 40.2741 38.92 39.9541 39.48C39.6474 40.0267 39.4941 40.68 39.4941 41.44C39.4941 42.2 39.6474 42.8667 39.9541 43.44C40.2741 44.0133 40.6874 44.4533 41.1941 44.76C41.7141 45.0533 42.2607 45.2 42.8341 45.2C43.4207 45.2 43.9674 45.0533 44.4741 44.76C44.9807 44.4667 45.3874 44.04 45.6941 43.48C46.0141 42.9067 46.1741 42.24 46.1741 41.48ZM55.7288 44.96L58.8488 35.98H61.2687L57.0688 47H54.3488L50.1688 35.98H52.6087L55.7288 44.96ZM73.0922 41.22C73.0922 41.6333 73.0655 42.0067 73.0122 42.34H64.5922C64.6589 43.22 64.9855 43.9267 65.5722 44.46C66.1589 44.9933 66.8789 45.26 67.7322 45.26C68.9589 45.26 69.8255 44.7467 70.3322 43.72H72.7922C72.4589 44.7333 71.8522 45.5667 70.9722 46.22C70.1055 46.86 69.0255 47.18 67.7322 47.18C66.6789 47.18 65.7322 46.9467 64.8922 46.48C64.0655 46 63.4122 45.3333 62.9322 44.48C62.4655 43.6133 62.2322 42.6133 62.2322 41.48C62.2322 40.3467 62.4589 39.3533 62.9122 38.5C63.3789 37.6333 64.0255 36.9667 64.8522 36.5C65.6922 36.0333 66.6522 35.8 67.7322 35.8C68.7722 35.8 69.6989 36.0267 70.5122 36.48C71.3255 36.9333 71.9589 37.5733 72.4122 38.4C72.8655 39.2133 73.0922 40.1533 73.0922 41.22ZM70.7122 40.5C70.6989 39.66 70.3989 38.9867 69.8122 38.48C69.2255 37.9733 68.4989 37.72 67.6322 37.72C66.8455 37.72 66.1722 37.9733 65.6122 38.48C65.0522 38.9733 64.7189 39.6467 64.6122 40.5H70.7122ZM79.7759 35.8C80.6293 35.8 81.3826 35.9733 82.0359 36.32C82.7026 36.6533 83.2226 37.0733 83.5959 37.58V35.98H85.8959V47.18C85.8959 48.1933 85.6826 49.0933 85.2559 49.88C84.8293 50.68 84.2093 51.3067 83.3959 51.76C82.5959 52.2133 81.6359 52.44 80.5159 52.44C79.0226 52.44 77.7826 52.0867 76.7959 51.38C75.8093 50.6867 75.2493 49.74 75.1159 48.54H77.3759C77.5493 49.1133 77.9159 49.5733 78.4759 49.92C79.0493 50.28 79.7293 50.46 80.5159 50.46C81.4359 50.46 82.1759 50.18 82.7359 49.62C83.3093 49.06 83.5959 48.2467 83.5959 47.18V45.34C83.2093 45.86 82.6826 46.3 82.0159 46.66C81.3626 47.0067 80.6159 47.18 79.7759 47.18C78.8159 47.18 77.9359 46.94 77.1359 46.46C76.3493 45.9667 75.7226 45.2867 75.2559 44.42C74.8026 43.54 74.5759 42.5467 74.5759 41.44C74.5759 40.3333 74.8026 39.3533 75.2559 38.5C75.7226 37.6467 76.3493 36.9867 77.1359 36.52C77.9359 36.04 78.8159 35.8 79.7759 35.8ZM83.5959 41.48C83.5959 40.72 83.4359 40.06 83.1159 39.5C82.8093 38.94 82.4026 38.5133 81.8959 38.22C81.3893 37.9267 80.8426 37.78 80.2559 37.78C79.6693 37.78 79.1226 37.9267 78.6159 38.22C78.1093 38.5 77.6959 38.92 77.3759 39.48C77.0693 40.0267 76.9159 40.68 76.9159 41.44C76.9159 42.2 77.0693 42.8667 77.3759 43.44C77.6959 44.0133 78.1093 44.4533 78.6159 44.76C79.1359 45.0533 79.6826 45.2 80.2559 45.2C80.8426 45.2 81.3893 45.0533 81.8959 44.76C82.4026 44.4667 82.8093 44.04 83.1159 43.48C83.4359 42.9067 83.5959 42.24 83.5959 41.48ZM98.8706 35.98V47H96.5906V45.7C96.2306 46.1533 95.7573 46.5133 95.1706 46.78C94.5973 47.0333 93.984 47.16 93.3306 47.16C92.464 47.16 91.684 46.98 90.9906 46.62C90.3106 46.26 89.7706 45.7267 89.3706 45.02C88.984 44.3133 88.7906 43.46 88.7906 42.46V35.98H91.0506V42.12C91.0506 43.1067 91.2973 43.8667 91.7906 44.4C92.284 44.92 92.9573 45.18 93.8106 45.18C94.664 45.18 95.3373 44.92 95.8306 44.4C96.3373 43.8667 96.5906 43.1067 96.5906 42.12V35.98H98.8706ZM111.979 41.22C111.979 41.6333 111.952 42.0067 111.899 42.34H103.479C103.546 43.22 103.872 43.9267 104.459 44.46C105.046 44.9933 105.766 45.26 106.619 45.26C107.846 45.26 108.712 44.7467 109.219 43.72H111.679C111.346 44.7333 110.739 45.5667 109.859 46.22C108.992 46.86 107.912 47.18 106.619 47.18C105.566 47.18 104.619 46.9467 103.779 46.48C102.952 46 102.299 45.3333 101.819 44.48C101.352 43.6133 101.119 42.6133 101.119 41.48C101.119 40.3467 101.346 39.3533 101.799 38.5C102.266 37.6333 102.912 36.9667 103.739 36.5C104.579 36.0333 105.539 35.8 106.619 35.8C107.659 35.8 108.586 36.0267 109.399 36.48C110.212 36.9333 110.846 37.5733 111.299 38.4C111.752 39.2133 111.979 40.1533 111.979 41.22ZM109.599 40.5C109.586 39.66 109.286 38.9867 108.699 38.48C108.112 37.9733 107.386 37.72 106.519 37.72C105.732 37.72 105.059 37.9733 104.499 38.48C103.939 38.9733 103.606 39.6467 103.499 40.5H109.599ZM129.518 41.22C129.518 41.6333 129.491 42.0067 129.438 42.34H121.018C121.085 43.22 121.411 43.9267 121.998 44.46C122.585 44.9933 123.305 45.26 124.158 45.26C125.385 45.26 126.251 44.7467 126.758 43.72H129.218C128.885 44.7333 128.278 45.5667 127.398 46.22C126.531 46.86 125.451 47.18 124.158 47.18C123.105 47.18 122.158 46.9467 121.318 46.48C120.491 46 119.838 45.3333 119.358 44.48C118.891 43.6133 118.658 42.6133 118.658 41.48C118.658 40.3467 118.885 39.3533 119.338 38.5C119.805 37.6333 120.451 36.9667 121.278 36.5C122.118 36.0333 123.078 35.8 124.158 35.8C125.198 35.8 126.125 36.0267 126.938 36.48C127.751 36.9333 128.385 37.5733 128.838 38.4C129.291 39.2133 129.518 40.1533 129.518 41.22ZM127.138 40.5C127.125 39.66 126.825 38.9867 126.238 38.48C125.651 37.9733 124.925 37.72 124.058 37.72C123.271 37.72 122.598 37.9733 122.038 38.48C121.478 38.9733 121.145 39.6467 121.038 40.5H127.138ZM147.057 41.22C147.057 41.6333 147.03 42.0067 146.977 42.34H138.557C138.624 43.22 138.95 43.9267 139.537 44.46C140.124 44.9933 140.844 45.26 141.697 45.26C142.924 45.26 143.79 44.7467 144.297 43.72H146.757C146.424 44.7333 145.817 45.5667 144.937 46.22C144.07 46.86 142.99 47.18 141.697 47.18C140.644 47.18 139.697 46.9467 138.857 46.48C138.03 46 137.377 45.3333 136.897 44.48C136.43 43.6133 136.197 42.6133 136.197 41.48C136.197 40.3467 136.424 39.3533 136.877 38.5C137.344 37.6333 137.99 36.9667 138.817 36.5C139.657 36.0333 140.617 35.8 141.697 35.8C142.737 35.8 143.664 36.0267 144.477 36.48C145.29 36.9333 145.924 37.5733 146.377 38.4C146.83 39.2133 147.057 40.1533 147.057 41.22ZM144.677 40.5C144.664 39.66 144.364 38.9867 143.777 38.48C143.19 37.9733 142.464 37.72 141.597 37.72C140.81 37.72 140.137 37.9733 139.577 38.48C139.017 38.9733 138.684 39.6467 138.577 40.5H144.677ZM154.861 35.8C155.727 35.8 156.501 35.98 157.181 36.34C157.874 36.7 158.414 37.2333 158.801 37.94C159.187 38.6467 159.381 39.5 159.381 40.5V47H157.121V40.84C157.121 39.8533 156.874 39.1 156.381 38.58C155.887 38.0467 155.214 37.78 154.361 37.78C153.507 37.78 152.827 38.0467 152.321 38.58C151.827 39.1 151.581 39.8533 151.581 40.84V47H149.301V35.98H151.581V37.24C151.954 36.7867 152.427 36.4333 153.001 36.18C153.587 35.9267 154.207 35.8 154.861 35.8ZM161.529 41.48C161.529 40.3467 161.756 39.3533 162.209 38.5C162.676 37.6333 163.316 36.9667 164.129 36.5C164.942 36.0333 165.876 35.8 166.929 35.8C168.262 35.8 169.362 36.12 170.229 36.76C171.109 37.3867 171.702 38.2867 172.009 39.46H169.549C169.349 38.9133 169.029 38.4867 168.589 38.18C168.149 37.8733 167.596 37.72 166.929 37.72C165.996 37.72 165.249 38.0533 164.689 38.72C164.142 39.3733 163.869 40.2933 163.869 41.48C163.869 42.6667 164.142 43.5933 164.689 44.26C165.249 44.9267 165.996 45.26 166.929 45.26C168.249 45.26 169.122 44.68 169.549 43.52H172.009C171.689 44.64 171.089 45.5333 170.209 46.2C169.329 46.8533 168.236 47.18 166.929 47.18C165.876 47.18 164.942 46.9467 164.129 46.48C163.316 46 162.676 45.3333 162.209 44.48C161.756 43.6133 161.529 42.6133 161.529 41.48ZM179.061 47.18C178.021 47.18 177.081 46.9467 176.241 46.48C175.401 46 174.741 45.3333 174.261 44.48C173.781 43.6133 173.541 42.6133 173.541 41.48C173.541 40.36 173.788 39.3667 174.281 38.5C174.775 37.6333 175.448 36.9667 176.301 36.5C177.155 36.0333 178.108 35.8 179.161 35.8C180.215 35.8 181.168 36.0333 182.021 36.5C182.875 36.9667 183.548 37.6333 184.041 38.5C184.535 39.3667 184.781 40.36 184.781 41.48C184.781 42.6 184.528 43.5933 184.021 44.46C183.515 45.3267 182.821 46 181.941 46.48C181.075 46.9467 180.115 47.18 179.061 47.18ZM179.061 45.2C179.648 45.2 180.195 45.06 180.701 44.78C181.221 44.5 181.641 44.08 181.961 43.52C182.281 42.96 182.441 42.28 182.441 41.48C182.441 40.68 182.288 40.0067 181.981 39.46C181.675 38.9 181.268 38.48 180.761 38.2C180.255 37.92 179.708 37.78 179.121 37.78C178.535 37.78 177.988 37.92 177.481 38.2C176.988 38.48 176.595 38.9 176.301 39.46C176.008 40.0067 175.861 40.68 175.861 41.48C175.861 42.6667 176.161 43.5867 176.761 44.24C177.375 44.88 178.141 45.2 179.061 45.2ZM192.595 35.8C193.462 35.8 194.235 35.98 194.915 36.34C195.608 36.7 196.148 37.2333 196.535 37.94C196.922 38.6467 197.115 39.5 197.115 40.5V47H194.855V40.84C194.855 39.8533 194.608 39.1 194.115 38.58C193.622 38.0467 192.948 37.78 192.095 37.78C191.242 37.78 190.562 38.0467 190.055 38.58C189.562 39.1 189.315 39.8533 189.315 40.84V47H187.035V35.98H189.315V37.24C189.688 36.7867 190.162 36.4333 190.735 36.18C191.322 35.9267 191.942 35.8 192.595 35.8ZM202.683 37.84V43.94C202.683 44.3533 202.777 44.6533 202.963 44.84C203.163 45.0133 203.497 45.1 203.963 45.1H205.363V47H203.563C202.537 47 201.75 46.76 201.203 46.28C200.657 45.8 200.383 45.02 200.383 43.94V37.84H199.083V35.98H200.383V33.24H202.683V35.98H205.363V37.84H202.683ZM209.745 37.58C210.078 37.02 210.518 36.5867 211.065 36.28C211.625 35.96 212.285 35.8 213.045 35.8V38.16H212.465C211.572 38.16 210.892 38.3867 210.425 38.84C209.972 39.2933 209.745 40.08 209.745 41.2V47H207.465V35.98H209.745V37.58ZM225.241 41.22C225.241 41.6333 225.214 42.0067 225.161 42.34H216.741C216.807 43.22 217.134 43.9267 217.721 44.46C218.307 44.9933 219.027 45.26 219.881 45.26C221.107 45.26 221.974 44.7467 222.481 43.72H224.941C224.607 44.7333 224.001 45.5667 223.121 46.22C222.254 46.86 221.174 47.18 219.881 47.18C218.827 47.18 217.881 46.9467 217.041 46.48C216.214 46 215.561 45.3333 215.081 44.48C214.614 43.6133 214.381 42.6133 214.381 41.48C214.381 40.3467 214.607 39.3533 215.061 38.5C215.527 37.6333 216.174 36.9667 217.001 36.5C217.841 36.0333 218.801 35.8 219.881 35.8C220.921 35.8 221.847 36.0267 222.661 36.48C223.474 36.9333 224.107 37.5733 224.561 38.4C225.014 39.2133 225.241 40.1533 225.241 41.22ZM222.861 40.5C222.847 39.66 222.547 38.9867 221.961 38.48C221.374 37.9733 220.647 37.72 219.781 37.72C218.994 37.72 218.321 37.9733 217.761 38.48C217.201 38.9733 216.867 39.6467 216.761 40.5H222.861Z" fill="#F5F5F5"/>
<path d="M38.904 167.728H34.248L33.448 170H31.544L35.528 158.864H37.64L41.624 170H39.704L38.904 167.728ZM38.392 166.24L36.584 161.072L34.76 166.24H38.392ZM45.1803 162.464C45.4469 162.016 45.7989 161.669 46.2363 161.424C46.6843 161.168 47.2123 161.04 47.8203 161.04V162.928H47.3563C46.6416 162.928 46.0976 163.109 45.7243 163.472C45.3616 163.835 45.1803 164.464 45.1803 165.36V170H43.3563V161.184H45.1803V162.464ZM51.6249 162.672V167.552C51.6249 167.883 51.6995 168.123 51.8489 168.272C52.0089 168.411 52.2755 168.48 52.6489 168.48H53.7689V170H52.3289C51.5075 170 50.8782 169.808 50.4409 169.424C50.0035 169.04 49.7849 168.416 49.7849 167.552V162.672H48.7449V161.184H49.7849V158.992H51.6249V161.184H53.7689V162.672H51.6249ZM56.378 160.016C56.0473 160.016 55.77 159.904 55.546 159.68C55.322 159.456 55.21 159.179 55.21 158.848C55.21 158.517 55.322 158.24 55.546 158.016C55.77 157.792 56.0473 157.68 56.378 157.68C56.698 157.68 56.97 157.792 57.194 158.016C57.418 158.24 57.53 158.517 57.53 158.848C57.53 159.179 57.418 159.456 57.194 159.68C56.97 159.904 56.698 160.016 56.378 160.016ZM57.274 161.184V170H55.45V161.184H57.274ZM62.8688 170.144C62.1754 170.144 61.5514 170.021 60.9968 169.776C60.4528 169.52 60.0208 169.179 59.7008 168.752C59.3808 168.315 59.2101 167.829 59.1888 167.296H61.0768C61.1088 167.669 61.2848 167.984 61.6048 168.24C61.9354 168.485 62.3461 168.608 62.8368 168.608C63.3488 168.608 63.7434 168.512 64.0208 168.32C64.3088 168.117 64.4528 167.861 64.4528 167.552C64.4528 167.221 64.2928 166.976 63.9728 166.816C63.6634 166.656 63.1674 166.48 62.4848 166.288C61.8234 166.107 61.2848 165.931 60.8688 165.76C60.4528 165.589 60.0901 165.328 59.7808 164.976C59.4821 164.624 59.3328 164.16 59.3328 163.584C59.3328 163.115 59.4714 162.688 59.7488 162.304C60.0261 161.909 60.4208 161.6 60.9328 161.376C61.4554 161.152 62.0528 161.04 62.7248 161.04C63.7274 161.04 64.5328 161.296 65.1408 161.808C65.7594 162.309 66.0901 162.997 66.1328 163.872H64.3088C64.2768 163.477 64.1168 163.163 63.8288 162.928C63.5408 162.693 63.1514 162.576 62.6608 162.576C62.1808 162.576 61.8128 162.667 61.5568 162.848C61.3008 163.029 61.1728 163.269 61.1728 163.568C61.1728 163.803 61.2581 164 61.4288 164.16C61.5994 164.32 61.8074 164.448 62.0528 164.544C62.2981 164.629 62.6608 164.741 63.1408 164.88C63.7808 165.051 64.3034 165.227 64.7088 165.408C65.1248 165.579 65.4821 165.835 65.7808 166.176C66.0794 166.517 66.2341 166.971 66.2448 167.536C66.2448 168.037 66.1061 168.485 65.8288 168.88C65.5514 169.275 65.1568 169.584 64.6448 169.808C64.1434 170.032 63.5514 170.144 62.8688 170.144ZM70.3436 162.672V167.552C70.3436 167.883 70.4183 168.123 70.5676 168.272C70.7276 168.411 70.9943 168.48 71.3676 168.48H72.4876V170H71.0476C70.2263 170 69.597 169.808 69.1596 169.424C68.7223 169.04 68.5036 168.416 68.5036 167.552V162.672H67.4636V161.184H68.5036V158.992H70.3436V161.184H72.4876V162.672H70.3436ZM73.5608 165.552C73.5608 164.667 73.7421 163.883 74.1048 163.2C74.4781 162.517 74.9794 161.989 75.6088 161.616C76.2488 161.232 76.9528 161.04 77.7208 161.04C78.4141 161.04 79.0168 161.179 79.5288 161.456C80.0514 161.723 80.4674 162.059 80.7768 162.464V161.184H82.6168V170H80.7768V168.688C80.4674 169.104 80.0461 169.451 79.5128 169.728C78.9794 170.005 78.3714 170.144 77.6888 170.144C76.9314 170.144 76.2381 169.952 75.6088 169.568C74.9794 169.173 74.4781 168.629 74.1048 167.936C73.7421 167.232 73.5608 166.437 73.5608 165.552ZM80.7768 165.584C80.7768 164.976 80.6488 164.448 80.3928 164C80.1474 163.552 79.8221 163.211 79.4168 162.976C79.0114 162.741 78.5741 162.624 78.1048 162.624C77.6354 162.624 77.1981 162.741 76.7928 162.976C76.3874 163.2 76.0568 163.536 75.8008 163.984C75.5554 164.421 75.4328 164.944 75.4328 165.552C75.4328 166.16 75.5554 166.693 75.8008 167.152C76.0568 167.611 76.3874 167.963 76.7928 168.208C77.2088 168.443 77.6461 168.56 78.1048 168.56C78.5741 168.56 79.0114 168.443 79.4168 168.208C79.8221 167.973 80.1474 167.632 80.3928 167.184C80.6488 166.725 80.7768 166.192 80.7768 165.584Z" fill="#DA3BBD"/>
<path d="M112.732 162.144C112.732 162.568 112.632 162.968 112.432 163.344C112.232 163.72 111.912 164.028 111.472 164.268C111.032 164.5 110.468 164.616 109.78 164.616H108.268V168H106.9V159.66H109.78C110.42 159.66 110.96 159.772 111.4 159.996C111.848 160.212 112.18 160.508 112.396 160.884C112.62 161.26 112.732 161.68 112.732 162.144ZM109.78 163.5C110.3 163.5 110.688 163.384 110.944 163.152C111.2 162.912 111.328 162.576 111.328 162.144C111.328 161.232 110.812 160.776 109.78 160.776H108.268V163.5H109.78ZM115.405 159.12V168H114.037V159.12H115.405ZM116.745 164.664C116.745 164 116.881 163.412 117.153 162.9C117.433 162.388 117.809 161.992 118.281 161.712C118.761 161.424 119.289 161.28 119.865 161.28C120.385 161.28 120.837 161.384 121.221 161.592C121.613 161.792 121.925 162.044 122.157 162.348V161.388H123.537V168H122.157V167.016C121.925 167.328 121.609 167.588 121.209 167.796C120.809 168.004 120.353 168.108 119.841 168.108C119.273 168.108 118.753 167.964 118.281 167.676C117.809 167.38 117.433 166.972 117.153 166.452C116.881 165.924 116.745 165.328 116.745 164.664ZM122.157 164.688C122.157 164.232 122.061 163.836 121.869 163.5C121.685 163.164 121.441 162.908 121.137 162.732C120.833 162.556 120.505 162.468 120.153 162.468C119.801 162.468 119.473 162.556 119.169 162.732C118.865 162.9 118.617 163.152 118.425 163.488C118.241 163.816 118.149 164.208 118.149 164.664C118.149 165.12 118.241 165.52 118.425 165.864C118.617 166.208 118.865 166.472 119.169 166.656C119.481 166.832 119.809 166.92 120.153 166.92C120.505 166.92 120.833 166.832 121.137 166.656C121.441 166.48 121.685 166.224 121.869 165.888C122.061 165.544 122.157 165.144 122.157 164.688ZM131.286 161.388L127.23 171.108H125.814L127.158 167.892L124.554 161.388H126.078L127.938 166.428L129.87 161.388H131.286ZM133.686 159.12V168H132.318V159.12H133.686ZM136.178 160.512C135.93 160.512 135.722 160.428 135.554 160.26C135.386 160.092 135.302 159.884 135.302 159.636C135.302 159.388 135.386 159.18 135.554 159.012C135.722 158.844 135.93 158.76 136.178 158.76C136.418 158.76 136.622 158.844 136.79 159.012C136.958 159.18 137.042 159.388 137.042 159.636C137.042 159.884 136.958 160.092 136.79 160.26C136.622 160.428 136.418 160.512 136.178 160.512ZM136.85 161.388V168H135.482V161.388H136.85ZM141.046 168.108C140.526 168.108 140.058 168.016 139.642 167.832C139.234 167.64 138.91 167.384 138.67 167.064C138.43 166.736 138.302 166.372 138.286 165.972H139.702C139.726 166.252 139.858 166.488 140.098 166.68C140.346 166.864 140.654 166.956 141.022 166.956C141.406 166.956 141.702 166.884 141.91 166.74C142.126 166.588 142.234 166.396 142.234 166.164C142.234 165.916 142.114 165.732 141.874 165.612C141.642 165.492 141.27 165.36 140.758 165.216C140.262 165.08 139.858 164.948 139.546 164.82C139.234 164.692 138.962 164.496 138.73 164.232C138.506 163.968 138.394 163.62 138.394 163.188C138.394 162.836 138.498 162.516 138.706 162.228C138.914 161.932 139.21 161.7 139.594 161.532C139.986 161.364 140.434 161.28 140.938 161.28C141.69 161.28 142.294 161.472 142.75 161.856C143.214 162.232 143.462 162.748 143.494 163.404H142.126C142.102 163.108 141.982 162.872 141.766 162.696C141.55 162.52 141.258 162.432 140.89 162.432C140.53 162.432 140.254 162.5 140.062 162.636C139.87 162.772 139.774 162.952 139.774 163.176C139.774 163.352 139.838 163.5 139.966 163.62C140.094 163.74 140.25 163.836 140.434 163.908C140.618 163.972 140.89 164.056 141.25 164.16C141.73 164.288 142.122 164.42 142.426 164.556C142.738 164.684 143.006 164.876 143.23 165.132C143.454 165.388 143.57 165.728 143.578 166.152C143.578 166.528 143.474 166.864 143.266 167.16C143.058 167.456 142.762 167.688 142.378 167.856C142.002 168.024 141.558 168.108 141.046 168.108ZM146.652 162.504V166.164C146.652 166.412 146.708 166.592 146.82 166.704C146.94 166.808 147.14 166.86 147.42 166.86H148.26V168H147.18C146.564 168 146.092 167.856 145.764 167.568C145.436 167.28 145.272 166.812 145.272 166.164V162.504H144.492V161.388H145.272V159.744H146.652V161.388H148.26V162.504H146.652Z" fill="#F5F5F5"/>
<path d="M180.684 159.66V168H179.316V162.288L176.772 168H175.824L173.268 162.288V168H171.9V159.66H173.376L176.304 166.2L179.22 159.66H180.684ZM188.47 161.388V168H187.102V167.22C186.886 167.492 186.602 167.708 186.25 167.868C185.906 168.02 185.538 168.096 185.146 168.096C184.626 168.096 184.158 167.988 183.742 167.772C183.334 167.556 183.01 167.236 182.77 166.812C182.538 166.388 182.422 165.876 182.422 165.276V161.388H183.778V165.072C183.778 165.664 183.926 166.12 184.222 166.44C184.518 166.752 184.922 166.908 185.434 166.908C185.946 166.908 186.35 166.752 186.646 166.44C186.95 166.12 187.102 165.664 187.102 165.072V161.388H188.47ZM186.718 159.612L184.066 160.92V159.912L186.718 158.448V159.612ZM192.675 168.108C192.155 168.108 191.687 168.016 191.271 167.832C190.863 167.64 190.539 167.384 190.299 167.064C190.059 166.736 189.931 166.372 189.915 165.972H191.331C191.355 166.252 191.487 166.488 191.727 166.68C191.975 166.864 192.283 166.956 192.651 166.956C193.035 166.956 193.331 166.884 193.539 166.74C193.755 166.588 193.863 166.396 193.863 166.164C193.863 165.916 193.743 165.732 193.503 165.612C193.271 165.492 192.899 165.36 192.387 165.216C191.891 165.08 191.487 164.948 191.175 164.82C190.863 164.692 190.591 164.496 190.359 164.232C190.135 163.968 190.023 163.62 190.023 163.188C190.023 162.836 190.127 162.516 190.335 162.228C190.543 161.932 190.839 161.7 191.223 161.532C191.615 161.364 192.063 161.28 192.567 161.28C193.319 161.28 193.923 161.472 194.379 161.856C194.843 162.232 195.091 162.748 195.123 163.404H193.755C193.731 163.108 193.611 162.872 193.395 162.696C193.179 162.52 192.887 162.432 192.519 162.432C192.159 162.432 191.883 162.5 191.691 162.636C191.499 162.772 191.403 162.952 191.403 163.176C191.403 163.352 191.467 163.5 191.595 163.62C191.723 163.74 191.879 163.836 192.063 163.908C192.247 163.972 192.519 164.056 192.879 164.16C193.359 164.288 193.751 164.42 194.055 164.556C194.367 164.684 194.635 164.876 194.859 165.132C195.083 165.388 195.199 165.728 195.207 166.152C195.207 166.528 195.103 166.864 194.895 167.16C194.687 167.456 194.391 167.688 194.007 167.856C193.631 168.024 193.187 168.108 192.675 168.108ZM197.381 160.512C197.133 160.512 196.925 160.428 196.757 160.26C196.589 160.092 196.505 159.884 196.505 159.636C196.505 159.388 196.589 159.18 196.757 159.012C196.925 158.844 197.133 158.76 197.381 158.76C197.621 158.76 197.825 158.844 197.993 159.012C198.161 159.18 198.245 159.388 198.245 159.636C198.245 159.884 198.161 160.092 197.993 160.26C197.825 160.428 197.621 160.512 197.381 160.512ZM198.053 161.388V168H196.685V161.388H198.053ZM199.393 164.688C199.393 164.008 199.529 163.412 199.801 162.9C200.081 162.38 200.465 161.98 200.953 161.7C201.441 161.42 202.001 161.28 202.633 161.28C203.433 161.28 204.093 161.472 204.613 161.856C205.141 162.232 205.497 162.772 205.681 163.476H204.205C204.085 163.148 203.893 162.892 203.629 162.708C203.365 162.524 203.033 162.432 202.633 162.432C202.073 162.432 201.625 162.632 201.289 163.032C200.961 163.424 200.797 163.976 200.797 164.688C200.797 165.4 200.961 165.956 201.289 166.356C201.625 166.756 202.073 166.956 202.633 166.956C203.425 166.956 203.949 166.608 204.205 165.912H205.681C205.489 166.584 205.129 167.12 204.601 167.52C204.073 167.912 203.417 168.108 202.633 168.108C202.001 168.108 201.441 167.968 200.953 167.688C200.465 167.4 200.081 167 199.801 166.488C199.529 165.968 199.393 165.368 199.393 164.688ZM206.589 164.664C206.589 164 206.725 163.412 206.997 162.9C207.277 162.388 207.653 161.992 208.125 161.712C208.605 161.424 209.133 161.28 209.709 161.28C210.229 161.28 210.681 161.384 211.065 161.592C211.457 161.792 211.769 162.044 212.001 162.348V161.388H213.381V168H212.001V167.016C211.769 167.328 211.453 167.588 211.053 167.796C210.653 168.004 210.197 168.108 209.685 168.108C209.117 168.108 208.597 167.964 208.125 167.676C207.653 167.38 207.277 166.972 206.997 166.452C206.725 165.924 206.589 165.328 206.589 164.664ZM212.001 164.688C212.001 164.232 211.905 163.836 211.713 163.5C211.529 163.164 211.285 162.908 210.981 162.732C210.677 162.556 210.349 162.468 209.997 162.468C209.645 162.468 209.317 162.556 209.013 162.732C208.709 162.9 208.461 163.152 208.269 163.488C208.085 163.816 207.993 164.208 207.993 164.664C207.993 165.12 208.085 165.52 208.269 165.864C208.461 166.208 208.709 166.472 209.013 166.656C209.325 166.832 209.653 166.92 209.997 166.92C210.349 166.92 210.677 166.832 210.981 166.656C211.285 166.48 211.529 166.224 211.713 165.888C211.905 165.544 212.001 165.144 212.001 164.688Z" fill="#F5F5F5"/>
<rect x="28.5" y="90.5" width="197" height="29" rx="14.5" stroke="#DA3BBD"/>
<g clip-path="url(#clip0_8_48)">
<path d="M40.75 103.125C40.75 104.918 41.332 106.574 42.3125 107.918L37.3672 112.867C36.8789 113.355 36.8789 114.148 37.3672 114.637C37.8555 115.125 38.6484 115.125 39.1367 114.637L44.082 109.688C45.4258 110.672 47.082 111.25 48.875 111.25C53.3633 111.25 57 107.613 57 103.125C57 98.6367 53.3633 95 48.875 95C44.3867 95 40.75 98.6367 40.75 103.125ZM48.875 108.75C48.1363 108.75 47.4049 108.605 46.7224 108.322C46.0399 108.039 45.4199 107.625 44.8975 107.102C44.3752 106.58 43.9609 105.96 43.6782 105.278C43.3955 104.595 43.25 103.864 43.25 103.125C43.25 102.386 43.3955 101.655 43.6782 100.972C43.9609 100.29 44.3752 99.6699 44.8975 99.1475C45.4199 98.6252 46.0399 98.2109 46.7224 97.9282C47.4049 97.6455 48.1363 97.5 48.875 97.5C49.6137 97.5 50.3451 97.6455 51.0276 97.9282C51.7101 98.2109 52.3301 98.6252 52.8525 99.1475C53.3748 99.6699 53.7891 100.29 54.0718 100.972C54.3545 101.655 54.5 102.386 54.5 103.125C54.5 103.864 54.3545 104.595 54.0718 105.278C53.7891 105.96 53.3748 106.58 52.8525 107.102C52.3301 107.625 51.7101 108.039 51.0276 108.322C50.3451 108.605 49.6137 108.75 48.875 108.75Z" fill="#051340"/>
</g>
<path d="M65.89 101.97V104.01H68.29V104.94H65.89V107.07H68.59V108H64.75V101.04H68.59V101.97H65.89ZM72.7741 102.4C73.2075 102.4 73.5941 102.49 73.9341 102.67C74.2808 102.85 74.5508 103.117 74.7441 103.47C74.9375 103.823 75.0341 104.25 75.0341 104.75V108H73.9041V104.92C73.9041 104.427 73.7808 104.05 73.5341 103.79C73.2875 103.523 72.9508 103.39 72.5241 103.39C72.0975 103.39 71.7575 103.523 71.5041 103.79C71.2575 104.05 71.1341 104.427 71.1341 104.92V108H69.9941V102.49H71.1341V103.12C71.3208 102.893 71.5575 102.717 71.8441 102.59C72.1375 102.463 72.4475 102.4 72.7741 102.4ZM76.1083 105.24C76.1083 104.673 76.2216 104.177 76.4483 103.75C76.6816 103.317 77.0016 102.983 77.4083 102.75C77.8149 102.517 78.2816 102.4 78.8083 102.4C79.4749 102.4 80.0249 102.56 80.4583 102.88C80.8983 103.193 81.1949 103.643 81.3483 104.23H80.1183C80.0183 103.957 79.8583 103.743 79.6383 103.59C79.4183 103.437 79.1416 103.36 78.8083 103.36C78.3416 103.36 77.9683 103.527 77.6883 103.86C77.4149 104.187 77.2783 104.647 77.2783 105.24C77.2783 105.833 77.4149 106.297 77.6883 106.63C77.9683 106.963 78.3416 107.13 78.8083 107.13C79.4683 107.13 79.9049 106.84 80.1183 106.26H81.3483C81.1883 106.82 80.8883 107.267 80.4483 107.6C80.0083 107.927 79.4616 108.09 78.8083 108.09C78.2816 108.09 77.8149 107.973 77.4083 107.74C77.0016 107.5 76.6816 107.167 76.4483 106.74C76.2216 106.307 76.1083 105.807 76.1083 105.24ZM84.8744 108.09C84.3544 108.09 83.8844 107.973 83.4644 107.74C83.0444 107.5 82.7144 107.167 82.4744 106.74C82.2344 106.307 82.1144 105.807 82.1144 105.24C82.1144 104.68 82.2377 104.183 82.4844 103.75C82.731 103.317 83.0677 102.983 83.4944 102.75C83.921 102.517 84.3977 102.4 84.9244 102.4C85.451 102.4 85.9277 102.517 86.3544 102.75C86.781 102.983 87.1177 103.317 87.3644 103.75C87.611 104.183 87.7344 104.68 87.7344 105.24C87.7344 105.8 87.6077 106.297 87.3544 106.73C87.101 107.163 86.7544 107.5 86.3144 107.74C85.881 107.973 85.401 108.09 84.8744 108.09ZM84.8744 107.1C85.1677 107.1 85.441 107.03 85.6944 106.89C85.9544 106.75 86.1644 106.54 86.3244 106.26C86.4844 105.98 86.5644 105.64 86.5644 105.24C86.5644 104.84 86.4877 104.503 86.3344 104.23C86.181 103.95 85.9777 103.74 85.7244 103.6C85.471 103.46 85.1977 103.39 84.9044 103.39C84.611 103.39 84.3377 103.46 84.0844 103.6C83.8377 103.74 83.641 103.95 83.4944 104.23C83.3477 104.503 83.2744 104.84 83.2744 105.24C83.2744 105.833 83.4244 106.293 83.7244 106.62C84.031 106.94 84.4144 107.1 84.8744 107.1ZM91.6413 102.4C92.0747 102.4 92.4613 102.49 92.8013 102.67C93.148 102.85 93.418 103.117 93.6113 103.47C93.8047 103.823 93.9013 104.25 93.9013 104.75V108H92.7713V104.92C92.7713 104.427 92.648 104.05 92.4013 103.79C92.1547 103.523 91.818 103.39 91.3913 103.39C90.9647 103.39 90.6247 103.523 90.3713 103.79C90.1247 104.05 90.0013 104.427 90.0013 104.92V108H88.8613V102.49H90.0013V103.12C90.188 102.893 90.4247 102.717 90.7113 102.59C91.0047 102.463 91.3147 102.4 91.6413 102.4ZM96.6855 103.42V106.47C96.6855 106.677 96.7321 106.827 96.8255 106.92C96.9255 107.007 97.0921 107.05 97.3255 107.05H98.0255V108H97.1255C96.6121 108 96.2188 107.88 95.9455 107.64C95.6721 107.4 95.5355 107.01 95.5355 106.47V103.42H94.8855V102.49H95.5355V101.12H96.6855V102.49H98.0255V103.42H96.6855ZM100.216 103.29C100.383 103.01 100.603 102.793 100.876 102.64C101.156 102.48 101.486 102.4 101.866 102.4V103.58H101.576C101.13 103.58 100.79 103.693 100.556 103.92C100.33 104.147 100.216 104.54 100.216 105.1V108H99.0762V102.49H100.216V103.29ZM107.964 105.11C107.964 105.317 107.951 105.503 107.924 105.67H103.714C103.747 106.11 103.911 106.463 104.204 106.73C104.497 106.997 104.857 107.13 105.284 107.13C105.897 107.13 106.331 106.873 106.584 106.36H107.814C107.647 106.867 107.344 107.283 106.904 107.61C106.471 107.93 105.931 108.09 105.284 108.09C104.757 108.09 104.284 107.973 103.864 107.74C103.451 107.5 103.124 107.167 102.884 106.74C102.651 106.307 102.534 105.807 102.534 105.24C102.534 104.673 102.647 104.177 102.874 103.75C103.107 103.317 103.431 102.983 103.844 102.75C104.264 102.517 104.744 102.4 105.284 102.4C105.804 102.4 106.267 102.513 106.674 102.74C107.081 102.967 107.397 103.287 107.624 103.7C107.851 104.107 107.964 104.577 107.964 105.11ZM106.774 104.75C106.767 104.33 106.617 103.993 106.324 103.74C106.031 103.487 105.667 103.36 105.234 103.36C104.841 103.36 104.504 103.487 104.224 103.74C103.944 103.987 103.777 104.323 103.724 104.75H106.774ZM113.684 108.09C113.25 108.09 112.86 108.013 112.514 107.86C112.174 107.7 111.904 107.487 111.704 107.22C111.504 106.947 111.397 106.643 111.384 106.31H112.564C112.584 106.543 112.694 106.74 112.894 106.9C113.1 107.053 113.357 107.13 113.664 107.13C113.984 107.13 114.23 107.07 114.404 106.95C114.584 106.823 114.674 106.663 114.674 106.47C114.674 106.263 114.574 106.11 114.374 106.01C114.18 105.91 113.87 105.8 113.444 105.68C113.03 105.567 112.694 105.457 112.434 105.35C112.174 105.243 111.947 105.08 111.754 104.86C111.567 104.64 111.474 104.35 111.474 103.99C111.474 103.697 111.56 103.43 111.734 103.19C111.907 102.943 112.154 102.75 112.474 102.61C112.8 102.47 113.174 102.4 113.594 102.4C114.22 102.4 114.724 102.56 115.104 102.88C115.49 103.193 115.697 103.623 115.724 104.17H114.584C114.564 103.923 114.464 103.727 114.284 103.58C114.104 103.433 113.86 103.36 113.554 103.36C113.254 103.36 113.024 103.417 112.864 103.53C112.704 103.643 112.624 103.793 112.624 103.98C112.624 104.127 112.677 104.25 112.784 104.35C112.89 104.45 113.02 104.53 113.174 104.59C113.327 104.643 113.554 104.713 113.854 104.8C114.254 104.907 114.58 105.017 114.834 105.13C115.094 105.237 115.317 105.397 115.504 105.61C115.69 105.823 115.787 106.107 115.794 106.46C115.794 106.773 115.707 107.053 115.534 107.3C115.36 107.547 115.114 107.74 114.794 107.88C114.48 108.02 114.11 108.09 113.684 108.09ZM122.075 105.11C122.075 105.317 122.062 105.503 122.035 105.67H117.825C117.859 106.11 118.022 106.463 118.315 106.73C118.609 106.997 118.969 107.13 119.395 107.13C120.009 107.13 120.442 106.873 120.695 106.36H121.925C121.759 106.867 121.455 107.283 121.015 107.61C120.582 107.93 120.042 108.09 119.395 108.09C118.869 108.09 118.395 107.973 117.975 107.74C117.562 107.5 117.235 107.167 116.995 106.74C116.762 106.307 116.645 105.807 116.645 105.24C116.645 104.673 116.759 104.177 116.985 103.75C117.219 103.317 117.542 102.983 117.955 102.75C118.375 102.517 118.855 102.4 119.395 102.4C119.915 102.4 120.379 102.513 120.785 102.74C121.192 102.967 121.509 103.287 121.735 103.7C121.962 104.107 122.075 104.577 122.075 105.11ZM120.885 104.75C120.879 104.33 120.729 103.993 120.435 103.74C120.142 103.487 119.779 103.36 119.345 103.36C118.952 103.36 118.615 103.487 118.335 103.74C118.055 103.987 117.889 104.323 117.835 104.75H120.885ZM128.187 102.49V108H127.047V107.35C126.867 107.577 126.631 107.757 126.337 107.89C126.051 108.017 125.744 108.08 125.417 108.08C124.984 108.08 124.594 107.99 124.247 107.81C123.907 107.63 123.637 107.363 123.437 107.01C123.244 106.657 123.147 106.23 123.147 105.73V102.49H124.277V105.56C124.277 106.053 124.401 106.433 124.647 106.7C124.894 106.96 125.231 107.09 125.657 107.09C126.084 107.09 126.421 106.96 126.667 106.7C126.921 106.433 127.047 106.053 127.047 105.56V102.49H128.187ZM131.909 105.22C131.909 104.667 132.022 104.177 132.249 103.75C132.482 103.323 132.796 102.993 133.189 102.76C133.589 102.52 134.029 102.4 134.509 102.4C134.942 102.4 135.319 102.487 135.639 102.66C135.966 102.827 136.226 103.037 136.419 103.29V102.49H137.569V108H136.419V107.18C136.226 107.44 135.962 107.657 135.629 107.83C135.296 108.003 134.916 108.09 134.489 108.09C134.016 108.09 133.582 107.97 133.189 107.73C132.796 107.483 132.482 107.143 132.249 106.71C132.022 106.27 131.909 105.773 131.909 105.22ZM136.419 105.24C136.419 104.86 136.339 104.53 136.179 104.25C136.026 103.97 135.822 103.757 135.569 103.61C135.316 103.463 135.042 103.39 134.749 103.39C134.456 103.39 134.182 103.463 133.929 103.61C133.676 103.75 133.469 103.96 133.309 104.24C133.156 104.513 133.079 104.84 133.079 105.22C133.079 105.6 133.156 105.933 133.309 106.22C133.469 106.507 133.676 106.727 133.929 106.88C134.189 107.027 134.462 107.1 134.749 107.1C135.042 107.1 135.316 107.027 135.569 106.88C135.822 106.733 136.026 106.52 136.179 106.24C136.339 105.953 136.419 105.62 136.419 105.24ZM140.206 103.29C140.373 103.01 140.593 102.793 140.866 102.64C141.146 102.48 141.476 102.4 141.856 102.4V103.58H141.566C141.12 103.58 140.78 103.693 140.546 103.92C140.32 104.147 140.206 104.54 140.206 105.1V108H139.066V102.49H140.206V103.29ZM144.234 103.42V106.47C144.234 106.677 144.281 106.827 144.374 106.92C144.474 107.007 144.641 107.05 144.874 107.05H145.574V108H144.674C144.161 108 143.768 107.88 143.494 107.64C143.221 107.4 143.084 107.01 143.084 106.47V103.42H142.434V102.49H143.084V101.12H144.234V102.49H145.574V103.42H144.234ZM147.205 101.76C146.998 101.76 146.825 101.69 146.685 101.55C146.545 101.41 146.475 101.237 146.475 101.03C146.475 100.823 146.545 100.65 146.685 100.51C146.825 100.37 146.998 100.3 147.205 100.3C147.405 100.3 147.575 100.37 147.715 100.51C147.855 100.65 147.925 100.823 147.925 101.03C147.925 101.237 147.855 101.41 147.715 101.55C147.575 101.69 147.405 101.76 147.205 101.76ZM147.765 102.49V108H146.625V102.49H147.765ZM151.262 108.09C150.828 108.09 150.438 108.013 150.092 107.86C149.752 107.7 149.482 107.487 149.282 107.22C149.082 106.947 148.975 106.643 148.962 106.31H150.142C150.162 106.543 150.272 106.74 150.472 106.9C150.678 107.053 150.935 107.13 151.242 107.13C151.562 107.13 151.808 107.07 151.982 106.95C152.162 106.823 152.252 106.663 152.252 106.47C152.252 106.263 152.152 106.11 151.952 106.01C151.758 105.91 151.448 105.8 151.022 105.68C150.608 105.567 150.272 105.457 150.012 105.35C149.752 105.243 149.525 105.08 149.332 104.86C149.145 104.64 149.052 104.35 149.052 103.99C149.052 103.697 149.138 103.43 149.312 103.19C149.485 102.943 149.732 102.75 150.052 102.61C150.378 102.47 150.752 102.4 151.172 102.4C151.798 102.4 152.302 102.56 152.682 102.88C153.068 103.193 153.275 103.623 153.302 104.17H152.162C152.142 103.923 152.042 103.727 151.862 103.58C151.682 103.433 151.438 103.36 151.132 103.36C150.832 103.36 150.602 103.417 150.442 103.53C150.282 103.643 150.202 103.793 150.202 103.98C150.202 104.127 150.255 104.25 150.362 104.35C150.468 104.45 150.598 104.53 150.752 104.59C150.905 104.643 151.132 104.713 151.432 104.8C151.832 104.907 152.158 105.017 152.412 105.13C152.672 105.237 152.895 105.397 153.082 105.61C153.268 105.823 153.365 106.107 153.372 106.46C153.372 106.773 153.285 107.053 153.112 107.3C152.938 107.547 152.692 107.74 152.372 107.88C152.058 108.02 151.688 108.09 151.262 108.09ZM155.934 103.42V106.47C155.934 106.677 155.98 106.827 156.074 106.92C156.174 107.007 156.34 107.05 156.574 107.05H157.274V108H156.374C155.86 108 155.467 107.88 155.194 107.64C154.92 107.4 154.784 107.01 154.784 106.47V103.42H154.134V102.49H154.784V101.12H155.934V102.49H157.274V103.42H155.934ZM157.944 105.22C157.944 104.667 158.058 104.177 158.284 103.75C158.518 103.323 158.831 102.993 159.224 102.76C159.624 102.52 160.064 102.4 160.544 102.4C160.978 102.4 161.354 102.487 161.674 102.66C162.001 102.827 162.261 103.037 162.454 103.29V102.49H163.604V108H162.454V107.18C162.261 107.44 161.998 107.657 161.664 107.83C161.331 108.003 160.951 108.09 160.524 108.09C160.051 108.09 159.618 107.97 159.224 107.73C158.831 107.483 158.518 107.143 158.284 106.71C158.058 106.27 157.944 105.773 157.944 105.22ZM162.454 105.24C162.454 104.86 162.374 104.53 162.214 104.25C162.061 103.97 161.858 103.757 161.604 103.61C161.351 103.463 161.078 103.39 160.784 103.39C160.491 103.39 160.218 103.463 159.964 103.61C159.711 103.75 159.504 103.96 159.344 104.24C159.191 104.513 159.114 104.84 159.114 105.22C159.114 105.6 159.191 105.933 159.344 106.22C159.504 106.507 159.711 106.727 159.964 106.88C160.224 107.027 160.498 107.1 160.784 107.1C161.078 107.1 161.351 107.027 161.604 106.88C161.858 106.733 162.061 106.52 162.214 106.24C162.374 105.953 162.454 105.62 162.454 105.24ZM170.009 103.42H168.989V108H167.839V103.42H167.189V102.49H167.839V102.1C167.839 101.467 168.006 101.007 168.339 100.72C168.679 100.427 169.209 100.28 169.929 100.28V101.23C169.583 101.23 169.339 101.297 169.199 101.43C169.059 101.557 168.989 101.78 168.989 102.1V102.49H170.009V103.42ZM170.64 105.22C170.64 104.667 170.753 104.177 170.98 103.75C171.213 103.323 171.526 102.993 171.92 102.76C172.32 102.52 172.76 102.4 173.24 102.4C173.673 102.4 174.05 102.487 174.37 102.66C174.696 102.827 174.956 103.037 175.15 103.29V102.49H176.3V108H175.15V107.18C174.956 107.44 174.693 107.657 174.36 107.83C174.026 108.003 173.646 108.09 173.22 108.09C172.746 108.09 172.313 107.97 171.92 107.73C171.526 107.483 171.213 107.143 170.98 106.71C170.753 106.27 170.64 105.773 170.64 105.22ZM175.15 105.24C175.15 104.86 175.07 104.53 174.91 104.25C174.756 103.97 174.553 103.757 174.3 103.61C174.046 103.463 173.773 103.39 173.48 103.39C173.186 103.39 172.913 103.463 172.66 103.61C172.406 103.75 172.2 103.96 172.04 104.24C171.886 104.513 171.81 104.84 171.81 105.22C171.81 105.6 171.886 105.933 172.04 106.22C172.2 106.507 172.406 106.727 172.66 106.88C172.92 107.027 173.193 107.1 173.48 107.1C173.773 107.1 174.046 107.027 174.3 106.88C174.553 106.733 174.756 106.52 174.91 106.24C175.07 105.953 175.15 105.62 175.15 105.24ZM179.927 106.98L181.487 102.49H182.697L180.597 108H179.237L177.147 102.49H178.367L179.927 106.98ZM185.949 108.09C185.429 108.09 184.959 107.973 184.539 107.74C184.119 107.5 183.789 107.167 183.549 106.74C183.309 106.307 183.189 105.807 183.189 105.24C183.189 104.68 183.312 104.183 183.559 103.75C183.805 103.317 184.142 102.983 184.569 102.75C184.995 102.517 185.472 102.4 185.999 102.4C186.525 102.4 187.002 102.517 187.429 102.75C187.855 102.983 188.192 103.317 188.439 103.75C188.685 104.183 188.809 104.68 188.809 105.24C188.809 105.8 188.682 106.297 188.429 106.73C188.175 107.163 187.829 107.5 187.389 107.74C186.955 107.973 186.475 108.09 185.949 108.09ZM185.949 107.1C186.242 107.1 186.515 107.03 186.769 106.89C187.029 106.75 187.239 106.54 187.399 106.26C187.559 105.98 187.639 105.64 187.639 105.24C187.639 104.84 187.562 104.503 187.409 104.23C187.255 103.95 187.052 103.74 186.799 103.6C186.545 103.46 186.272 103.39 185.979 103.39C185.685 103.39 185.412 103.46 185.159 103.6C184.912 103.74 184.715 103.95 184.569 104.23C184.422 104.503 184.349 104.84 184.349 105.24C184.349 105.833 184.499 106.293 184.799 106.62C185.105 106.94 185.489 107.1 185.949 107.1ZM191.076 103.29C191.242 103.01 191.462 102.793 191.736 102.64C192.016 102.48 192.346 102.4 192.726 102.4V103.58H192.436C191.989 103.58 191.649 103.693 191.416 103.92C191.189 104.147 191.076 104.54 191.076 105.1V108H189.936V102.49H191.076V103.29ZM194.353 101.76C194.147 101.76 193.973 101.69 193.833 101.55C193.693 101.41 193.623 101.237 193.623 101.03C193.623 100.823 193.693 100.65 193.833 100.51C193.973 100.37 194.147 100.3 194.353 100.3C194.553 100.3 194.723 100.37 194.863 100.51C195.003 100.65 195.073 100.823 195.073 101.03C195.073 101.237 195.003 101.41 194.863 101.55C194.723 101.69 194.553 101.76 194.353 101.76ZM194.913 102.49V108H193.773V102.49H194.913ZM197.74 103.42V106.47C197.74 106.677 197.787 106.827 197.88 106.92C197.98 107.007 198.147 107.05 198.38 107.05H199.08V108H198.18C197.667 108 197.273 107.88 197 107.64C196.727 107.4 196.59 107.01 196.59 106.47V103.42H195.94V102.49H196.59V101.12H197.74V102.49H199.08V103.42H197.74ZM202.521 108.09C202.001 108.09 201.531 107.973 201.111 107.74C200.691 107.5 200.361 107.167 200.121 106.74C199.881 106.307 199.761 105.807 199.761 105.24C199.761 104.68 199.884 104.183 200.131 103.75C200.378 103.317 200.714 102.983 201.141 102.75C201.568 102.517 202.044 102.4 202.571 102.4C203.098 102.4 203.574 102.517 204.001 102.75C204.428 102.983 204.764 103.317 205.011 103.75C205.258 104.183 205.381 104.68 205.381 105.24C205.381 105.8 205.254 106.297 205.001 106.73C204.748 107.163 204.401 107.5 203.961 107.74C203.528 107.973 203.048 108.09 202.521 108.09ZM202.521 107.1C202.814 107.1 203.088 107.03 203.341 106.89C203.601 106.75 203.811 106.54 203.971 106.26C204.131 105.98 204.211 105.64 204.211 105.24C204.211 104.84 204.134 104.503 203.981 104.23C203.828 103.95 203.624 103.74 203.371 103.6C203.118 103.46 202.844 103.39 202.551 103.39C202.258 103.39 201.984 103.46 201.731 103.6C201.484 103.74 201.288 103.95 201.141 104.23C200.994 104.503 200.921 104.84 200.921 105.24C200.921 105.833 201.071 106.293 201.371 106.62C201.678 106.94 202.061 107.1 202.521 107.1Z" fill="#0E2F8C"/>
<path d="M22 205C22 199.477 26.4772 195 32 195H87C92.5229 195 97 199.477 97 205V270H22V205Z" fill="#D9D9D9"/>
<path d="M111 205C111 199.477 115.477 195 121 195H176C181.523 195 186 199.477 186 205V270H111V205Z" fill="#D9D9D9"/>
<path d="M199 205C199 199.477 203.477 195 209 195H222C227.523 195 232 199.477 232 205V270H199V205Z" fill="#D9D9D9"/>
<defs>
<clipPath id="clip0_8_48">
<rect width="20" height="20" fill="white" transform="matrix(-1 0 0 1 57 95)"/>
</clipPath>
</defs>
</svg>
