<svg width="600" height="280" viewBox="0 0 600 280" fill="none" xmlns="http://www.w3.org/2000/svg">
<rect width="600" height="280" rx="20" fill="#020C27"/>
<path d="M53.54 40.02C53.54 38.66 53.8534 37.44 54.48 36.36C55.12 35.28 55.98 34.44 57.06 33.84C58.1534 33.2267 59.3467 32.92 60.64 32.92C62.12 32.92 63.4334 33.2867 64.58 34.02C65.74 34.74 66.58 35.7667 67.1 37.1H64.36C64 36.3667 63.5 35.82 62.86 35.46C62.22 35.1 61.48 34.92 60.64 34.92C59.72 34.92 58.9 35.1267 58.18 35.54C57.46 35.9533 56.8934 36.5467 56.48 37.32C56.08 38.0933 55.88 38.9933 55.88 40.02C55.88 41.0467 56.08 41.9467 56.48 42.72C56.8934 43.4933 57.46 44.0933 58.18 44.52C58.9 44.9333 59.72 45.14 60.64 45.14C61.48 45.14 62.22 44.96 62.86 44.6C63.5 44.24 64 43.6933 64.36 42.96H67.1C66.58 44.2933 65.74 45.32 64.58 46.04C63.4334 46.76 62.12 47.12 60.64 47.12C59.3334 47.12 58.14 46.82 57.06 46.22C55.98 45.6067 55.12 44.76 54.48 43.68C53.8534 42.6 53.54 41.38 53.54 40.02ZM69.0088 41.44C69.0088 40.3333 69.2355 39.3533 69.6888 38.5C70.1555 37.6467 70.7821 36.9867 71.5688 36.52C72.3688 36.04 73.2488 35.8 74.2088 35.8C75.0755 35.8 75.8288 35.9733 76.4688 36.32C77.1221 36.6533 77.6421 37.0733 78.0288 37.58V35.98H80.3288V47H78.0288V45.36C77.6421 45.88 77.1155 46.3133 76.4488 46.66C75.7821 47.0067 75.0221 47.18 74.1688 47.18C73.2221 47.18 72.3555 46.94 71.5688 46.46C70.7821 45.9667 70.1555 45.2867 69.6888 44.42C69.2355 43.54 69.0088 42.5467 69.0088 41.44ZM78.0288 41.48C78.0288 40.72 77.8688 40.06 77.5488 39.5C77.2421 38.94 76.8355 38.5133 76.3288 38.22C75.8221 37.9267 75.2755 37.78 74.6888 37.78C74.1021 37.78 73.5555 37.9267 73.0488 38.22C72.5421 38.5 72.1288 38.92 71.8088 39.48C71.5021 40.0267 71.3488 40.68 71.3488 41.44C71.3488 42.2 71.5021 42.8667 71.8088 43.44C72.1288 44.0133 72.5421 44.4533 73.0488 44.76C73.5688 45.0533 74.1155 45.2 74.6888 45.2C75.2755 45.2 75.8221 45.0533 76.3288 44.76C76.8355 44.4667 77.2421 44.04 77.5488 43.48C77.8688 42.9067 78.0288 42.24 78.0288 41.48ZM82.5635 41.44C82.5635 40.3333 82.7902 39.3533 83.2435 38.5C83.7102 37.6467 84.3368 36.9867 85.1235 36.52C85.9235 36.04 86.8102 35.8 87.7835 35.8C88.5035 35.8 89.2102 35.96 89.9035 36.28C90.6102 36.5867 91.1702 37 91.5835 37.52V32.2H93.8835V47H91.5835V45.34C91.2102 45.8733 90.6902 46.3133 90.0235 46.66C89.3702 47.0067 88.6168 47.18 87.7635 47.18C86.8035 47.18 85.9235 46.94 85.1235 46.46C84.3368 45.9667 83.7102 45.2867 83.2435 44.42C82.7902 43.54 82.5635 42.5467 82.5635 41.44ZM91.5835 41.48C91.5835 40.72 91.4235 40.06 91.1035 39.5C90.7968 38.94 90.3902 38.5133 89.8835 38.22C89.3768 37.9267 88.8302 37.78 88.2435 37.78C87.6568 37.78 87.1102 37.9267 86.6035 38.22C86.0968 38.5 85.6835 38.92 85.3635 39.48C85.0568 40.0267 84.9035 40.68 84.9035 41.44C84.9035 42.2 85.0568 42.8667 85.3635 43.44C85.6835 44.0133 86.0968 44.4533 86.6035 44.76C87.1235 45.0533 87.6702 45.2 88.2435 45.2C88.8302 45.2 89.3768 45.0533 89.8835 44.76C90.3902 44.4667 90.7968 44.04 91.1035 43.48C91.4235 42.9067 91.5835 42.24 91.5835 41.48ZM96.1182 41.44C96.1182 40.3333 96.3448 39.3533 96.7982 38.5C97.2648 37.6467 97.8915 36.9867 98.6782 36.52C99.4782 36.04 100.358 35.8 101.318 35.8C102.185 35.8 102.938 35.9733 103.578 36.32C104.232 36.6533 104.752 37.0733 105.138 37.58V35.98H107.438V47H105.138V45.36C104.752 45.88 104.225 46.3133 103.558 46.66C102.892 47.0067 102.132 47.18 101.278 47.18C100.332 47.18 99.4648 46.94 98.6782 46.46C97.8915 45.9667 97.2648 45.2867 96.7982 44.42C96.3448 43.54 96.1182 42.5467 96.1182 41.44ZM105.138 41.48C105.138 40.72 104.978 40.06 104.658 39.5C104.352 38.94 103.945 38.5133 103.438 38.22C102.932 37.9267 102.385 37.78 101.798 37.78C101.212 37.78 100.665 37.9267 100.158 38.22C99.6515 38.5 99.2382 38.92 98.9182 39.48C98.6115 40.0267 98.4582 40.68 98.4582 41.44C98.4582 42.2 98.6115 42.8667 98.9182 43.44C99.2382 44.0133 99.6515 44.4533 100.158 44.76C100.678 45.0533 101.225 45.2 101.798 45.2C102.385 45.2 102.932 45.0533 103.438 44.76C103.945 44.4667 104.352 44.04 104.658 43.48C104.978 42.9067 105.138 42.24 105.138 41.48ZM114.433 47.18C113.566 47.18 112.786 47.0267 112.093 46.72C111.413 46.4 110.873 45.9733 110.473 45.44C110.073 44.8933 109.86 44.2867 109.833 43.62H112.193C112.233 44.0867 112.453 44.48 112.853 44.8C113.266 45.1067 113.78 45.26 114.393 45.26C115.033 45.26 115.526 45.14 115.873 44.9C116.233 44.6467 116.413 44.3267 116.413 43.94C116.413 43.5267 116.213 43.22 115.813 43.02C115.426 42.82 114.806 42.6 113.953 42.36C113.126 42.1333 112.453 41.9133 111.933 41.7C111.413 41.4867 110.96 41.16 110.573 40.72C110.2 40.28 110.013 39.7 110.013 38.98C110.013 38.3933 110.186 37.86 110.533 37.38C110.88 36.8867 111.373 36.5 112.013 36.22C112.666 35.94 113.413 35.8 114.253 35.8C115.506 35.8 116.513 36.12 117.273 36.76C118.046 37.3867 118.46 38.2467 118.513 39.34H116.233C116.193 38.8467 115.993 38.4533 115.633 38.16C115.273 37.8667 114.786 37.72 114.173 37.72C113.573 37.72 113.113 37.8333 112.793 38.06C112.473 38.2867 112.313 38.5867 112.313 38.96C112.313 39.2533 112.42 39.5 112.633 39.7C112.846 39.9 113.106 40.06 113.413 40.18C113.72 40.2867 114.173 40.4267 114.773 40.6C115.573 40.8133 116.226 41.0333 116.733 41.26C117.253 41.4733 117.7 41.7933 118.073 42.22C118.446 42.6467 118.64 43.2133 118.653 43.92C118.653 44.5467 118.48 45.1067 118.133 45.6C117.786 46.0933 117.293 46.48 116.653 46.76C116.026 47.04 115.286 47.18 114.433 47.18ZM123.776 37.84V43.94C123.776 44.3533 123.87 44.6533 124.056 44.84C124.256 45.0133 124.59 45.1 125.056 45.1H126.456V47H124.656C123.63 47 122.843 46.76 122.296 46.28C121.75 45.8 121.476 45.02 121.476 43.94V37.84H120.176V35.98H121.476V33.24H123.776V35.98H126.456V37.84H123.776ZM130.838 37.58C131.171 37.02 131.611 36.5867 132.158 36.28C132.718 35.96 133.378 35.8 134.138 35.8V38.16H133.558C132.665 38.16 131.985 38.3867 131.518 38.84C131.065 39.2933 130.838 40.08 130.838 41.2V47H128.558V35.98H130.838V37.58ZM146.334 41.22C146.334 41.6333 146.307 42.0067 146.254 42.34H137.834C137.9 43.22 138.227 43.9267 138.814 44.46C139.4 44.9933 140.12 45.26 140.974 45.26C142.2 45.26 143.067 44.7467 143.574 43.72H146.034C145.7 44.7333 145.094 45.5667 144.214 46.22C143.347 46.86 142.267 47.18 140.974 47.18C139.92 47.18 138.974 46.9467 138.134 46.48C137.307 46 136.654 45.3333 136.174 44.48C135.707 43.6133 135.474 42.6133 135.474 41.48C135.474 40.3467 135.7 39.3533 136.154 38.5C136.62 37.6333 137.267 36.9667 138.094 36.5C138.934 36.0333 139.894 35.8 140.974 35.8C142.014 35.8 142.94 36.0267 143.754 36.48C144.567 36.9333 145.2 37.5733 145.654 38.4C146.107 39.2133 146.334 40.1533 146.334 41.22ZM143.954 40.5C143.94 39.66 143.64 38.9867 143.054 38.48C142.467 37.9733 141.74 37.72 140.874 37.72C140.087 37.72 139.414 37.9733 138.854 38.48C138.294 38.9733 137.96 39.6467 137.854 40.5H143.954ZM157.037 38.8V40.72H148.817V38.8H157.037ZM164.277 47.18C163.41 47.18 162.63 47.0267 161.937 46.72C161.257 46.4 160.717 45.9733 160.317 45.44C159.917 44.8933 159.703 44.2867 159.677 43.62H162.037C162.077 44.0867 162.297 44.48 162.697 44.8C163.11 45.1067 163.623 45.26 164.237 45.26C164.877 45.26 165.37 45.14 165.717 44.9C166.077 44.6467 166.257 44.3267 166.257 43.94C166.257 43.5267 166.057 43.22 165.657 43.02C165.27 42.82 164.65 42.6 163.797 42.36C162.97 42.1333 162.297 41.9133 161.777 41.7C161.257 41.4867 160.803 41.16 160.417 40.72C160.043 40.28 159.857 39.7 159.857 38.98C159.857 38.3933 160.03 37.86 160.377 37.38C160.723 36.8867 161.217 36.5 161.857 36.22C162.51 35.94 163.257 35.8 164.097 35.8C165.35 35.8 166.357 36.12 167.117 36.76C167.89 37.3867 168.303 38.2467 168.357 39.34H166.077C166.037 38.8467 165.837 38.4533 165.477 38.16C165.117 37.8667 164.63 37.72 164.017 37.72C163.417 37.72 162.957 37.8333 162.637 38.06C162.317 38.2867 162.157 38.5867 162.157 38.96C162.157 39.2533 162.263 39.5 162.477 39.7C162.69 39.9 162.95 40.06 163.257 40.18C163.563 40.2867 164.017 40.4267 164.617 40.6C165.417 40.8133 166.07 41.0333 166.577 41.26C167.097 41.4733 167.543 41.7933 167.917 42.22C168.29 42.6467 168.483 43.2133 168.497 43.92C168.497 44.5467 168.323 45.1067 167.977 45.6C167.63 46.0933 167.137 46.48 166.497 46.76C165.87 47.04 165.13 47.18 164.277 47.18ZM181.06 41.22C181.06 41.6333 181.034 42.0067 180.98 42.34H172.56C172.627 43.22 172.954 43.9267 173.54 44.46C174.127 44.9933 174.847 45.26 175.7 45.26C176.927 45.26 177.794 44.7467 178.3 43.72H180.76C180.427 44.7333 179.82 45.5667 178.94 46.22C178.074 46.86 176.994 47.18 175.7 47.18C174.647 47.18 173.7 46.9467 172.86 46.48C172.034 46 171.38 45.3333 170.9 44.48C170.434 43.6133 170.2 42.6133 170.2 41.48C170.2 40.3467 170.427 39.3533 170.88 38.5C171.347 37.6333 171.994 36.9667 172.82 36.5C173.66 36.0333 174.62 35.8 175.7 35.8C176.74 35.8 177.667 36.0267 178.48 36.48C179.294 36.9333 179.927 37.5733 180.38 38.4C180.834 39.2133 181.06 40.1533 181.06 41.22ZM178.68 40.5C178.667 39.66 178.367 38.9867 177.78 38.48C177.194 37.9733 176.467 37.72 175.6 37.72C174.814 37.72 174.14 37.9733 173.58 38.48C173.02 38.9733 172.687 39.6467 172.58 40.5H178.68ZM194.059 35.8C194.926 35.8 195.699 35.98 196.379 36.34C197.073 36.7 197.613 37.2333 197.999 37.94C198.386 38.6467 198.579 39.5 198.579 40.5V47H196.319V40.84C196.319 39.8533 196.073 39.1 195.579 38.58C195.086 38.0467 194.413 37.78 193.559 37.78C192.706 37.78 192.026 38.0467 191.519 38.58C191.026 39.1 190.779 39.8533 190.779 40.84V47H188.499V35.98H190.779V37.24C191.153 36.7867 191.626 36.4333 192.199 36.18C192.786 35.9267 193.406 35.8 194.059 35.8ZM206.268 47.18C205.228 47.18 204.288 46.9467 203.448 46.48C202.608 46 201.948 45.3333 201.468 44.48C200.988 43.6133 200.748 42.6133 200.748 41.48C200.748 40.36 200.994 39.3667 201.488 38.5C201.981 37.6333 202.654 36.9667 203.508 36.5C204.361 36.0333 205.314 35.8 206.368 35.8C207.421 35.8 208.374 36.0333 209.228 36.5C210.081 36.9667 210.754 37.6333 211.248 38.5C211.741 39.3667 211.988 40.36 211.988 41.48C211.988 42.6 211.734 43.5933 211.228 44.46C210.721 45.3267 210.028 46 209.148 46.48C208.281 46.9467 207.321 47.18 206.268 47.18ZM206.268 45.2C206.854 45.2 207.401 45.06 207.908 44.78C208.428 44.5 208.848 44.08 209.168 43.52C209.488 42.96 209.648 42.28 209.648 41.48C209.648 40.68 209.494 40.0067 209.188 39.46C208.881 38.9 208.474 38.48 207.968 38.2C207.461 37.92 206.914 37.78 206.328 37.78C205.741 37.78 205.194 37.92 204.688 38.2C204.194 38.48 203.801 38.9 203.508 39.46C203.214 40.0067 203.068 40.68 203.068 41.48C203.068 42.6667 203.368 43.5867 203.968 44.24C204.581 44.88 205.348 45.2 206.268 45.2ZM227.817 44.16H221.997L220.997 47H218.617L223.597 33.08H226.237L231.217 47H228.817L227.817 44.16ZM227.177 42.3L224.917 35.84L222.637 42.3H227.177ZM235.662 37.6C236.049 37.0933 236.575 36.6667 237.242 36.32C237.909 35.9733 238.662 35.8 239.502 35.8C240.462 35.8 241.335 36.04 242.122 36.52C242.922 36.9867 243.549 37.6467 244.002 38.5C244.455 39.3533 244.682 40.3333 244.682 41.44C244.682 42.5467 244.455 43.54 244.002 44.42C243.549 45.2867 242.922 45.9667 242.122 46.46C241.335 46.94 240.462 47.18 239.502 47.18C238.662 47.18 237.915 47.0133 237.262 46.68C236.609 46.3333 236.075 45.9067 235.662 45.4V52.24H233.382V35.98H235.662V37.6ZM242.362 41.44C242.362 40.68 242.202 40.0267 241.882 39.48C241.575 38.92 241.162 38.5 240.642 38.22C240.135 37.9267 239.589 37.78 239.002 37.78C238.429 37.78 237.882 37.9267 237.362 38.22C236.855 38.5133 236.442 38.94 236.122 39.5C235.815 40.06 235.662 40.72 235.662 41.48C235.662 42.24 235.815 42.9067 236.122 43.48C236.442 44.04 236.855 44.4667 237.362 44.76C237.882 45.0533 238.429 45.2 239.002 45.2C239.589 45.2 240.135 45.0533 240.642 44.76C241.162 44.4533 241.575 44.0133 241.882 43.44C242.202 42.8667 242.362 42.2 242.362 41.44ZM249.217 37.6C249.603 37.0933 250.13 36.6667 250.797 36.32C251.463 35.9733 252.217 35.8 253.057 35.8C254.017 35.8 254.89 36.04 255.677 36.52C256.477 36.9867 257.103 37.6467 257.557 38.5C258.01 39.3533 258.237 40.3333 258.237 41.44C258.237 42.5467 258.01 43.54 257.557 44.42C257.103 45.2867 256.477 45.9667 255.677 46.46C254.89 46.94 254.017 47.18 253.057 47.18C252.217 47.18 251.47 47.0133 250.817 46.68C250.163 46.3333 249.63 45.9067 249.217 45.4V52.24H246.937V35.98H249.217V37.6ZM255.917 41.44C255.917 40.68 255.757 40.0267 255.437 39.48C255.13 38.92 254.717 38.5 254.197 38.22C253.69 37.9267 253.143 37.78 252.557 37.78C251.983 37.78 251.437 37.9267 250.917 38.22C250.41 38.5133 249.997 38.94 249.677 39.5C249.37 40.06 249.217 40.72 249.217 41.48C249.217 42.24 249.37 42.9067 249.677 43.48C249.997 44.04 250.41 44.4667 250.917 44.76C251.437 45.0533 251.983 45.2 252.557 45.2C253.143 45.2 253.69 45.0533 254.197 44.76C254.717 44.4533 255.13 44.0133 255.437 43.44C255.757 42.8667 255.917 42.2 255.917 41.44Z" fill="#F5F5F5"/>
<rect x="100.8" y="205" width="398.4" height="42" rx="20" fill="#F5F5F5"/>
<path d="M243.823 225.96C243.823 224.573 244.123 223.34 244.723 222.26C245.323 221.167 246.156 220.32 247.223 219.72C248.303 219.107 249.523 218.8 250.883 218.8C252.55 218.8 253.976 219.24 255.163 220.12C256.35 221 257.143 222.2 257.543 223.72H253.783C253.503 223.133 253.103 222.687 252.583 222.38C252.076 222.073 251.496 221.92 250.843 221.92C249.79 221.92 248.936 222.287 248.283 223.02C247.63 223.753 247.303 224.733 247.303 225.96C247.303 227.187 247.63 228.167 248.283 228.9C248.936 229.633 249.79 230 250.843 230C251.496 230 252.076 229.847 252.583 229.54C253.103 229.233 253.503 228.787 253.783 228.2H257.543C257.143 229.72 256.35 230.92 255.163 231.8C253.976 232.667 252.55 233.1 250.883 233.1C249.523 233.1 248.303 232.8 247.223 232.2C246.156 231.587 245.323 230.74 244.723 229.66C244.123 228.58 243.823 227.347 243.823 225.96ZM263.057 223.7C263.457 223.087 263.957 222.607 264.557 222.26C265.157 221.9 265.824 221.72 266.557 221.72V225.34H265.617C264.764 225.34 264.124 225.527 263.697 225.9C263.271 226.26 263.057 226.9 263.057 227.82V233H259.637V221.84H263.057V223.7ZM269.912 220.68C269.312 220.68 268.819 220.507 268.432 220.16C268.059 219.8 267.872 219.36 267.872 218.84C267.872 218.307 268.059 217.867 268.432 217.52C268.819 217.16 269.312 216.98 269.912 216.98C270.499 216.98 270.979 217.16 271.352 217.52C271.739 217.867 271.932 218.307 271.932 218.84C271.932 219.36 271.739 219.8 271.352 220.16C270.979 220.507 270.499 220.68 269.912 220.68ZM271.612 221.84V233H268.192V221.84H271.612ZM273.41 227.4C273.41 226.253 273.624 225.247 274.05 224.38C274.49 223.513 275.084 222.847 275.83 222.38C276.577 221.913 277.41 221.68 278.33 221.68C279.117 221.68 279.804 221.84 280.39 222.16C280.99 222.48 281.45 222.9 281.77 223.42V221.84H285.19V233H281.77V231.42C281.437 231.94 280.97 232.36 280.37 232.68C279.784 233 279.097 233.16 278.31 233.16C277.404 233.16 276.577 232.927 275.83 232.46C275.084 231.98 274.49 231.307 274.05 230.44C273.624 229.56 273.41 228.547 273.41 227.4ZM281.77 227.42C281.77 226.567 281.53 225.893 281.05 225.4C280.584 224.907 280.01 224.66 279.33 224.66C278.65 224.66 278.07 224.907 277.59 225.4C277.124 225.88 276.89 226.547 276.89 227.4C276.89 228.253 277.124 228.933 277.59 229.44C278.07 229.933 278.65 230.18 279.33 230.18C280.01 230.18 280.584 229.933 281.05 229.44C281.53 228.947 281.77 228.273 281.77 227.42ZM291.085 223.7C291.485 223.087 291.985 222.607 292.585 222.26C293.185 221.9 293.851 221.72 294.585 221.72V225.34H293.645C292.791 225.34 292.151 225.527 291.725 225.9C291.298 226.26 291.085 226.9 291.085 227.82V233H287.665V221.84H291.085V223.7ZM299.778 227.42C299.778 226.26 300.011 225.247 300.478 224.38C300.958 223.513 301.618 222.847 302.458 222.38C303.311 221.913 304.284 221.68 305.378 221.68C306.778 221.68 307.944 222.047 308.878 222.78C309.824 223.513 310.444 224.547 310.738 225.88H307.098C306.791 225.027 306.198 224.6 305.318 224.6C304.691 224.6 304.191 224.847 303.818 225.34C303.444 225.82 303.258 226.513 303.258 227.42C303.258 228.327 303.444 229.027 303.818 229.52C304.191 230 304.691 230.24 305.318 230.24C306.198 230.24 306.791 229.813 307.098 228.96H310.738C310.444 230.267 309.824 231.293 308.878 232.04C307.931 232.787 306.764 233.16 305.378 233.16C304.284 233.16 303.311 232.927 302.458 232.46C301.618 231.993 300.958 231.327 300.478 230.46C300.011 229.593 299.778 228.58 299.778 227.42ZM317.647 233.16C316.554 233.16 315.567 232.927 314.687 232.46C313.82 231.993 313.134 231.327 312.627 230.46C312.134 229.593 311.887 228.58 311.887 227.42C311.887 226.273 312.14 225.267 312.647 224.4C313.154 223.52 313.847 222.847 314.727 222.38C315.607 221.913 316.594 221.68 317.687 221.68C318.78 221.68 319.767 221.913 320.647 222.38C321.527 222.847 322.22 223.52 322.727 224.4C323.234 225.267 323.487 226.273 323.487 227.42C323.487 228.567 323.227 229.58 322.707 230.46C322.2 231.327 321.5 231.993 320.607 232.46C319.727 232.927 318.74 233.16 317.647 233.16ZM317.647 230.2C318.3 230.2 318.854 229.96 319.307 229.48C319.774 229 320.007 228.313 320.007 227.42C320.007 226.527 319.78 225.84 319.327 225.36C318.887 224.88 318.34 224.64 317.687 224.64C317.02 224.64 316.467 224.88 316.027 225.36C315.587 225.827 315.367 226.513 315.367 227.42C315.367 228.313 315.58 229 316.007 229.48C316.447 229.96 316.994 230.2 317.647 230.2ZM332.101 221.72C333.408 221.72 334.448 222.147 335.221 223C336.008 223.84 336.401 225 336.401 226.48V233H333.001V226.94C333.001 226.193 332.808 225.613 332.421 225.2C332.035 224.787 331.515 224.58 330.861 224.58C330.208 224.58 329.688 224.787 329.301 225.2C328.915 225.613 328.721 226.193 328.721 226.94V233H325.301V221.84H328.721V223.32C329.068 222.827 329.535 222.44 330.121 222.16C330.708 221.867 331.368 221.72 332.101 221.72ZM344.998 230.1V233H343.258C342.018 233 341.051 232.7 340.358 232.1C339.665 231.487 339.318 230.493 339.318 229.12V224.68H337.958V221.84H339.318V219.12H342.738V221.84H344.978V224.68H342.738V229.16C342.738 229.493 342.818 229.733 342.978 229.88C343.138 230.027 343.405 230.1 343.778 230.1H344.998ZM346.223 227.4C346.223 226.253 346.436 225.247 346.863 224.38C347.303 223.513 347.896 222.847 348.643 222.38C349.39 221.913 350.223 221.68 351.143 221.68C351.93 221.68 352.616 221.84 353.203 222.16C353.803 222.48 354.263 222.9 354.583 223.42V221.84H358.003V233H354.583V231.42C354.25 231.94 353.783 232.36 353.183 232.68C352.596 233 351.91 233.16 351.123 233.16C350.216 233.16 349.39 232.927 348.643 232.46C347.896 231.98 347.303 231.307 346.863 230.44C346.436 229.56 346.223 228.547 346.223 227.4ZM354.583 227.42C354.583 226.567 354.343 225.893 353.863 225.4C353.396 224.907 352.823 224.66 352.143 224.66C351.463 224.66 350.883 224.907 350.403 225.4C349.936 225.88 349.703 226.547 349.703 227.4C349.703 228.253 349.936 228.933 350.403 229.44C350.883 229.933 351.463 230.18 352.143 230.18C352.823 230.18 353.396 229.933 353.863 229.44C354.343 228.947 354.583 228.273 354.583 227.42Z" fill="#DA3BBD"/>
<path d="M105.36 152.105C104.66 152.105 104.03 151.985 103.47 151.745C102.91 151.495 102.47 151.145 102.15 150.695C101.83 150.245 101.67 149.72 101.67 149.12H103.5C103.54 149.57 103.715 149.94 104.025 150.23C104.345 150.52 104.79 150.665 105.36 150.665C105.95 150.665 106.41 150.525 106.74 150.245C107.07 149.955 107.235 149.585 107.235 149.135C107.235 148.785 107.13 148.5 106.92 148.28C106.72 148.06 106.465 147.89 106.155 147.77C105.855 147.65 105.435 147.52 104.895 147.38C104.215 147.2 103.66 147.02 103.23 146.84C102.81 146.65 102.45 146.36 102.15 145.97C101.85 145.58 101.7 145.06 101.7 144.41C101.7 143.81 101.85 143.285 102.15 142.835C102.45 142.385 102.87 142.04 103.41 141.8C103.95 141.56 104.575 141.44 105.285 141.44C106.295 141.44 107.12 141.695 107.76 142.205C108.41 142.705 108.77 143.395 108.84 144.275H106.95C106.92 143.895 106.74 143.57 106.41 143.3C106.08 143.03 105.645 142.895 105.105 142.895C104.615 142.895 104.215 143.02 103.905 143.27C103.595 143.52 103.44 143.88 103.44 144.35C103.44 144.67 103.535 144.935 103.725 145.145C103.925 145.345 104.175 145.505 104.475 145.625C104.775 145.745 105.185 145.875 105.705 146.015C106.395 146.205 106.955 146.395 107.385 146.585C107.825 146.775 108.195 147.07 108.495 147.47C108.805 147.86 108.96 148.385 108.96 149.045C108.96 149.575 108.815 150.075 108.525 150.545C108.245 151.015 107.83 151.395 107.28 151.685C106.74 151.965 106.1 152.105 105.36 152.105ZM118.553 147.665C118.553 147.975 118.533 148.255 118.493 148.505H112.178C112.228 149.165 112.473 149.695 112.913 150.095C113.353 150.495 113.893 150.695 114.533 150.695C115.453 150.695 116.103 150.31 116.483 149.54H118.328C118.078 150.3 117.623 150.925 116.963 151.415C116.313 151.895 115.503 152.135 114.533 152.135C113.743 152.135 113.033 151.96 112.403 151.61C111.783 151.25 111.293 150.75 110.933 150.11C110.583 149.46 110.408 148.71 110.408 147.86C110.408 147.01 110.578 146.265 110.918 145.625C111.268 144.975 111.753 144.475 112.373 144.125C113.003 143.775 113.723 143.6 114.533 143.6C115.313 143.6 116.008 143.77 116.618 144.11C117.228 144.45 117.703 144.93 118.043 145.55C118.383 146.16 118.553 146.865 118.553 147.665ZM116.768 147.125C116.758 146.495 116.533 145.99 116.093 145.61C115.653 145.23 115.108 145.04 114.458 145.04C113.868 145.04 113.363 145.23 112.943 145.61C112.523 145.98 112.273 146.485 112.193 147.125H116.768ZM124.406 143.6C125.056 143.6 125.636 143.735 126.146 144.005C126.666 144.275 127.071 144.675 127.361 145.205C127.651 145.735 127.796 146.375 127.796 147.125V152H126.101V147.38C126.101 146.64 125.916 146.075 125.546 145.685C125.176 145.285 124.671 145.085 124.031 145.085C123.391 145.085 122.881 145.285 122.501 145.685C122.131 146.075 121.946 146.64 121.946 147.38V152H120.236V143.735H121.946V144.68C122.226 144.34 122.581 144.075 123.011 143.885C123.451 143.695 123.916 143.6 124.406 143.6ZM134.252 143.6C134.882 143.6 135.442 143.735 135.932 144.005C136.432 144.275 136.822 144.675 137.102 145.205C137.392 145.735 137.537 146.375 137.537 147.125V152H135.842V147.38C135.842 146.64 135.657 146.075 135.287 145.685C134.917 145.285 134.412 145.085 133.772 145.085C133.132 145.085 132.622 145.285 132.242 145.685C131.872 146.075 131.687 146.64 131.687 147.38V152H129.977V140.9H131.687V144.695C131.977 144.345 132.342 144.075 132.782 143.885C133.232 143.695 133.722 143.6 134.252 143.6ZM139.148 147.83C139.148 147 139.318 146.265 139.658 145.625C140.008 144.985 140.478 144.49 141.068 144.14C141.668 143.78 142.328 143.6 143.048 143.6C143.698 143.6 144.263 143.73 144.743 143.99C145.233 144.24 145.623 144.555 145.913 144.935V143.735H147.638V152H145.913V150.77C145.623 151.16 145.228 151.485 144.728 151.745C144.228 152.005 143.658 152.135 143.018 152.135C142.308 152.135 141.658 151.955 141.068 151.595C140.478 151.225 140.008 150.715 139.658 150.065C139.318 149.405 139.148 148.66 139.148 147.83ZM145.913 147.86C145.913 147.29 145.793 146.795 145.553 146.375C145.323 145.955 145.018 145.635 144.638 145.415C144.258 145.195 143.848 145.085 143.408 145.085C142.968 145.085 142.558 145.195 142.178 145.415C141.798 145.625 141.488 145.94 141.248 146.36C141.018 146.77 140.903 147.26 140.903 147.83C140.903 148.4 141.018 148.9 141.248 149.33C141.488 149.76 141.798 150.09 142.178 150.32C142.568 150.54 142.978 150.65 143.408 150.65C143.848 150.65 144.258 150.54 144.638 150.32C145.018 150.1 145.323 149.78 145.553 149.36C145.793 148.93 145.913 148.43 145.913 147.86Z" fill="#F5F5F5"/>
<rect x="101.3" y="158.5" width="397.4" height="29" rx="14.5" stroke="#DA3BBD"/>
<rect x="101.3" y="92.5" width="397.4" height="29" rx="14.5" stroke="#DA3BBD"/>
<path d="M113.235 76.955V80.015H116.835V81.41H113.235V84.605H117.285V86H111.525V75.56H117.285V76.955H113.235ZM129.396 77.6C130.046 77.6 130.626 77.735 131.136 78.005C131.656 78.275 132.061 78.675 132.351 79.205C132.651 79.735 132.801 80.375 132.801 81.125V86H131.106V81.38C131.106 80.64 130.921 80.075 130.551 79.685C130.181 79.285 129.676 79.085 129.036 79.085C128.396 79.085 127.886 79.285 127.506 79.685C127.136 80.075 126.951 80.64 126.951 81.38V86H125.256V81.38C125.256 80.64 125.071 80.075 124.701 79.685C124.331 79.285 123.826 79.085 123.186 79.085C122.546 79.085 122.036 79.285 121.656 79.685C121.286 80.075 121.101 80.64 121.101 81.38V86H119.391V77.735H121.101V78.68C121.381 78.34 121.736 78.075 122.166 77.885C122.596 77.695 123.056 77.6 123.546 77.6C124.206 77.6 124.796 77.74 125.316 78.02C125.836 78.3 126.236 78.705 126.516 79.235C126.766 78.735 127.156 78.34 127.686 78.05C128.216 77.75 128.786 77.6 129.396 77.6ZM134.407 81.83C134.407 81 134.577 80.265 134.917 79.625C135.267 78.985 135.737 78.49 136.327 78.14C136.927 77.78 137.587 77.6 138.307 77.6C138.957 77.6 139.522 77.73 140.002 77.99C140.492 78.24 140.882 78.555 141.172 78.935V77.735H142.897V86H141.172V84.77C140.882 85.16 140.487 85.485 139.987 85.745C139.487 86.005 138.917 86.135 138.277 86.135C137.567 86.135 136.917 85.955 136.327 85.595C135.737 85.225 135.267 84.715 134.917 84.065C134.577 83.405 134.407 82.66 134.407 81.83ZM141.172 81.86C141.172 81.29 141.052 80.795 140.812 80.375C140.582 79.955 140.277 79.635 139.897 79.415C139.517 79.195 139.107 79.085 138.667 79.085C138.227 79.085 137.817 79.195 137.437 79.415C137.057 79.625 136.747 79.94 136.507 80.36C136.277 80.77 136.162 81.26 136.162 81.83C136.162 82.4 136.277 82.9 136.507 83.33C136.747 83.76 137.057 84.09 137.437 84.32C137.827 84.54 138.237 84.65 138.667 84.65C139.107 84.65 139.517 84.54 139.897 84.32C140.277 84.1 140.582 83.78 140.812 83.36C141.052 82.93 141.172 82.43 141.172 81.86ZM146.013 76.64C145.703 76.64 145.443 76.535 145.233 76.325C145.023 76.115 144.918 75.855 144.918 75.545C144.918 75.235 145.023 74.975 145.233 74.765C145.443 74.555 145.703 74.45 146.013 74.45C146.313 74.45 146.568 74.555 146.778 74.765C146.988 74.975 147.093 75.235 147.093 75.545C147.093 75.855 146.988 76.115 146.778 76.325C146.568 76.535 146.313 76.64 146.013 76.64ZM146.853 77.735V86H145.143V77.735H146.853ZM150.808 74.9V86H149.098V74.9H150.808Z" fill="#F5F5F5"/>
</svg>
