<svg width="600" height="280" viewBox="0 0 600 280" fill="none" xmlns="http://www.w3.org/2000/svg">
<rect width="600" height="280" rx="20" fill="#020C27"/>
<rect x="100.8" y="203" width="398.4" height="42" rx="20" fill="#F5F5F5"/>
<path d="M258.497 228.52H253.257L252.417 231H248.837L253.917 216.96H257.877L262.957 231H259.337L258.497 228.52ZM257.617 225.88L255.877 220.74L254.157 225.88H257.617ZM263.823 225.4C263.823 224.253 264.036 223.247 264.463 222.38C264.903 221.513 265.496 220.847 266.243 220.38C266.99 219.913 267.823 219.68 268.743 219.68C269.476 219.68 270.143 219.833 270.743 220.14C271.356 220.447 271.836 220.86 272.183 221.38V216.2H275.603V231H272.183V229.4C271.863 229.933 271.403 230.36 270.803 230.68C270.216 231 269.53 231.16 268.743 231.16C267.823 231.16 266.99 230.927 266.243 230.46C265.496 229.98 264.903 229.307 264.463 228.44C264.036 227.56 263.823 226.547 263.823 225.4ZM272.183 225.42C272.183 224.567 271.943 223.893 271.463 223.4C270.996 222.907 270.423 222.66 269.743 222.66C269.063 222.66 268.483 222.907 268.003 223.4C267.536 223.88 267.303 224.547 267.303 225.4C267.303 226.253 267.536 226.933 268.003 227.44C268.483 227.933 269.063 228.18 269.743 228.18C270.423 228.18 270.996 227.933 271.463 227.44C271.943 226.947 272.183 226.273 272.183 225.42ZM279.797 218.68C279.197 218.68 278.704 218.507 278.317 218.16C277.944 217.8 277.757 217.36 277.757 216.84C277.757 216.307 277.944 215.867 278.317 215.52C278.704 215.16 279.197 214.98 279.797 214.98C280.384 214.98 280.864 215.16 281.237 215.52C281.624 215.867 281.817 216.307 281.817 216.84C281.817 217.36 281.624 217.8 281.237 218.16C280.864 218.507 280.384 218.68 279.797 218.68ZM281.497 219.84V231H278.077V219.84H281.497ZM283.296 225.42C283.296 224.26 283.529 223.247 283.996 222.38C284.476 221.513 285.136 220.847 285.976 220.38C286.829 219.913 287.802 219.68 288.896 219.68C290.296 219.68 291.462 220.047 292.396 220.78C293.342 221.513 293.962 222.547 294.256 223.88H290.616C290.309 223.027 289.716 222.6 288.836 222.6C288.209 222.6 287.709 222.847 287.336 223.34C286.962 223.82 286.776 224.513 286.776 225.42C286.776 226.327 286.962 227.027 287.336 227.52C287.709 228 288.209 228.24 288.836 228.24C289.716 228.24 290.309 227.813 290.616 226.96H294.256C293.962 228.267 293.342 229.293 292.396 230.04C291.449 230.787 290.282 231.16 288.896 231.16C287.802 231.16 286.829 230.927 285.976 230.46C285.136 229.993 284.476 229.327 283.996 228.46C283.529 227.593 283.296 226.58 283.296 225.42ZM297.805 218.68C297.205 218.68 296.712 218.507 296.325 218.16C295.952 217.8 295.765 217.36 295.765 216.84C295.765 216.307 295.952 215.867 296.325 215.52C296.712 215.16 297.205 214.98 297.805 214.98C298.392 214.98 298.872 215.16 299.245 215.52C299.632 215.867 299.825 216.307 299.825 216.84C299.825 217.36 299.632 217.8 299.245 218.16C298.872 218.507 298.392 218.68 297.805 218.68ZM299.505 219.84V231H296.085V219.84H299.505ZM307.063 231.16C305.97 231.16 304.983 230.927 304.103 230.46C303.237 229.993 302.55 229.327 302.043 228.46C301.55 227.593 301.303 226.58 301.303 225.42C301.303 224.273 301.557 223.267 302.063 222.4C302.57 221.52 303.263 220.847 304.143 220.38C305.023 219.913 306.01 219.68 307.103 219.68C308.197 219.68 309.183 219.913 310.063 220.38C310.943 220.847 311.637 221.52 312.143 222.4C312.65 223.267 312.903 224.273 312.903 225.42C312.903 226.567 312.643 227.58 312.123 228.46C311.617 229.327 310.917 229.993 310.023 230.46C309.143 230.927 308.157 231.16 307.063 231.16ZM307.063 228.2C307.717 228.2 308.27 227.96 308.723 227.48C309.19 227 309.423 226.313 309.423 225.42C309.423 224.527 309.197 223.84 308.743 223.36C308.303 222.88 307.757 222.64 307.103 222.64C306.437 222.64 305.883 222.88 305.443 223.36C305.003 223.827 304.783 224.513 304.783 225.42C304.783 226.313 304.997 227 305.423 227.48C305.863 227.96 306.41 228.2 307.063 228.2ZM321.518 219.72C322.824 219.72 323.864 220.147 324.638 221C325.424 221.84 325.818 223 325.818 224.48V231H322.418V224.94C322.418 224.193 322.224 223.613 321.838 223.2C321.451 222.787 320.931 222.58 320.278 222.58C319.624 222.58 319.104 222.787 318.718 223.2C318.331 223.613 318.138 224.193 318.138 224.94V231H314.718V219.84H318.138V221.32C318.484 220.827 318.951 220.44 319.538 220.16C320.124 219.867 320.784 219.72 321.518 219.72ZM327.514 225.4C327.514 224.253 327.728 223.247 328.154 222.38C328.594 221.513 329.188 220.847 329.934 220.38C330.681 219.913 331.514 219.68 332.434 219.68C333.221 219.68 333.908 219.84 334.494 220.16C335.094 220.48 335.554 220.9 335.874 221.42V219.84H339.294V231H335.874V229.42C335.541 229.94 335.074 230.36 334.474 230.68C333.888 231 333.201 231.16 332.414 231.16C331.508 231.16 330.681 230.927 329.934 230.46C329.188 229.98 328.594 229.307 328.154 228.44C327.728 227.56 327.514 226.547 327.514 225.4ZM335.874 225.42C335.874 224.567 335.634 223.893 335.154 223.4C334.688 222.907 334.114 222.66 333.434 222.66C332.754 222.66 332.174 222.907 331.694 223.4C331.228 223.88 330.994 224.547 330.994 225.4C330.994 226.253 331.228 226.933 331.694 227.44C332.174 227.933 332.754 228.18 333.434 228.18C334.114 228.18 334.688 227.933 335.154 227.44C335.634 226.947 335.874 226.273 335.874 225.42ZM345.189 221.7C345.589 221.087 346.089 220.607 346.689 220.26C347.289 219.9 347.955 219.72 348.689 219.72V223.34H347.749C346.895 223.34 346.255 223.527 345.829 223.9C345.402 224.26 345.189 224.9 345.189 225.82V231H341.769V219.84H345.189V221.7Z" fill="#DA3BBD"/>
<path d="M69.832 137.88C71.016 137.88 72.0507 138.109 72.936 138.568C73.832 139.016 74.52 139.667 75 140.52C75.4907 141.363 75.736 142.349 75.736 143.48C75.736 144.611 75.4907 145.592 75 146.424C74.52 147.256 73.832 147.896 72.936 148.344C72.0507 148.781 71.016 149 69.832 149H66.2V137.88H69.832ZM69.832 147.512C71.1333 147.512 72.1307 147.16 72.824 146.456C73.5173 145.752 73.864 144.76 73.864 143.48C73.864 142.189 73.5173 141.181 72.824 140.456C72.1307 139.731 71.1333 139.368 69.832 139.368H68.024V147.512H69.832ZM85.6238 144.376C85.6238 144.707 85.6024 145.005 85.5598 145.272H78.8238C78.8771 145.976 79.1384 146.541 79.6078 146.968C80.0771 147.395 80.6531 147.608 81.3358 147.608C82.3171 147.608 83.0104 147.197 83.4158 146.376H85.3837C85.1171 147.187 84.6318 147.853 83.9278 148.376C83.2344 148.888 82.3704 149.144 81.3358 149.144C80.4931 149.144 79.7358 148.957 79.0638 148.584C78.4024 148.2 77.8798 147.667 77.4958 146.984C77.1224 146.291 76.9358 145.491 76.9358 144.584C76.9358 143.677 77.1171 142.883 77.4798 142.2C77.8531 141.507 78.3704 140.973 79.0318 140.6C79.7038 140.227 80.4718 140.04 81.3358 140.04C82.1678 140.04 82.9091 140.221 83.5598 140.584C84.2104 140.947 84.7171 141.459 85.0798 142.12C85.4424 142.771 85.6238 143.523 85.6238 144.376ZM83.7198 143.8C83.7091 143.128 83.4691 142.589 82.9998 142.184C82.5304 141.779 81.9491 141.576 81.2558 141.576C80.6264 141.576 80.0878 141.779 79.6398 142.184C79.1918 142.579 78.9251 143.117 78.8398 143.8H83.7198ZM90.6188 149.144C89.9254 149.144 89.3014 149.021 88.7468 148.776C88.2028 148.52 87.7708 148.179 87.4508 147.752C87.1308 147.315 86.9601 146.829 86.9388 146.296H88.8268C88.8588 146.669 89.0348 146.984 89.3548 147.24C89.6854 147.485 90.0961 147.608 90.5868 147.608C91.0988 147.608 91.4934 147.512 91.7708 147.32C92.0588 147.117 92.2028 146.861 92.2028 146.552C92.2028 146.221 92.0428 145.976 91.7228 145.816C91.4134 145.656 90.9174 145.48 90.2348 145.288C89.5734 145.107 89.0348 144.931 88.6188 144.76C88.2028 144.589 87.8401 144.328 87.5308 143.976C87.2321 143.624 87.0828 143.16 87.0828 142.584C87.0828 142.115 87.2214 141.688 87.4988 141.304C87.7761 140.909 88.1708 140.6 88.6828 140.376C89.2054 140.152 89.8028 140.04 90.4748 140.04C91.4774 140.04 92.2828 140.296 92.8908 140.808C93.5094 141.309 93.8401 141.997 93.8828 142.872H92.0588C92.0268 142.477 91.8668 142.163 91.5788 141.928C91.2908 141.693 90.9014 141.576 90.4108 141.576C89.9308 141.576 89.5628 141.667 89.3068 141.848C89.0508 142.029 88.9228 142.269 88.9228 142.568C88.9228 142.803 89.0081 143 89.1788 143.16C89.3494 143.32 89.5574 143.448 89.8028 143.544C90.0481 143.629 90.4108 143.741 90.8908 143.88C91.5308 144.051 92.0534 144.227 92.4588 144.408C92.8748 144.579 93.2321 144.835 93.5308 145.176C93.8294 145.517 93.9841 145.971 93.9948 146.536C93.9948 147.037 93.8561 147.485 93.5788 147.88C93.3014 148.275 92.9068 148.584 92.3948 148.808C91.8934 149.032 91.3014 149.144 90.6188 149.144ZM104.046 144.376C104.046 144.707 104.024 145.005 103.982 145.272H97.2456C97.299 145.976 97.5603 146.541 98.0296 146.968C98.499 147.395 99.075 147.608 99.7576 147.608C100.739 147.608 101.432 147.197 101.838 146.376H103.806C103.539 147.187 103.054 147.853 102.35 148.376C101.656 148.888 100.792 149.144 99.7576 149.144C98.915 149.144 98.1576 148.957 97.4856 148.584C96.8243 148.2 96.3016 147.667 95.9176 146.984C95.5443 146.291 95.3576 145.491 95.3576 144.584C95.3576 143.677 95.539 142.883 95.9016 142.2C96.275 141.507 96.7923 140.973 97.4536 140.6C98.1256 140.227 98.8936 140.04 99.7576 140.04C100.59 140.04 101.331 140.221 101.982 140.584C102.632 140.947 103.139 141.459 103.502 142.12C103.864 142.771 104.046 143.523 104.046 144.376ZM102.142 143.8C102.131 143.128 101.891 142.589 101.422 142.184C100.952 141.779 100.371 141.576 99.6776 141.576C99.0483 141.576 98.5096 141.779 98.0616 142.184C97.6136 142.579 97.347 143.117 97.2616 143.8H102.142ZM106.769 139.016C106.438 139.016 106.161 138.904 105.937 138.68C105.713 138.456 105.601 138.179 105.601 137.848C105.601 137.517 105.713 137.24 105.937 137.016C106.161 136.792 106.438 136.68 106.769 136.68C107.089 136.68 107.361 136.792 107.585 137.016C107.809 137.24 107.921 137.517 107.921 137.848C107.921 138.179 107.809 138.456 107.585 138.68C107.361 138.904 107.089 139.016 106.769 139.016ZM107.665 150.728C107.665 151.592 107.446 152.216 107.009 152.6C106.582 152.995 105.958 153.192 105.137 153.192H104.193V151.656H104.817C105.19 151.656 105.451 151.581 105.601 151.432C105.761 151.293 105.841 151.059 105.841 150.728V140.184H107.665V150.728ZM109.451 144.552C109.451 143.667 109.633 142.883 109.995 142.2C110.369 141.517 110.87 140.989 111.499 140.616C112.139 140.232 112.843 140.04 113.611 140.04C114.305 140.04 114.907 140.179 115.419 140.456C115.942 140.723 116.358 141.059 116.667 141.464V140.184H118.507V149H116.667V147.688C116.358 148.104 115.937 148.451 115.403 148.728C114.87 149.005 114.262 149.144 113.579 149.144C112.822 149.144 112.129 148.952 111.499 148.568C110.87 148.173 110.369 147.629 109.995 146.936C109.633 146.232 109.451 145.437 109.451 144.552ZM116.667 144.584C116.667 143.976 116.539 143.448 116.283 143C116.038 142.552 115.713 142.211 115.307 141.976C114.902 141.741 114.465 141.624 113.995 141.624C113.526 141.624 113.089 141.741 112.683 141.976C112.278 142.2 111.947 142.536 111.691 142.984C111.446 143.421 111.323 143.944 111.323 144.552C111.323 145.16 111.446 145.693 111.691 146.152C111.947 146.611 112.278 146.963 112.683 147.208C113.099 147.443 113.537 147.56 113.995 147.56C114.465 147.56 114.902 147.443 115.307 147.208C115.713 146.973 116.038 146.632 116.283 146.184C116.539 145.725 116.667 145.192 116.667 144.584ZM124.451 144.552C124.451 143.667 124.633 142.883 124.995 142.2C125.369 141.517 125.87 140.989 126.499 140.616C127.139 140.232 127.843 140.04 128.611 140.04C129.305 140.04 129.907 140.179 130.419 140.456C130.942 140.723 131.358 141.059 131.667 141.464V140.184H133.507V149H131.667V147.688C131.358 148.104 130.937 148.451 130.403 148.728C129.87 149.005 129.262 149.144 128.579 149.144C127.822 149.144 127.129 148.952 126.499 148.568C125.87 148.173 125.369 147.629 124.995 146.936C124.633 146.232 124.451 145.437 124.451 144.552ZM131.667 144.584C131.667 143.976 131.539 143.448 131.283 143C131.038 142.552 130.713 142.211 130.307 141.976C129.902 141.741 129.465 141.624 128.995 141.624C128.526 141.624 128.089 141.741 127.683 141.976C127.278 142.2 126.947 142.536 126.691 142.984C126.446 143.421 126.323 143.944 126.323 144.552C126.323 145.16 126.446 145.693 126.691 146.152C126.947 146.611 127.278 146.963 127.683 147.208C128.099 147.443 128.537 147.56 128.995 147.56C129.465 147.56 129.902 147.443 130.307 147.208C130.713 146.973 131.038 146.632 131.283 146.184C131.539 145.725 131.667 145.192 131.667 144.584ZM135.295 144.552C135.295 143.667 135.476 142.883 135.839 142.2C136.212 141.517 136.714 140.989 137.343 140.616C137.983 140.232 138.692 140.04 139.471 140.04C140.047 140.04 140.612 140.168 141.167 140.424C141.732 140.669 142.18 141 142.511 141.416V137.16H144.351V149H142.511V147.672C142.212 148.099 141.796 148.451 141.263 148.728C140.74 149.005 140.138 149.144 139.455 149.144C138.687 149.144 137.983 148.952 137.343 148.568C136.714 148.173 136.212 147.629 135.839 146.936C135.476 146.232 135.295 145.437 135.295 144.552ZM142.511 144.584C142.511 143.976 142.383 143.448 142.127 143C141.882 142.552 141.556 142.211 141.151 141.976C140.746 141.741 140.308 141.624 139.839 141.624C139.37 141.624 138.932 141.741 138.527 141.976C138.122 142.2 137.791 142.536 137.535 142.984C137.29 143.421 137.167 143.944 137.167 144.552C137.167 145.16 137.29 145.693 137.535 146.152C137.791 146.611 138.122 146.963 138.527 147.208C138.943 147.443 139.38 147.56 139.839 147.56C140.308 147.56 140.746 147.443 141.151 147.208C141.556 146.973 141.882 146.632 142.127 146.184C142.383 145.725 142.511 145.192 142.511 144.584ZM147.675 139.016C147.344 139.016 147.067 138.904 146.843 138.68C146.619 138.456 146.507 138.179 146.507 137.848C146.507 137.517 146.619 137.24 146.843 137.016C147.067 136.792 147.344 136.68 147.675 136.68C147.995 136.68 148.267 136.792 148.491 137.016C148.715 137.24 148.827 137.517 148.827 137.848C148.827 138.179 148.715 138.456 148.491 138.68C148.267 138.904 147.995 139.016 147.675 139.016ZM148.571 140.184V149H146.747V140.184H148.571ZM150.358 144.584C150.358 143.677 150.539 142.883 150.902 142.2C151.275 141.507 151.787 140.973 152.438 140.6C153.088 140.227 153.835 140.04 154.678 140.04C155.744 140.04 156.624 140.296 157.318 140.808C158.022 141.309 158.496 142.029 158.742 142.968H156.774C156.614 142.531 156.358 142.189 156.006 141.944C155.654 141.699 155.211 141.576 154.678 141.576C153.931 141.576 153.334 141.843 152.886 142.376C152.448 142.899 152.23 143.635 152.23 144.584C152.23 145.533 152.448 146.275 152.886 146.808C153.334 147.341 153.931 147.608 154.678 147.608C155.734 147.608 156.432 147.144 156.774 146.216H158.742C158.486 147.112 158.006 147.827 157.302 148.36C156.598 148.883 155.723 149.144 154.678 149.144C153.835 149.144 153.088 148.957 152.438 148.584C151.787 148.2 151.275 147.667 150.902 146.984C150.539 146.291 150.358 145.491 150.358 144.584ZM161.487 139.016C161.157 139.016 160.879 138.904 160.655 138.68C160.431 138.456 160.319 138.179 160.319 137.848C160.319 137.517 160.431 137.24 160.655 137.016C160.879 136.792 161.157 136.68 161.487 136.68C161.807 136.68 162.079 136.792 162.303 137.016C162.527 137.24 162.639 137.517 162.639 137.848C162.639 138.179 162.527 138.456 162.303 138.68C162.079 138.904 161.807 139.016 161.487 139.016ZM162.383 140.184V149H160.559V140.184H162.383ZM168.602 149.144C167.77 149.144 167.018 148.957 166.346 148.584C165.674 148.2 165.146 147.667 164.762 146.984C164.378 146.291 164.186 145.491 164.186 144.584C164.186 143.688 164.383 142.893 164.778 142.2C165.173 141.507 165.711 140.973 166.394 140.6C167.077 140.227 167.839 140.04 168.682 140.04C169.525 140.04 170.287 140.227 170.97 140.6C171.653 140.973 172.191 141.507 172.586 142.2C172.981 142.893 173.178 143.688 173.178 144.584C173.178 145.48 172.975 146.275 172.57 146.968C172.165 147.661 171.61 148.2 170.906 148.584C170.213 148.957 169.445 149.144 168.602 149.144ZM168.602 147.56C169.071 147.56 169.509 147.448 169.914 147.224C170.33 147 170.666 146.664 170.922 146.216C171.178 145.768 171.306 145.224 171.306 144.584C171.306 143.944 171.183 143.405 170.938 142.968C170.693 142.52 170.367 142.184 169.962 141.96C169.557 141.736 169.119 141.624 168.65 141.624C168.181 141.624 167.743 141.736 167.338 141.96C166.943 142.184 166.629 142.52 166.394 142.968C166.159 143.405 166.042 143.944 166.042 144.584C166.042 145.533 166.282 146.269 166.762 146.792C167.253 147.304 167.866 147.56 168.602 147.56ZM179.429 140.04C180.123 140.04 180.741 140.184 181.285 140.472C181.84 140.76 182.272 141.187 182.581 141.752C182.891 142.317 183.045 143 183.045 143.8V149H181.237V144.072C181.237 143.283 181.04 142.68 180.645 142.264C180.251 141.837 179.712 141.624 179.029 141.624C178.347 141.624 177.803 141.837 177.397 142.264C177.003 142.68 176.805 143.283 176.805 144.072V149H174.981V140.184H176.805V141.192C177.104 140.829 177.483 140.547 177.941 140.344C178.411 140.141 178.907 140.04 179.429 140.04ZM184.764 144.552C184.764 143.667 184.945 142.883 185.308 142.2C185.681 141.517 186.183 140.989 186.812 140.616C187.452 140.232 188.156 140.04 188.924 140.04C189.617 140.04 190.22 140.179 190.732 140.456C191.255 140.723 191.671 141.059 191.98 141.464V140.184H193.82V149H191.98V147.688C191.671 148.104 191.249 148.451 190.716 148.728C190.183 149.005 189.575 149.144 188.892 149.144C188.135 149.144 187.441 148.952 186.812 148.568C186.183 148.173 185.681 147.629 185.308 146.936C184.945 146.232 184.764 145.437 184.764 144.552ZM191.98 144.584C191.98 143.976 191.852 143.448 191.596 143C191.351 142.552 191.025 142.211 190.62 141.976C190.215 141.741 189.777 141.624 189.308 141.624C188.839 141.624 188.401 141.741 187.996 141.976C187.591 142.2 187.26 142.536 187.004 142.984C186.759 143.421 186.636 143.944 186.636 144.552C186.636 145.16 186.759 145.693 187.004 146.152C187.26 146.611 187.591 146.963 187.996 147.208C188.412 147.443 188.849 147.56 189.308 147.56C189.777 147.56 190.215 147.443 190.62 147.208C191.025 146.973 191.351 146.632 191.596 146.184C191.852 145.725 191.98 145.192 191.98 144.584ZM198.04 141.464C198.306 141.016 198.658 140.669 199.096 140.424C199.544 140.168 200.072 140.04 200.68 140.04V141.928H200.216C199.501 141.928 198.957 142.109 198.584 142.472C198.221 142.835 198.04 143.464 198.04 144.36V149H196.216V140.184H198.04V141.464ZM276.686 144.552C276.686 143.667 276.867 142.883 277.23 142.2C277.603 141.517 278.104 140.989 278.734 140.616C279.374 140.232 280.078 140.04 280.846 140.04C281.539 140.04 282.142 140.179 282.654 140.456C283.176 140.723 283.592 141.059 283.902 141.464V140.184H285.742V149H283.902V147.688C283.592 148.104 283.171 148.451 282.638 148.728C282.104 149.005 281.496 149.144 280.814 149.144C280.056 149.144 279.363 148.952 278.734 148.568C278.104 148.173 277.603 147.629 277.23 146.936C276.867 146.232 276.686 145.437 276.686 144.552ZM283.902 144.584C283.902 143.976 283.774 143.448 283.518 143C283.272 142.552 282.947 142.211 282.542 141.976C282.136 141.741 281.699 141.624 281.23 141.624C280.76 141.624 280.323 141.741 279.918 141.976C279.512 142.2 279.182 142.536 278.926 142.984C278.68 143.421 278.558 143.944 278.558 144.552C278.558 145.16 278.68 145.693 278.926 146.152C279.182 146.611 279.512 146.963 279.918 147.208C280.334 147.443 280.771 147.56 281.23 147.56C281.699 147.56 282.136 147.443 282.542 147.208C282.947 146.973 283.272 146.632 283.518 146.184C283.774 145.725 283.902 145.192 283.902 144.584ZM283.166 138.216V139.56L279.63 137.816V136.264L283.166 138.216ZM415.723 137.72C416.811 137.72 417.681 138.019 418.331 138.616C418.993 139.213 419.323 140.029 419.323 141.064C419.323 142.141 418.982 142.952 418.299 143.496C417.617 144.04 416.71 144.312 415.579 144.312L415.515 145.576H413.931L413.851 143.064H414.379C415.414 143.064 416.203 142.925 416.747 142.648C417.302 142.371 417.579 141.843 417.579 141.064C417.579 140.499 417.414 140.056 417.083 139.736C416.763 139.416 416.315 139.256 415.739 139.256C415.163 139.256 414.71 139.411 414.379 139.72C414.049 140.029 413.883 140.461 413.883 141.016H412.171C412.171 140.376 412.315 139.805 412.603 139.304C412.891 138.803 413.302 138.413 413.835 138.136C414.379 137.859 415.009 137.72 415.723 137.72ZM414.699 149.112C414.369 149.112 414.091 149 413.867 148.776C413.643 148.552 413.531 148.275 413.531 147.944C413.531 147.613 413.643 147.336 413.867 147.112C414.091 146.888 414.369 146.776 414.699 146.776C415.019 146.776 415.291 146.888 415.515 147.112C415.739 147.336 415.851 147.613 415.851 147.944C415.851 148.275 415.739 148.552 415.515 148.776C415.291 149 415.019 149.112 414.699 149.112Z" fill="white"/>
<path d="M207.697 141.688H205.713L207.393 137.88H208.673L207.697 141.688ZM210.577 141.688H208.593L210.273 137.88H211.553L210.577 141.688ZM222.143 137.88V149H220.319V144.136H215.087V149H213.263V137.88H215.087V142.648H220.319V137.88H222.143ZM223.936 144.552C223.936 143.667 224.117 142.883 224.48 142.2C224.853 141.517 225.354 140.989 225.984 140.616C226.624 140.232 227.328 140.04 228.096 140.04C228.789 140.04 229.392 140.179 229.904 140.456C230.426 140.723 230.842 141.059 231.152 141.464V140.184H232.992V149H231.152V147.688C230.842 148.104 230.421 148.451 229.888 148.728C229.354 149.005 228.746 149.144 228.064 149.144C227.306 149.144 226.613 148.952 225.984 148.568C225.354 148.173 224.853 147.629 224.48 146.936C224.117 146.232 223.936 145.437 223.936 144.552ZM231.152 144.584C231.152 143.976 231.024 143.448 230.768 143C230.522 142.552 230.197 142.211 229.792 141.976C229.386 141.741 228.949 141.624 228.48 141.624C228.01 141.624 227.573 141.741 227.168 141.976C226.762 142.2 226.432 142.536 226.176 142.984C225.93 143.421 225.808 143.944 225.808 144.552C225.808 145.16 225.93 145.693 226.176 146.152C226.432 146.611 226.762 146.963 227.168 147.208C227.584 147.443 228.021 147.56 228.48 147.56C228.949 147.56 229.386 147.443 229.792 147.208C230.197 146.973 230.522 146.632 230.768 146.184C231.024 145.725 231.152 145.192 231.152 144.584ZM237.212 141.48C237.521 141.075 237.942 140.733 238.476 140.456C239.009 140.179 239.612 140.04 240.284 140.04C241.052 140.04 241.75 140.232 242.38 140.616C243.02 140.989 243.521 141.517 243.884 142.2C244.246 142.883 244.428 143.667 244.428 144.552C244.428 145.437 244.246 146.232 243.884 146.936C243.521 147.629 243.02 148.173 242.38 148.568C241.75 148.952 241.052 149.144 240.284 149.144C239.612 149.144 239.014 149.011 238.492 148.744C237.969 148.467 237.542 148.125 237.212 147.72V153.192H235.388V140.184H237.212V141.48ZM242.572 144.552C242.572 143.944 242.444 143.421 242.188 142.984C241.942 142.536 241.612 142.2 241.196 141.976C240.79 141.741 240.353 141.624 239.884 141.624C239.425 141.624 238.988 141.741 238.572 141.976C238.166 142.211 237.836 142.552 237.58 143C237.334 143.448 237.212 143.976 237.212 144.584C237.212 145.192 237.334 145.725 237.58 146.184C237.836 146.632 238.166 146.973 238.572 147.208C238.988 147.443 239.425 147.56 239.884 147.56C240.353 147.56 240.79 147.443 241.196 147.208C241.612 146.963 241.942 146.611 242.188 146.152C242.444 145.693 242.572 145.16 242.572 144.552ZM248.055 141.48C248.365 141.075 248.786 140.733 249.319 140.456C249.853 140.179 250.455 140.04 251.127 140.04C251.895 140.04 252.594 140.232 253.223 140.616C253.863 140.989 254.365 141.517 254.727 142.2C255.09 142.883 255.271 143.667 255.271 144.552C255.271 145.437 255.09 146.232 254.727 146.936C254.365 147.629 253.863 148.173 253.223 148.568C252.594 148.952 251.895 149.144 251.127 149.144C250.455 149.144 249.858 149.011 249.335 148.744C248.813 148.467 248.386 148.125 248.055 147.72V153.192H246.231V140.184H248.055V141.48ZM253.415 144.552C253.415 143.944 253.287 143.421 253.031 142.984C252.786 142.536 252.455 142.2 252.039 141.976C251.634 141.741 251.197 141.624 250.727 141.624C250.269 141.624 249.831 141.741 249.415 141.976C249.01 142.211 248.679 142.552 248.423 143C248.178 143.448 248.055 143.976 248.055 144.584C248.055 145.192 248.178 145.725 248.423 146.184C248.679 146.632 249.01 146.973 249.415 147.208C249.831 147.443 250.269 147.56 250.727 147.56C251.197 147.56 251.634 147.443 252.039 147.208C252.455 146.963 252.786 146.611 253.031 146.152C253.287 145.693 253.415 145.16 253.415 144.552ZM265.011 140.184L259.603 153.144H257.715L259.507 148.856L256.035 140.184H258.067L260.547 146.904L263.123 140.184H265.011ZM266.676 137.88H268.66L266.98 141.688H265.7L266.676 137.88ZM269.556 137.88H271.54L269.86 141.688H268.58L269.556 137.88ZM293.478 141.688H291.494L293.174 137.88H294.454L293.478 141.688ZM296.358 141.688H294.374L296.054 137.88H297.334L296.358 141.688ZM308.18 149H306.356L300.868 140.696V149H299.044V137.864H300.868L306.356 146.152V137.864H308.18V149ZM314.399 149.144C313.567 149.144 312.815 148.957 312.143 148.584C311.471 148.2 310.943 147.667 310.559 146.984C310.175 146.291 309.983 145.491 309.983 144.584C309.983 143.688 310.18 142.893 310.575 142.2C310.97 141.507 311.508 140.973 312.191 140.6C312.874 140.227 313.636 140.04 314.479 140.04C315.322 140.04 316.084 140.227 316.767 140.6C317.45 140.973 317.988 141.507 318.383 142.2C318.778 142.893 318.975 143.688 318.975 144.584C318.975 145.48 318.772 146.275 318.367 146.968C317.962 147.661 317.407 148.2 316.703 148.584C316.01 148.957 315.242 149.144 314.399 149.144ZM314.399 147.56C314.868 147.56 315.306 147.448 315.711 147.224C316.127 147 316.463 146.664 316.719 146.216C316.975 145.768 317.103 145.224 317.103 144.584C317.103 143.944 316.98 143.405 316.735 142.968C316.49 142.52 316.164 142.184 315.759 141.96C315.354 141.736 314.916 141.624 314.447 141.624C313.978 141.624 313.54 141.736 313.135 141.96C312.74 142.184 312.426 142.52 312.191 142.968C311.956 143.405 311.839 143.944 311.839 144.584C311.839 145.533 312.079 146.269 312.559 146.792C313.05 147.304 313.663 147.56 314.399 147.56ZM324.186 147.368L326.682 140.184H328.618L325.258 149H323.082L319.738 140.184H321.69L324.186 147.368ZM329.389 144.552C329.389 143.667 329.57 142.883 329.933 142.2C330.306 141.517 330.808 140.989 331.437 140.616C332.077 140.232 332.781 140.04 333.549 140.04C334.242 140.04 334.845 140.179 335.357 140.456C335.88 140.723 336.296 141.059 336.605 141.464V140.184H338.445V149H336.605V147.688C336.296 148.104 335.874 148.451 335.341 148.728C334.808 149.005 334.2 149.144 333.517 149.144C332.76 149.144 332.066 148.952 331.437 148.568C330.808 148.173 330.306 147.629 329.933 146.936C329.57 146.232 329.389 145.437 329.389 144.552ZM336.605 144.584C336.605 143.976 336.477 143.448 336.221 143C335.976 142.552 335.65 142.211 335.245 141.976C334.84 141.741 334.402 141.624 333.933 141.624C333.464 141.624 333.026 141.741 332.621 141.976C332.216 142.2 331.885 142.536 331.629 142.984C331.384 143.421 331.261 143.944 331.261 144.552C331.261 145.16 331.384 145.693 331.629 146.152C331.885 146.611 332.216 146.963 332.621 147.208C333.037 147.443 333.474 147.56 333.933 147.56C334.402 147.56 334.84 147.443 335.245 147.208C335.65 146.973 335.976 146.632 336.221 146.184C336.477 145.725 336.605 145.192 336.605 144.584ZM352.773 141.192C352.773 141.757 352.64 142.291 352.373 142.792C352.106 143.293 351.68 143.704 351.093 144.024C350.506 144.333 349.754 144.488 348.837 144.488H346.821V149H344.997V137.88H348.837C349.69 137.88 350.41 138.029 350.997 138.328C351.594 138.616 352.037 139.011 352.325 139.512C352.624 140.013 352.773 140.573 352.773 141.192ZM348.837 143C349.53 143 350.048 142.845 350.389 142.536C350.73 142.216 350.901 141.768 350.901 141.192C350.901 139.976 350.213 139.368 348.837 139.368H346.821V143H348.837ZM356.337 137.16V149H354.513V137.16H356.337ZM358.123 144.552C358.123 143.667 358.305 142.883 358.667 142.2C359.041 141.517 359.542 140.989 360.171 140.616C360.811 140.232 361.515 140.04 362.283 140.04C362.977 140.04 363.579 140.179 364.091 140.456C364.614 140.723 365.03 141.059 365.339 141.464V140.184H367.179V149H365.339V147.688C365.03 148.104 364.609 148.451 364.075 148.728C363.542 149.005 362.934 149.144 362.251 149.144C361.494 149.144 360.801 148.952 360.171 148.568C359.542 148.173 359.041 147.629 358.667 146.936C358.305 146.232 358.123 145.437 358.123 144.552ZM365.339 144.584C365.339 143.976 365.211 143.448 364.955 143C364.71 142.552 364.385 142.211 363.979 141.976C363.574 141.741 363.137 141.624 362.667 141.624C362.198 141.624 361.761 141.741 361.355 141.976C360.95 142.2 360.619 142.536 360.363 142.984C360.118 143.421 359.995 143.944 359.995 144.552C359.995 145.16 360.118 145.693 360.363 146.152C360.619 146.611 360.95 146.963 361.355 147.208C361.771 147.443 362.209 147.56 362.667 147.56C363.137 147.56 363.574 147.443 363.979 147.208C364.385 146.973 364.71 146.632 364.955 146.184C365.211 145.725 365.339 145.192 365.339 144.584ZM377.511 140.184L372.103 153.144H370.215L372.007 148.856L368.535 140.184H370.567L373.047 146.904L375.623 140.184H377.511ZM380.712 137.16V149H378.888V137.16H380.712ZM384.034 139.016C383.704 139.016 383.426 138.904 383.202 138.68C382.978 138.456 382.866 138.179 382.866 137.848C382.866 137.517 382.978 137.24 383.202 137.016C383.426 136.792 383.704 136.68 384.034 136.68C384.354 136.68 384.626 136.792 384.85 137.016C385.074 137.24 385.186 137.517 385.186 137.848C385.186 138.179 385.074 138.456 384.85 138.68C384.626 138.904 384.354 139.016 384.034 139.016ZM384.93 140.184V149H383.106V140.184H384.93ZM390.525 149.144C389.832 149.144 389.208 149.021 388.653 148.776C388.109 148.52 387.677 148.179 387.357 147.752C387.037 147.315 386.866 146.829 386.845 146.296H388.733C388.765 146.669 388.941 146.984 389.261 147.24C389.592 147.485 390.002 147.608 390.493 147.608C391.005 147.608 391.4 147.512 391.677 147.32C391.965 147.117 392.109 146.861 392.109 146.552C392.109 146.221 391.949 145.976 391.629 145.816C391.32 145.656 390.824 145.48 390.141 145.288C389.48 145.107 388.941 144.931 388.525 144.76C388.109 144.589 387.746 144.328 387.437 143.976C387.138 143.624 386.989 143.16 386.989 142.584C386.989 142.115 387.128 141.688 387.405 141.304C387.682 140.909 388.077 140.6 388.589 140.376C389.112 140.152 389.709 140.04 390.381 140.04C391.384 140.04 392.189 140.296 392.797 140.808C393.416 141.309 393.746 141.997 393.789 142.872H391.965C391.933 142.477 391.773 142.163 391.485 141.928C391.197 141.693 390.808 141.576 390.317 141.576C389.837 141.576 389.469 141.667 389.213 141.848C388.957 142.029 388.829 142.269 388.829 142.568C388.829 142.803 388.914 143 389.085 143.16C389.256 143.32 389.464 143.448 389.709 143.544C389.954 143.629 390.317 143.741 390.797 143.88C391.437 144.051 391.96 144.227 392.365 144.408C392.781 144.579 393.138 144.835 393.437 145.176C393.736 145.517 393.89 145.971 393.901 146.536C393.901 147.037 393.762 147.485 393.485 147.88C393.208 148.275 392.813 148.584 392.301 148.808C391.8 149.032 391.208 149.144 390.525 149.144ZM398 141.672V146.552C398 146.883 398.075 147.123 398.224 147.272C398.384 147.411 398.651 147.48 399.024 147.48H400.144V149H398.704C397.883 149 397.253 148.808 396.816 148.424C396.379 148.04 396.16 147.416 396.16 146.552V141.672H395.12V140.184H396.16V137.992H398V140.184H400.144V141.672H398ZM402.113 137.88H404.097L402.417 141.688H401.137L402.113 137.88ZM404.993 137.88H406.977L405.297 141.688H404.017L404.993 137.88Z" fill="#DA3BBD"/>
<rect x="53.5" y="92.5" width="387.743" height="29" rx="14.5" stroke="#DA3BBD"/>
<path d="M465 128.857V120.286H492.632V128.857H465ZM465 111.714V103.143H508.421V111.714H465ZM465 94.5714V86H508.421V94.5714H465ZM516.316 146V128.857H500.526V120.286H516.316V103.143H524.211V120.286H540V128.857H524.211V146H516.316Z" fill="#DA3BBD"/>
<path d="M199.838 113H198.014L192.526 104.696V113H190.702V101.864H192.526L198.014 110.152V101.864H199.838V113ZM206.057 113.144C205.225 113.144 204.473 112.957 203.801 112.584C203.129 112.2 202.601 111.667 202.217 110.984C201.833 110.291 201.641 109.491 201.641 108.584C201.641 107.688 201.839 106.893 202.233 106.2C202.628 105.507 203.167 104.973 203.849 104.6C204.532 104.227 205.295 104.04 206.137 104.04C206.98 104.04 207.743 104.227 208.425 104.6C209.108 104.973 209.647 105.507 210.041 106.2C210.436 106.893 210.633 107.688 210.633 108.584C210.633 109.48 210.431 110.275 210.025 110.968C209.62 111.661 209.065 112.2 208.361 112.584C207.668 112.957 206.9 113.144 206.057 113.144ZM206.057 111.56C206.527 111.56 206.964 111.448 207.369 111.224C207.785 111 208.121 110.664 208.377 110.216C208.633 109.768 208.761 109.224 208.761 108.584C208.761 107.944 208.639 107.405 208.393 106.968C208.148 106.52 207.823 106.184 207.417 105.96C207.012 105.736 206.575 105.624 206.105 105.624C205.636 105.624 205.199 105.736 204.793 105.96C204.399 106.184 204.084 106.52 203.849 106.968C203.615 107.405 203.497 107.944 203.497 108.584C203.497 109.533 203.737 110.269 204.217 110.792C204.708 111.304 205.321 111.56 206.057 111.56ZM215.844 111.368L218.34 104.184H220.276L216.916 113H214.74L211.396 104.184H213.348L215.844 111.368ZM221.047 108.552C221.047 107.667 221.228 106.883 221.591 106.2C221.964 105.517 222.466 104.989 223.095 104.616C223.735 104.232 224.439 104.04 225.207 104.04C225.9 104.04 226.503 104.179 227.015 104.456C227.538 104.723 227.954 105.059 228.263 105.464V104.184H230.103V113H228.263V111.688C227.954 112.104 227.532 112.451 226.999 112.728C226.466 113.005 225.858 113.144 225.175 113.144C224.418 113.144 223.724 112.952 223.095 112.568C222.466 112.173 221.964 111.629 221.591 110.936C221.228 110.232 221.047 109.437 221.047 108.552ZM228.263 108.584C228.263 107.976 228.135 107.448 227.879 107C227.634 106.552 227.308 106.211 226.903 105.976C226.498 105.741 226.06 105.624 225.591 105.624C225.122 105.624 224.684 105.741 224.279 105.976C223.874 106.2 223.543 106.536 223.287 106.984C223.042 107.421 222.919 107.944 222.919 108.552C222.919 109.16 223.042 109.693 223.287 110.152C223.543 110.611 223.874 110.963 224.279 111.208C224.695 111.443 225.132 111.56 225.591 111.56C226.06 111.56 226.498 111.443 226.903 111.208C227.308 110.973 227.634 110.632 227.879 110.184C228.135 109.725 228.263 109.192 228.263 108.584ZM244.431 105.192C244.431 105.757 244.298 106.291 244.031 106.792C243.764 107.293 243.338 107.704 242.751 108.024C242.164 108.333 241.412 108.488 240.495 108.488H238.479V113H236.655V101.88H240.495C241.348 101.88 242.068 102.029 242.655 102.328C243.252 102.616 243.695 103.011 243.983 103.512C244.282 104.013 244.431 104.573 244.431 105.192ZM240.495 107C241.188 107 241.706 106.845 242.047 106.536C242.388 106.216 242.559 105.768 242.559 105.192C242.559 103.976 241.871 103.368 240.495 103.368H238.479V107H240.495ZM247.995 101.16V113H246.171V101.16H247.995ZM249.781 108.552C249.781 107.667 249.963 106.883 250.325 106.2C250.699 105.517 251.2 104.989 251.829 104.616C252.469 104.232 253.173 104.04 253.941 104.04C254.635 104.04 255.237 104.179 255.749 104.456C256.272 104.723 256.688 105.059 256.997 105.464V104.184H258.837V113H256.997V111.688C256.688 112.104 256.267 112.451 255.733 112.728C255.2 113.005 254.592 113.144 253.909 113.144C253.152 113.144 252.459 112.952 251.829 112.568C251.2 112.173 250.699 111.629 250.325 110.936C249.963 110.232 249.781 109.437 249.781 108.552ZM256.997 108.584C256.997 107.976 256.869 107.448 256.613 107C256.368 106.552 256.043 106.211 255.637 105.976C255.232 105.741 254.795 105.624 254.325 105.624C253.856 105.624 253.419 105.741 253.013 105.976C252.608 106.2 252.277 106.536 252.021 106.984C251.776 107.421 251.653 107.944 251.653 108.552C251.653 109.16 251.776 109.693 252.021 110.152C252.277 110.611 252.608 110.963 253.013 111.208C253.429 111.443 253.867 111.56 254.325 111.56C254.795 111.56 255.232 111.443 255.637 111.208C256.043 110.973 256.368 110.632 256.613 110.184C256.869 109.725 256.997 109.192 256.997 108.584ZM269.169 104.184L263.761 117.144H261.873L263.665 112.856L260.193 104.184H262.225L264.705 110.904L267.281 104.184H269.169ZM272.37 101.16V113H270.546V101.16H272.37ZM275.692 103.016C275.362 103.016 275.084 102.904 274.86 102.68C274.636 102.456 274.524 102.179 274.524 101.848C274.524 101.517 274.636 101.24 274.86 101.016C275.084 100.792 275.362 100.68 275.692 100.68C276.012 100.68 276.284 100.792 276.508 101.016C276.732 101.24 276.844 101.517 276.844 101.848C276.844 102.179 276.732 102.456 276.508 102.68C276.284 102.904 276.012 103.016 275.692 103.016ZM276.588 104.184V113H274.764V104.184H276.588ZM282.183 113.144C281.49 113.144 280.866 113.021 280.311 112.776C279.767 112.52 279.335 112.179 279.015 111.752C278.695 111.315 278.525 110.829 278.503 110.296H280.391C280.423 110.669 280.599 110.984 280.919 111.24C281.25 111.485 281.661 111.608 282.151 111.608C282.663 111.608 283.058 111.512 283.335 111.32C283.623 111.117 283.767 110.861 283.767 110.552C283.767 110.221 283.607 109.976 283.287 109.816C282.978 109.656 282.482 109.48 281.799 109.288C281.138 109.107 280.599 108.931 280.183 108.76C279.767 108.589 279.405 108.328 279.095 107.976C278.797 107.624 278.647 107.16 278.647 106.584C278.647 106.115 278.786 105.688 279.063 105.304C279.341 104.909 279.735 104.6 280.247 104.376C280.77 104.152 281.367 104.04 282.039 104.04C283.042 104.04 283.847 104.296 284.455 104.808C285.074 105.309 285.405 105.997 285.447 106.872H283.623C283.591 106.477 283.431 106.163 283.143 105.928C282.855 105.693 282.466 105.576 281.975 105.576C281.495 105.576 281.127 105.667 280.871 105.848C280.615 106.029 280.487 106.269 280.487 106.568C280.487 106.803 280.573 107 280.743 107.16C280.914 107.32 281.122 107.448 281.367 107.544C281.613 107.629 281.975 107.741 282.455 107.88C283.095 108.051 283.618 108.227 284.023 108.408C284.439 108.579 284.797 108.835 285.095 109.176C285.394 109.517 285.549 109.971 285.559 110.536C285.559 111.037 285.421 111.485 285.143 111.88C284.866 112.275 284.471 112.584 283.959 112.808C283.458 113.032 282.866 113.144 282.183 113.144ZM289.658 105.672V110.552C289.658 110.883 289.733 111.123 289.882 111.272C290.042 111.411 290.309 111.48 290.682 111.48H291.802V113H290.362C289.541 113 288.911 112.808 288.474 112.424C288.037 112.04 287.818 111.416 287.818 110.552V105.672H286.778V104.184H287.818V101.992H289.658V104.184H291.802V105.672H289.658Z" fill="white"/>
<path d="M62.74 33.02C62.74 31.66 63.0533 30.44 63.68 29.36C64.32 28.28 65.18 27.44 66.26 26.84C67.3533 26.2267 68.5467 25.92 69.84 25.92C71.32 25.92 72.6333 26.2867 73.78 27.02C74.94 27.74 75.78 28.7667 76.3 30.1H73.56C73.2 29.3667 72.7 28.82 72.06 28.46C71.42 28.1 70.68 27.92 69.84 27.92C68.92 27.92 68.1 28.1267 67.38 28.54C66.66 28.9533 66.0933 29.5467 65.68 30.32C65.28 31.0933 65.08 31.9933 65.08 33.02C65.08 34.0467 65.28 34.9467 65.68 35.72C66.0933 36.4933 66.66 37.0933 67.38 37.52C68.1 37.9333 68.92 38.14 69.84 38.14C70.68 38.14 71.42 37.96 72.06 37.6C72.7 37.24 73.2 36.6933 73.56 35.96H76.3C75.78 37.2933 74.94 38.32 73.78 39.04C72.6333 39.76 71.32 40.12 69.84 40.12C68.5333 40.12 67.34 39.82 66.26 39.22C65.18 38.6067 64.32 37.76 63.68 36.68C63.0533 35.6 62.74 34.38 62.74 33.02ZM81.2488 30.58C81.5821 30.02 82.0221 29.5867 82.5688 29.28C83.1288 28.96 83.7888 28.8 84.5488 28.8V31.16H83.9688C83.0754 31.16 82.3954 31.3867 81.9288 31.84C81.4754 32.2933 81.2488 33.08 81.2488 34.2V40H78.9688V28.98H81.2488V30.58ZM87.8045 27.52C87.3912 27.52 87.0445 27.38 86.7645 27.1C86.4845 26.82 86.3445 26.4733 86.3445 26.06C86.3445 25.6467 86.4845 25.3 86.7645 25.02C87.0445 24.74 87.3912 24.6 87.8045 24.6C88.2045 24.6 88.5445 24.74 88.8245 25.02C89.1045 25.3 89.2445 25.6467 89.2445 26.06C89.2445 26.4733 89.1045 26.82 88.8245 27.1C88.5445 27.38 88.2045 27.52 87.8045 27.52ZM88.9245 28.98V40H86.6445V28.98H88.9245ZM102.018 34.22C102.018 34.6333 101.991 35.0067 101.938 35.34H93.518C93.5846 36.22 93.9113 36.9267 94.498 37.46C95.0846 37.9933 95.8046 38.26 96.658 38.26C97.8846 38.26 98.7513 37.7467 99.258 36.72H101.718C101.385 37.7333 100.778 38.5667 99.898 39.22C99.0313 39.86 97.9513 40.18 96.658 40.18C95.6046 40.18 94.658 39.9467 93.818 39.48C92.9913 39 92.338 38.3333 91.858 37.48C91.3913 36.6133 91.158 35.6133 91.158 34.48C91.158 33.3467 91.3846 32.3533 91.838 31.5C92.3046 30.6333 92.9513 29.9667 93.778 29.5C94.618 29.0333 95.578 28.8 96.658 28.8C97.698 28.8 98.6246 29.0267 99.438 29.48C100.251 29.9333 100.885 30.5733 101.338 31.4C101.791 32.2133 102.018 33.1533 102.018 34.22ZM99.638 33.5C99.6246 32.66 99.3246 31.9867 98.738 31.48C98.1513 30.9733 97.4246 30.72 96.558 30.72C95.7713 30.72 95.098 30.9733 94.538 31.48C93.978 31.9733 93.6446 32.6467 93.538 33.5H99.638ZM119.557 34.22C119.557 34.6333 119.53 35.0067 119.477 35.34H111.057C111.124 36.22 111.45 36.9267 112.037 37.46C112.624 37.9933 113.344 38.26 114.197 38.26C115.424 38.26 116.29 37.7467 116.797 36.72H119.257C118.924 37.7333 118.317 38.5667 117.437 39.22C116.57 39.86 115.49 40.18 114.197 40.18C113.144 40.18 112.197 39.9467 111.357 39.48C110.53 39 109.877 38.3333 109.397 37.48C108.93 36.6133 108.697 35.6133 108.697 34.48C108.697 33.3467 108.924 32.3533 109.377 31.5C109.844 30.6333 110.49 29.9667 111.317 29.5C112.157 29.0333 113.117 28.8 114.197 28.8C115.237 28.8 116.164 29.0267 116.977 29.48C117.79 29.9333 118.424 30.5733 118.877 31.4C119.33 32.2133 119.557 33.1533 119.557 34.22ZM117.177 33.5C117.164 32.66 116.864 31.9867 116.277 31.48C115.69 30.9733 114.964 30.72 114.097 30.72C113.31 30.72 112.637 30.9733 112.077 31.48C111.517 31.9733 111.184 32.6467 111.077 33.5H117.177ZM126.236 34.44C126.236 33.3333 126.463 32.3533 126.916 31.5C127.383 30.6467 128.009 29.9867 128.796 29.52C129.596 29.04 130.476 28.8 131.436 28.8C132.303 28.8 133.056 28.9733 133.696 29.32C134.349 29.6533 134.869 30.0733 135.256 30.58V28.98H137.556V40H135.256V38.36C134.869 38.88 134.343 39.3133 133.676 39.66C133.009 40.0067 132.249 40.18 131.396 40.18C130.449 40.18 129.583 39.94 128.796 39.46C128.009 38.9667 127.383 38.2867 126.916 37.42C126.463 36.54 126.236 35.5467 126.236 34.44ZM135.256 34.48C135.256 33.72 135.096 33.06 134.776 32.5C134.469 31.94 134.063 31.5133 133.556 31.22C133.049 30.9267 132.503 30.78 131.916 30.78C131.329 30.78 130.783 30.9267 130.276 31.22C129.769 31.5 129.356 31.92 129.036 32.48C128.729 33.0267 128.576 33.68 128.576 34.44C128.576 35.2 128.729 35.8667 129.036 36.44C129.356 37.0133 129.769 37.4533 130.276 37.76C130.796 38.0533 131.343 38.2 131.916 38.2C132.503 38.2 133.049 38.0533 133.556 37.76C134.063 37.4667 134.469 37.04 134.776 36.48C135.096 35.9067 135.256 35.24 135.256 34.48ZM139.791 34.44C139.791 33.3333 140.017 32.3533 140.471 31.5C140.937 30.6467 141.564 29.9867 142.351 29.52C143.151 29.04 144.037 28.8 145.011 28.8C145.731 28.8 146.437 28.96 147.131 29.28C147.837 29.5867 148.397 30 148.811 30.52V25.2H151.111V40H148.811V38.34C148.437 38.8733 147.917 39.3133 147.251 39.66C146.597 40.0067 145.844 40.18 144.991 40.18C144.031 40.18 143.151 39.94 142.351 39.46C141.564 38.9667 140.937 38.2867 140.471 37.42C140.017 36.54 139.791 35.5467 139.791 34.44ZM148.811 34.48C148.811 33.72 148.651 33.06 148.331 32.5C148.024 31.94 147.617 31.5133 147.111 31.22C146.604 30.9267 146.057 30.78 145.471 30.78C144.884 30.78 144.337 30.9267 143.831 31.22C143.324 31.5 142.911 31.92 142.591 32.48C142.284 33.0267 142.131 33.68 142.131 34.44C142.131 35.2 142.284 35.8667 142.591 36.44C142.911 37.0133 143.324 37.4533 143.831 37.76C144.351 38.0533 144.897 38.2 145.471 38.2C146.057 38.2 146.604 38.0533 147.111 37.76C147.617 37.4667 148.024 37.04 148.331 36.48C148.651 35.9067 148.811 35.24 148.811 34.48ZM155.265 27.52C154.852 27.52 154.505 27.38 154.225 27.1C153.945 26.82 153.805 26.4733 153.805 26.06C153.805 25.6467 153.945 25.3 154.225 25.02C154.505 24.74 154.852 24.6 155.265 24.6C155.665 24.6 156.005 24.74 156.285 25.02C156.565 25.3 156.705 25.6467 156.705 26.06C156.705 26.4733 156.565 26.82 156.285 27.1C156.005 27.38 155.665 27.52 155.265 27.52ZM156.385 28.98V40H154.105V28.98H156.385ZM158.619 34.48C158.619 33.3467 158.846 32.3533 159.299 31.5C159.766 30.6333 160.406 29.9667 161.219 29.5C162.032 29.0333 162.966 28.8 164.019 28.8C165.352 28.8 166.452 29.12 167.319 29.76C168.199 30.3867 168.792 31.2867 169.099 32.46H166.639C166.439 31.9133 166.119 31.4867 165.679 31.18C165.239 30.8733 164.686 30.72 164.019 30.72C163.086 30.72 162.339 31.0533 161.779 31.72C161.232 32.3733 160.959 33.2933 160.959 34.48C160.959 35.6667 161.232 36.5933 161.779 37.26C162.339 37.9267 163.086 38.26 164.019 38.26C165.339 38.26 166.212 37.68 166.639 36.52H169.099C168.779 37.64 168.179 38.5333 167.299 39.2C166.419 39.8533 165.326 40.18 164.019 40.18C162.966 40.18 162.032 39.9467 161.219 39.48C160.406 39 159.766 38.3333 159.299 37.48C158.846 36.6133 158.619 35.6133 158.619 34.48ZM172.531 27.52C172.118 27.52 171.771 27.38 171.491 27.1C171.211 26.82 171.071 26.4733 171.071 26.06C171.071 25.6467 171.211 25.3 171.491 25.02C171.771 24.74 172.118 24.6 172.531 24.6C172.931 24.6 173.271 24.74 173.551 25.02C173.831 25.3 173.971 25.6467 173.971 26.06C173.971 26.4733 173.831 26.82 173.551 27.1C173.271 27.38 172.931 27.52 172.531 27.52ZM173.651 28.98V40H171.371V28.98H173.651ZM181.425 40.18C180.385 40.18 179.445 39.9467 178.605 39.48C177.765 39 177.105 38.3333 176.625 37.48C176.145 36.6133 175.905 35.6133 175.905 34.48C175.905 33.36 176.151 32.3667 176.645 31.5C177.138 30.6333 177.811 29.9667 178.665 29.5C179.518 29.0333 180.471 28.8 181.525 28.8C182.578 28.8 183.531 29.0333 184.385 29.5C185.238 29.9667 185.911 30.6333 186.405 31.5C186.898 32.3667 187.145 33.36 187.145 34.48C187.145 35.6 186.891 36.5933 186.385 37.46C185.878 38.3267 185.185 39 184.305 39.48C183.438 39.9467 182.478 40.18 181.425 40.18ZM181.425 38.2C182.011 38.2 182.558 38.06 183.065 37.78C183.585 37.5 184.005 37.08 184.325 36.52C184.645 35.96 184.805 35.28 184.805 34.48C184.805 33.68 184.651 33.0067 184.345 32.46C184.038 31.9 183.631 31.48 183.125 31.2C182.618 30.92 182.071 30.78 181.485 30.78C180.898 30.78 180.351 30.92 179.845 31.2C179.351 31.48 178.958 31.9 178.665 32.46C178.371 33.0067 178.225 33.68 178.225 34.48C178.225 35.6667 178.525 36.5867 179.125 37.24C179.738 37.88 180.505 38.2 181.425 38.2ZM194.958 28.8C195.825 28.8 196.598 28.98 197.278 29.34C197.972 29.7 198.512 30.2333 198.898 30.94C199.285 31.6467 199.478 32.5 199.478 33.5V40H197.218V33.84C197.218 32.8533 196.972 32.1 196.478 31.58C195.985 31.0467 195.312 30.78 194.458 30.78C193.605 30.78 192.925 31.0467 192.418 31.58C191.925 32.1 191.678 32.8533 191.678 33.84V40H189.398V28.98H191.678V30.24C192.052 29.7867 192.525 29.4333 193.098 29.18C193.685 28.9267 194.305 28.8 194.958 28.8ZM212.487 34.22C212.487 34.6333 212.46 35.0067 212.407 35.34H203.987C204.053 36.22 204.38 36.9267 204.967 37.46C205.553 37.9933 206.273 38.26 207.127 38.26C208.353 38.26 209.22 37.7467 209.727 36.72H212.187C211.853 37.7333 211.247 38.5667 210.367 39.22C209.5 39.86 208.42 40.18 207.127 40.18C206.073 40.18 205.127 39.9467 204.287 39.48C203.46 39 202.807 38.3333 202.327 37.48C201.86 36.6133 201.627 35.6133 201.627 34.48C201.627 33.3467 201.853 32.3533 202.307 31.5C202.773 30.6333 203.42 29.9667 204.247 29.5C205.087 29.0333 206.047 28.8 207.127 28.8C208.167 28.8 209.093 29.0267 209.907 29.48C210.72 29.9333 211.353 30.5733 211.807 31.4C212.26 32.2133 212.487 33.1533 212.487 34.22ZM210.107 33.5C210.093 32.66 209.793 31.9867 209.207 31.48C208.62 30.9733 207.893 30.72 207.027 30.72C206.24 30.72 205.567 30.9733 205.007 31.48C204.447 31.9733 204.113 32.6467 204.007 33.5H210.107Z" fill="#F5F5F5"/>
</svg>
