<svg width="600" height="280" viewBox="0 0 600 280" fill="none" xmlns="http://www.w3.org/2000/svg">
<rect width="600" height="280" rx="20" fill="#020C27"/>
<path d="M94.98 34.94V39.02H99.78V40.88H94.98V45.14H100.38V47H92.7V33.08H100.38V34.94H94.98ZM107.188 47.18C106.322 47.18 105.542 47.0267 104.848 46.72C104.168 46.4 103.628 45.9733 103.228 45.44C102.828 44.8933 102.615 44.2867 102.588 43.62H104.948C104.988 44.0867 105.208 44.48 105.608 44.8C106.022 45.1067 106.535 45.26 107.148 45.26C107.788 45.26 108.282 45.14 108.628 44.9C108.988 44.6467 109.168 44.3267 109.168 43.94C109.168 43.5267 108.968 43.22 108.568 43.02C108.182 42.82 107.562 42.6 106.708 42.36C105.882 42.1333 105.208 41.9133 104.688 41.7C104.168 41.4867 103.715 41.16 103.328 40.72C102.955 40.28 102.768 39.7 102.768 38.98C102.768 38.3933 102.942 37.86 103.288 37.38C103.635 36.8867 104.128 36.5 104.768 36.22C105.422 35.94 106.168 35.8 107.008 35.8C108.262 35.8 109.268 36.12 110.028 36.76C110.802 37.3867 111.215 38.2467 111.268 39.34H108.988C108.948 38.8467 108.748 38.4533 108.388 38.16C108.028 37.8667 107.542 37.72 106.928 37.72C106.328 37.72 105.868 37.8333 105.548 38.06C105.228 38.2867 105.068 38.5867 105.068 38.96C105.068 39.2533 105.175 39.5 105.388 39.7C105.602 39.9 105.862 40.06 106.168 40.18C106.475 40.2867 106.928 40.4267 107.528 40.6C108.328 40.8133 108.982 41.0333 109.488 41.26C110.008 41.4733 110.455 41.7933 110.828 42.22C111.202 42.6467 111.395 43.2133 111.408 43.92C111.408 44.5467 111.235 45.1067 110.888 45.6C110.542 46.0933 110.048 46.48 109.408 46.76C108.782 47.04 108.042 47.18 107.188 47.18ZM113.112 41.48C113.112 40.3467 113.338 39.3533 113.792 38.5C114.258 37.6333 114.898 36.9667 115.712 36.5C116.525 36.0333 117.458 35.8 118.512 35.8C119.845 35.8 120.945 36.12 121.812 36.76C122.692 37.3867 123.285 38.2867 123.592 39.46H121.132C120.932 38.9133 120.612 38.4867 120.172 38.18C119.732 37.8733 119.178 37.72 118.512 37.72C117.578 37.72 116.832 38.0533 116.272 38.72C115.725 39.3733 115.452 40.2933 115.452 41.48C115.452 42.6667 115.725 43.5933 116.272 44.26C116.832 44.9267 117.578 45.26 118.512 45.26C119.832 45.26 120.705 44.68 121.132 43.52H123.592C123.272 44.64 122.672 45.5333 121.792 46.2C120.912 46.8533 119.818 47.18 118.512 47.18C117.458 47.18 116.525 46.9467 115.712 46.48C114.898 46 114.258 45.3333 113.792 44.48C113.338 43.6133 113.112 42.6133 113.112 41.48ZM135.844 35.98V47H133.564V45.7C133.204 46.1533 132.731 46.5133 132.144 46.78C131.571 47.0333 130.957 47.16 130.304 47.16C129.437 47.16 128.657 46.98 127.964 46.62C127.284 46.26 126.744 45.7267 126.344 45.02C125.957 44.3133 125.764 43.46 125.764 42.46V35.98H128.024V42.12C128.024 43.1067 128.271 43.8667 128.764 44.4C129.257 44.92 129.931 45.18 130.784 45.18C131.637 45.18 132.311 44.92 132.804 44.4C133.311 43.8667 133.564 43.1067 133.564 42.12V35.98H135.844ZM141.512 37.84V43.94C141.512 44.3533 141.606 44.6533 141.792 44.84C141.992 45.0133 142.326 45.1 142.792 45.1H144.192V47H142.392C141.366 47 140.579 46.76 140.032 46.28C139.486 45.8 139.212 45.02 139.212 43.94V37.84H137.912V35.98H139.212V33.24H141.512V35.98H144.192V37.84H141.512ZM156.394 41.22C156.394 41.6333 156.367 42.0067 156.314 42.34H147.894C147.96 43.22 148.287 43.9267 148.874 44.46C149.46 44.9933 150.18 45.26 151.034 45.26C152.26 45.26 153.127 44.7467 153.634 43.72H156.094C155.76 44.7333 155.154 45.5667 154.274 46.22C153.407 46.86 152.327 47.18 151.034 47.18C149.98 47.18 149.034 46.9467 148.194 46.48C147.367 46 146.714 45.3333 146.234 44.48C145.767 43.6133 145.534 42.6133 145.534 41.48C145.534 40.3467 145.76 39.3533 146.214 38.5C146.68 37.6333 147.327 36.9667 148.154 36.5C148.994 36.0333 149.954 35.8 151.034 35.8C152.074 35.8 153 36.0267 153.814 36.48C154.627 36.9333 155.26 37.5733 155.714 38.4C156.167 39.2133 156.394 40.1533 156.394 41.22ZM154.014 40.5C154 39.66 153.7 38.9867 153.114 38.48C152.527 37.9733 151.8 37.72 150.934 37.72C150.147 37.72 149.474 37.9733 148.914 38.48C148.354 38.9733 148.02 39.6467 147.914 40.5H154.014ZM173.933 41.22C173.933 41.6333 173.906 42.0067 173.853 42.34H165.433C165.499 43.22 165.826 43.9267 166.413 44.46C166.999 44.9933 167.719 45.26 168.573 45.26C169.799 45.26 170.666 44.7467 171.173 43.72H173.633C173.299 44.7333 172.693 45.5667 171.813 46.22C170.946 46.86 169.866 47.18 168.573 47.18C167.519 47.18 166.573 46.9467 165.733 46.48C164.906 46 164.253 45.3333 163.773 44.48C163.306 43.6133 163.073 42.6133 163.073 41.48C163.073 40.3467 163.299 39.3533 163.753 38.5C164.219 37.6333 164.866 36.9667 165.693 36.5C166.533 36.0333 167.493 35.8 168.573 35.8C169.613 35.8 170.539 36.0267 171.353 36.48C172.166 36.9333 172.799 37.5733 173.253 38.4C173.706 39.2133 173.933 40.1533 173.933 41.22ZM171.553 40.5C171.539 39.66 171.239 38.9867 170.653 38.48C170.066 37.9733 169.339 37.72 168.473 37.72C167.686 37.72 167.013 37.9733 166.453 38.48C165.893 38.9733 165.559 39.6467 165.453 40.5H171.553ZM180.612 41.44C180.612 40.3333 180.838 39.3533 181.292 38.5C181.758 37.6467 182.385 36.9867 183.172 36.52C183.972 36.04 184.858 35.8 185.832 35.8C186.552 35.8 187.258 35.96 187.952 36.28C188.658 36.5867 189.218 37 189.632 37.52V32.2H191.932V47H189.632V45.34C189.258 45.8733 188.738 46.3133 188.072 46.66C187.418 47.0067 186.665 47.18 185.812 47.18C184.852 47.18 183.972 46.94 183.172 46.46C182.385 45.9667 181.758 45.2867 181.292 44.42C180.838 43.54 180.612 42.5467 180.612 41.44ZM189.632 41.48C189.632 40.72 189.472 40.06 189.152 39.5C188.845 38.94 188.438 38.5133 187.932 38.22C187.425 37.9267 186.878 37.78 186.292 37.78C185.705 37.78 185.158 37.9267 184.652 38.22C184.145 38.5 183.732 38.92 183.412 39.48C183.105 40.0267 182.952 40.68 182.952 41.44C182.952 42.2 183.105 42.8667 183.412 43.44C183.732 44.0133 184.145 44.4533 184.652 44.76C185.172 45.0533 185.718 45.2 186.292 45.2C186.878 45.2 187.425 45.0533 187.932 44.76C188.438 44.4667 188.845 44.04 189.152 43.48C189.472 42.9067 189.632 42.24 189.632 41.48ZM205.027 41.22C205.027 41.6333 205 42.0067 204.947 42.34H196.527C196.593 43.22 196.92 43.9267 197.507 44.46C198.093 44.9933 198.813 45.26 199.667 45.26C200.893 45.26 201.76 44.7467 202.267 43.72H204.727C204.393 44.7333 203.787 45.5667 202.907 46.22C202.04 46.86 200.96 47.18 199.667 47.18C198.613 47.18 197.667 46.9467 196.827 46.48C196 46 195.347 45.3333 194.867 44.48C194.4 43.6133 194.167 42.6133 194.167 41.48C194.167 40.3467 194.393 39.3533 194.847 38.5C195.313 37.6333 195.96 36.9667 196.787 36.5C197.627 36.0333 198.587 35.8 199.667 35.8C200.707 35.8 201.633 36.0267 202.447 36.48C203.26 36.9333 203.893 37.5733 204.347 38.4C204.8 39.2133 205.027 40.1533 205.027 41.22ZM202.647 40.5C202.633 39.66 202.333 38.9867 201.747 38.48C201.16 37.9733 200.433 37.72 199.567 37.72C198.78 37.72 198.107 37.9733 197.547 38.48C196.987 38.9733 196.653 39.6467 196.547 40.5H202.647ZM211.27 47.18C210.404 47.18 209.624 47.0267 208.93 46.72C208.25 46.4 207.71 45.9733 207.31 45.44C206.91 44.8933 206.697 44.2867 206.67 43.62H209.03C209.07 44.0867 209.29 44.48 209.69 44.8C210.104 45.1067 210.617 45.26 211.23 45.26C211.87 45.26 212.364 45.14 212.71 44.9C213.07 44.6467 213.25 44.3267 213.25 43.94C213.25 43.5267 213.05 43.22 212.65 43.02C212.264 42.82 211.644 42.6 210.79 42.36C209.964 42.1333 209.29 41.9133 208.77 41.7C208.25 41.4867 207.797 41.16 207.41 40.72C207.037 40.28 206.85 39.7 206.85 38.98C206.85 38.3933 207.024 37.86 207.37 37.38C207.717 36.8867 208.21 36.5 208.85 36.22C209.504 35.94 210.25 35.8 211.09 35.8C212.344 35.8 213.35 36.12 214.11 36.76C214.884 37.3867 215.297 38.2467 215.35 39.34H213.07C213.03 38.8467 212.83 38.4533 212.47 38.16C212.11 37.8667 211.624 37.72 211.01 37.72C210.41 37.72 209.95 37.8333 209.63 38.06C209.31 38.2867 209.15 38.5867 209.15 38.96C209.15 39.2533 209.257 39.5 209.47 39.7C209.684 39.9 209.944 40.06 210.25 40.18C210.557 40.2867 211.01 40.4267 211.61 40.6C212.41 40.8133 213.064 41.0333 213.57 41.26C214.09 41.4733 214.537 41.7933 214.91 42.22C215.284 42.6467 215.477 43.2133 215.49 43.92C215.49 44.5467 215.317 45.1067 214.97 45.6C214.624 46.0933 214.13 46.48 213.49 46.76C212.864 47.04 212.124 47.18 211.27 47.18ZM222.574 37.84H220.534V47H218.234V37.84H216.934V35.98H218.234V35.2C218.234 33.9333 218.567 33.0133 219.234 32.44C219.914 31.8533 220.974 31.56 222.414 31.56V33.46C221.721 33.46 221.234 33.5933 220.954 33.86C220.674 34.1133 220.534 34.56 220.534 35.2V35.98H222.574V37.84ZM226.874 37.58C227.208 37.02 227.648 36.5867 228.194 36.28C228.754 35.96 229.414 35.8 230.174 35.8V38.16H229.594C228.701 38.16 228.021 38.3867 227.554 38.84C227.101 39.2933 226.874 40.08 226.874 41.2V47H224.594V35.98H226.874V37.58ZM242.25 35.98V47H239.97V45.7C239.61 46.1533 239.137 46.5133 238.55 46.78C237.977 47.0333 237.364 47.16 236.71 47.16C235.844 47.16 235.064 46.98 234.37 46.62C233.69 46.26 233.15 45.7267 232.75 45.02C232.364 44.3133 232.17 43.46 232.17 42.46V35.98H234.43V42.12C234.43 43.1067 234.677 43.8667 235.17 44.4C235.664 44.92 236.337 45.18 237.19 45.18C238.044 45.18 238.717 44.92 239.21 44.4C239.717 43.8667 239.97 43.1067 239.97 42.12V35.98H242.25ZM247.919 37.84V43.94C247.919 44.3533 248.012 44.6533 248.199 44.84C248.399 45.0133 248.732 45.1 249.199 45.1H250.599V47H248.799C247.772 47 246.985 46.76 246.439 46.28C245.892 45.8 245.619 45.02 245.619 43.94V37.84H244.319V35.98H245.619V33.24H247.919V35.98H250.599V37.84H247.919ZM262.8 41.22C262.8 41.6333 262.773 42.0067 262.72 42.34H254.3C254.367 43.22 254.693 43.9267 255.28 44.46C255.867 44.9933 256.587 45.26 257.44 45.26C258.667 45.26 259.533 44.7467 260.04 43.72H262.5C262.167 44.7333 261.56 45.5667 260.68 46.22C259.813 46.86 258.733 47.18 257.44 47.18C256.387 47.18 255.44 46.9467 254.6 46.48C253.773 46 253.12 45.3333 252.64 44.48C252.173 43.6133 251.94 42.6133 251.94 41.48C251.94 40.3467 252.167 39.3533 252.62 38.5C253.087 37.6333 253.733 36.9667 254.56 36.5C255.4 36.0333 256.36 35.8 257.44 35.8C258.48 35.8 259.407 36.0267 260.22 36.48C261.033 36.9333 261.667 37.5733 262.12 38.4C262.573 39.2133 262.8 40.1533 262.8 41.22ZM260.42 40.5C260.407 39.66 260.107 38.9867 259.52 38.48C258.933 37.9733 258.207 37.72 257.34 37.72C256.553 37.72 255.88 37.9733 255.32 38.48C254.76 38.9733 254.427 39.6467 254.32 40.5H260.42Z" fill="#F5F5F5"/>
<path d="M106.2 85.1V99H103.92V92.92H97.3801V99H95.1001V85.1H97.3801V91.06H103.92V85.1H106.2ZM108.442 93.44C108.442 92.3333 108.668 91.3533 109.122 90.5C109.588 89.6467 110.215 88.9867 111.002 88.52C111.802 88.04 112.682 87.8 113.642 87.8C114.508 87.8 115.262 87.9733 115.902 88.32C116.555 88.6533 117.075 89.0733 117.462 89.58V87.98H119.762V99H117.462V97.36C117.075 97.88 116.548 98.3133 115.882 98.66C115.215 99.0067 114.455 99.18 113.602 99.18C112.655 99.18 111.788 98.94 111.002 98.46C110.215 97.9667 109.588 97.2867 109.122 96.42C108.668 95.54 108.442 94.5467 108.442 93.44ZM117.462 93.48C117.462 92.72 117.302 92.06 116.982 91.5C116.675 90.94 116.268 90.5133 115.762 90.22C115.255 89.9267 114.708 89.78 114.122 89.78C113.535 89.78 112.988 89.9267 112.482 90.22C111.975 90.5 111.562 90.92 111.242 91.48C110.935 92.0267 110.782 92.68 110.782 93.44C110.782 94.2 110.935 94.8667 111.242 95.44C111.562 96.0133 111.975 96.4533 112.482 96.76C113.002 97.0533 113.548 97.2 114.122 97.2C114.708 97.2 115.255 97.0533 115.762 96.76C116.268 96.4667 116.675 96.04 116.982 95.48C117.302 94.9067 117.462 94.24 117.462 93.48ZM125.036 89.6C125.423 89.0933 125.95 88.6667 126.616 88.32C127.283 87.9733 128.036 87.8 128.876 87.8C129.836 87.8 130.71 88.04 131.496 88.52C132.296 88.9867 132.923 89.6467 133.376 90.5C133.83 91.3533 134.056 92.3333 134.056 93.44C134.056 94.5467 133.83 95.54 133.376 96.42C132.923 97.2867 132.296 97.9667 131.496 98.46C130.71 98.94 129.836 99.18 128.876 99.18C128.036 99.18 127.29 99.0133 126.636 98.68C125.983 98.3333 125.45 97.9067 125.036 97.4V104.24H122.756V87.98H125.036V89.6ZM131.736 93.44C131.736 92.68 131.576 92.0267 131.256 91.48C130.95 90.92 130.536 90.5 130.016 90.22C129.51 89.9267 128.963 89.78 128.376 89.78C127.803 89.78 127.256 89.9267 126.736 90.22C126.23 90.5133 125.816 90.94 125.496 91.5C125.19 92.06 125.036 92.72 125.036 93.48C125.036 94.24 125.19 94.9067 125.496 95.48C125.816 96.04 126.23 96.4667 126.736 96.76C127.256 97.0533 127.803 97.2 128.376 97.2C128.963 97.2 129.51 97.0533 130.016 96.76C130.536 96.4533 130.95 96.0133 131.256 95.44C131.576 94.8667 131.736 94.2 131.736 93.44ZM138.591 89.6C138.978 89.0933 139.504 88.6667 140.171 88.32C140.838 87.9733 141.591 87.8 142.431 87.8C143.391 87.8 144.264 88.04 145.051 88.52C145.851 88.9867 146.478 89.6467 146.931 90.5C147.384 91.3533 147.611 92.3333 147.611 93.44C147.611 94.5467 147.384 95.54 146.931 96.42C146.478 97.2867 145.851 97.9667 145.051 98.46C144.264 98.94 143.391 99.18 142.431 99.18C141.591 99.18 140.844 99.0133 140.191 98.68C139.538 98.3333 139.004 97.9067 138.591 97.4V104.24H136.311V87.98H138.591V89.6ZM145.291 93.44C145.291 92.68 145.131 92.0267 144.811 91.48C144.504 90.92 144.091 90.5 143.571 90.22C143.064 89.9267 142.518 89.78 141.931 89.78C141.358 89.78 140.811 89.9267 140.291 90.22C139.784 90.5133 139.371 90.94 139.051 91.5C138.744 92.06 138.591 92.72 138.591 93.48C138.591 94.24 138.744 94.9067 139.051 95.48C139.371 96.04 139.784 96.4667 140.291 96.76C140.811 97.0533 141.358 97.2 141.931 97.2C142.518 97.2 143.064 97.0533 143.571 96.76C144.091 96.4533 144.504 96.0133 144.811 95.44C145.131 94.8667 145.291 94.2 145.291 93.44ZM159.786 87.98L153.026 104.18H150.666L152.906 98.82L148.566 87.98H151.106L154.206 96.38L157.426 87.98H159.786ZM171.178 94.08V95.232H166.246V94.08H171.178ZM179.685 90.66V99H178.317V90.66H179.685ZM184.817 92.28C185.337 92.28 185.801 92.388 186.209 92.604C186.625 92.82 186.949 93.14 187.181 93.564C187.413 93.988 187.529 94.5 187.529 95.1V99H186.173V95.304C186.173 94.712 186.025 94.26 185.729 93.948C185.433 93.628 185.029 93.468 184.517 93.468C184.005 93.468 183.597 93.628 183.293 93.948C182.997 94.26 182.849 94.712 182.849 95.304V99H181.481V92.388H182.849V93.144C183.073 92.872 183.357 92.66 183.701 92.508C184.053 92.356 184.425 92.28 184.817 92.28ZM193.606 99L191.686 95.664H190.642V99H189.274V90.66H192.154C192.794 90.66 193.334 90.772 193.774 90.996C194.222 91.22 194.554 91.52 194.77 91.896C194.994 92.272 195.106 92.692 195.106 93.156C195.106 93.7 194.946 94.196 194.626 94.644C194.314 95.084 193.83 95.384 193.174 95.544L195.238 99H193.606ZM190.642 94.572H192.154C192.666 94.572 193.05 94.444 193.306 94.188C193.57 93.932 193.702 93.588 193.702 93.156C193.702 92.724 193.574 92.388 193.318 92.148C193.062 91.9 192.674 91.776 192.154 91.776H190.642V94.572ZM202.916 95.532C202.916 95.78 202.9 96.004 202.868 96.204H197.816C197.856 96.732 198.052 97.156 198.404 97.476C198.756 97.796 199.188 97.956 199.7 97.956C200.436 97.956 200.956 97.648 201.26 97.032H202.736C202.536 97.64 202.172 98.14 201.644 98.532C201.124 98.916 200.476 99.108 199.7 99.108C199.068 99.108 198.5 98.968 197.996 98.688C197.5 98.4 197.108 98 196.82 97.488C196.54 96.968 196.4 96.368 196.4 95.688C196.4 95.008 196.536 94.412 196.808 93.9C197.088 93.38 197.476 92.98 197.972 92.7C198.476 92.42 199.052 92.28 199.7 92.28C200.324 92.28 200.88 92.416 201.368 92.688C201.856 92.96 202.236 93.344 202.508 93.84C202.78 94.328 202.916 94.892 202.916 95.532ZM201.488 95.1C201.48 94.596 201.3 94.192 200.948 93.888C200.596 93.584 200.16 93.432 199.64 93.432C199.168 93.432 198.764 93.584 198.428 93.888C198.092 94.184 197.892 94.588 197.828 95.1H201.488ZM206.818 97.776L208.69 92.388H210.142L207.622 99H205.99L203.482 92.388H204.946L206.818 97.776ZM217.236 95.532C217.236 95.78 217.22 96.004 217.188 96.204H212.136C212.176 96.732 212.372 97.156 212.724 97.476C213.076 97.796 213.508 97.956 214.02 97.956C214.756 97.956 215.276 97.648 215.58 97.032H217.056C216.856 97.64 216.492 98.14 215.964 98.532C215.444 98.916 214.796 99.108 214.02 99.108C213.388 99.108 212.82 98.968 212.316 98.688C211.82 98.4 211.428 98 211.14 97.488C210.86 96.968 210.72 96.368 210.72 95.688C210.72 95.008 210.856 94.412 211.128 93.9C211.408 93.38 211.796 92.98 212.292 92.7C212.796 92.42 213.372 92.28 214.02 92.28C214.644 92.28 215.2 92.416 215.688 92.688C216.176 92.96 216.556 93.344 216.828 93.84C217.1 94.328 217.236 94.892 217.236 95.532ZM215.808 95.1C215.8 94.596 215.62 94.192 215.268 93.888C214.916 93.584 214.48 93.432 213.96 93.432C213.488 93.432 213.084 93.584 212.748 93.888C212.412 94.184 212.212 94.588 212.148 95.1H215.808ZM219.95 93.348C220.15 93.012 220.414 92.752 220.742 92.568C221.078 92.376 221.474 92.28 221.93 92.28V93.696H221.582C221.046 93.696 220.638 93.832 220.358 94.104C220.086 94.376 219.95 94.848 219.95 95.52V99H218.582V92.388H219.95V93.348ZM225.588 99.108C225.068 99.108 224.6 99.016 224.184 98.832C223.776 98.64 223.452 98.384 223.212 98.064C222.972 97.736 222.844 97.372 222.828 96.972H224.244C224.268 97.252 224.4 97.488 224.64 97.68C224.888 97.864 225.196 97.956 225.564 97.956C225.948 97.956 226.244 97.884 226.452 97.74C226.668 97.588 226.776 97.396 226.776 97.164C226.776 96.916 226.656 96.732 226.416 96.612C226.184 96.492 225.812 96.36 225.3 96.216C224.804 96.08 224.4 95.948 224.088 95.82C223.776 95.692 223.504 95.496 223.272 95.232C223.048 94.968 222.936 94.62 222.936 94.188C222.936 93.836 223.04 93.516 223.248 93.228C223.456 92.932 223.752 92.7 224.136 92.532C224.528 92.364 224.976 92.28 225.48 92.28C226.232 92.28 226.836 92.472 227.292 92.856C227.756 93.232 228.004 93.748 228.036 94.404H226.668C226.644 94.108 226.524 93.872 226.308 93.696C226.092 93.52 225.8 93.432 225.432 93.432C225.072 93.432 224.796 93.5 224.604 93.636C224.412 93.772 224.316 93.952 224.316 94.176C224.316 94.352 224.38 94.5 224.508 94.62C224.636 94.74 224.792 94.836 224.976 94.908C225.16 94.972 225.432 95.056 225.792 95.16C226.272 95.288 226.664 95.42 226.968 95.556C227.28 95.684 227.548 95.876 227.772 96.132C227.996 96.388 228.112 96.728 228.12 97.152C228.12 97.528 228.016 97.864 227.808 98.16C227.6 98.456 227.304 98.688 226.92 98.856C226.544 99.024 226.1 99.108 225.588 99.108ZM235.658 95.532C235.658 95.78 235.642 96.004 235.61 96.204H230.558C230.598 96.732 230.794 97.156 231.146 97.476C231.498 97.796 231.93 97.956 232.442 97.956C233.178 97.956 233.698 97.648 234.002 97.032H235.478C235.278 97.64 234.914 98.14 234.386 98.532C233.866 98.916 233.218 99.108 232.442 99.108C231.81 99.108 231.242 98.968 230.738 98.688C230.242 98.4 229.85 98 229.562 97.488C229.282 96.968 229.142 96.368 229.142 95.688C229.142 95.008 229.278 94.412 229.55 93.9C229.83 93.38 230.218 92.98 230.714 92.7C231.218 92.42 231.794 92.28 232.442 92.28C233.066 92.28 233.622 92.416 234.11 92.688C234.598 92.96 234.978 93.344 235.25 93.84C235.522 94.328 235.658 94.892 235.658 95.532ZM234.23 95.1C234.222 94.596 234.042 94.192 233.69 93.888C233.338 93.584 232.902 93.432 232.382 93.432C231.91 93.432 231.506 93.584 231.17 93.888C230.834 94.184 230.634 94.588 230.57 95.1H234.23Z" fill="#F5F5F5"/>
<path d="M95.3221 153.83C96.2181 153.055 96.9228 152.421 97.4361 151.926C97.9588 151.422 98.3928 150.899 98.7381 150.358C99.0834 149.817 99.2561 149.275 99.2561 148.734C99.2561 148.174 99.1208 147.735 98.8501 147.418C98.5888 147.101 98.1734 146.942 97.6041 146.942C97.0534 146.942 96.6241 147.119 96.3161 147.474C96.0174 147.819 95.8588 148.286 95.8401 148.874H94.3001C94.3281 147.81 94.6454 146.998 95.2521 146.438C95.8681 145.869 96.6474 145.584 97.5901 145.584C98.6074 145.584 99.4008 145.864 99.9701 146.424C100.549 146.984 100.838 147.731 100.838 148.664C100.838 149.336 100.665 149.985 100.32 150.61C99.9841 151.226 99.5781 151.781 99.1021 152.276C98.6354 152.761 98.0381 153.326 97.3101 153.97L96.6801 154.53H101.118V155.86H94.3141V154.698L95.3221 153.83ZM103.374 156.098C103.085 156.098 102.842 156 102.646 155.804C102.45 155.608 102.352 155.365 102.352 155.076C102.352 154.787 102.45 154.544 102.646 154.348C102.842 154.152 103.085 154.054 103.374 154.054C103.654 154.054 103.892 154.152 104.088 154.348C104.284 154.544 104.382 154.787 104.382 155.076C104.382 155.365 104.284 155.608 104.088 155.804C103.892 156 103.654 156.098 103.374 156.098ZM103.374 150.218C103.085 150.218 102.842 150.12 102.646 149.924C102.45 149.728 102.352 149.485 102.352 149.196C102.352 148.907 102.45 148.664 102.646 148.468C102.842 148.272 103.085 148.174 103.374 148.174C103.654 148.174 103.892 148.272 104.088 148.468C104.284 148.664 104.382 148.907 104.382 149.196C104.382 149.485 104.284 149.728 104.088 149.924C103.892 150.12 103.654 150.218 103.374 150.218ZM105.924 148.314C105.98 147.446 106.311 146.769 106.918 146.284C107.534 145.799 108.318 145.556 109.27 145.556C109.923 145.556 110.488 145.673 110.964 145.906C111.44 146.139 111.799 146.457 112.042 146.858C112.284 147.259 112.406 147.712 112.406 148.216C112.406 148.795 112.252 149.289 111.944 149.7C111.636 150.111 111.267 150.386 110.838 150.526V150.582C111.388 150.75 111.818 151.058 112.126 151.506C112.434 151.945 112.588 152.509 112.588 153.2C112.588 153.751 112.462 154.241 112.21 154.67C111.958 155.099 111.584 155.44 111.09 155.692C110.595 155.935 110.002 156.056 109.312 156.056C108.304 156.056 107.473 155.799 106.82 155.286C106.176 154.763 105.83 154.017 105.784 153.046H107.324C107.361 153.541 107.552 153.947 107.898 154.264C108.243 154.572 108.71 154.726 109.298 154.726C109.867 154.726 110.306 154.572 110.614 154.264C110.922 153.947 111.076 153.541 111.076 153.046C111.076 152.393 110.866 151.931 110.446 151.66C110.035 151.38 109.4 151.24 108.542 151.24H108.178V149.924H108.556C109.312 149.915 109.886 149.789 110.278 149.546C110.679 149.303 110.88 148.921 110.88 148.398C110.88 147.95 110.735 147.595 110.446 147.334C110.156 147.063 109.746 146.928 109.214 146.928C108.691 146.928 108.285 147.063 107.996 147.334C107.706 147.595 107.534 147.922 107.478 148.314H105.924ZM120.732 147.026L116.84 156H115.23L119.164 147.194H113.984V145.836H120.732V147.026Z" fill="#F5F5F5"/>
<line x1="93.6001" y1="134" x2="506.4" y2="134" stroke="#0E2F8C" stroke-width="2"/>
<circle cx="423" cy="134" r="5" fill="#D9D9D9"/>
<path d="M292.5 190C290.016 190 288 192.016 288 194.5V221.5C288 223.984 290.016 226 292.5 226H295.5C297.984 226 300 223.984 300 221.5V194.5C300 192.016 297.984 190 295.5 190H292.5ZM310.5 190C308.016 190 306 192.016 306 194.5V221.5C306 223.984 308.016 226 310.5 226H313.5C315.984 226 318 223.984 318 221.5V194.5C318 192.016 315.984 190 313.5 190H310.5Z" fill="#DA3BBD"/>
<path d="M234.949 215.211C235.32 215.52 235.84 215.59 236.281 215.383C236.723 215.176 237 214.734 237 214.25V201.75C237 201.266 236.719 200.824 236.281 200.617C235.844 200.41 235.324 200.477 234.949 200.789L228.25 206.371V208V209.629L234.949 215.211ZM227 211.75V208V203V201.75C227 201.266 226.719 200.824 226.281 200.617C225.844 200.41 225.324 200.477 224.949 200.789L217.449 207.039C217.164 207.277 217 207.629 217 208C217 208.371 217.164 208.723 217.449 208.961L224.949 215.211C225.32 215.52 225.84 215.59 226.281 215.383C226.723 215.176 227 214.734 227 214.25V211.75Z" fill="#DA3BBD"/>
<path d="M371.051 215.211C370.68 215.52 370.16 215.59 369.719 215.383C369.277 215.176 369 214.734 369 214.25V201.75C369 201.266 369.281 200.824 369.719 200.617C370.156 200.41 370.676 200.477 371.051 200.789L377.75 206.371V208V209.629L371.051 215.211ZM379 211.75V208V203V201.75C379 201.266 379.281 200.824 379.719 200.617C380.156 200.41 380.676 200.477 381.051 200.789L388.551 207.039C388.836 207.277 389 207.629 389 208C389 208.371 388.836 208.723 388.551 208.961L381.051 215.211C380.68 215.52 380.16 215.59 379.719 215.383C379.277 215.176 379 214.734 379 214.25V211.75Z" fill="#DA3BBD"/>
<path d="M249.646 210.646C249.451 210.842 249.451 211.158 249.646 211.354L252.828 214.536C253.024 214.731 253.34 214.731 253.536 214.536C253.731 214.34 253.731 214.024 253.536 213.828L250.707 211L253.536 208.172C253.731 207.976 253.731 207.66 253.536 207.464C253.34 207.269 253.024 207.269 252.828 207.464L249.646 210.646ZM275 210.5H250V211.5H275V210.5Z" fill="#DA3BBD"/>
<path d="M357.354 210.646C357.549 210.842 357.549 211.158 357.354 211.354L354.172 214.536C353.976 214.731 353.66 214.731 353.464 214.536C353.269 214.34 353.269 214.024 353.464 213.828L356.293 211L353.464 208.172C353.269 207.976 353.269 207.66 353.464 207.464C353.66 207.269 353.976 207.269 354.172 207.464L357.354 210.646ZM332 210.5H357V211.5H332V210.5Z" fill="#DA3BBD"/>
<path d="M263.98 199.9V200.86H259.87V199.9H263.98ZM265.3 197.75V196.71H267.38V204H266.23V197.75H265.3ZM268.946 200.26C268.946 199.107 269.139 198.207 269.526 197.56C269.919 196.907 270.592 196.58 271.546 196.58C272.499 196.58 273.169 196.907 273.556 197.56C273.949 198.207 274.146 199.107 274.146 200.26C274.146 201.427 273.949 202.34 273.556 203C273.169 203.653 272.499 203.98 271.546 203.98C270.592 203.98 269.919 203.653 269.526 203C269.139 202.34 268.946 201.427 268.946 200.26ZM273.026 200.26C273.026 199.72 272.989 199.263 272.916 198.89C272.849 198.517 272.709 198.213 272.496 197.98C272.282 197.74 271.966 197.62 271.546 197.62C271.126 197.62 270.809 197.74 270.596 197.98C270.382 198.213 270.239 198.517 270.166 198.89C270.099 199.263 270.066 199.72 270.066 200.26C270.066 200.82 270.099 201.29 270.166 201.67C270.232 202.05 270.372 202.357 270.586 202.59C270.806 202.823 271.126 202.94 271.546 202.94C271.966 202.94 272.282 202.823 272.496 202.59C272.716 202.357 272.859 202.05 272.926 201.67C272.992 201.29 273.026 200.82 273.026 200.26Z" fill="#DA3BBD"/>
<path d="M334.12 200.87H332.1V202.94H331.04V200.87H329.02V199.91H331.04V197.84H332.1V199.91H334.12V200.87ZM335.589 197.75V196.71H337.669V204H336.519V197.75H335.589ZM339.235 200.26C339.235 199.107 339.428 198.207 339.815 197.56C340.208 196.907 340.881 196.58 341.835 196.58C342.788 196.58 343.458 196.907 343.845 197.56C344.238 198.207 344.435 199.107 344.435 200.26C344.435 201.427 344.238 202.34 343.845 203C343.458 203.653 342.788 203.98 341.835 203.98C340.881 203.98 340.208 203.653 339.815 203C339.428 202.34 339.235 201.427 339.235 200.26ZM343.315 200.26C343.315 199.72 343.278 199.263 343.205 198.89C343.138 198.517 342.998 198.213 342.785 197.98C342.571 197.74 342.255 197.62 341.835 197.62C341.415 197.62 341.098 197.74 340.885 197.98C340.671 198.213 340.528 198.517 340.455 198.89C340.388 199.263 340.355 199.72 340.355 200.26C340.355 200.82 340.388 201.29 340.455 201.67C340.521 202.05 340.661 202.357 340.875 202.59C341.095 202.823 341.415 202.94 341.835 202.94C342.255 202.94 342.571 202.823 342.785 202.59C343.005 202.357 343.148 202.05 343.215 201.67C343.281 201.29 343.315 200.82 343.315 200.26Z" fill="#DA3BBD"/>
</svg>
