<svg width="600" height="280" viewBox="0 0 600 280" fill="none" xmlns="http://www.w3.org/2000/svg">
<rect width="600" height="280" rx="20" fill="#020C27"/>
<path d="M65.72 47H63.44L56.58 36.62V47H54.3V33.08H56.58L63.44 43.44V33.08H65.72V47ZM67.9541 41.44C67.9541 40.3333 68.1808 39.3533 68.6341 38.5C69.1008 37.6467 69.7274 36.9867 70.5141 36.52C71.3141 36.04 72.1941 35.8 73.1541 35.8C74.0208 35.8 74.7741 35.9733 75.4141 36.32C76.0674 36.6533 76.5874 37.0733 76.9741 37.58V35.98H79.2741V47H76.9741V45.36C76.5874 45.88 76.0608 46.3133 75.3941 46.66C74.7274 47.0067 73.9674 47.18 73.1141 47.18C72.1674 47.18 71.3008 46.94 70.5141 46.46C69.7274 45.9667 69.1008 45.2867 68.6341 44.42C68.1808 43.54 67.9541 42.5467 67.9541 41.44ZM76.9741 41.48C76.9741 40.72 76.8141 40.06 76.4941 39.5C76.1874 38.94 75.7808 38.5133 75.2741 38.22C74.7674 37.9267 74.2208 37.78 73.6341 37.78C73.0474 37.78 72.5008 37.9267 71.9941 38.22C71.4874 38.5 71.0741 38.92 70.7541 39.48C70.4474 40.0267 70.2941 40.68 70.2941 41.44C70.2941 42.2 70.4474 42.8667 70.7541 43.44C71.0741 44.0133 71.4874 44.4533 71.9941 44.76C72.5141 45.0533 73.0608 45.2 73.6341 45.2C74.2208 45.2 74.7674 45.0533 75.2741 44.76C75.7808 44.4667 76.1874 44.04 76.4941 43.48C76.8141 42.9067 76.9741 42.24 76.9741 41.48ZM86.5288 44.96L89.6488 35.98H92.0688L87.8688 47H85.1488L80.9688 35.98H83.4088L86.5288 44.96ZM103.892 41.22C103.892 41.6333 103.866 42.0067 103.812 42.34H95.3922C95.4589 43.22 95.7856 43.9267 96.3722 44.46C96.9589 44.9933 97.6789 45.26 98.5322 45.26C99.7589 45.26 100.626 44.7467 101.132 43.72H103.592C103.259 44.7333 102.652 45.5667 101.772 46.22C100.906 46.86 99.8256 47.18 98.5322 47.18C97.4789 47.18 96.5322 46.9467 95.6922 46.48C94.8656 46 94.2122 45.3333 93.7322 44.48C93.2656 43.6133 93.0322 42.6133 93.0322 41.48C93.0322 40.3467 93.2589 39.3533 93.7122 38.5C94.1789 37.6333 94.8256 36.9667 95.6522 36.5C96.4922 36.0333 97.4522 35.8 98.5322 35.8C99.5722 35.8 100.499 36.0267 101.312 36.48C102.126 36.9333 102.759 37.5733 103.212 38.4C103.666 39.2133 103.892 40.1533 103.892 41.22ZM101.512 40.5C101.499 39.66 101.199 38.9867 100.612 38.48C100.026 37.9733 99.2989 37.72 98.4322 37.72C97.6456 37.72 96.9722 37.9733 96.4122 38.48C95.8522 38.9733 95.5189 39.6467 95.4122 40.5H101.512ZM110.576 35.8C111.429 35.8 112.183 35.9733 112.836 36.32C113.503 36.6533 114.023 37.0733 114.396 37.58V35.98H116.696V47.18C116.696 48.1933 116.483 49.0933 116.056 49.88C115.629 50.68 115.009 51.3067 114.196 51.76C113.396 52.2133 112.436 52.44 111.316 52.44C109.823 52.44 108.583 52.0867 107.596 51.38C106.609 50.6867 106.049 49.74 105.916 48.54H108.176C108.349 49.1133 108.716 49.5733 109.276 49.92C109.849 50.28 110.529 50.46 111.316 50.46C112.236 50.46 112.976 50.18 113.536 49.62C114.109 49.06 114.396 48.2467 114.396 47.18V45.34C114.009 45.86 113.483 46.3 112.816 46.66C112.163 47.0067 111.416 47.18 110.576 47.18C109.616 47.18 108.736 46.94 107.936 46.46C107.149 45.9667 106.523 45.2867 106.056 44.42C105.603 43.54 105.376 42.5467 105.376 41.44C105.376 40.3333 105.603 39.3533 106.056 38.5C106.523 37.6467 107.149 36.9867 107.936 36.52C108.736 36.04 109.616 35.8 110.576 35.8ZM114.396 41.48C114.396 40.72 114.236 40.06 113.916 39.5C113.609 38.94 113.203 38.5133 112.696 38.22C112.189 37.9267 111.643 37.78 111.056 37.78C110.469 37.78 109.923 37.9267 109.416 38.22C108.909 38.5 108.496 38.92 108.176 39.48C107.869 40.0267 107.716 40.68 107.716 41.44C107.716 42.2 107.869 42.8667 108.176 43.44C108.496 44.0133 108.909 44.4533 109.416 44.76C109.936 45.0533 110.483 45.2 111.056 45.2C111.643 45.2 112.189 45.0533 112.696 44.76C113.203 44.4667 113.609 44.04 113.916 43.48C114.236 42.9067 114.396 42.24 114.396 41.48ZM129.671 35.98V47H127.391V45.7C127.031 46.1533 126.557 46.5133 125.971 46.78C125.397 47.0333 124.784 47.16 124.131 47.16C123.264 47.16 122.484 46.98 121.791 46.62C121.111 46.26 120.571 45.7267 120.171 45.02C119.784 44.3133 119.591 43.46 119.591 42.46V35.98H121.851V42.12C121.851 43.1067 122.097 43.8667 122.591 44.4C123.084 44.92 123.757 45.18 124.611 45.18C125.464 45.18 126.137 44.92 126.631 44.4C127.137 43.8667 127.391 43.1067 127.391 42.12V35.98H129.671ZM142.779 41.22C142.779 41.6333 142.752 42.0067 142.699 42.34H134.279C134.346 43.22 134.672 43.9267 135.259 44.46C135.846 44.9933 136.566 45.26 137.419 45.26C138.646 45.26 139.512 44.7467 140.019 43.72H142.479C142.146 44.7333 141.539 45.5667 140.659 46.22C139.792 46.86 138.712 47.18 137.419 47.18C136.366 47.18 135.419 46.9467 134.579 46.48C133.752 46 133.099 45.3333 132.619 44.48C132.152 43.6133 131.919 42.6133 131.919 41.48C131.919 40.3467 132.146 39.3533 132.599 38.5C133.066 37.6333 133.712 36.9667 134.539 36.5C135.379 36.0333 136.339 35.8 137.419 35.8C138.459 35.8 139.386 36.0267 140.199 36.48C141.012 36.9333 141.646 37.5733 142.099 38.4C142.552 39.2133 142.779 40.1533 142.779 41.22ZM140.399 40.5C140.386 39.66 140.086 38.9867 139.499 38.48C138.912 37.9733 138.186 37.72 137.319 37.72C136.532 37.72 135.859 37.9733 135.299 38.48C134.739 38.9733 134.406 39.6467 134.299 40.5H140.399ZM160.318 41.22C160.318 41.6333 160.291 42.0067 160.238 42.34H151.818C151.885 43.22 152.211 43.9267 152.798 44.46C153.385 44.9933 154.105 45.26 154.958 45.26C156.185 45.26 157.051 44.7467 157.558 43.72H160.018C159.685 44.7333 159.078 45.5667 158.198 46.22C157.331 46.86 156.251 47.18 154.958 47.18C153.905 47.18 152.958 46.9467 152.118 46.48C151.291 46 150.638 45.3333 150.158 44.48C149.691 43.6133 149.458 42.6133 149.458 41.48C149.458 40.3467 149.685 39.3533 150.138 38.5C150.605 37.6333 151.251 36.9667 152.078 36.5C152.918 36.0333 153.878 35.8 154.958 35.8C155.998 35.8 156.925 36.0267 157.738 36.48C158.551 36.9333 159.185 37.5733 159.638 38.4C160.091 39.2133 160.318 40.1533 160.318 41.22ZM157.938 40.5C157.925 39.66 157.625 38.9867 157.038 38.48C156.451 37.9733 155.725 37.72 154.858 37.72C154.071 37.72 153.398 37.9733 152.838 38.48C152.278 38.9733 151.945 39.6467 151.838 40.5H157.938ZM177.857 41.22C177.857 41.6333 177.83 42.0067 177.777 42.34H169.357C169.424 43.22 169.75 43.9267 170.337 44.46C170.924 44.9933 171.644 45.26 172.497 45.26C173.724 45.26 174.59 44.7467 175.097 43.72H177.557C177.224 44.7333 176.617 45.5667 175.737 46.22C174.87 46.86 173.79 47.18 172.497 47.18C171.444 47.18 170.497 46.9467 169.657 46.48C168.83 46 168.177 45.3333 167.697 44.48C167.23 43.6133 166.997 42.6133 166.997 41.48C166.997 40.3467 167.224 39.3533 167.677 38.5C168.144 37.6333 168.79 36.9667 169.617 36.5C170.457 36.0333 171.417 35.8 172.497 35.8C173.537 35.8 174.464 36.0267 175.277 36.48C176.09 36.9333 176.724 37.5733 177.177 38.4C177.63 39.2133 177.857 40.1533 177.857 41.22ZM175.477 40.5C175.464 39.66 175.164 38.9867 174.577 38.48C173.99 37.9733 173.264 37.72 172.397 37.72C171.61 37.72 170.937 37.9733 170.377 38.48C169.817 38.9733 169.484 39.6467 169.377 40.5H175.477ZM185.661 35.8C186.527 35.8 187.301 35.98 187.981 36.34C188.674 36.7 189.214 37.2333 189.601 37.94C189.987 38.6467 190.181 39.5 190.181 40.5V47H187.921V40.84C187.921 39.8533 187.674 39.1 187.181 38.58C186.687 38.0467 186.014 37.78 185.161 37.78C184.307 37.78 183.627 38.0467 183.121 38.58C182.627 39.1 182.381 39.8533 182.381 40.84V47H180.101V35.98H182.381V37.24C182.754 36.7867 183.227 36.4333 183.801 36.18C184.387 35.9267 185.007 35.8 185.661 35.8ZM192.329 41.48C192.329 40.3467 192.556 39.3533 193.009 38.5C193.476 37.6333 194.116 36.9667 194.929 36.5C195.742 36.0333 196.676 35.8 197.729 35.8C199.062 35.8 200.162 36.12 201.029 36.76C201.909 37.3867 202.502 38.2867 202.809 39.46H200.349C200.149 38.9133 199.829 38.4867 199.389 38.18C198.949 37.8733 198.396 37.72 197.729 37.72C196.796 37.72 196.049 38.0533 195.489 38.72C194.942 39.3733 194.669 40.2933 194.669 41.48C194.669 42.6667 194.942 43.5933 195.489 44.26C196.049 44.9267 196.796 45.26 197.729 45.26C199.049 45.26 199.922 44.68 200.349 43.52H202.809C202.489 44.64 201.889 45.5333 201.009 46.2C200.129 46.8533 199.036 47.18 197.729 47.18C196.676 47.18 195.742 46.9467 194.929 46.48C194.116 46 193.476 45.3333 193.009 44.48C192.556 43.6133 192.329 42.6133 192.329 41.48ZM209.861 47.18C208.821 47.18 207.881 46.9467 207.041 46.48C206.201 46 205.541 45.3333 205.061 44.48C204.581 43.6133 204.341 42.6133 204.341 41.48C204.341 40.36 204.588 39.3667 205.081 38.5C205.575 37.6333 206.248 36.9667 207.101 36.5C207.955 36.0333 208.908 35.8 209.961 35.8C211.015 35.8 211.968 36.0333 212.821 36.5C213.675 36.9667 214.348 37.6333 214.841 38.5C215.335 39.3667 215.581 40.36 215.581 41.48C215.581 42.6 215.328 43.5933 214.821 44.46C214.315 45.3267 213.621 46 212.741 46.48C211.875 46.9467 210.915 47.18 209.861 47.18ZM209.861 45.2C210.448 45.2 210.995 45.06 211.501 44.78C212.021 44.5 212.441 44.08 212.761 43.52C213.081 42.96 213.241 42.28 213.241 41.48C213.241 40.68 213.088 40.0067 212.781 39.46C212.475 38.9 212.068 38.48 211.561 38.2C211.055 37.92 210.508 37.78 209.921 37.78C209.335 37.78 208.788 37.92 208.281 38.2C207.788 38.48 207.395 38.9 207.101 39.46C206.808 40.0067 206.661 40.68 206.661 41.48C206.661 42.6667 206.961 43.5867 207.561 44.24C208.175 44.88 208.941 45.2 209.861 45.2ZM223.395 35.8C224.262 35.8 225.035 35.98 225.715 36.34C226.409 36.7 226.949 37.2333 227.335 37.94C227.722 38.6467 227.915 39.5 227.915 40.5V47H225.655V40.84C225.655 39.8533 225.409 39.1 224.915 38.58C224.422 38.0467 223.749 37.78 222.895 37.78C222.042 37.78 221.362 38.0467 220.855 38.58C220.362 39.1 220.115 39.8533 220.115 40.84V47H217.835V35.98H220.115V37.24C220.489 36.7867 220.962 36.4333 221.535 36.18C222.122 35.9267 222.742 35.8 223.395 35.8ZM233.483 37.84V43.94C233.483 44.3533 233.577 44.6533 233.763 44.84C233.963 45.0133 234.297 45.1 234.763 45.1H236.163V47H234.363C233.337 47 232.55 46.76 232.003 46.28C231.457 45.8 231.183 45.02 231.183 43.94V37.84H229.883V35.98H231.183V33.24H233.483V35.98H236.163V37.84H233.483ZM240.545 37.58C240.878 37.02 241.318 36.5867 241.865 36.28C242.425 35.96 243.085 35.8 243.845 35.8V38.16H243.265C242.372 38.16 241.692 38.3867 241.225 38.84C240.772 39.2933 240.545 40.08 240.545 41.2V47H238.265V35.98H240.545V37.58ZM256.041 41.22C256.041 41.6333 256.014 42.0067 255.961 42.34H247.541C247.607 43.22 247.934 43.9267 248.521 44.46C249.107 44.9933 249.827 45.26 250.681 45.26C251.907 45.26 252.774 44.7467 253.281 43.72H255.741C255.407 44.7333 254.801 45.5667 253.921 46.22C253.054 46.86 251.974 47.18 250.681 47.18C249.627 47.18 248.681 46.9467 247.841 46.48C247.014 46 246.361 45.3333 245.881 44.48C245.414 43.6133 245.181 42.6133 245.181 41.48C245.181 40.3467 245.407 39.3533 245.861 38.5C246.327 37.6333 246.974 36.9667 247.801 36.5C248.641 36.0333 249.601 35.8 250.681 35.8C251.721 35.8 252.647 36.0267 253.461 36.48C254.274 36.9333 254.907 37.5733 255.361 38.4C255.814 39.2133 256.041 40.1533 256.041 41.22ZM253.661 40.5C253.647 39.66 253.347 38.9867 252.761 38.48C252.174 37.9733 251.447 37.72 250.581 37.72C249.794 37.72 249.121 37.9733 248.561 38.48C248.001 38.9733 247.667 39.6467 247.561 40.5H253.661Z" fill="#F5F5F5"/>
<path d="M91.904 171.728H87.248L86.448 174H84.544L88.528 162.864H90.64L94.624 174H92.704L91.904 171.728ZM91.392 170.24L89.584 165.072L87.76 170.24H91.392ZM98.1803 166.464C98.4469 166.016 98.7989 165.669 99.2363 165.424C99.6843 165.168 100.212 165.04 100.82 165.04V166.928H100.356C99.6416 166.928 99.0976 167.109 98.7243 167.472C98.3616 167.835 98.1803 168.464 98.1803 169.36V174H96.3563V165.184H98.1803V166.464ZM104.625 166.672V171.552C104.625 171.883 104.7 172.123 104.849 172.272C105.009 172.411 105.276 172.48 105.649 172.48H106.769V174H105.329C104.508 174 103.878 173.808 103.441 173.424C103.004 173.04 102.785 172.416 102.785 171.552V166.672H101.745V165.184H102.785V162.992H104.625V165.184H106.769V166.672H104.625ZM109.378 164.016C109.047 164.016 108.77 163.904 108.546 163.68C108.322 163.456 108.21 163.179 108.21 162.848C108.21 162.517 108.322 162.24 108.546 162.016C108.77 161.792 109.047 161.68 109.378 161.68C109.698 161.68 109.97 161.792 110.194 162.016C110.418 162.24 110.53 162.517 110.53 162.848C110.53 163.179 110.418 163.456 110.194 163.68C109.97 163.904 109.698 164.016 109.378 164.016ZM110.274 165.184V174H108.45V165.184H110.274ZM115.869 174.144C115.175 174.144 114.551 174.021 113.997 173.776C113.453 173.52 113.021 173.179 112.701 172.752C112.381 172.315 112.21 171.829 112.189 171.296H114.077C114.109 171.669 114.285 171.984 114.605 172.24C114.935 172.485 115.346 172.608 115.837 172.608C116.349 172.608 116.743 172.512 117.021 172.32C117.309 172.117 117.453 171.861 117.453 171.552C117.453 171.221 117.293 170.976 116.973 170.816C116.663 170.656 116.167 170.48 115.485 170.288C114.823 170.107 114.285 169.931 113.869 169.76C113.453 169.589 113.09 169.328 112.781 168.976C112.482 168.624 112.333 168.16 112.333 167.584C112.333 167.115 112.471 166.688 112.749 166.304C113.026 165.909 113.421 165.6 113.933 165.376C114.455 165.152 115.053 165.04 115.725 165.04C116.727 165.04 117.533 165.296 118.141 165.808C118.759 166.309 119.09 166.997 119.133 167.872H117.309C117.277 167.477 117.117 167.163 116.829 166.928C116.541 166.693 116.151 166.576 115.661 166.576C115.181 166.576 114.813 166.667 114.557 166.848C114.301 167.029 114.173 167.269 114.173 167.568C114.173 167.803 114.258 168 114.429 168.16C114.599 168.32 114.807 168.448 115.053 168.544C115.298 168.629 115.661 168.741 116.141 168.88C116.781 169.051 117.303 169.227 117.709 169.408C118.125 169.579 118.482 169.835 118.781 170.176C119.079 170.517 119.234 170.971 119.245 171.536C119.245 172.037 119.106 172.485 118.829 172.88C118.551 173.275 118.157 173.584 117.645 173.808C117.143 174.032 116.551 174.144 115.869 174.144ZM123.344 166.672V171.552C123.344 171.883 123.418 172.123 123.568 172.272C123.728 172.411 123.994 172.48 124.368 172.48H125.488V174H124.048C123.226 174 122.597 173.808 122.16 173.424C121.722 173.04 121.504 172.416 121.504 171.552V166.672H120.464V165.184H121.504V162.992H123.344V165.184H125.488V166.672H123.344ZM126.561 169.552C126.561 168.667 126.742 167.883 127.105 167.2C127.478 166.517 127.979 165.989 128.609 165.616C129.249 165.232 129.953 165.04 130.721 165.04C131.414 165.04 132.017 165.179 132.529 165.456C133.051 165.723 133.467 166.059 133.777 166.464V165.184H135.617V174H133.777V172.688C133.467 173.104 133.046 173.451 132.513 173.728C131.979 174.005 131.371 174.144 130.689 174.144C129.931 174.144 129.238 173.952 128.609 173.568C127.979 173.173 127.478 172.629 127.105 171.936C126.742 171.232 126.561 170.437 126.561 169.552ZM133.777 169.584C133.777 168.976 133.649 168.448 133.393 168C133.147 167.552 132.822 167.211 132.417 166.976C132.011 166.741 131.574 166.624 131.105 166.624C130.635 166.624 130.198 166.741 129.793 166.976C129.387 167.2 129.057 167.536 128.801 167.984C128.555 168.421 128.433 168.944 128.433 169.552C128.433 170.16 128.555 170.693 128.801 171.152C129.057 171.611 129.387 171.963 129.793 172.208C130.209 172.443 130.646 172.56 131.105 172.56C131.574 172.56 132.011 172.443 132.417 172.208C132.822 171.973 133.147 171.632 133.393 171.184C133.649 170.725 133.777 170.192 133.777 169.584Z" fill="#DA3BBD"/>
<path d="M270.732 166.144C270.732 166.568 270.632 166.968 270.432 167.344C270.232 167.72 269.912 168.028 269.472 168.268C269.032 168.5 268.468 168.616 267.78 168.616H266.268V172H264.9V163.66H267.78C268.42 163.66 268.96 163.772 269.4 163.996C269.848 164.212 270.18 164.508 270.396 164.884C270.62 165.26 270.732 165.68 270.732 166.144ZM267.78 167.5C268.3 167.5 268.688 167.384 268.944 167.152C269.2 166.912 269.328 166.576 269.328 166.144C269.328 165.232 268.812 164.776 267.78 164.776H266.268V167.5H267.78ZM273.405 163.12V172H272.037V163.12H273.405ZM274.745 168.664C274.745 168 274.881 167.412 275.153 166.9C275.433 166.388 275.809 165.992 276.281 165.712C276.761 165.424 277.289 165.28 277.865 165.28C278.385 165.28 278.837 165.384 279.221 165.592C279.613 165.792 279.925 166.044 280.157 166.348V165.388H281.537V172H280.157V171.016C279.925 171.328 279.609 171.588 279.209 171.796C278.809 172.004 278.353 172.108 277.841 172.108C277.273 172.108 276.753 171.964 276.281 171.676C275.809 171.38 275.433 170.972 275.153 170.452C274.881 169.924 274.745 169.328 274.745 168.664ZM280.157 168.688C280.157 168.232 280.061 167.836 279.869 167.5C279.685 167.164 279.441 166.908 279.137 166.732C278.833 166.556 278.505 166.468 278.153 166.468C277.801 166.468 277.473 166.556 277.169 166.732C276.865 166.9 276.617 167.152 276.425 167.488C276.241 167.816 276.149 168.208 276.149 168.664C276.149 169.12 276.241 169.52 276.425 169.864C276.617 170.208 276.865 170.472 277.169 170.656C277.481 170.832 277.809 170.92 278.153 170.92C278.505 170.92 278.833 170.832 279.137 170.656C279.441 170.48 279.685 170.224 279.869 169.888C280.061 169.544 280.157 169.144 280.157 168.688ZM289.286 165.388L285.23 175.108H283.814L285.158 171.892L282.554 165.388H284.078L285.938 170.428L287.87 165.388H289.286ZM291.686 163.12V172H290.318V163.12H291.686ZM294.178 164.512C293.93 164.512 293.722 164.428 293.554 164.26C293.386 164.092 293.302 163.884 293.302 163.636C293.302 163.388 293.386 163.18 293.554 163.012C293.722 162.844 293.93 162.76 294.178 162.76C294.418 162.76 294.622 162.844 294.79 163.012C294.958 163.18 295.042 163.388 295.042 163.636C295.042 163.884 294.958 164.092 294.79 164.26C294.622 164.428 294.418 164.512 294.178 164.512ZM294.85 165.388V172H293.482V165.388H294.85ZM299.046 172.108C298.526 172.108 298.058 172.016 297.642 171.832C297.234 171.64 296.91 171.384 296.67 171.064C296.43 170.736 296.302 170.372 296.286 169.972H297.702C297.726 170.252 297.858 170.488 298.098 170.68C298.346 170.864 298.654 170.956 299.022 170.956C299.406 170.956 299.702 170.884 299.91 170.74C300.126 170.588 300.234 170.396 300.234 170.164C300.234 169.916 300.114 169.732 299.874 169.612C299.642 169.492 299.27 169.36 298.758 169.216C298.262 169.08 297.858 168.948 297.546 168.82C297.234 168.692 296.962 168.496 296.73 168.232C296.506 167.968 296.394 167.62 296.394 167.188C296.394 166.836 296.498 166.516 296.706 166.228C296.914 165.932 297.21 165.7 297.594 165.532C297.986 165.364 298.434 165.28 298.938 165.28C299.69 165.28 300.294 165.472 300.75 165.856C301.214 166.232 301.462 166.748 301.494 167.404H300.126C300.102 167.108 299.982 166.872 299.766 166.696C299.55 166.52 299.258 166.432 298.89 166.432C298.53 166.432 298.254 166.5 298.062 166.636C297.87 166.772 297.774 166.952 297.774 167.176C297.774 167.352 297.838 167.5 297.966 167.62C298.094 167.74 298.25 167.836 298.434 167.908C298.618 167.972 298.89 168.056 299.25 168.16C299.73 168.288 300.122 168.42 300.426 168.556C300.738 168.684 301.006 168.876 301.23 169.132C301.454 169.388 301.57 169.728 301.578 170.152C301.578 170.528 301.474 170.864 301.266 171.16C301.058 171.456 300.762 171.688 300.378 171.856C300.002 172.024 299.558 172.108 299.046 172.108ZM304.652 166.504V170.164C304.652 170.412 304.708 170.592 304.82 170.704C304.94 170.808 305.14 170.86 305.42 170.86H306.26V172H305.18C304.564 172 304.092 171.856 303.764 171.568C303.436 171.28 303.272 170.812 303.272 170.164V166.504H302.492V165.388H303.272V163.744H304.652V165.388H306.26V166.504H304.652Z" fill="#F5F5F5"/>
<path d="M437.684 163.66V172H436.316V166.288L433.772 172H432.824L430.268 166.288V172H428.9V163.66H430.376L433.304 170.2L436.22 163.66H437.684ZM445.47 165.388V172H444.102V171.22C443.886 171.492 443.602 171.708 443.25 171.868C442.906 172.02 442.538 172.096 442.146 172.096C441.626 172.096 441.158 171.988 440.742 171.772C440.334 171.556 440.01 171.236 439.77 170.812C439.538 170.388 439.422 169.876 439.422 169.276V165.388H440.778V169.072C440.778 169.664 440.926 170.12 441.222 170.44C441.518 170.752 441.922 170.908 442.434 170.908C442.946 170.908 443.35 170.752 443.646 170.44C443.95 170.12 444.102 169.664 444.102 169.072V165.388H445.47ZM443.718 163.612L441.066 164.92V163.912L443.718 162.448V163.612ZM449.675 172.108C449.155 172.108 448.687 172.016 448.271 171.832C447.863 171.64 447.539 171.384 447.299 171.064C447.059 170.736 446.931 170.372 446.915 169.972H448.331C448.355 170.252 448.487 170.488 448.727 170.68C448.975 170.864 449.283 170.956 449.651 170.956C450.035 170.956 450.331 170.884 450.539 170.74C450.755 170.588 450.863 170.396 450.863 170.164C450.863 169.916 450.743 169.732 450.503 169.612C450.271 169.492 449.899 169.36 449.387 169.216C448.891 169.08 448.487 168.948 448.175 168.82C447.863 168.692 447.591 168.496 447.359 168.232C447.135 167.968 447.023 167.62 447.023 167.188C447.023 166.836 447.127 166.516 447.335 166.228C447.543 165.932 447.839 165.7 448.223 165.532C448.615 165.364 449.063 165.28 449.567 165.28C450.319 165.28 450.923 165.472 451.379 165.856C451.843 166.232 452.091 166.748 452.123 167.404H450.755C450.731 167.108 450.611 166.872 450.395 166.696C450.179 166.52 449.887 166.432 449.519 166.432C449.159 166.432 448.883 166.5 448.691 166.636C448.499 166.772 448.403 166.952 448.403 167.176C448.403 167.352 448.467 167.5 448.595 167.62C448.723 167.74 448.879 167.836 449.063 167.908C449.247 167.972 449.519 168.056 449.879 168.16C450.359 168.288 450.751 168.42 451.055 168.556C451.367 168.684 451.635 168.876 451.859 169.132C452.083 169.388 452.199 169.728 452.207 170.152C452.207 170.528 452.103 170.864 451.895 171.16C451.687 171.456 451.391 171.688 451.007 171.856C450.631 172.024 450.187 172.108 449.675 172.108ZM454.381 164.512C454.133 164.512 453.925 164.428 453.757 164.26C453.589 164.092 453.505 163.884 453.505 163.636C453.505 163.388 453.589 163.18 453.757 163.012C453.925 162.844 454.133 162.76 454.381 162.76C454.621 162.76 454.825 162.844 454.993 163.012C455.161 163.18 455.245 163.388 455.245 163.636C455.245 163.884 455.161 164.092 454.993 164.26C454.825 164.428 454.621 164.512 454.381 164.512ZM455.053 165.388V172H453.685V165.388H455.053ZM456.393 168.688C456.393 168.008 456.529 167.412 456.801 166.9C457.081 166.38 457.465 165.98 457.953 165.7C458.441 165.42 459.001 165.28 459.633 165.28C460.433 165.28 461.093 165.472 461.613 165.856C462.141 166.232 462.497 166.772 462.681 167.476H461.205C461.085 167.148 460.893 166.892 460.629 166.708C460.365 166.524 460.033 166.432 459.633 166.432C459.073 166.432 458.625 166.632 458.289 167.032C457.961 167.424 457.797 167.976 457.797 168.688C457.797 169.4 457.961 169.956 458.289 170.356C458.625 170.756 459.073 170.956 459.633 170.956C460.425 170.956 460.949 170.608 461.205 169.912H462.681C462.489 170.584 462.129 171.12 461.601 171.52C461.073 171.912 460.417 172.108 459.633 172.108C459.001 172.108 458.441 171.968 457.953 171.688C457.465 171.4 457.081 171 456.801 170.488C456.529 169.968 456.393 169.368 456.393 168.688ZM463.589 168.664C463.589 168 463.725 167.412 463.997 166.9C464.277 166.388 464.653 165.992 465.125 165.712C465.605 165.424 466.133 165.28 466.709 165.28C467.229 165.28 467.681 165.384 468.065 165.592C468.457 165.792 468.769 166.044 469.001 166.348V165.388H470.381V172H469.001V171.016C468.769 171.328 468.453 171.588 468.053 171.796C467.653 172.004 467.197 172.108 466.685 172.108C466.117 172.108 465.597 171.964 465.125 171.676C464.653 171.38 464.277 170.972 463.997 170.452C463.725 169.924 463.589 169.328 463.589 168.664ZM469.001 168.688C469.001 168.232 468.905 167.836 468.713 167.5C468.529 167.164 468.285 166.908 467.981 166.732C467.677 166.556 467.349 166.468 466.997 166.468C466.645 166.468 466.317 166.556 466.013 166.732C465.709 166.9 465.461 167.152 465.269 167.488C465.085 167.816 464.993 168.208 464.993 168.664C464.993 169.12 465.085 169.52 465.269 169.864C465.461 170.208 465.709 170.472 466.013 170.656C466.325 170.832 466.653 170.92 466.997 170.92C467.349 170.92 467.677 170.832 467.981 170.656C468.285 170.48 468.529 170.224 468.713 169.888C468.905 169.544 469.001 169.144 469.001 168.688Z" fill="#F5F5F5"/>
<rect x="67.7" y="90.5" width="474.2" height="29" rx="14.5" stroke="#DA3BBD"/>
<g clip-path="url(#clip0_11_43)">
<path d="M84.75 103.125C84.75 104.918 85.332 106.574 86.3125 107.918L81.3672 112.867C80.8789 113.355 80.8789 114.148 81.3672 114.637C81.8555 115.125 82.6484 115.125 83.1367 114.637L88.082 109.688C89.4258 110.672 91.082 111.25 92.875 111.25C97.3633 111.25 101 107.613 101 103.125C101 98.6367 97.3633 95 92.875 95C88.3867 95 84.75 98.6367 84.75 103.125ZM92.875 108.75C92.1363 108.75 91.4049 108.605 90.7224 108.322C90.0399 108.039 89.4199 107.625 88.8975 107.102C88.3752 106.58 87.9609 105.96 87.6782 105.278C87.3955 104.595 87.25 103.864 87.25 103.125C87.25 102.386 87.3955 101.655 87.6782 100.972C87.9609 100.29 88.3752 99.6699 88.8975 99.1475C89.4199 98.6252 90.0399 98.2109 90.7224 97.9282C91.4049 97.6455 92.1363 97.5 92.875 97.5C93.6137 97.5 94.3451 97.6455 95.0276 97.9282C95.7101 98.2109 96.3301 98.6252 96.8525 99.1475C97.3748 99.6699 97.7891 100.29 98.0718 100.972C98.3545 101.655 98.5 102.386 98.5 103.125C98.5 103.864 98.3545 104.595 98.0718 105.278C97.7891 105.96 97.3748 106.58 96.8525 107.102C96.3301 107.625 95.7101 108.039 95.0276 108.322C94.3451 108.605 93.6137 108.75 92.875 108.75Z" fill="#0E2F8C"/>
</g>
<path d="M113.89 101.97V104.01H116.29V104.94H113.89V107.07H116.59V108H112.75V101.04H116.59V101.97H113.89ZM120.774 102.4C121.207 102.4 121.594 102.49 121.934 102.67C122.281 102.85 122.551 103.117 122.744 103.47C122.937 103.823 123.034 104.25 123.034 104.75V108H121.904V104.92C121.904 104.427 121.781 104.05 121.534 103.79C121.287 103.523 120.951 103.39 120.524 103.39C120.097 103.39 119.757 103.523 119.504 103.79C119.257 104.05 119.134 104.427 119.134 104.92V108H117.994V102.49H119.134V103.12C119.321 102.893 119.557 102.717 119.844 102.59C120.137 102.463 120.447 102.4 120.774 102.4ZM124.108 105.24C124.108 104.673 124.222 104.177 124.448 103.75C124.682 103.317 125.002 102.983 125.408 102.75C125.815 102.517 126.282 102.4 126.808 102.4C127.475 102.4 128.025 102.56 128.458 102.88C128.898 103.193 129.195 103.643 129.348 104.23H128.118C128.018 103.957 127.858 103.743 127.638 103.59C127.418 103.437 127.142 103.36 126.808 103.36C126.342 103.36 125.968 103.527 125.688 103.86C125.415 104.187 125.278 104.647 125.278 105.24C125.278 105.833 125.415 106.297 125.688 106.63C125.968 106.963 126.342 107.13 126.808 107.13C127.468 107.13 127.905 106.84 128.118 106.26H129.348C129.188 106.82 128.888 107.267 128.448 107.6C128.008 107.927 127.462 108.09 126.808 108.09C126.282 108.09 125.815 107.973 125.408 107.74C125.002 107.5 124.682 107.167 124.448 106.74C124.222 106.307 124.108 105.807 124.108 105.24ZM132.874 108.09C132.354 108.09 131.884 107.973 131.464 107.74C131.044 107.5 130.714 107.167 130.474 106.74C130.234 106.307 130.114 105.807 130.114 105.24C130.114 104.68 130.238 104.183 130.484 103.75C130.731 103.317 131.068 102.983 131.494 102.75C131.921 102.517 132.398 102.4 132.924 102.4C133.451 102.4 133.928 102.517 134.354 102.75C134.781 102.983 135.118 103.317 135.364 103.75C135.611 104.183 135.734 104.68 135.734 105.24C135.734 105.8 135.608 106.297 135.354 106.73C135.101 107.163 134.754 107.5 134.314 107.74C133.881 107.973 133.401 108.09 132.874 108.09ZM132.874 107.1C133.168 107.1 133.441 107.03 133.694 106.89C133.954 106.75 134.164 106.54 134.324 106.26C134.484 105.98 134.564 105.64 134.564 105.24C134.564 104.84 134.488 104.503 134.334 104.23C134.181 103.95 133.978 103.74 133.724 103.6C133.471 103.46 133.198 103.39 132.904 103.39C132.611 103.39 132.338 103.46 132.084 103.6C131.838 103.74 131.641 103.95 131.494 104.23C131.348 104.503 131.274 104.84 131.274 105.24C131.274 105.833 131.424 106.293 131.724 106.62C132.031 106.94 132.414 107.1 132.874 107.1ZM139.641 102.4C140.075 102.4 140.461 102.49 140.801 102.67C141.148 102.85 141.418 103.117 141.611 103.47C141.805 103.823 141.901 104.25 141.901 104.75V108H140.771V104.92C140.771 104.427 140.648 104.05 140.401 103.79C140.155 103.523 139.818 103.39 139.391 103.39C138.965 103.39 138.625 103.523 138.371 103.79C138.125 104.05 138.001 104.427 138.001 104.92V108H136.861V102.49H138.001V103.12C138.188 102.893 138.425 102.717 138.711 102.59C139.005 102.463 139.315 102.4 139.641 102.4ZM144.685 103.42V106.47C144.685 106.677 144.732 106.827 144.825 106.92C144.925 107.007 145.092 107.05 145.325 107.05H146.025V108H145.125C144.612 108 144.219 107.88 143.945 107.64C143.672 107.4 143.535 107.01 143.535 106.47V103.42H142.885V102.49H143.535V101.12H144.685V102.49H146.025V103.42H144.685ZM148.216 103.29C148.383 103.01 148.603 102.793 148.876 102.64C149.156 102.48 149.486 102.4 149.866 102.4V103.58H149.576C149.13 103.58 148.79 103.693 148.556 103.92C148.33 104.147 148.216 104.54 148.216 105.1V108H147.076V102.49H148.216V103.29ZM155.964 105.11C155.964 105.317 155.951 105.503 155.924 105.67H151.714C151.747 106.11 151.911 106.463 152.204 106.73C152.497 106.997 152.857 107.13 153.284 107.13C153.897 107.13 154.331 106.873 154.584 106.36H155.814C155.647 106.867 155.344 107.283 154.904 107.61C154.471 107.93 153.931 108.09 153.284 108.09C152.757 108.09 152.284 107.973 151.864 107.74C151.451 107.5 151.124 107.167 150.884 106.74C150.651 106.307 150.534 105.807 150.534 105.24C150.534 104.673 150.647 104.177 150.874 103.75C151.107 103.317 151.431 102.983 151.844 102.75C152.264 102.517 152.744 102.4 153.284 102.4C153.804 102.4 154.267 102.513 154.674 102.74C155.081 102.967 155.397 103.287 155.624 103.7C155.851 104.107 155.964 104.577 155.964 105.11ZM154.774 104.75C154.767 104.33 154.617 103.993 154.324 103.74C154.031 103.487 153.667 103.36 153.234 103.36C152.841 103.36 152.504 103.487 152.224 103.74C151.944 103.987 151.777 104.323 151.724 104.75H154.774ZM161.684 108.09C161.25 108.09 160.86 108.013 160.514 107.86C160.174 107.7 159.904 107.487 159.704 107.22C159.504 106.947 159.397 106.643 159.384 106.31H160.564C160.584 106.543 160.694 106.74 160.894 106.9C161.1 107.053 161.357 107.13 161.664 107.13C161.984 107.13 162.23 107.07 162.404 106.95C162.584 106.823 162.674 106.663 162.674 106.47C162.674 106.263 162.574 106.11 162.374 106.01C162.18 105.91 161.87 105.8 161.444 105.68C161.03 105.567 160.694 105.457 160.434 105.35C160.174 105.243 159.947 105.08 159.754 104.86C159.567 104.64 159.474 104.35 159.474 103.99C159.474 103.697 159.56 103.43 159.734 103.19C159.907 102.943 160.154 102.75 160.474 102.61C160.8 102.47 161.174 102.4 161.594 102.4C162.22 102.4 162.724 102.56 163.104 102.88C163.49 103.193 163.697 103.623 163.724 104.17H162.584C162.564 103.923 162.464 103.727 162.284 103.58C162.104 103.433 161.86 103.36 161.554 103.36C161.254 103.36 161.024 103.417 160.864 103.53C160.704 103.643 160.624 103.793 160.624 103.98C160.624 104.127 160.677 104.25 160.784 104.35C160.89 104.45 161.02 104.53 161.174 104.59C161.327 104.643 161.554 104.713 161.854 104.8C162.254 104.907 162.58 105.017 162.834 105.13C163.094 105.237 163.317 105.397 163.504 105.61C163.69 105.823 163.787 106.107 163.794 106.46C163.794 106.773 163.707 107.053 163.534 107.3C163.36 107.547 163.114 107.74 162.794 107.88C162.48 108.02 162.11 108.09 161.684 108.09ZM170.075 105.11C170.075 105.317 170.062 105.503 170.035 105.67H165.825C165.859 106.11 166.022 106.463 166.315 106.73C166.609 106.997 166.969 107.13 167.395 107.13C168.009 107.13 168.442 106.873 168.695 106.36H169.925C169.759 106.867 169.455 107.283 169.015 107.61C168.582 107.93 168.042 108.09 167.395 108.09C166.869 108.09 166.395 107.973 165.975 107.74C165.562 107.5 165.235 107.167 164.995 106.74C164.762 106.307 164.645 105.807 164.645 105.24C164.645 104.673 164.759 104.177 164.985 103.75C165.219 103.317 165.542 102.983 165.955 102.75C166.375 102.517 166.855 102.4 167.395 102.4C167.915 102.4 168.379 102.513 168.785 102.74C169.192 102.967 169.509 103.287 169.735 103.7C169.962 104.107 170.075 104.577 170.075 105.11ZM168.885 104.75C168.879 104.33 168.729 103.993 168.435 103.74C168.142 103.487 167.779 103.36 167.345 103.36C166.952 103.36 166.615 103.487 166.335 103.74C166.055 103.987 165.889 104.323 165.835 104.75H168.885ZM176.187 102.49V108H175.047V107.35C174.867 107.577 174.631 107.757 174.337 107.89C174.051 108.017 173.744 108.08 173.417 108.08C172.984 108.08 172.594 107.99 172.247 107.81C171.907 107.63 171.637 107.363 171.437 107.01C171.244 106.657 171.147 106.23 171.147 105.73V102.49H172.277V105.56C172.277 106.053 172.401 106.433 172.647 106.7C172.894 106.96 173.231 107.09 173.657 107.09C174.084 107.09 174.421 106.96 174.667 106.7C174.921 106.433 175.047 106.053 175.047 105.56V102.49H176.187ZM179.909 105.22C179.909 104.667 180.022 104.177 180.249 103.75C180.482 103.323 180.796 102.993 181.189 102.76C181.589 102.52 182.029 102.4 182.509 102.4C182.942 102.4 183.319 102.487 183.639 102.66C183.966 102.827 184.226 103.037 184.419 103.29V102.49H185.569V108H184.419V107.18C184.226 107.44 183.962 107.657 183.629 107.83C183.296 108.003 182.916 108.09 182.489 108.09C182.016 108.09 181.582 107.97 181.189 107.73C180.796 107.483 180.482 107.143 180.249 106.71C180.022 106.27 179.909 105.773 179.909 105.22ZM184.419 105.24C184.419 104.86 184.339 104.53 184.179 104.25C184.026 103.97 183.822 103.757 183.569 103.61C183.316 103.463 183.042 103.39 182.749 103.39C182.456 103.39 182.182 103.463 181.929 103.61C181.676 103.75 181.469 103.96 181.309 104.24C181.156 104.513 181.079 104.84 181.079 105.22C181.079 105.6 181.156 105.933 181.309 106.22C181.469 106.507 181.676 106.727 181.929 106.88C182.189 107.027 182.462 107.1 182.749 107.1C183.042 107.1 183.316 107.027 183.569 106.88C183.822 106.733 184.026 106.52 184.179 106.24C184.339 105.953 184.419 105.62 184.419 105.24ZM188.206 103.29C188.373 103.01 188.593 102.793 188.866 102.64C189.146 102.48 189.476 102.4 189.856 102.4V103.58H189.566C189.12 103.58 188.78 103.693 188.546 103.92C188.32 104.147 188.206 104.54 188.206 105.1V108H187.066V102.49H188.206V103.29ZM192.234 103.42V106.47C192.234 106.677 192.281 106.827 192.374 106.92C192.474 107.007 192.641 107.05 192.874 107.05H193.574V108H192.674C192.161 108 191.768 107.88 191.494 107.64C191.221 107.4 191.084 107.01 191.084 106.47V103.42H190.434V102.49H191.084V101.12H192.234V102.49H193.574V103.42H192.234ZM195.205 101.76C194.998 101.76 194.825 101.69 194.685 101.55C194.545 101.41 194.475 101.237 194.475 101.03C194.475 100.823 194.545 100.65 194.685 100.51C194.825 100.37 194.998 100.3 195.205 100.3C195.405 100.3 195.575 100.37 195.715 100.51C195.855 100.65 195.925 100.823 195.925 101.03C195.925 101.237 195.855 101.41 195.715 101.55C195.575 101.69 195.405 101.76 195.205 101.76ZM195.765 102.49V108H194.625V102.49H195.765ZM199.262 108.09C198.828 108.09 198.438 108.013 198.092 107.86C197.752 107.7 197.482 107.487 197.282 107.22C197.082 106.947 196.975 106.643 196.962 106.31H198.142C198.162 106.543 198.272 106.74 198.472 106.9C198.678 107.053 198.935 107.13 199.242 107.13C199.562 107.13 199.808 107.07 199.982 106.95C200.162 106.823 200.252 106.663 200.252 106.47C200.252 106.263 200.152 106.11 199.952 106.01C199.758 105.91 199.448 105.8 199.022 105.68C198.608 105.567 198.272 105.457 198.012 105.35C197.752 105.243 197.525 105.08 197.332 104.86C197.145 104.64 197.052 104.35 197.052 103.99C197.052 103.697 197.138 103.43 197.312 103.19C197.485 102.943 197.732 102.75 198.052 102.61C198.378 102.47 198.752 102.4 199.172 102.4C199.798 102.4 200.302 102.56 200.682 102.88C201.068 103.193 201.275 103.623 201.302 104.17H200.162C200.142 103.923 200.042 103.727 199.862 103.58C199.682 103.433 199.438 103.36 199.132 103.36C198.832 103.36 198.602 103.417 198.442 103.53C198.282 103.643 198.202 103.793 198.202 103.98C198.202 104.127 198.255 104.25 198.362 104.35C198.468 104.45 198.598 104.53 198.752 104.59C198.905 104.643 199.132 104.713 199.432 104.8C199.832 104.907 200.158 105.017 200.412 105.13C200.672 105.237 200.895 105.397 201.082 105.61C201.268 105.823 201.365 106.107 201.372 106.46C201.372 106.773 201.285 107.053 201.112 107.3C200.938 107.547 200.692 107.74 200.372 107.88C200.058 108.02 199.688 108.09 199.262 108.09ZM203.934 103.42V106.47C203.934 106.677 203.98 106.827 204.074 106.92C204.174 107.007 204.34 107.05 204.574 107.05H205.274V108H204.374C203.86 108 203.467 107.88 203.194 107.64C202.92 107.4 202.784 107.01 202.784 106.47V103.42H202.134V102.49H202.784V101.12H203.934V102.49H205.274V103.42H203.934ZM205.944 105.22C205.944 104.667 206.058 104.177 206.284 103.75C206.518 103.323 206.831 102.993 207.224 102.76C207.624 102.52 208.064 102.4 208.544 102.4C208.978 102.4 209.354 102.487 209.674 102.66C210.001 102.827 210.261 103.037 210.454 103.29V102.49H211.604V108H210.454V107.18C210.261 107.44 209.998 107.657 209.664 107.83C209.331 108.003 208.951 108.09 208.524 108.09C208.051 108.09 207.618 107.97 207.224 107.73C206.831 107.483 206.518 107.143 206.284 106.71C206.058 106.27 205.944 105.773 205.944 105.22ZM210.454 105.24C210.454 104.86 210.374 104.53 210.214 104.25C210.061 103.97 209.858 103.757 209.604 103.61C209.351 103.463 209.078 103.39 208.784 103.39C208.491 103.39 208.218 103.463 207.964 103.61C207.711 103.75 207.504 103.96 207.344 104.24C207.191 104.513 207.114 104.84 207.114 105.22C207.114 105.6 207.191 105.933 207.344 106.22C207.504 106.507 207.711 106.727 207.964 106.88C208.224 107.027 208.498 107.1 208.784 107.1C209.078 107.1 209.351 107.027 209.604 106.88C209.858 106.733 210.061 106.52 210.214 106.24C210.374 105.953 210.454 105.62 210.454 105.24ZM218.009 103.42H216.989V108H215.839V103.42H215.189V102.49H215.839V102.1C215.839 101.467 216.006 101.007 216.339 100.72C216.679 100.427 217.209 100.28 217.929 100.28V101.23C217.583 101.23 217.339 101.297 217.199 101.43C217.059 101.557 216.989 101.78 216.989 102.1V102.49H218.009V103.42ZM218.64 105.22C218.64 104.667 218.753 104.177 218.98 103.75C219.213 103.323 219.526 102.993 219.92 102.76C220.32 102.52 220.76 102.4 221.24 102.4C221.673 102.4 222.05 102.487 222.37 102.66C222.696 102.827 222.956 103.037 223.15 103.29V102.49H224.3V108H223.15V107.18C222.956 107.44 222.693 107.657 222.36 107.83C222.026 108.003 221.646 108.09 221.22 108.09C220.746 108.09 220.313 107.97 219.92 107.73C219.526 107.483 219.213 107.143 218.98 106.71C218.753 106.27 218.64 105.773 218.64 105.22ZM223.15 105.24C223.15 104.86 223.07 104.53 222.91 104.25C222.756 103.97 222.553 103.757 222.3 103.61C222.046 103.463 221.773 103.39 221.48 103.39C221.186 103.39 220.913 103.463 220.66 103.61C220.406 103.75 220.2 103.96 220.04 104.24C219.886 104.513 219.81 104.84 219.81 105.22C219.81 105.6 219.886 105.933 220.04 106.22C220.2 106.507 220.406 106.727 220.66 106.88C220.92 107.027 221.193 107.1 221.48 107.1C221.773 107.1 222.046 107.027 222.3 106.88C222.553 106.733 222.756 106.52 222.91 106.24C223.07 105.953 223.15 105.62 223.15 105.24ZM227.927 106.98L229.487 102.49H230.697L228.597 108H227.237L225.147 102.49H226.367L227.927 106.98ZM233.949 108.09C233.429 108.09 232.959 107.973 232.539 107.74C232.119 107.5 231.789 107.167 231.549 106.74C231.309 106.307 231.189 105.807 231.189 105.24C231.189 104.68 231.312 104.183 231.559 103.75C231.805 103.317 232.142 102.983 232.569 102.75C232.995 102.517 233.472 102.4 233.999 102.4C234.525 102.4 235.002 102.517 235.429 102.75C235.855 102.983 236.192 103.317 236.439 103.75C236.685 104.183 236.809 104.68 236.809 105.24C236.809 105.8 236.682 106.297 236.429 106.73C236.175 107.163 235.829 107.5 235.389 107.74C234.955 107.973 234.475 108.09 233.949 108.09ZM233.949 107.1C234.242 107.1 234.515 107.03 234.769 106.89C235.029 106.75 235.239 106.54 235.399 106.26C235.559 105.98 235.639 105.64 235.639 105.24C235.639 104.84 235.562 104.503 235.409 104.23C235.255 103.95 235.052 103.74 234.799 103.6C234.545 103.46 234.272 103.39 233.979 103.39C233.685 103.39 233.412 103.46 233.159 103.6C232.912 103.74 232.715 103.95 232.569 104.23C232.422 104.503 232.349 104.84 232.349 105.24C232.349 105.833 232.499 106.293 232.799 106.62C233.105 106.94 233.489 107.1 233.949 107.1ZM239.076 103.29C239.242 103.01 239.462 102.793 239.736 102.64C240.016 102.48 240.346 102.4 240.726 102.4V103.58H240.436C239.989 103.58 239.649 103.693 239.416 103.92C239.189 104.147 239.076 104.54 239.076 105.1V108H237.936V102.49H239.076V103.29ZM242.353 101.76C242.147 101.76 241.973 101.69 241.833 101.55C241.693 101.41 241.623 101.237 241.623 101.03C241.623 100.823 241.693 100.65 241.833 100.51C241.973 100.37 242.147 100.3 242.353 100.3C242.553 100.3 242.723 100.37 242.863 100.51C243.003 100.65 243.073 100.823 243.073 101.03C243.073 101.237 243.003 101.41 242.863 101.55C242.723 101.69 242.553 101.76 242.353 101.76ZM242.913 102.49V108H241.773V102.49H242.913ZM245.74 103.42V106.47C245.74 106.677 245.787 106.827 245.88 106.92C245.98 107.007 246.147 107.05 246.38 107.05H247.08V108H246.18C245.667 108 245.273 107.88 245 107.64C244.727 107.4 244.59 107.01 244.59 106.47V103.42H243.94V102.49H244.59V101.12H245.74V102.49H247.08V103.42H245.74ZM250.521 108.09C250.001 108.09 249.531 107.973 249.111 107.74C248.691 107.5 248.361 107.167 248.121 106.74C247.881 106.307 247.761 105.807 247.761 105.24C247.761 104.68 247.884 104.183 248.131 103.75C248.378 103.317 248.714 102.983 249.141 102.75C249.568 102.517 250.044 102.4 250.571 102.4C251.098 102.4 251.574 102.517 252.001 102.75C252.428 102.983 252.764 103.317 253.011 103.75C253.258 104.183 253.381 104.68 253.381 105.24C253.381 105.8 253.254 106.297 253.001 106.73C252.748 107.163 252.401 107.5 251.961 107.74C251.528 107.973 251.048 108.09 250.521 108.09ZM250.521 107.1C250.814 107.1 251.088 107.03 251.341 106.89C251.601 106.75 251.811 106.54 251.971 106.26C252.131 105.98 252.211 105.64 252.211 105.24C252.211 104.84 252.134 104.503 251.981 104.23C251.828 103.95 251.624 103.74 251.371 103.6C251.118 103.46 250.844 103.39 250.551 103.39C250.258 103.39 249.984 103.46 249.731 103.6C249.484 103.74 249.288 103.95 249.141 104.23C248.994 104.503 248.921 104.84 248.921 105.24C248.921 105.833 249.071 106.293 249.371 106.62C249.678 106.94 250.061 107.1 250.521 107.1Z" fill="#0E2F8C"/>
<path d="M71 207C71 201.477 75.4772 197 81 197H213C218.523 197 223 201.477 223 207V272H71V207Z" fill="#D9D9D9"/>
<path d="M257 207C257 201.477 261.477 197 267 197H394C399.523 197 404 201.477 404 207V272H257V207Z" fill="#D9D9D9"/>
<path d="M431 207C431 201.477 435.477 197 441 197H521C526.523 197 531 201.477 531 207V272H431V207Z" fill="#D9D9D9"/>
<defs>
<clipPath id="clip0_11_43">
<rect width="20" height="20" fill="white" transform="matrix(-1 0 0 1 101 95)"/>
</clipPath>
</defs>
</svg>
